<?xml version="1.0" encoding="UTF-8"?>
<svg width="40px" height="79px" viewBox="0 0 40 79" version="1.1" xmlns="http://www.w3.org/2000/svg" xmlns:xlink="http://www.w3.org/1999/xlink">
    <title>icon_persecution_denominational</title>
    <g id="Page-1" stroke="none" stroke-width="1" fill="none" fill-rule="evenodd">
        <g id="Apple-TV" transform="translate(-794, -292)" fill="#3D5039" fill-rule="nonzero">
            <g id="icon_persecution_denominational" transform="translate(794.9677, 292.7402)">
                <g id="icon_bwl_denominational_prot_text" transform="translate(0, 0)">
                    <path d="M22.0347561,31.536642 C22.220687,32.2061223 23.6743289,31.8840938 23.530655,30.9942782 L23.530655,6.88451213 C24.3673442,3.24050531 29.4550907,3.45236617 30.0466891,7.1472196 L30.1143003,42.5025602 C30.5706763,43.2059383 31.5256852,43.1974639 31.6693591,42.2906994 L31.6693591,29.4943033 C32.2947631,25.7740266 37.3994124,25.5028447 38.202296,29.2231214 L38.1431362,51.9176569 C36.8923281,55.0193 35.10063,57.9599287 33.1483551,60.6717478 C31.6186506,62.8073052 29.919918,65.1208259 27.6211355,66.4343632 C27.4183018,68.8326282 27.8408721,71.5359727 27.5873299,73.8918655 C27.401399,75.637599 25.9562085,77.586719 24.1391562,77.7901054 C19.2626949,78.3409436 13.3636134,77.3748581 8.3772838,77.7901054 C2.93457826,76.4680936 5.63902821,69.688546 4.91220729,65.8750505 C4.88685307,65.7309851 3.61069075,64.2225358 3.34869716,63.7649163 C1.32881109,60.2310772 0.331545171,53.6125438 0.154065642,49.5278664 C-0.336115913,38.5704226 0.534378918,27.265527 0.154065642,16.2741855 C0.458316263,12.8928862 5.39393744,12.8928862 5.74044509,16.6809584 L5.80805634,33.1044124 C6.17991821,33.7060973 7.04196163,33.7060973 7.10112147,32.9095004 L7.10112147,7.28281055 C7.07576726,2.82525802 13.1776825,2.30831752 13.7608295,6.74044675 L13.7608295,31.4095255 C13.7946351,32.3501877 14.7580954,32.6552674 15.3158882,31.8840938 L15.3834995,3.33372409 C15.1975685,-1.10687958 22.0516589,-1.07298184 22.0516589,3.20660757 L22.0516589,31.5451165 L22.0347561,31.536642 Z" id="Path-Copy-10"></path>
                </g>
            </g>
        </g>
    </g>
</svg>