<?xml version="1.0" encoding="UTF-8"?>
<svg width="80px" height="81px" viewBox="0 0 80 81" version="1.1" xmlns="http://www.w3.org/2000/svg" xmlns:xlink="http://www.w3.org/1999/xlink">
    <title>icon_persecution_communism</title>
    <g id="Page-1" stroke="none" stroke-width="1" fill="none" fill-rule="evenodd">
        <g id="Apple-TV" transform="translate(-327, -289)" fill="#3D5039" fill-rule="nonzero">
            <g id="icon_persecution_communism" transform="translate(327, 289)">
                <g id="Group" transform="translate(40, 40.1421) scale(-1, 1) rotate(-180) translate(-40, -40.1421)translate(0, 0)">
                    <path d="M39.9674133,80.2725223 C39.9881448,80.2517765 40.7413905,79.6501475 41.6535778,78.9447893 C47.2165387,74.5881655 52.2128377,70.1969654 55.046147,67.1680745 C58.8261962,63.1295534 61.1343066,59.9277807 63.048518,56.0483109 C63.9054213,54.319492 64.3131414,53.316777 64.8798033,51.587958 C67.0704351,44.8248182 67.7891281,39.1266309 67.0911666,33.9954962 C66.6143414,30.5378582 65.2667918,27.2046953 63.2143703,24.4316696 C62.9517709,24.0789906 62.7168135,23.788549 62.696082,23.788549 C62.6753504,23.788549 61.5558478,24.867332 60.2082982,26.1881497 C54.4518431,31.8379301 46.2559778,39.8942265 44.1137195,42.0103009 C42.0336559,44.0710531 30.6520453,55.2530542 28.7171024,57.1547551 L27.9362147,57.9223507 L30.755703,60.4395111 C36.3255743,65.4185097 38.4401905,67.3202106 38.419459,67.3340411 C38.4125485,67.3478717 37.2515827,67.6659744 35.8487491,68.0463146 C34.4459155,68.43357 32.1032525,69.0697754 30.6382243,69.4708614 C29.1731961,69.8719474 26.8927276,70.4943222 25.5728202,70.8539166 L23.1679625,71.5108678 L18.9041776,67.30638 C13.1339015,61.615108 5.55307155,54.0636268 5.55307155,54.0152198 C5.55307155,53.9668129 14.7371399,44.6519363 14.8131555,44.6173599 C14.8546185,44.6035294 17.5773596,47.4249619 21.3712298,51.4150761 C21.8826076,51.9475523 22.3110593,52.3832147 22.3387013,52.3832147 C22.3939854,52.3832147 23.3061727,51.4427372 31.9166687,42.5289466 C35.8349281,38.4765949 40.0779815,34.09231 41.3495154,32.7784076 C50.8514672,22.9656312 55.5782563,18.0765311 55.5920773,18.0142936 C55.6473614,17.8275812 52.4685266,16.6174079 50.9067513,16.2232372 C43.8718517,14.4460113 37.0649989,15.6700151 30.6727768,19.8745029 C28.5374291,21.2783039 26.2362292,23.1246825 24.8886796,24.5284835 C24.3496598,25.0817056 23.9212082,25.4136388 23.6516983,25.4827916 C23.5065775,25.517368 23.4029199,25.4205541 22.8500791,24.7774334 C22.497643,24.3694322 22.0069968,23.8300406 21.7582184,23.5810907 L21.3021247,23.1315978 L20.141159,23.110852 L18.9732827,23.0831909 L17.9505272,22.0113231 L16.9277717,20.9325401 L16.3334678,20.980947 C16.0086738,21.0016928 15.4489224,21.0431845 15.0826654,21.0639303 L14.4123459,21.1123372 L14.2257621,20.503793 C13.9977153,19.7500279 13.4448744,18.6574143 12.9058546,17.9036492 C12.3668348,17.1498842 11.0538378,15.8290665 9.9757982,14.9715723 C9.49897299,14.5912321 8.21361805,13.6230935 7.1148469,12.8278367 C6.01607575,12.0256647 4.74454184,11.0644414 4.28153764,10.6771859 C2.33277371,9.05209611 0.798640403,7.10198832 0.287262634,5.62211928 C-0.528177592,3.26401021 0.439293862,1.04420666 2.5953731,0.338848518 C2.99618271,0.207458276 3.24496108,0.172881897 3.82544395,0.172881897 C5.29738267,0.179797173 6.17501749,0.677697035 8.1099604,2.62088955 C9.32621023,3.83797811 9.58189911,4.1560808 11.841636,7.15731053 C14.156657,10.2346083 14.9306342,11.1889164 15.9464792,12.2123772 C16.9139506,13.1736005 17.812317,13.8927892 18.5517416,14.2800447 C19.0216563,14.5220793 19.9891278,14.7986904 20.3968479,14.7986904 C20.5212371,14.7986904 20.6387157,14.840182 20.6594473,14.8955042 C20.6939998,14.9784875 20.4452214,17.046155 20.3692058,17.295105 C20.3484743,17.3642577 20.5005055,17.5302243 20.7976575,17.7791743 C21.0533464,17.9866325 21.3504983,18.2286672 21.467977,18.3185658 L21.6683818,18.4845324 L23.1956046,16.9631717 C24.812664,15.3588277 25.5797307,14.6534696 26.7683385,13.6853309 C30.3203408,10.7878304 33.6995804,8.86538367 37.4934506,7.57914235 C39.3661989,6.94293697 40.6031803,6.65249539 43.1116955,6.25832466 C43.2291742,6.23757883 43.8511201,6.17534135 44.4937976,6.12001915 C48.750672,5.74659425 53.4359981,6.45886766 57.5892148,8.10470332 C59.1164376,8.7132476 60.8855283,9.62606401 62.1155991,10.4420666 L62.6269769,10.7739998 L65.3428075,7.9663978 C67.6509179,5.57371235 69.1850512,3.9831989 72.5159172,0.532476242 L73.0342055,0 L73.6561515,0.172881897 C77.1252277,1.1755969 78.7284661,2.69695759 79.7788637,6.00937473 L80,6.72164815 L79.350412,7.35785353 C78.64554,8.04246584 71.0854416,15.4625568 70.048865,16.4860177 L69.4130981,17.1153078 L69.8553707,17.696191 C71.9285239,20.379318 73.6976145,23.7747184 74.8654908,27.3084244 C75.6740205,29.7633473 76.1370247,31.9969815 76.5378343,35.4407888 C76.655313,36.4780802 76.6622235,40.8900262 76.5378343,41.7336899 C76.4894607,42.0794537 76.4134451,42.5773535 76.3788926,42.840134 C76.005725,45.4057014 74.9345959,48.655881 73.4142836,51.8299926 C70.0557755,58.8489977 64.1058261,65.7919346 56.725401,71.2964942 C51.8534912,74.9270141 46.4010985,77.9005827 40.7275694,80.0097418 C40.4442385,80.113471 40.1470866,80.2241154 40.071071,80.2517765 C39.9950553,80.2863529 39.9466818,80.2932681 39.9674133,80.2725223 Z" id="Path"></path>
                </g>
            </g>
        </g>
    </g>
</svg>