<?xml version="1.0" encoding="UTF-8"?>
<svg width="80px" height="79px" viewBox="0 0 80 79" version="1.1" xmlns="http://www.w3.org/2000/svg" xmlns:xlink="http://www.w3.org/1999/xlink">
    <title>icon_persecution_secular</title>
    <g id="Page-1" stroke="none" stroke-width="1" fill="none" fill-rule="evenodd">
        <g id="Apple-TV" transform="translate(-318, -104)">
            <g id="icon_persecution_secular" transform="translate(318.5715, 104.0875)">
                <g id="Group-3-Copy" transform="translate(0, 0)">
                    <path d="M13.0784763,22.8518156 C5.01847633,35.6573091 7.29847633,52.784782 19.0784763,62.9629933 C30.8584763,73.1412047 48.0984763,72.8604264 59.5284763,62.9629933 L13.0684763,22.8518156 L13.0784763,22.8518156 Z" id="Path" fill="#FFFFFF"></path>
                    <path d="M19.0784763,15.8624429 L65.5384763,55.9736206 C73.5984763,43.1681271 71.3184763,26.0406542 59.5384763,15.8624429 C47.7484763,5.68423153 30.5184763,5.96500978 19.0884763,15.8624429 L19.0784763,15.8624429 Z" id="Path" fill="#FFFFFF"></path>
                    <path d="M9.51847633,13.6964393 C-4.64152367,30.1921611 -2.79152367,55.0811469 13.6584763,69.2805038 C30.1084763,83.4798607 54.9284763,81.6247188 69.0884763,65.1289969 C83.2484763,48.6332751 81.3984763,23.7442893 64.9484763,9.54493239 C48.4984763,-4.65442452 23.6784763,-2.79928255 9.51847633,13.6964393 Z M19.0784763,62.9629933 C7.28847633,52.784782 5.00847633,35.6472813 13.0784763,22.8518156 L59.5384763,62.9629933 C48.1084763,72.8604264 30.8684763,73.1412047 19.0884763,62.9629933 L19.0784763,62.9629933 Z M65.5384763,55.9736206 L19.0784763,15.8624429 C30.5084763,5.96500978 47.7484763,5.68423153 59.5284763,15.8624429 C71.3184763,26.0406542 73.5984763,43.1781549 65.5284763,55.9736206 L65.5384763,55.9736206 Z" id="Shape" fill="#3D5039" fill-rule="nonzero"></path>
                </g>
            </g>
        </g>
    </g>
</svg>