<?xml version="1.0" encoding="UTF-8"?>
<svg width="84px" height="96px" viewBox="0 0 84 96" version="1.1" xmlns="http://www.w3.org/2000/svg" xmlns:xlink="http://www.w3.org/1999/xlink">
    <title>icon_persecution_islamic</title>
    <g id="Page-1" stroke="none" stroke-width="1" fill="none" fill-rule="evenodd">
        <g id="Apple-TV" transform="translate(-533, -86)" fill-rule="nonzero">
            <g id="Group-Copy-2" transform="translate(533.4656, 86.4716)">
                <polygon id="Path" fill="#FFFFFF" points="75.0143759 91.6712863 61.1843759 93.2550888 23.6643759 93.1654396 8.2043759 92.896492 8.2043759 69.2988307 24.5743759 65.7626678 40.9143759 53.4807276 49.5443759 57.3057601 57.3443759 68.6214812 70.2143759 68.8904288 75.0143759 71.0918146"></polygon>
                <path d="M1.1443759,94.6097878 C0.404375896,94.3109571 -0.145624104,93.8726722 0.0343758963,92.9861412 C0.114375896,92.5976613 0.654375896,92.2091815 1.0243759,92.2091815 L5.3243759,92.2091815 L5.2443759,63.8700736 C4.7443759,63.9398008 4.2443759,63.8003465 3.7643759,63.7903854 C3.0143759,63.7704634 1.7443759,63.9497618 1.0843759,63.7405803 C0.254375896,63.4815938 0.0443758963,62.1468168 0.854375896,61.6985708 C1.5743759,61.2901689 2.3743759,61.5491555 3.1143759,61.5591165 C9.5243759,61.6288437 15.9443759,61.5093114 22.3543759,61.5391945 L22.3543759,48.1017757 C22.3543759,48.1017757 19.9143759,48.1017757 19.9143759,48.1017757 C19.8943759,48.1017757 19.5743759,47.9025552 19.5143759,47.8627111 C18.5243759,47.1255955 19.2743759,45.9003898 20.3143759,45.7808575 L63.5243759,45.8007796 C64.7443759,46.2888696 64.7343759,47.6037246 63.4043759,47.9722824 C62.5943759,48.2013859 61.8243759,48.0519706 61.0043759,48.0220875 L61.0843759,61.5491555 C67.4143759,61.4993504 73.7543759,61.6089216 80.0943759,61.5491555 C80.3243759,61.5491555 80.5243759,61.4694673 80.7343759,61.4595063 C81.8743759,61.4395842 83.3643759,61.4196622 83.1043759,63.0233867 C83.0343759,63.4417497 82.4243759,63.8700736 82.0243759,63.8700736 L78.2443759,63.8700736 L78.1243759,92.2091815 L82.2643759,92.2091815 C82.3843759,92.2091815 82.9743759,92.458207 83.0843759,92.5578172 C83.7843759,93.2351667 83.2943759,94.2312689 82.5443759,94.6097878 L1.1443759,94.6097878 L1.1443759,94.6097878 Z M53.8643759,92.3685578 L53.8643759,73.6019922 C53.8643759,73.074058 53.5343759,72.0879168 53.3143759,71.5898657 C51.2943759,66.8583803 44.0443759,65.1650065 43.0343759,60.2940667 C42.8343759,59.3477696 43.0043759,58.0727588 41.5343759,58.2819402 C40.4043759,58.4413166 40.5343759,59.965353 40.3343759,60.7721958 C39.3843759,64.6968385 33.2743759,66.8384582 30.9343759,70.1455175 C29.6843759,71.9086184 29.6843759,73.064097 29.6743759,75.1260286 C29.6243759,80.8735383 29.7043759,86.6310091 29.6743759,92.3785188 L32.2043759,92.3785188 C32.2043759,92.3785188 32.3243759,92.2689476 32.3243759,92.2589866 L32.3243759,73.532265 C32.3243759,72.5660459 33.8243759,70.7730619 34.5843759,70.1754006 C37.0243759,68.2628844 40.1243759,66.8484192 41.6443759,63.9597228 L41.8443759,64.039411 C43.4943759,67.7150282 50.2443759,69.458207 51.0943759,73.3928107 C51.1843759,79.1901256 51.3743759,85.0870507 51.2143759,90.8943265 C51.2043759,91.3724556 51.0643759,91.8705067 51.1343759,92.3685578 L53.8643759,92.3685578 L53.8643759,92.3685578 Z M21.3943759,85.8042443 L21.3943759,78.0844521 C21.3943759,77.9449978 21.2343759,77.3572975 21.1743759,77.1779991 C20.5343759,75.0662625 18.3643759,73.4525769 16.5943759,72.2970983 C16.3043759,72.2472932 13.5843759,74.5383283 13.2343759,74.9168471 C12.8043759,75.3850152 11.6643759,76.9190126 11.6643759,77.5166739 L11.6643759,85.8042443 L21.3843759,85.8042443 L21.3943759,85.8042443 Z M62.1443759,85.8042443 L71.6643759,85.8042443 C71.7543759,85.8042443 71.7843759,85.6050238 71.7843759,85.5253356 C71.9243759,84.3100909 71.7643759,82.5669121 71.7843759,81.2719792 C71.7843759,80.1065396 71.9643759,79.0506713 71.7643759,77.8553486 C71.3543759,75.3949762 69.1443759,73.3728887 67.0143759,72.2871373 C64.8243759,73.8012126 62.0943759,75.7934171 62.0943759,78.7319186 L62.1443759,85.8042443 L62.1443759,85.8042443 Z" id="Shape" fill="#3D5039"></path>
                <path d="M41.9743759,0 C42.0143759,0.18925942 41.8743759,0.169337375 41.7643759,0.229103508 C38.9943759,1.65352967 37.0443759,3.62581204 36.8243759,6.92291035 C36.2943759,15.0112603 46.6443759,18.5573841 51.2743759,11.8735383 C51.4043759,11.6842789 51.7243759,10.9870074 51.8543759,10.9272412 C51.9343759,10.8873971 52.0143759,10.9770463 52.0143759,11.0069294 C52.0343759,11.1264617 51.7743759,12.2520572 51.7143759,12.4711997 C50.4943759,17.0632308 47.1243759,19.0952793 42.6743759,19.7925509 C42.5743759,19.8124729 42.3143759,19.822434 42.3743759,19.9718493 C44.0843759,22.4720658 46.3143759,24.4244262 48.7743759,26.157644 C51.8543759,28.3291468 56.4943759,30.4508445 58.1343759,33.9670853 C59.3243759,36.517107 59.1543759,39.0970117 57.8443759,41.5474231 C57.4543759,42.2745777 57.0143759,43.2507579 56.0743759,43.2208748 C46.7043759,43.3702902 37.3243759,42.9917713 27.9443759,43.1411867 C27.5243759,43.1411867 27.0543759,43.3802512 26.6643759,43.0614985 C26.4243759,42.862278 25.6643759,41.6171503 25.4843759,41.2784755 C23.1643759,36.985275 25.0443759,32.9510611 28.5943759,30.1818969 C32.2943759,27.2932005 36.5543759,25.4802945 39.6843759,21.7747943 C40.0243759,21.3763534 40.8743759,20.3404071 41.0043759,19.8822001 C41.0443759,19.7228237 40.9843759,19.7925509 40.9043759,19.7626678 C40.6743759,19.6829796 40.4343759,19.7029017 40.2043759,19.6530966 C29.8043759,17.2823733 29.3643759,3.49631875 39.3243759,0.358596795 L40.9343759,0 L41.9743759,0 L41.9743759,0 Z" id="Path" fill="#3D5039"></path>
            </g>
        </g>
    </g>
</svg>