<?xml version="1.0" encoding="UTF-8"?>
<svg width="70px" height="66px" viewBox="0 0 70 66" version="1.1" xmlns="http://www.w3.org/2000/svg" xmlns:xlink="http://www.w3.org/1999/xlink">
    <title>icon_persecution_organized</title>
    <g id="Page-1" stroke="none" stroke-width="1" fill="none" fill-rule="evenodd">
        <g id="Apple-TV" transform="translate(-535, -303)" fill="#3D5039" fill-rule="nonzero">
            <g id="icon_persecution_organized" transform="translate(535.2915, 303.8395)">
                <g id="icon_bwl_crime_text" transform="translate(-0, 0)">
                    <path d="M7.29398633,0.385152787 C7.8871707,0.705364075 8.29443162,1.88836689 9.13551394,2.00399874 L63.8678395,17.2318245 C64.8063103,17.4986672 64.7354823,15.6841366 65.7801951,16.0132426 C66.8249079,16.3423487 66.311405,17.7032466 66.7363729,17.9967737 C67.6571367,18.6283015 69.7642693,18.0768265 69.4721038,19.9980942 C69.1268174,22.2662575 67.7456717,24.9969482 67.4889202,27.2206377 C67.4003853,28.0122712 68.0998116,28.901747 67.7191112,29.6489066 C66.9222964,31.2232788 65.4614692,30.369382 64.1245909,30.4672244 C59.9723003,30.7518566 59.6093069,35.5105522 60.1228098,38.7838231 C61.1763761,45.4282074 63.1152922,52.1437497 64.2131259,58.8059234 C64.2751004,59.8377153 64.2042724,61.0207182 63.3100691,61.7056145 C62.6903242,62.1859315 59.8306443,62.3994057 59.3614089,62.8352488 C58.8921735,63.2710919 59.4145299,63.6090927 59.4322369,63.9381988 C59.4499439,64.3651472 59.219753,65.0500435 58.7239571,65.0589383 L42.5397625,62.1859315 C42.300718,61.5544036 42.9735839,61.0918762 42.9558769,60.4959274 C42.9558769,60.1935057 42.40696,59.739873 42.2387435,59.3751879 C41.8668966,58.5835545 42.0174061,58.01429 42.265304,57.204867 C41.5924382,51.5655904 41.0700818,45.7751029 40.060783,40.1714054 C39.7154965,38.2590324 39.3613566,36.3110804 37.0594471,36.0531324 C36.1121228,35.9463953 35.102824,36.9603977 34.0226972,36.4978703 C29.3214897,34.8790244 23.9474163,34.0962857 19.3170368,32.4062816 C16.5193314,31.3922792 18.7592664,30.9831203 19.3258903,29.7200647 C19.7597117,28.7594308 20.7158895,25.6996341 20.8929595,24.6500526 C21.0965899,23.4759446 20.795571,21.9727305 20.2643611,20.9498333 L0.211187808,14.8391346 C-0.426264059,13.9585535 0.574181232,12.321918 0.662716213,11.2723366 C0.698130206,10.8187039 0.361697276,10.8364935 0.405964767,10.5340717 C0.591888228,9.28880556 1.08768412,9.40443741 1.36214257,8.84406766 C1.45067755,8.6661725 1.84023147,7.33195879 1.80481747,7.26080073 C1.75169649,7.17185315 1.07883063,7.15406363 0.928321158,6.99395799 C0.706983704,6.75379952 1.98188744,2.15520963 2.28290637,2.06626205 C2.49539033,2.00399874 3.07972121,2.34199955 3.16825619,2.288631 C3.25679117,2.23526245 3.37188665,0.963312057 3.79685456,0.714258833 C4.25723646,0.447416093 5.64723567,1.13231246 5.76233115,1.0611544 C5.84201263,1.01668061 5.9748151,0.0471519821 6.05449659,0.00267819202 C6.10761757,-0.03290084 7.12576986,0.296205206 7.28513283,0.385152787 L7.29398633,0.385152787 Z M38.4937138,31.6502272 C38.5733953,31.3567002 38.9629492,27.869955 38.1041599,28.3769563 C37.608364,30.2003816 36.4131417,31.7391748 34.6867096,32.5219135 C34.3148627,32.6909139 32.56187,33.3224417 32.3316791,32.9310724 C32.685819,32.0327018 33.6597038,31.5523849 34.1820602,30.7251724 C35.3595755,28.8483796 34.8814866,26.1977405 33.7482388,24.4365785 C31.4994503,23.8851035 29.1444198,22.9422591 26.8867777,22.4886264 C24.1599003,21.9371515 23.3630855,23.0312067 22.6105381,25.4327914 C22.0262072,27.282901 20.866399,30.5028034 22.982385,31.7124905 L34.2794487,34.9146034 C35.24448,35.0480248 35.8996388,34.5766026 36.6256257,34.0251276 C37.3161985,33.5092316 38.2546694,32.5308082 38.5025673,31.6413324 L38.4937138,31.6502272 Z" id="Shape-Copy-3"></path>
                </g>
            </g>
        </g>
    </g>
</svg>