<?xml version="1.0" encoding="UTF-8"?>
<svg width="62px" height="86px" viewBox="0 0 62 86" version="1.1" xmlns="http://www.w3.org/2000/svg" xmlns:xlink="http://www.w3.org/1999/xlink">
    <title>icon_persecution_dictator</title>
    <g id="Page-1" stroke="none" stroke-width="1" fill="none" fill-rule="evenodd">
        <g id="Apple-TV" transform="translate(-110, -99)" fill="#3D5039" fill-rule="nonzero">
            <g id="icon_persecution_dictator" transform="translate(110.8554, 99.14)">
                <g id="icon_bwl_dictator_paranoia_text" transform="translate(0, -0)">
                    <path d="M48.3044932,62.7052276 C48.2529818,62.7223953 48.1757147,62.8425696 48.1928851,62.9026568 C48.6049763,64.5250097 48.6822434,66.1988659 48.8281924,67.8641382 C49.034238,70.2590401 49.1716017,72.6453581 49.2832097,75.04026 C49.3261359,76.0016544 49.4205735,76.937297 49.3690621,77.8986914 C49.3261359,78.765663 49.1115051,79.6412186 49.0514084,80.4910225 C49.034238,80.6798678 49.1544312,80.9631357 49.0514084,81.08331 C48.9913118,81.1605649 48.7852662,81.1433972 48.776681,81.3064909 C48.7680957,81.5296717 49.1372608,82.1047915 49.2402836,82.3451401 C49.4892553,82.9631793 49.3776473,83.0919374 49.4119882,83.6756411 C49.4119882,83.7700638 49.4978406,83.9503252 49.4892553,83.967493 C49.4634996,84.0189962 48.5792206,84.5168612 48.5105388,84.5340289 C48.3474193,84.5769483 48.1413737,84.5168612 48.0125952,84.5769483 C47.8237201,84.6627871 47.4202141,85.2379069 47.3000209,85.2722424 C47.1626571,85.3151618 46.9651968,85.2636585 46.8106626,85.2808263 C46.6561284,85.297994 46.5531056,85.4010006 46.3556452,85.4181683 C45.4885367,85.4954232 44.4754792,85.3752489 43.6083706,85.3924167 C43.4795921,85.3151618 43.513933,85.1434842 43.4624216,85.0404777 C43.3851545,84.8945518 43.2821317,84.8859679 43.2477908,84.6627871 C43.2134499,84.4396063 43.1705237,82.8000856 43.2048646,82.628408 C43.2392056,82.491066 43.4366659,82.2507174 43.4624216,82.1133754 C43.4795921,82.0189527 43.4795921,81.7099331 43.4624216,81.6155105 C43.4366659,81.50392 43.2821317,81.4094974 43.2134499,81.2721553 C43.1190123,81.08331 42.8614553,80.1820029 42.8356996,79.9674059 C42.8099439,79.7356412 42.887211,79.5725475 42.8614553,79.3493667 C42.7841882,78.4995628 42.3120004,77.2549005 42.148881,76.3364256 C41.6766931,73.6410879 41.2989429,70.9114148 40.7580732,68.224661 C40.6292947,67.5722863 40.3717377,67.0057504 40.1914478,66.3791273 C40.0111579,65.7525042 39.7450157,63.9756415 39.427362,63.5550315 C39.2728278,63.3490184 39.2642426,63.4606088 39.0667823,63.4606088 C38.4572307,63.4606088 38.0193838,63.4262733 37.4355879,63.3661862 C37.3153947,63.3576023 36.8517921,63.3747701 36.774525,63.4348572 C36.628576,63.5378637 36.6972579,64.8082777 36.6886727,65.0743779 C36.5427237,68.7396937 36.3967747,72.4050095 36.1392177,76.0703254 C36.0705359,77.1003907 35.8988312,78.1218722 35.8644903,79.1605214 C35.855905,79.4781249 35.9589278,79.752809 35.9589278,79.9759898 C35.9589278,80.2678416 35.8816607,81.014639 35.8129789,81.2893231 C35.7872232,81.4094974 35.6584447,81.4610007 35.6412742,81.5725911 C35.6155185,81.7099331 35.6842004,81.8386913 35.6927856,81.9760333 C35.6927856,82.2335497 35.7099561,83.1434407 35.5468366,83.3065344 C35.4266434,83.4181248 33.7611081,83.3494538 33.4434545,83.3580377 C30.919396,83.4438764 28.3867522,83.5726346 25.8541084,83.6327217 C25.399091,83.6413056 24.8925623,83.6756411 24.4461301,83.6756411 C24.2486698,83.6756411 23.999698,83.5898024 23.7764819,83.615554 C23.5961921,83.6241379 23.4588283,83.0747697 23.4674136,82.9717632 C23.484584,82.8773405 23.6477035,82.6884952 23.7078001,82.5683209 C23.7507262,82.4738982 23.7249706,82.3279723 23.8108229,82.2593013 C24.1799879,82.1648786 24.4976415,81.8987784 24.8753918,81.8215235 C25.4849434,81.6927654 26.0515687,81.7957719 26.6782908,81.5811749 C26.9530182,81.4867523 27.8544677,81.0232229 28.0004167,80.8086259 C28.2408032,80.2935933 28.3609965,79.6669702 28.5756273,79.1605214 C28.6528944,78.98026 28.7988434,78.8429179 28.8761105,78.6369048 C29.0735708,78.1390399 29.1422527,77.3664909 29.0821561,76.868626 C29.004889,76.2420029 28.9362071,75.5982121 28.9362071,74.971589 C28.9362071,74.61965 29.0306447,74.2934627 29.0306447,73.9672753 C29.0306447,72.722613 28.9276219,71.4693669 28.8503548,70.2418723 C28.7044058,68.0100641 28.601383,65.8297591 28.3008998,63.6151186 C28.2579737,63.306099 28.2150475,62.6451404 28.1120247,62.396208 C28.086269,62.3361208 27.974661,62.2073627 27.9145643,62.1901949 C27.6140812,62.1730272 27.2878423,62.1386916 27.0045296,62.0614367 C26.686876,61.9670141 26.4379042,61.7695849 26.1460063,61.6494106 C25.5965514,61.4176459 24.1971584,61.1172102 23.6047773,61.1000424 C23.0982485,61.0828747 23.1841009,61.1257941 22.6689869,60.988452 C22.2826514,60.8854455 21.8791454,60.919781 21.4842247,60.8596938 C20.5312638,60.7223518 19.6126439,60.4476677 18.6940239,60.1987353 C18.1617394,60.0528093 17.4577503,59.9412189 16.968392,59.7008703 C16.8396135,59.6407832 16.8224431,59.5206089 16.8138578,59.3918507 C16.9598068,58.7223083 17.0628296,58.035598 17.1916081,57.3574717 C17.5607731,55.4947702 17.9900348,53.6320687 18.2905179,51.7779511 C18.7197796,49.116949 19.1490413,46.4559468 19.6040586,43.777777 C19.9646384,41.7090624 20.4711672,39.6746834 20.8403322,37.6059688 C20.9519402,36.9793457 21.200912,35.9406965 21.2180825,35.3484089 C21.2180825,35.1423959 21.1150597,35.0136377 21.1322301,34.8162085 C21.1837415,33.9492368 21.7761226,32.4127227 21.9993387,31.5028317 C22.488697,29.511372 22.8836177,27.5027446 23.372976,25.5112849 C23.7163853,24.0949451 24.1284765,22.7043569 24.4461301,21.2794332 C24.4203744,21.1850105 24.0941356,21.0562523 23.9825275,21.0133329 C22.4114299,20.309455 20.7029685,19.8030062 19.1061151,19.0733765 C14.7705723,17.1076685 10.967314,14.1376468 6.99235107,11.5624834 C6.27977672,11.098954 6.52874848,10.7899344 6.46006662,10.0946403 C6.44289615,9.88862727 6.33128812,9.70836583 6.32270289,9.50235276 C6.30553242,9.15041377 6.49440755,8.69546825 6.59743035,8.36069701 C6.59743035,8.31777762 6.59743035,8.28344211 6.57167465,8.2491066 C6.52016325,8.15468394 5.85910029,7.93150312 5.69598086,7.84566434 C4.69150858,7.33921555 3.48957594,6.18039204 2.65680832,5.3820914 C2.15027956,4.90139424 1.540728,4.3777777 1.29175624,3.74257074 C1.15439251,3.38204787 0.34738059,3.15028317 0.278698725,2.66100213 C0.261528258,2.55799559 0.330210124,2.48074069 0.295869191,2.37773416 C0.227187326,2.15455334 -0.1934891,2.01721129 0.106994061,1.65668842 C0.364551056,1.3562527 0.647863752,1.57943352 0.810983182,1.49359474 C0.922591213,1.4335076 0.896835514,1.17599126 1.09429588,1.09873636 C1.48063137,0.935642684 2.02150106,1.22749453 2.38208085,1.37342045 C3.26635987,1.73394332 4.09054226,2.2060566 5.00916221,2.51507621 C5.12935547,2.55799559 5.82475936,2.79834417 5.86768553,2.78117642 C5.90202646,2.78117642 5.93636739,2.7125054 5.93636739,2.66958601 C5.93636739,2.54082784 5.40408294,1.81119822 5.30964537,1.61376903 C5.07784407,1.15882351 4.71726428,0 5.5500319,0 C5.74749226,0 5.79900366,0.0257516335 5.93636739,0.163093679 C6.33128812,0.557952059 6.74337931,1.42492372 7.10395911,1.90562088 C7.65341403,2.6352505 8.32306222,3.31337684 8.70939771,4.16318075 C8.79525004,4.36060994 9.01846611,5.21041385 9.11290367,5.27050099 C9.16441507,5.3048365 9.28460833,5.31342038 9.37046067,5.36492365 C11.1733596,6.47224389 12.8904063,7.7083223 14.7877428,8.66971661 C15.4058796,8.97873622 16.0583573,9.22766867 16.6679089,9.56243991 C17.002733,9.74270134 17.3289718,10.0088016 17.6466255,10.1718952 C17.8955972,10.3006534 18.1789099,10.3435728 18.4192964,10.4894987 C18.8485581,10.7384312 19.432354,11.3736381 19.8702009,11.5367318 C20.0504907,11.6054028 20.1792692,11.5624834 20.3423887,11.6054028 C20.4797524,11.6397383 20.6257014,11.7856643 20.7458946,11.8371675 C21.458469,12.1290194 22.2912366,12.5410455 22.96947,12.789978 C23.4502431,12.9616555 24.0168685,13.0732459 24.514812,13.2449235 C24.6178348,13.279259 24.7380281,13.3994333 24.8152952,13.4080172 C24.8925623,13.4080172 25.2102159,13.210588 25.4076763,13.1848364 C25.7253299,13.1505008 25.914205,13.279259 26.1288358,13.2706751 C26.3091257,13.2706751 26.5924384,13.0389104 26.8242397,13.0045749 C27.3307685,12.92732 27.6054959,13.0732459 28.0433428,13.1247492 C28.6872353,13.2020041 29.3311278,13.1676686 29.9836055,13.2706751 C30.3441853,13.3307623 30.8507141,13.5281915 31.176953,13.5367753 C31.6062146,13.5453592 32.0526467,13.5110237 32.4904936,13.5367753 C32.8081473,13.5539431 33.1601418,13.6827013 33.4863807,13.6226141 C33.7439377,13.5796947 34.1045175,12.8328974 34.3277335,12.6011327 C34.5251939,12.3951196 34.7999214,12.2835292 35.005967,12.0946839 C34.6196315,11.4251414 34.0959322,10.8586055 33.8898866,10.0860565 C33.7267672,9.50235276 33.7095967,7.81132883 33.8727162,7.22762514 C34.0530061,6.54949879 34.2075403,6.1203049 34.2418812,5.37350752 C34.2504664,5.10740731 34.0701765,5.00440078 34.3792449,4.73830056 C34.6196315,4.52370362 34.6539724,4.58379076 34.8428475,4.24901953 C35.0317227,3.91424829 35.0231374,3.64814808 35.1605012,3.33912848 C35.2377683,3.15886704 35.6069333,2.6352505 35.744297,2.47215682 C36.1306325,2.01721129 36.6543317,1.83694986 37.2295423,1.69102393 C38.1825032,1.45067535 40.0111579,1.42492372 40.9211926,1.83694986 C41.6595227,2.17172109 43.1275975,3.37346399 43.4624216,4.11167748 C44.0805584,5.50226569 42.9902338,7.92291924 42.7069211,9.39076235 C42.6554097,9.66544644 42.6897507,9.93154666 42.6038983,10.2405663 C42.4922903,10.6525924 42.2089776,11.030283 42.0887843,11.3993898 C41.9084944,11.9315902 42.2261481,11.7770804 42.5781426,11.8629192 C42.7841882,11.9144224 43.0159895,12.4208712 43.1962794,12.6011327 C43.4452512,12.858649 43.7629048,12.9788233 43.9947061,13.1676686 C44.0805584,13.2363396 44.1492403,13.4166011 44.2265074,13.4337688 C44.320945,13.4595204 44.5269906,13.3393462 44.6557691,13.4080172 C46.6561284,13.8372111 48.630732,14.403747 50.5967504,14.9187797 C51.0260121,15.0303701 52.3567232,16.4724616 52.571354,16.8930716 C52.7001325,17.142004 52.7688144,17.5025269 52.8890077,17.7514594 C53.1122237,18.2321565 54.116696,18.6699343 54.5717134,19.0218733 C56.1685668,20.2837033 57.6538121,22.0949015 58.9072561,23.6829189 C59.5769043,24.5327229 60.7874222,25.9748143 60.6758142,27.0907184 C60.6071323,27.8117642 59.2678359,29.6229624 58.7870629,30.2925049 C57.5593745,31.9921127 55.8337427,33.3912848 54.2454745,34.7475375 C54.1081108,34.8677118 53.859139,34.9964699 53.747531,35.1166442 C53.6273377,35.2454024 53.6101673,35.3999122 53.4556331,35.5458381 C53.1809056,35.8033544 53.0092009,35.7518512 52.7688144,35.8634416 C52.7087178,35.8977771 52.6142802,36.1123741 52.5198426,36.2067967 C52.2451152,36.4814808 52.0133139,36.464313 51.7385864,36.6016551 C51.4810294,36.7304133 50.3735344,37.5287139 50.2104149,37.5115461 C49.7038862,37.2711976 49.4205735,36.8334198 49.1200903,36.3784743 C49.0514084,36.2754677 48.8367776,35.7346834 48.6822434,35.83769 C48.665073,35.8462738 48.5963911,36.1295418 48.5706354,36.1982128 C48.4590274,36.4557292 48.149959,37.0050973 48.1070328,37.2282782 C48.0383509,37.5802172 48.0726919,37.9922433 47.9868395,38.3785178 C47.9181577,38.6875374 47.5575779,39.2540733 47.5489926,39.4429187 C47.5404074,39.631764 47.634845,39.9236158 47.6434302,40.121045 C47.6777711,41.0395199 47.600504,41.9751626 47.6434302,42.8936375 C47.6863564,43.8121125 47.7979644,44.6962519 47.8237201,45.6233107 C47.8494758,46.6619599 47.9696691,47.640522 48.00401,48.6620034 C48.0984476,51.0397376 48.4847831,53.4432234 48.7337548,55.8381253 C48.9398004,57.8553366 49.0771641,59.9068834 49.1887722,61.9240947 C49.1887722,62.044269 49.2231131,62.6279727 49.0771641,62.6279727 C48.9054595,62.6279727 48.4332717,62.5936372 48.3044932,62.6279727 L48.3044932,62.7052276 Z M49.515011,25.5112849 C48.8196071,27.331067 48.261567,29.2023524 47.7378678,31.0736378 C47.6949416,31.4169929 48.149959,31.0307184 48.2529818,30.9448796 C49.1029198,30.283921 50.914404,29.0306748 51.5067851,28.2409581 C51.6441489,28.0606966 51.6956603,27.7945964 51.8501945,27.6229189 C51.9875582,27.4598252 52.459746,27.3053154 52.1936038,27.1078862 C51.463859,26.6701084 50.7770403,26.1464919 50.0558807,25.7001302 C49.9442727,25.6314592 49.6180338,25.3996945 49.5235963,25.502701 L49.515011,25.5112849 Z" id="Shape"></path>
                </g>
            </g>
        </g>
    </g>
</svg>