<svg xmlns="http://www.w3.org/2000/svg" baseProfile="tiny" version="1.2" viewBox="0 0 1024 1024">
  <path d="M198.2 152.7q.7-1.8 3-5.7 6.6-11.1 18-15.5 4.3-1.6 10-1.6h328.6q4.8 0 8.6 1.8 11.4 5.1 14.3 16.3c1.1 4.2 1 9.1 1 14V564q0 1-.8 6.4a3.7 3.6-29.6 0 1-.3 1q-2.6 5.8-7.6 9.2a1.9 1.8 73.4 0 0-.8 1.5q-.2 32.6 0 43.8.1 7.4-1.4 9.6-2 2.9-5 4.2-2 1-6.3 1l-181 .1-141.3-.1q-10.3 0-15.3-1.4-17-4.7-24.4-22-.8-1.9-2.4-9a3.2 3.2-51.8 0 1-.1-.8V165.1a1.4.5-65.8 0 1 0-.2q1.5-7.5 3.2-12.2ZM325 280.5v32.7a.3.3-90 0 0 .4.3h62.3a.3.3 0 0 1 .3.3v159.3a.5.5 90 0 0 .5.5H421a.6.6 0 0 0 .6-.6V314a.5.5 0 0 1 .5-.6h62.2a.6.6 0 0 0 .6-.6v-32.2a.6.6 0 0 0-.6-.6c-7.2-.1-15.6.6-24.6.6H422a.5.5 0 0 1-.5-.4v-67a.4.4 90 0 0-.4-.4h-31.6a.5.5 0 0 0-.5.5v66.6a.8.8 0 0 1-.7.7h-48.4c-4.8 0-10-.7-14.2-.6a.6.6 0 0 0-.6.5Zm232.4 344.2v-40a.3.3 0 0 0-.3-.2H242a24.5 19.2 0 0 0-24.5 19.2v2A24.5 19.2 0 0 0 242 625h315a.3.3 0 0 0 .4-.3ZM742.8 637.7a.3.3 0 0 1-.5.1 46.9 46.9 0 0 1-4.8-11.3q-2.8-12.9-2.4-23.3.2-5.7 2.2-17.3c2.7-15.5 7.7-30.9 13.5-45q3.6-8.8 10-22a2.4 2.3-33.6 0 0 .1-1v-11.1a.7.7-18.9 0 0-1-.5q-17.7 13.5-30 30.4a.4.4 0 0 1-.8-.2c-.4-2.3.5-4.2.8-6.2q.4-2 1-3.8 8.6-22 28.7-34.8a1 1 74.4 0 0 .5-.9q0-8.8-.5-15.3c-.8-9.1-.6-19-.6-27.5q0-9.2.6-11.5c.6-2.2.3-4 .6-6a.7.7 0 0 0-1-.6q-2.1 1.3-4 2.1c-8.4 3.8-16.4 7.5-24.6 12.7q-13 8.3-22.5 14.6a2.6 2.6 74.1 0 0-1.1 2l-.1 4.3a3.6 3.3-38.3 0 1-.2 1c-1 3.5-.5 7-1.3 10.5-.8 3.2-.2 7.4-1 10.9q-.4 2.4-.5 6.6c0 3.2-.6 5.3-.8 8-.4 6 0 11.8-.5 17.2q-.7 8.8-.7 14c0 17.7-.4 24.6.6 36.3q.6 6.9.5 11.8c-.1 3.5 1 6.8 1 10.3q0 1.2.5 4.2c.5 2.4.2 4.7.9 7l.5 2.9q3.3 20.5 9 35.5 6 15.3 14.2 27.2 8 11.9 19 21.5c4.6 4.2 10.1 8.2 15 13q16.5 16.5 22 23.6 16.2 20.6 20.3 25.5 33.5 40.1 62.6 77c1.8 2.2 2.9 4.8 1 7.5-3.1 5-8.7 6.8-12.8 1.6Q838 815.7 796 765q-6.4-7.8-16.5-20.8-10.6-13.6-15.4-18.6-10.4-11.1-17.4-17l-11.4-9.9q-6.8-6-14.7-16.7-17-23-24.1-51.7l-2.8-12.2-2.2-12.4q-1.4-8.2-1.6-13.8 0-2.2-.6-5.7c-.6-3.7-.1-8.7-.6-12.1-.5-3-.7-6.3-.7-8.5q-.2-13.2-.1-32.6 0-7.4.5-13 .7-8 .6-13c-.2-3.9 1-8.1.9-12.3q-.1-2.5.6-6.4c.6-3.5.2-7.5 1.3-11.5a4.8 4.7 52.6 0 0 .1-1.2q0-3.4.8-6.5a5.6 5.2 54 0 0 .2-1.5q0-3.4.8-6.3a4.8 4.6 54.3 0 0 .2-1.4q0-3.2.9-6.8a4.6 4.3 53 0 0 .1-1.2l-2-47.6a1 1 43 0 0 0-.1q-1.1-6-1-13a5.5 5.5 40.2 0 0 0-1.2q-1.1-5-1-10c0-4-1-7.6-1-11.4q.1-5.2-.3-8.3c-1-6-.1-10-1-15.8q-.8-4.5-.7-9a5.7 5.6-50.5 0 0-.1-1.4c-1.3-6-.6-12.1-1.4-18.3q-1-8.3.5-19 1.2-8.3 4-14.6 5.2-12 17-15.3a1.4 1.4-9.4 0 0 1.1-1.5q-.6-10.7 0-22.1.2-1.8.6-3c.5-1.3.3-2.6.6-4q1.8-8.6 4.9-14.5 3.3-6.6 9.2-11.7 8.3-7.3 19.4-7.3a1.2 1.2-79.5 0 0 1.1-.7q4-10.7 14-16.5 8.3-4.9 18.2-3.4 7 1 10.6 7 2.9 4.8 3.3 9 .2 2.9.9 5.7a4.4 4.3 39.2 0 1 0 1l.2 8.8a.9.9 0 0 0 1.2.9q5.5-1.7 8.5-2.4.6-.2 4.2-.3c6.2-.1 11.4 3.3 13.8 8.9q2.8 6.3 3.4 14.5a4.3 3.9 36.8 0 0 .2 1c.9 2.3.5 4.7 1.2 6.9.6 1.7.3 3.2.8 4.7q.5 1.5 1.2 6.6l1 6.5q1.8 9.3 5.6 31l2 11.5q9.2 52.9 24.2 132.7 1.5 7.9 3.6 17.6 2.1 9.8 3.4 17.7.8 5 .7 8.6c0 3.7.9 7.5.9 11.5 0 9.3.2 20.2-.5 30.6-.6 9.8 0 16.3-1 24.9-.7 5.3 0 11.3-1 17-.7 4.1 0 9-1 13.3-.7 3-.2 6-.9 8.8-.9 4-.4 7.4-1.2 11.8-.5 2.3 0 5.2-.9 7.7a3.9 3.8-33.9 0 0-.2.9q-.8 9.8-.7 15.9.2 8.5 2.4 14.8 3.5 10.4 11.5 18.6 1.8 1.8 11.6 10c5.4 4.7 12.2 10 16 13q39 32.1 50 41.6 3.7 3.3 6.2 6 1.6 1.8 1.2 4.3-.7 5.6-6.8 7a2.2 2.1-42.2 0 1-1 0q-4.2-1.2-5.5-2.3l-28.6-24.2-45.9-37.4q-3-2.5-10.4-10.6-5.9-6.4-8.6-12-4.2-8.7-5.2-14.2l-1-5a3.6 3.6 34.4 0 1-.2-.9l-.8-10.4a8.8 8-90 0 1 0-1.3l.8-11.1a4.5 4.3-36.7 0 1 .1-.9l.5-2a2.9 2.8 52 0 0 .1-.7q0-4.7.8-7.3a6.3 6.1 53.2 0 0 .2-1.8q0-3.4.8-6.5a5 5-37.8 0 0 .2-1.5q0-4.3.8-7.9a8.1 7.8-40.2 0 0 .3-2.2q-.2-5.3.7-9.7a13.1 13 50.8 0 0 .2-2.7c0-8.6 1-14.8 1.1-22.8q.1-7 .7-14.1.6-7.4.3-44.1a10.5 10-52.5 0 0-.3-2q-.7-3.4-.8-6.2c0-2.7-.9-4.3-.9-6.6q0-1-.3-2.7-7.1-35-11.9-61.2l-4.2-23.4-.3-1.3-5-27q-12.4-68.3-20.3-116-.7-4.1-1.9-8.7a1.6 1.5 86 0 0-1.3-1c-9-1.3-14.2 5.3-16.7 13q-2.4 7.5-3 17.7-.6 9.2.4 19.7c.6 5.3.1 10.5 1.2 15.2a7.5 7 39.8 0 1 .2 1.5q0 6 .5 8.2c.9 4.8.3 9.8 1.4 14.6a6.1 5.9 39.9 0 1 .1 1.4q0 5 .8 9.5a10.6 10.5 40.6 0 1 .2 2.4q-.1 5.7.9 9.8a1.3 1 68.5 0 1 0 .2l3.3 38.9a1.1.9 40.9 0 0 0 .1q.3 1 1.5.4c1.6-.8 3.9-.6 5.3-1q2.3-.8 4.3-.8 3.9.2 8 1.6c7.3 2.5 10.7 9.4 10.6 16.8-.1 13.3-1.4 32.6-.2 48.3.5 5.7 0 12.3 1.2 17.5a5.6 5.3 40.5 0 1 .1 1.4q0 4.3.8 8.2a7.5 7.3-51.7 0 1 .2 1.8c0 3.3.7 6 1 9q3.4 28.9 10.6 54.7c.8 2.9.7 4.1-1.4 6.1-3 3-6.9 1.3-8.8-1.8q-1.3-2.1-2.3-4.8-3.7-10.5-6-20-3.5-15.3-5-24.2l-.1-1.4q-2-12-2-14.6 0-2.2-.8-4.9c-.5-1.7 0-4.5-.5-6.7q-.6-2.7-.6-6.7c0-5.4-1-8.6-1-13.7V397a1.2 1.1-60.3 0 0-.2-.5q-1.2-2.2-3.8-2c-7.3.3-14 3.1-18.9 8.7q-4.5 5.1-7 11.3-2.7 6.1-4.6 14.9c-.6 2.7-.4 4.7-1.1 6.8a5.3 5 56.2 0 0-.3 1.7c0 6-1 11.4-1 17.5 0 9.4.8 17.3.8 26.5v36.6a5.9 5.8 58 0 1-.5 2.5q-7.1 15.4-13 29.5-9.8 24-15 48.8-.9 3.7-1.8 10.2-.6 4-.8 8.6l-.2 8.6c-.1 3.4.7 8 .2 11Zm21.8-224.3 2.9-6.7q2.4-5.6 7.5-12.2.8-1.1 7.2-7.2a1.7 1.7 72.8 0 0 .4-1c.2-1-.6-2.3-.6-3.8q0-4.4-.8-7.5a3.3 3.1 37.8 0 1-.1-.8l-.2-7a2.1 1.8 40.8 0 0 0-.3q-1-3.8-1-8a5.4 5.3 39 0 0-.1-1.6c-1.1-4.3-.5-8.2-1.4-12.3q-.6-2.3-.4-6.5a7 6.8-52.3 0 0-.3-2q-1-3.9-.8-8.9a7.5 7.3 39.4 0 0-.2-2.2q-.8-3.2-.8-7.6a9 9-50.6 0 0-.1-1.9c-1-4.7-.6-9-1.5-14q-.6-3-.4-5.3a5.2 5 41.6 0 0-.1-1.6q-1-4.1-.8-9.6c0-2.6-.8-5-1-7.8q-.4-12.8 0-23.4 0-2.3.5-5.9l1-5.8q1.4-7.1 4.4-13a2.7 2.6-32.9 0 0 .2-1.2L778 210a2.5 1.7-60.1 0 0 0-.3l-1.3-8.2a1.4 1.1-65.6 0 0 0-.2l-1.4-3.4a1 1 87.2 0 0-.6-.6q-2.5-.8-4-.5-7.3 1.7-11.2 8.8-3.5 6.4-4.4 13-.3 2.5-.7 3.7a3.8.6-69.5 0 0-.3 1.8c-.1 8.6-.9 14.8-.3 22.4.5 5.6 0 13.4 1 20.4.7 4.9 0 11.2.7 15.6.9 5.5.4 10.3 1.1 15.9.8 5 .2 11.3 1 16.2.8 4.8.2 9.7.9 14.3q.7 5.2.6 9.5-.1 4.3.4 7.4c1 5.5.5 10 1.3 16a20 19.5-49.5 0 1 .2 3q0 6 .4 8.8c1 5.7.4 10.8 1.3 16.6.8 5.8-.1 11.2 1 17q.3 1.8.5 6a.2.2 0 0 0 .5.1Zm-26-194.2q-8 2.9-11.4 11-2.4 5.8-3 10.1-.6 4.3-1 6a4.6 4.5 52.8 0 0-.2 1.2v26.3q0 2.1.7 6.1a15.8 15.4 41.5 0 1 .2 2.6q0 4.9.5 8 .8 5.3.6 8c-.2 5 1 8.6 1 13.3q0 4.4.8 9a7.6 7.4 41 0 1 .1 1.7q-.1 6 .9 10.4a7 6.8-52.4 0 1 .1 1.4q0 5 .5 7.7c.9 4.5.2 9.7 1.4 14.2a5.4 5.4 38.6 0 1 .1 1.5q0 4.4.6 8.5c.7 4 .1 8.7.7 11.9 1 5.6.6 9.7 1.5 14.5.6 3.8 0 8.2.6 11.2 1.1 5 .5 10 1.6 15.7a2.2 1.5-60.3 0 1 0 .3v6.9a1 1-11.3 0 0 1.4.9q2.8-1.2 6-3.4a1.4 1.3-73.2 0 1 .2-.1l8.4-3.8a2 2 0 0 0 1.2-1.8c0-4.4-1.2-7.7-1-11.6q0-3-1-8.8-.2-1-.2-5.7a13.4 13.3-50.6 0 0-.2-2.3q-1-5.3-.8-11.5a6.7 6.5 40.8 0 0-.1-1.5c-1-5.2-.6-10.2-1.6-15.4-.6-3.5 0-8.1-1-12.4-.7-3.8-.2-8.2-.8-12.6q-.6-4.5-.5-10.1a13.1 13 40.1 0 0-.3-2.6c-1-5-.5-9.5-1.2-14.6-.7-4.5 0-9-1-13.2q-.6-2.6-.4-6.3.2-3.8-.6-9.3-.6-3.6-.5-10.4c.1-4.4-1.2-9.4-.9-13.8q.2-1.6-.6-10.3c-.8-8.4.1-18.6.7-25.9a1 1-7.8 0 0-1.4-1ZM709 448.6l9.5-8.4q3-2 5.3-4.5a1.4 1.4 0 0 0 .4-1.1l-1.4-15a1.4.5 62.5 0 0 0-.1q-1-3.9-.9-8a6 5.8 40.2 0 0 0-1.3q-1-4.7-1-9.2a5.8 5.7 38.7 0 0-.1-1.5q-1-3.5-.9-7.6a5.4 5.2 38.6 0 0-.2-1.4c-1-4-.4-7.8-1.4-11.7q-.4-2-.4-5.9a9 9 39.5 0 0-.2-2q-.9-4.2-.8-9.3a10.8 10.8 0 0 0-.2-2.6q-.9-3.8-.8-8.5a6.7 6.6-51.8 0 0-.2-1.7q-.8-3.5-.8-8.2a8.4 8.4 38.8 0 0-.2-2.2q-.9-3.6-.8-8.2a5 5-51.3 0 0-.1-1.3q-1-4.7-.8-10.4a6.6 6.4 39.7 0 0-.3-1.8c-1-4-.4-9.8-1.5-14.8l-1.2-17.3a.8.8 0 0 0-1.2-.7q-4 2-5.6 6.8-1 2.9-1.7 6.5-.6 3.3-.6 6.7c0 13.7-.1 20 1 27.3a11.2 10.4-50.5 0 1 0 1.8q-.1 6 .4 10 .8 7.2.7 10-.2 4 .5 8.7c.7 5.6.2 10 1 15.3.7 5.7 0 13.4 1 19.5q.5 4 .4 8c-.1 6.6 1.1 13.8 1 20.7q0 10.2 1.4 23a.4.4 65.9 0 0 .7.4Z"/>
  <path fill="#fff" d="M325.6 280c4.2 0 9.4.5 14.2.6h48.4a.8.8 0 0 0 .7-.7v-66.6a.5.5 0 0 1 .5-.5H421a.4.4 90 0 1 .4.4v67a.5.5 0 0 0 .5.4h37.8c9 0 17.4-.7 24.6-.6a.6.6 0 0 1 .6.6v32.2a.6.6 0 0 1-.6.6H422a.5.5 0 0 0-.5.5v159a.6.6 0 0 1-.6.7h-32.5a.5.5 90 0 1-.5-.5V313.8a.3.3 0 0 0-.3-.3h-62.3a.3.3 90 0 1-.4-.3v-32.7a.6.6 0 0 1 .6-.5ZM557.4 624.7a.3.3 0 0 1-.3.3H242a24.5 19.2 0 0 1-24.5-19.3v-2a24.5 19.2 0 0 1 24.5-19.2h315a.3.3 0 0 1 .4.3v40Z"/>
  <path d="M129.4 739.9a2 2 0 0 0 2.5.2q14.3-9 32-19.7 9-5.5 15.3-9.9 12.5-8.6 15-10.6 11.6-9.2 19.1-14.8 17.8-13.4 37.7-20.6 3.3-1.1 8.1-2.1l8.3-1.6q4.1-.7 5.8-.8l5.1-.5q7.7-.8 13.2-.3 7.1.7 12 1a3.5 3.4 55.4 0 1 1 .1c2.6.9 6 .3 8.7 1.2 2.6.8 5 .3 7.2 1.2 1.1.4 3.7.4 5.8.9q23 4.8 46 14.1a3.1 3-31.4 0 0 .8.3c1.7.1 3.1 1 4.6 1q1.6-.2 4.5.4c4.2.9 9.6.7 13.6.2 8.9-1 17.7-.2 26.4-1.1q5.6-.6 17.1-.5c3 0 6.2-.8 9.4-.9h23.8q3.3 0 5.7.4l5.7 1q9.3 1.7 17.9 8 7.6 5.7 11.6 18.2a.7.7-3.9 0 0 .6.5c.4 0 1.3-1 2.1-1.3q53-25.3 63-30.4 9.5-5 26.2-12.8 7.3-3.4 12.3-4.7 10.2-2.5 20.5.3c5.3 1.5 8.6 4.8 12.7 9.1a1.8 1.8 0 0 0 1 .6q4.6.6 6.1 1.1 13 4.3 14.2 17.6.4 4-1.3 8c-3 7.4-10 13.4-16 18.6l-13 10.2q-35.2 27.3-69 52.5a562.7 562.7 0 0 1-90.2 56.2q-9.9 4.9-17.8 7.7-6.7 2.3-12.6 3c-5 .5-9.9 1-15.8.4q-4-.5-8-.4a8.6 8.4 49.6 0 1-1.6-.2c-4.8-.9-8.9-.6-13.3-1.4q-2.3-.5-7.3-.5a9.7 9.4 50.6 0 1-2.1-.2c-4-.9-7.8-.5-11.8-1.4-2.5-.5-6.1 0-9-.9a2 1-9.2 0 0-.2 0l-10.8-1.4a2 2 0 0 0-.3 0c-3 .3-6.9-1-9.8-1q-1.1 0-11.3-1.4l-28.9-4-23.1-3-5.7-.5q-2.4 0-5.7-.4-9-1.2-20-.4a4.3 3.7 29.1 0 0-.9.2c-2 .6-4.2.4-6.3.9q-10 2.2-19.6 7.6l-25.5 14.8c-2.2 1.2-4.8 2.4-7 4.1a1.1 1.1-35.4 0 0-.2 1.5l3.6 5.7a1.8 1.8 24.5 0 1 .2.6q1.3 7-3.5 10.3-9.1 6.4-53.9 35.5a2.4 2.4-65.6 0 1-.9.4q-3 .5-5.4-.7-1.4-.7-3.6-4L76.7 794.7Q68 781 65.8 778c-4-5.8-.7-9.3 4.5-12.7l44.5-29.8a2.1 2 20.5 0 1 .7-.3c5.7-1.1 10.1 1 14 4.7Zm446.4 13.8q-2.2.8-4 2.1c-3 2.3-5.6 3.5-9.4 6q-29.4 19.6-63 36.4-16.7 8.5-32.7 14.7c-3.2 1.3-11 3.9-13.4 2.5q-2.7-1.5-2.4-4.6a1.4 1.4-20.2 0 1 .4-1q2.4-2.2 3.1-2.6 27.5-14.3 39.7-20.9 71.6-38.5 137.3-90.7 6.8-5.3 8.4-13.1 1.6-7.5-4.2-11c-4.4-2.8-12.6-1.7-17.2 0q-9.8 3.5-26.3 11.7-35.4 17.6-79.6 38.1a5.2 5.1-86.7 0 0-2.2 2q-6.9 11.4-19.4 16-5.4 2-7.8 2.6-5 1-11.3 1.8c-2 .3-4.8.1-7.2.6-4.5 1-10 .4-14.1 1-4.6.8-10.4.2-14 .7q-6.2.9-13 1c-11.7 0-18.4.7-30.7 1q-3.4.1-7.5.7-1.5.2-7.6.2-4 0-11.1 1-10.9 1.3-20.2 3a3.4 3.1-59.9 0 0-.8.3c-3.2 1.4-6.8 1.7-8.5-2.2a1.3 1.3 33.9 0 1-.1-.5v-3.4a1.3 1.3-25.2 0 1 .3-.9 21 21 0 0 1 9.4-5.2q9.6-2.8 11.5-3c2.7-.3 4.4-1.1 7.4-1.1a6 5.8-52.2 0 0 1.4-.2q3.1-.9 6.7-.8a5.6 5.4-51.3 0 0 1.5-.2c3.8-1 9-.4 13.6-1.1 4.5-.8 9.4-.3 13-.9 7.5-1.1 14.2-.2 22.1-1.3q3.1-.4 6.3-.4 3 0 9.5-.7c6-.6 11.2.1 17-1q2.1-.3 7.6-.4a6.5 6.2 35.5 0 0 1.8-.3c3.2-.8 6.4-.4 9.8-1.2l6.1-1.4q3.3-.8 8.9-4.1 5.6-3.3 7.9-9.6a3.8 3.7-35.6 0 0 .2-1.2q.1-8.9-6.3-13.9-7-5.6-16.7-6.2l-8.5-.5q-6.9-.1-23.6 1-7.7.5-10.8.5-6.8 0-10.7.5c-5.5.7-12.4 0-16.8.6a102 102 0 0 1-25.6.3q-6.1-1-8.6-1.6-4-1.1-18.1-6.3-12.6-4.6-33.2-8.8-1.7-.4-6.3-1l-6.3-.9q-5.8-1-9.5-1c-4.1.1-8.5-1-13-.5-6.5.6-11.4.2-16.8 1.4l-8 1.8q-6.8 1.7-14.6 5.3-12.9 6-25.3 15.5c-18 13.8-27.3 21.5-44.2 32q-24 15-33.6 20.7l-1.7 1.6a1.4 1.4 0 0 0-.2 1.8l59 87a1 1 56.2 0 0 1.4.3q9-6 20.7-13.4 12.8-8 15.7-9.4 9.6-5 16.9-6.9l8-1.6q2.3-.4 5.4-.6 1.1 0 5.3-.5 4.6-.5 10 .2c3.5.5 8.2.1 11.3 1 3.1.7 7 0 9.8 1 2.2.6 4.7.2 6.7.7q3 .8 5 .8 2.4 0 3.6.4c2 .9 4.5.3 6.5.9 3.2.8 6.4.3 9.1 1.2 2 .6 4.1.2 6 .8 3 .9 6.1.4 9 1.3a5 5 54.5 0 0 1.5.3c3.5 0 6.4 1 9.7 1q2.6 0 3.9.4c2.9 1 5.8.4 8.8 1.3a7 7 52.4 0 0 2.1.3q4.2 0 7.3.8a6 5.8 51.6 0 0 1.5.2q4.9 0 7.4.5c3.2.7 7.6.2 10.2.9 3.7.9 7.5.3 11.4 1.3a6.6 6.3 50.7 0 0 1.8.3q4.7-.1 8 .8a6.1 5.9 51.1 0 0 1.6.2q3.4 0 6.4.5c5 .8 9.7.6 14.7.7q4.3 0 8.3-1 6-1.4 9-2.6 6.8-2.6 20-9.3 12.4-6.3 31.6-17.7 20.6-12.3 50.4-34 7.7-5.6 10.6-8.1a.4.4 0 0 0-.4-.7Zm71.3-53.9a.5.5 0 0 0 .6.6c4.6-3.3 10.5-9.4 10.2-15.5a4.3 4.3 0 0 0-1.1-2.6l-1.3-1.5a.9.9 0 0 0-1.6.6q.3 4.9-.8 7.2-2.8 6.6-6 11.2Z"/>
</svg>