<?xml version="1.0" encoding="UTF-8"?>
<svg width="168px" height="189px" viewBox="0 0 168 189" version="1.1" xmlns="http://www.w3.org/2000/svg" xmlns:xlink="http://www.w3.org/1999/xlink">
    <title>persecution_secular</title>
    <defs>
        <ellipse id="path-1" cx="70" cy="70.194561" rx="70" ry="70.194561"></ellipse>
    </defs>
    <g id="Page-1" stroke="none" stroke-width="1" fill="none" fill-rule="evenodd">
        <g id="Apple-TV" transform="translate(-277, -32)">
            <g id="persecution_secular" transform="translate(282.2597, 37)">
                <g id="Oval-Copy-8">
                    <ellipse stroke="#EA743D" stroke-width="4" stroke-linejoin="square" cx="70" cy="70.194561" rx="68" ry="68.194561"></ellipse>
                    <ellipse stroke="#0E0E0E" stroke-width="5" cx="70" cy="70.194561" rx="72.5" ry="72.694561"></ellipse>
                </g>
                <path d="M98.9202863,46.3785492 L75.5602863,46.3785492 L75.5602863,26.1625157 C75.5602863,24.5179574 74.2302863,23.1942885 72.6002863,23.1942885 L67.4402863,23.1942885 C65.8002863,23.1942885 64.4802863,24.5279852 64.4802863,26.1625157 L64.4802863,46.3785492 L41.1202863,46.3785492 C39.7202863,46.3785492 38.5902863,47.51169 38.5902863,48.9155812 L38.5902863,54.9523135 C38.5902863,56.3562047 39.7202863,57.4893455 41.1202863,57.4893455 L64.4802863,57.4893455 L64.4802863,114.487329 C64.4802863,116.131887 65.8102863,117.455556 67.4402863,117.455556 L72.6002863,117.455556 C74.2402863,117.455556 75.5602863,116.12186 75.5602863,114.487329 L75.5602863,57.4893455 L98.9202863,57.4893455 C100.320286,57.4893455 101.450286,56.3562047 101.450286,54.9523135 L101.450286,48.9155812 C101.450286,47.51169 100.320286,46.3785492 98.9202863,46.3785492 Z" id="Path-Copy-7" fill="#EA743D" fill-rule="nonzero"></path>
                <g id="icon_bwl_secular_intolerance_text" transform="translate(26.5603, 67.0875)">
                    <g id="Group-Copy-4" transform="translate(0, 88.0926)" fill="#010101" fill-rule="nonzero">
                        <path d="M16.84,9.8974331 L17.63,8.52362527 C18.11,8.8244591 18.55,9.03504278 18.96,9.16540411 C19.37,9.29576544 19.82,9.3559322 20.32,9.3559322 C20.92,9.3559322 21.39,9.22557088 21.73,8.96484822 C22.07,8.70412557 22.24,8.33309717 22.24,7.85176304 C22.24,7.41054008 22.1,7.06959507 21.81,6.81890021 C21.53,6.56820535 21.04,6.33756608 20.35,6.1269824 C19.28,5.81612077 18.49,5.42503679 17.99,4.95373045 C17.49,4.48242411 17.24,3.84064527 17.24,3.03842171 C17.24,2.1660036 17.56,1.4440024 18.21,0.872418115 C18.86,0.300833833 19.74,0.0100277944 20.86,0.0100277944 C21.35,0.0100277944 21.84,0.070194561 22.31,0.1805003 C22.79,0.290806038 23.25,0.461278544 23.71,0.70194561 L23.02,2.10583683 C22.63,1.89525315 22.25,1.74483623 21.89,1.64455829 C21.52,1.55430814 21.15,1.50416916 20.78,1.50416916 C20.23,1.50416916 19.8,1.6245027 19.49,1.86516976 C19.18,2.10583683 19.02,2.44678184 19.02,2.8880048 C19.02,3.27908878 19.16,3.57992261 19.45,3.81056188 C19.74,4.03117336 20.23,4.25178484 20.94,4.47239632 C22.03,4.79328574 22.82,5.19439751 23.3,5.68575944 C23.78,6.17712137 24.02,6.8489836 24.02,7.70134612 C24.02,8.62390321 23.69,9.37598779 23.04,9.96762766 C22.39,10.5592675 21.45,10.8500736 20.24,10.8500736 C19.63,10.8500736 19.04,10.7698512 18.46,10.6094065 C17.88,10.4489618 17.34,10.2183225 16.84,9.9074609 L16.84,9.8974331 Z" id="Path"></path>
                        <polygon id="Path" points="31.92 10.6595455 26.03 10.6595455 26.03 0.170472505 31.69 0.170472505 31.69 1.67464167 27.8 1.67464167 27.8 4.60275764 31.41 4.60275764 31.41 6.10692681 27.8 6.10692681 27.8 9.16540411 31.92 9.16540411 31.92 10.6695733"></polygon>
                        <path d="M41.56,10.1180446 C41.03,10.3687394 40.51,10.5592675 40.01,10.6695733 C39.51,10.779879 38.96,10.8400458 38.38,10.8400458 C36.78,10.8400458 35.52,10.3687394 34.61,9.43615456 C33.7,8.50356968 33.25,7.2099842 33.25,5.5854815 C33.25,3.9609788 33.75,2.58717096 34.76,1.55430814 C35.76,0.52144531 37.08,0 38.7,0 C39.23,0 39.72,0.0401111777 40.16,0.130361328 C40.6,0.220611477 41.05,0.361000599 41.51,0.551528694 L40.93,2.00555889 C40.56,1.84511418 40.21,1.73480844 39.86,1.66461388 C39.51,1.59441931 39.14,1.55430814 38.73,1.55430814 C37.68,1.55430814 36.82,1.90528094 36.15,2.60722655 C35.47,3.30917216 35.14,4.26181263 35.14,5.45512017 C35.14,6.64842771 35.45,7.560957 36.07,8.24284702 C36.69,8.92473704 37.53,9.26568205 38.58,9.26568205 C38.93,9.26568205 39.3,9.21554308 39.69,9.12529293 C40.08,9.03504278 40.48,8.88462587 40.89,8.67404218 L41.58,10.1180446 L41.56,10.1180446 Z" id="Path"></path>
                        <path d="M51.49,6.26737152 C51.49,7.79159627 51.14,8.93476484 50.45,9.69687721 C49.76,10.4589896 48.71,10.8400458 47.31,10.8400458 C45.91,10.8400458 44.96,10.4690174 44.29,9.73698839 C43.62,9.0049594 43.28,7.89187422 43.28,6.40776064 L43.28,0.170472505 L45.05,0.170472505 L45.05,6.38770505 C45.05,7.35037332 45.25,8.07237452 45.64,8.55370865 C46.03,9.03504278 46.62,9.27570985 47.41,9.27570985 C48.2,9.27570985 48.75,9.04507058 49.14,8.57376424 C49.52,8.11248569 49.71,7.41054008 49.71,6.46792741 L49.71,0.160444711 L51.48,0.160444711 L51.48,6.25734372 L51.49,6.26737152 Z" id="Path"></path>
                        <polygon id="Path" points="59.91 10.6595455 54.09 10.6595455 54.09 0.170472505 55.86 0.170472505 55.86 9.16540411 59.91 9.16540411 59.91 10.6695733"></polygon>
                        <path d="M60.83,10.6595455 L64.74,0.170472505 L66.75,0.170472505 L70.63,10.6595455 L68.67,10.6595455 L67.79,8.15259687 L63.61,8.15259687 L62.76,10.6595455 L60.82,10.6595455 L60.83,10.6595455 Z M64.08,6.69856668 L67.32,6.69856668 L65.89,2.55708758 C65.86,2.44678184 65.82,2.3465039 65.8,2.23619816 C65.78,2.12589242 65.75,1.99553109 65.72,1.82505859 L65.68,1.82505859 C65.66,1.96544771 65.63,2.09580904 65.6,2.20611477 C65.57,2.31642051 65.54,2.42672625 65.51,2.53703199 L64.08,6.68853888 L64.08,6.69856668 Z" id="Shape"></path>
                        <path d="M80.14,10.6595455 L78.1,10.6595455 L76.5,7.87181863 C76.22,7.3804567 75.96,7.04953948 75.73,6.85901139 C75.5,6.6684833 75.22,6.56820535 74.91,6.55817756 L73.98,6.55817756 L73.98,10.6595455 L72.21,10.6595455 L72.21,0.170472505 L75.62,0.170472505 C76.71,0.170472505 77.56,0.411139572 78.18,0.902501499 C78.8,1.39386343 79.11,2.11586462 79.11,3.07853289 C79.11,3.80053409 78.91,4.41222955 78.52,4.91361927 C78.12,5.41500899 77.58,5.78603739 76.89,6.01667666 L76.89,6.04676004 C77.15,6.15706578 77.39,6.32753829 77.61,6.55817756 C77.83,6.78881683 78.03,7.06959507 78.22,7.3904845 L80.15,10.6495177 L80.14,10.6595455 Z M73.98,1.6144749 L73.98,5.11417516 L75.33,5.11417516 C75.89,5.11417516 76.35,4.94370265 76.71,4.58270205 C77.07,4.23172925 77.25,3.79050629 77.25,3.2490054 C77.25,2.7075045 77.09,2.32644831 76.78,2.04567006 C76.46,1.75486403 76,1.6144749 75.38,1.6144749 L73.99,1.6144749 L73.98,1.6144749 Z" id="Shape"></path>
                        <polygon id="Path" points="1.78 28.6393809 0 28.6393809 0 18.1503079 1.78 18.1503079"></polygon>
                        <path d="M13.41,28.6393809 L11.48,28.6393809 L6.62,21.1385907 C6.52,20.9881737 6.44,20.8477846 6.36,20.7174233 C6.29,20.587062 6.23,20.4767562 6.18,20.3764783 L6.14,20.3764783 C6.16,20.5268952 6.17,20.7274511 6.18,20.9881737 C6.19,21.2488964 6.19,21.559758 6.19,21.9408142 L6.19,28.6393809 L4.48,28.6393809 L4.48,18.1503079 L6.54,18.1503079 L11.25,25.4806256 C11.35,25.6410704 11.44,25.7814595 11.52,25.9118208 C11.6,26.0421821 11.66,26.1625157 11.71,26.2627936 L11.74,26.2627936 C11.72,26.1224045 11.71,25.9318764 11.7,25.6811815 C11.7,25.4304867 11.69,25.1296528 11.69,24.7686522 L11.69,18.1503079 L13.4,18.1503079 L13.4,28.6393809 L13.41,28.6393809 Z" id="Path"></path>
                        <polygon id="Path" points="22.87 19.6544771 19.86 19.6544771 19.86 28.6393809 18.09 28.6393809 18.09 19.6544771 15.09 19.6544771 15.09 18.1503079 22.87 18.1503079"></polygon>
                        <path d="M28.18,28.8198812 C26.69,28.8198812 25.48,28.3285193 24.57,27.3558232 C23.65,26.3730994 23.19,25.0995695 23.19,23.5352335 C23.19,21.8605919 23.66,20.5168674 24.59,19.5040602 C25.52,18.4912529 26.78,17.9798354 28.35,17.9798354 C29.82,17.9798354 31,18.4711973 31.91,19.4438934 C32.81,20.4266173 33.26,21.7101749 33.26,23.2945665 C33.26,24.9792359 32.8,26.3229604 31.87,27.315712 C30.94,28.3184915 29.71,28.8198812 28.19,28.8198812 L28.18,28.8198812 Z M28.2,27.2555453 C29.19,27.2555453 29.97,26.924628 30.53,26.2527658 C31.09,25.5809036 31.38,24.6483187 31.38,23.4449834 C31.38,22.241648 31.1,21.2488964 30.55,20.5670064 C30,19.8851164 29.23,19.5441713 28.27,19.5441713 C27.31,19.5441713 26.52,19.8951441 25.94,20.6071176 C25.36,21.319091 25.06,22.2516758 25.06,23.4149 C25.06,24.5781241 25.35,25.5207368 25.93,26.2126546 C26.51,26.9146003 27.27,27.2555453 28.21,27.2555453 L28.2,27.2555453 Z" id="Shape"></path>
                        <polygon id="Path" points="41.12 28.6393809 35.3 28.6393809 35.3 18.1503079 37.07 18.1503079 37.07 27.1452395 41.12 27.1452395 41.12 28.6494087"></polygon>
                        <polygon id="Path" points="48.67 28.6393809 42.78 28.6393809 42.78 18.1503079 48.44 18.1503079 48.44 19.6544771 44.55 19.6544771 44.55 22.5825931 48.16 22.5825931 48.16 24.0867622 44.55 24.0867622 44.55 27.1452395 48.67 27.1452395 48.67 28.6494087"></polygon>
                        <path d="M58.61,28.6393809 L56.57,28.6393809 L54.97,25.851654 C54.69,25.3602921 54.43,25.0293749 54.2,24.8388468 C53.97,24.6483187 53.69,24.5480408 53.38,24.5480408 L52.45,24.5480408 L52.45,28.6393809 L50.68,28.6393809 L50.68,18.1503079 L54.09,18.1503079 C55.18,18.1503079 56.03,18.390975 56.65,18.8823369 C57.27,19.3736988 57.58,20.0957 57.58,21.0583683 C57.58,21.7803695 57.38,22.392065 56.99,22.8934547 C56.59,23.3948444 56.05,23.7658728 55.36,23.9965121 L55.36,24.0265955 C55.62,24.1369012 55.86,24.3073737 56.08,24.538013 C56.3,24.7686522 56.5,25.0494305 56.69,25.3703199 L58.62,28.6293531 L58.61,28.6393809 Z M52.45,19.5943103 L52.45,23.1040384 L53.8,23.1040384 C54.36,23.1040384 54.82,22.9235381 55.18,22.5725653 C55.54,22.2215925 55.72,21.7703417 55.72,21.2388686 C55.72,20.7073955 55.56,20.3163115 55.25,20.0355333 C54.94,19.754755 54.47,19.6043381 53.85,19.6043381 L52.46,19.6043381 L52.45,19.5943103 Z" id="Shape"></path>
                        <path d="M58.95,28.6393809 L62.86,18.1503079 L64.87,18.1503079 L68.75,28.6393809 L66.79,28.6393809 L65.91,26.1324323 L61.73,26.1324323 L60.88,28.6393809 L58.94,28.6393809 L58.95,28.6393809 Z M62.21,24.6784021 L65.45,24.6784021 L64.02,20.536923 C63.99,20.4266173 63.96,20.3263393 63.93,20.2060058 C63.9,20.0957 63.88,19.9653387 63.85,19.804894 L63.81,19.804894 C63.79,19.9452831 63.76,20.0756444 63.73,20.1859502 C63.7,20.2962559 63.67,20.4065617 63.64,20.5168674 L62.21,24.6683743 L62.21,24.6784021 Z" id="Shape"></path>
                        <path d="M79.24,28.6393809 L77.31,28.6393809 L72.45,21.1385907 C72.35,20.9881737 72.27,20.8477846 72.2,20.7174233 C72.13,20.587062 72.07,20.4767562 72.02,20.3764783 L71.98,20.3764783 C72,20.5268952 72.01,20.7274511 72.02,20.9881737 C72.03,21.2488964 72.03,21.559758 72.03,21.9408142 L72.03,28.6393809 L70.32,28.6393809 L70.32,18.1503079 L72.38,18.1503079 L77.09,25.4806256 C77.19,25.6410704 77.28,25.7814595 77.36,25.9118208 C77.44,26.0421821 77.5,26.1625157 77.55,26.2627936 L77.58,26.2627936 C77.56,26.1224045 77.55,25.9318764 77.54,25.6811815 C77.54,25.4304867 77.53,25.1296528 77.53,24.7686522 L77.53,18.1503079 L79.24,18.1503079 L79.24,28.6393809 L79.24,28.6393809 Z" id="Path"></path>
                        <path d="M89.59,28.09788 C89.06,28.3485749 88.54,28.5391029 88.04,28.6494087 C87.54,28.7597144 86.99,28.8198812 86.41,28.8198812 C84.8,28.8198812 83.55,28.3485749 82.64,27.41599 C81.73,26.4834051 81.28,25.1998474 81.28,23.5653169 C81.28,21.9307864 81.78,20.5670064 82.79,19.5341436 C83.79,18.5012807 85.11,17.9798354 86.73,17.9798354 C87.26,17.9798354 87.75,18.0199466 88.19,18.1101967 C88.63,18.2004469 89.08,18.340836 89.54,18.5313641 L88.96,19.9853943 C88.59,19.8249496 88.24,19.7146438 87.89,19.6444493 C87.54,19.5742547 87.17,19.5341436 86.76,19.5341436 C85.71,19.5341436 84.85,19.8851164 84.18,20.587062 C83.51,21.2890076 83.17,22.241648 83.17,23.4349556 C83.17,24.6282631 83.48,25.5407924 84.1,26.2226824 C84.72,26.9045725 85.56,27.2455175 86.61,27.2455175 C86.96,27.2455175 87.33,27.1953785 87.72,27.1051283 C88.11,27.0148782 88.51,26.8644613 88.92,26.6538776 L89.61,28.09788 L89.59,28.09788 Z" id="Path"></path>
                        <polygon id="Path" points="97.34 28.6393809 91.45 28.6393809 91.45 18.1503079 97.11 18.1503079 97.11 19.6544771 93.22 19.6544771 93.22 22.5825931 96.83 22.5825931 96.83 24.0867622 93.22 24.0867622 93.22 27.1452395 97.34 27.1452395 97.34 28.6494087"></polygon>
                    </g>
                    <g id="Group-3-Copy" transform="translate(56.7515, -0)">
                        <path d="M13.0784763,22.8518156 C5.01847633,35.6573091 7.29847633,52.784782 19.0784763,62.9629933 C30.8584763,73.1412047 48.0984763,72.8604264 59.5284763,62.9629933 L13.0684763,22.8518156 L13.0784763,22.8518156 Z" id="Path" fill="#FFFFFF"></path>
                        <path d="M19.0784763,15.8624429 L65.5384763,55.9736206 C73.5984763,43.1681271 71.3184763,26.0406542 59.5384763,15.8624429 C47.7484763,5.68423153 30.5184763,5.96500978 19.0884763,15.8624429 L19.0784763,15.8624429 Z" id="Path" fill="#FFFFFF"></path>
                        <path d="M9.51847633,13.6964393 C-4.64152367,30.1921611 -2.79152367,55.0811469 13.6584763,69.2805038 C30.1084763,83.4798607 54.9284763,81.6247188 69.0884763,65.1289969 C83.2484763,48.6332751 81.3984763,23.7442893 64.9484763,9.54493239 C48.4984763,-4.65442452 23.6784763,-2.79928255 9.51847633,13.6964393 Z M19.0784763,62.9629933 C7.28847633,52.784782 5.00847633,35.6472813 13.0784763,22.8518156 L59.5384763,62.9629933 C48.1084763,72.8604264 30.8684763,73.1412047 19.0884763,62.9629933 L19.0784763,62.9629933 Z M65.5384763,55.9736206 L19.0784763,15.8624429 C30.5084763,5.96500978 47.7484763,5.68423153 59.5284763,15.8624429 C71.3184763,26.0406542 73.5984763,43.1781549 65.5284763,55.9736206 L65.5384763,55.9736206 Z" id="Shape" fill="#3D5039" fill-rule="nonzero"></path>
                    </g>
                </g>
            </g>
        </g>
    </g>
</svg>