<?xml version="1.0" encoding="UTF-8"?>
<svg width="169px" height="189px" viewBox="0 0 169 189" version="1.1" xmlns="http://www.w3.org/2000/svg" xmlns:xlink="http://www.w3.org/1999/xlink">
    <title>persecution_communist</title>
    <defs>
        <ellipse id="path-1" cx="70" cy="69.8102981" rx="70" ry="69.8102981"></ellipse>
    </defs>
    <g id="Page-1" stroke="none" stroke-width="1" fill="none" fill-rule="evenodd">
        <g id="Apple-TV" transform="translate(-302, -292)">
            <g id="persecution_communist" transform="translate(307.2597, 297)">
                <g id="Oval-Copy-2">
                    <ellipse stroke="#EA743D" stroke-width="4" stroke-linejoin="square" cx="70" cy="69.8102981" rx="68" ry="67.8102981"></ellipse>
                    <ellipse stroke="#0E0E0E" stroke-width="5" cx="70" cy="69.8102981" rx="72.5" ry="72.3102981"></ellipse>
                </g>
                <path d="M98.9202863,46.1246612 L75.5602863,46.1246612 L75.5602863,26.0192954 C75.5602863,24.3837398 74.2302863,23.0673171 72.6002863,23.0673171 L67.4402863,23.0673171 C65.8002863,23.0673171 64.4802863,24.3937127 64.4802863,26.0192954 L64.4802863,46.1246612 L41.1202863,46.1246612 C39.7202863,46.1246612 38.5902863,47.2515989 38.5902863,48.6478049 L38.5902863,54.6514905 C38.5902863,56.0476965 39.7202863,57.1746341 41.1202863,57.1746341 L64.4802863,57.1746341 L64.4802863,113.860596 C64.4802863,115.496152 65.8102863,116.812575 67.4402863,116.812575 L72.6002863,116.812575 C74.2402863,116.812575 75.5602863,115.486179 75.5602863,113.860596 L75.5602863,57.1746341 L98.9202863,57.1746341 C100.320286,57.1746341 101.450286,56.0476965 101.450286,54.6514905 L101.450286,48.6478049 C101.450286,47.2515989 100.320286,46.1246612 98.9202863,46.1246612 Z" id="Path-Copy" fill="#EA743D" fill-rule="nonzero"></path>
                <g id="icon_bwl_communist_opp_text" transform="translate(28.3703, 77.9818)" fill-rule="nonzero">
                    <path d="M92.22,0.953672135 C92.78,1.36256102 93.42,1.95096211 93.91,2.45957999 C95.2,3.79594856 96.19,5.41155831 96.97,7.08700547 C97.48,6.77784558 97.82,6.61827918 98.43,6.66814368 C99.31,6.74792688 99.69,7.23659896 100,7.99453934 C100.06,8.13415994 100.2,8.71258812 100.28,8.73253392 C100.35,8.75247972 100.66,8.68266943 100.71,8.63280493 C100.73,8.60288623 100.67,8.08429544 100.68,7.96462064 C100.78,6.78781848 101.58,5.66088081 102.65,5.21210032 C103.48,4.86304883 105.61,5.05253392 106.53,5.13231712 C108.01,5.27193772 108.93,5.8204472 109.55,7.18673447 C109.78,7.69535235 109.58,7.91475615 110.38,7.82500005 C110.28,7.68537945 110.4,7.73524395 110.43,7.67540655 C111.06,6.49860438 111.68,5.9002304 113.12,5.7606098 C114.72,5.60104341 115.7,6.76787268 116.76,7.76516265 C117.5,8.46326563 118.18,8.90207322 118.45,9.96917349 C118.63,10.6872223 118.5,11.2756234 118.34,11.9836992 C118.63,12.2230488 118.93,12.4524255 119.17,12.7416396 C119.85,12.5820732 120.69,12.4324797 121.37,12.6818022 C123.5,13.4497155 123.67,15.4243496 124.02,17.4189296 C124.39,19.563103 123.44,21.2684689 121.19,21.5477101 C120.94,21.5776288 120.76,21.4280353 120.63,21.757141 C120.64,21.8967616 121.68,22.0663009 121.87,22.1361112 C123.06,22.6148103 123.41,24.0608808 122.67,25.0980624 C122.75,25.1180082 122.85,25.1080353 122.92,25.137954 C125.05,26.0055963 127.42,27.0128591 128.97,28.7082521 C129.48,29.2667345 129.74,29.7254879 129.7,30.5233198 C129.62,32.2785502 129.38,34.0936179 129.24,35.8488483 C129.22,36.1181166 129.07,36.4173036 129.18,36.7065177 L130.01,37.5143225 C135.36,43.3983334 135.94,50.4491735 131.98,57.3803388 C128.96,62.6759486 123.89,65.817412 117.76,66.5354608 C117.3,66.5853253 115.79,66.5753524 115.51,66.6750813 C115.3,66.7448916 115.13,66.9742683 114.96,67.0739973 C113.27,68.0712873 111.21,67.9715583 109.81,66.5753524 C109.62,66.3858673 109.34,65.9271139 109.16,65.8074391 C108.86,65.5980082 108,65.3885773 107.6,65.219038 C99.5,61.7285231 94.25,53.5706911 96.13,44.6349729 C97.06,40.2070055 100.01,36.2976288 103.8,33.9141057 C104.02,32.5278727 104.36,31.1316667 104.77,29.7853253 C105.14,28.5686315 105.66,27.2322629 106.28,26.1152982 C107.09,24.6492819 108.42,24.240393 109.98,23.8115583 C112,23.2630488 114.21,23.2730217 116.27,23.5323171 C116.22,23.2131843 116.19,22.8840786 116.3,22.5749187 C116.6,21.6973036 117.41,21.2186044 118.33,21.2983876 C118.55,21.3183334 119.28,21.5876017 119.41,21.457954 C119.42,21.4479811 119.44,21.1487941 119.43,21.1388212 C119.42,21.1288483 119.34,21.1388212 119.29,21.1188754 C117.91,20.161477 117.75,18.7951898 117.46,17.2394174 C117.24,16.082561 117.03,15.1750271 117.64,14.0879811 C117.71,13.9683063 117.97,13.7189838 118.03,13.6092819 C118.06,13.5594174 118.08,13.5095529 118.09,13.4596884 C118.09,13.4297697 117.71,13.0109079 117.68,13.0109079 C117.43,12.9710163 117.25,13.2801762 117.09,13.3699323 C114.85,14.7262467 113.46,13.300122 111.93,11.8839702 C111.23,11.2357318 110.51,10.7370868 110.23,9.7397968 C110.19,9.6001762 110.17,9.07161251 110.15,9.04169382 C110.13,9.02174802 109.75,8.98185642 109.68,9.04169382 C109.51,9.22120601 109.29,9.94922769 109.13,10.218496 C108.29,11.5648374 106.34,11.4651084 104.97,11.3853253 C103.42,11.2855963 102.38,11.2855963 101.29,10.0589296 C101.23,9.98911929 101.17,9.79963419 101.1,9.7796884 C101.04,9.7697155 100.83,9.92928189 100.7,9.87941739 C100.7,9.95920059 100.7,10.0290109 100.71,10.1087941 C100.8,10.4877643 101.04,10.9564906 101.07,11.3554066 C101.12,11.9836992 100.7,12.8114499 100.14,13.100664 C99.82,13.2702033 99.39,13.2901491 99.03,13.300122 C99.15,14.1677643 99.36,15.0254337 99.45,15.8930759 C99.6,17.3092277 99.66,19.4334553 99.2,20.7698239 C98.82,21.8668429 98.07,22.1859757 97.14,22.6746477 C95.59,23.4824526 94,24.1306911 92.5,24.9684147 C92.24,26.2848374 91.81,27.6012602 91.25,28.8279269 C87.99,35.9585502 81.29,38.7709079 73.66,38.1426152 C68.35,37.7038076 63.57,34.4227236 60.49,30.2341057 C60.3,29.9748103 60.02,29.3764364 59.85,29.1969242 C59.75,29.0772494 58.83,28.7481437 58.59,28.6085231 C57.2,27.8106911 56.52,26.0055963 56.78,24.439851 C56.82,24.1705827 57.13,23.4625068 57.12,23.3228862 C57.1,22.7644038 56.78,21.7671139 56.7,21.1188754 C56.07,16.3019648 57.3,11.0063551 60.18,7.12689707 C65.15,0.41513555 73.97,-1.69911919 81.55,1.99085371 C83.82,1.17307593 86.39,0.205704655 88.82,0.0361653601 C90.32,-0.073536537 90.99,0.0261924603 92.21,0.903807636 L92.22,0.953672135 Z M80.09,7.74521685 C77.41,6.24928189 74.34,5.54120601 71.31,6.30911929 C64.49,8.02445804 61.22,15.1052169 62.6,21.6873307 C63.34,22.2059215 63.98,22.7943225 64.35,23.6320461 C64.83,24.7190922 64.83,25.9158402 64.31,26.9829404 C67.04,30.6828862 71.67,33.9639702 76.59,33.0664093 C79.26,32.5777372 83.08,30.4435366 84.68,28.2395258 C86.75,25.3872765 87.52,21.4679269 86.96,18.0173036 C86.29,13.9284147 83.69,9.7497697 80.1,7.74521685 L80.09,7.74521685 Z M107.41,6.78781848 C107.1,6.51855018 106.73,6.37892959 106.33,6.30911929 C106.02,6.25925479 104.44,6.14955289 104.16,6.19941739 C103.64,6.28917349 103.15,6.49860438 102.82,6.91746617 C102.55,7.25654476 102.36,7.66543365 102.33,8.10424124 C102.88,8.09426834 103.2,8.72256102 102.87,9.15139571 C102.83,9.20126021 102.73,9.21123311 102.72,9.24115181 C102.62,9.41069111 103,9.6999052 103.13,9.79963419 C103.73,10.2384418 104.57,10.2783334 105.31,10.2982792 C106.05,10.318225 106.67,10.3780624 107.3,9.91930899 C107.47,9.79963419 108.1,9.16136861 107.97,8.96191062 C107.93,8.90207322 106.95,8.89210032 106.85,8.59291333 C106.55,7.70532525 107.42,7.60559625 108.08,7.72527105 C108.1,7.64548785 108.01,7.69535235 107.99,7.65546075 C107.93,7.52581306 107.91,7.37621956 107.81,7.22662606 C107.74,7.11692417 107.51,6.86760167 107.41,6.77784558 L107.41,6.78781848 Z M115.3,7.96462064 C115.04,7.75518975 114.51,7.36624666 114.2,7.27649056 C113.63,7.11692417 112.82,7.36624666 112.37,7.70532525 C111.95,8.02445804 112.31,8.00451224 112.42,8.35356373 C112.48,8.57296753 112.41,8.91204612 112.21,9.04169382 C111.81,9.28104341 111.54,9.04169382 111.76,9.7697155 C111.98,10.4977372 113.55,12.0136179 114.27,12.2928591 C114.93,12.5521545 115.69,12.4324797 116.24,11.9936721 C116.52,11.7742683 116.24,11.7144309 116.21,11.4252169 C116.18,11.1758944 116.41,10.9564906 116.62,10.8667345 C116.81,10.7869513 116.96,10.8866803 117,10.6074391 C117.04,10.2883063 116.89,9.6999052 116.74,9.42066401 C116.61,9.16136861 115.57,8.19399734 115.31,7.98456644 L115.3,7.96462064 Z M121.8,14.6464635 C121.44,14.397141 121.07,14.2575204 120.64,14.197683 C120.79,14.696328 120.47,15.1052169 119.93,14.9855421 C119.7,14.9356776 119.43,14.5866261 119.28,14.6265177 C119.19,14.6564364 118.75,15.2248916 118.7,15.3345935 C118.35,16.0925339 118.63,17.3192006 118.84,18.1170326 C119.02,18.8151355 119.24,19.1442412 119.74,19.6428862 C119.89,19.7027236 119.95,19.4334553 120,19.363645 C120.49,18.8051627 121.21,19.2838618 121.15,19.962019 C122.04,19.6827778 122.75,19.1542141 122.88,18.1868429 C122.95,17.6283605 122.54,15.6437534 122.29,15.1650542 C122.26,15.1052169 121.87,14.6763822 121.81,14.6364906 L121.8,14.6464635 Z M121.1,38.0827778 C115.09,35.1507453 107.18,36.5070597 103.4,42.1916125 C99.02,48.7737263 102.82,56.9315583 109.59,59.8935095 C109.8,59.9832656 110.55,60.3023984 110.73,60.3123713 C110.82,60.3123713 110.79,60.2226152 110.84,60.2026694 C112.67,59.6042954 114.62,59.7638618 115.88,61.3994174 C116.07,61.638767 115.88,61.7185502 116.25,61.6786586 C121.72,61.1002304 127.33,58.1881437 128.28,52.2941599 C128.52,50.8181708 128.58,48.9432656 128.41,47.4473307 C127.95,43.3883605 124.69,39.8380082 121.09,38.0728049 L121.1,38.0827778 Z" id="Shape-Copy-2" fill="#3D5039"></path>
                    <g id="Group-Copy" transform="translate(-0, 77.3461)" fill="#010101">
                        <path d="M8.31,10.0626558 C7.78,10.3119783 7.26,10.5014634 6.76,10.6111653 C6.26,10.7208672 5.71,10.7807046 5.13,10.7807046 C3.53,10.7807046 2.27,10.3119783 1.36,9.38449864 C0.45,8.45701897 0,7.17051491 0,5.55490515 C0,3.93929539 0.5,2.57300813 1.51,1.54579946 C2.51,0.518590786 3.83,0 5.45,0 C5.98,0 6.47,0.0398915989 6.91,0.129647696 C7.35,0.219403794 7.8,0.35902439 8.26,0.548509485 L7.68,1.99457995 C7.31,1.83501355 6.96,1.72531165 6.61,1.65550136 C6.26,1.58569106 5.89,1.54579946 5.48,1.54579946 C4.43,1.54579946 3.57,1.89485095 2.9,2.59295393 C2.22,3.29105691 1.89,4.23848238 1.89,5.42525745 C1.89,6.61203252 2.2,7.5195664 2.82,8.19772358 C3.44,8.87588076 4.28,9.21495935 5.33,9.21495935 C5.68,9.21495935 6.05,9.16509485 6.44,9.07533875 C6.83,8.98558266 7.23,8.83598916 7.64,8.62655827 L8.33,10.0626558 L8.31,10.0626558 Z" id="Path"></path>
                        <path d="M14.08,10.7807046 C12.59,10.7807046 11.38,10.2920325 10.47,9.32466125 C9.55,8.35728997 9.09,7.08075881 9.09,5.52498645 C9.09,3.8595122 9.56,2.52314363 10.49,1.51588076 C11.42,0.508617886 12.68,0 14.25,0 C15.72,0 16.9,0.488672087 17.81,1.45604336 C18.71,2.42341463 19.16,3.6999458 19.16,5.28563686 C19.16,6.96108401 18.7,8.29745257 17.77,9.28476965 C16.84,10.2820596 15.61,10.7807046 14.09,10.7807046 L14.08,10.7807046 Z M14.1,9.22493225 C15.09,9.22493225 15.87,8.89582656 16.43,8.22764228 C17,7.55945799 17.28,6.63197832 17.28,5.42525745 C17.28,4.21853659 17,3.24119241 16.45,2.56303523 C15.9,1.88487805 15.13,1.54579946 14.17,1.54579946 C13.21,1.54579946 12.42,1.89485095 11.84,2.60292683 C11.25,3.31100271 10.96,4.23848238 10.96,5.39533875 C10.96,6.55219512 11.25,7.4896477 11.83,8.17777778 C12.41,8.87588076 13.17,9.21495935 14.11,9.21495935 L14.1,9.22493225 Z" id="Shape"></path>
                        <path d="M32.49,10.6011924 L30.73,10.6011924 L30.73,3.96921409 C30.73,3.6700271 30.73,3.34092141 30.76,2.97192412 C30.79,2.60292683 30.8,2.22395664 30.83,1.82504065 L30.78,1.82504065 C30.72,2.10428184 30.67,2.34363144 30.62,2.54308943 C30.57,2.74254743 30.52,2.90211382 30.47,3.02178862 L27.44,10.5912195 L26.2,10.5912195 L23.15,3.08162602 C23.11,2.97192412 23.06,2.82233062 23.01,2.61289973 C22.95,2.40346883 22.9,2.14417344 22.84,1.82504065 L22.79,1.82504065 C22.82,2.18406504 22.84,2.56303523 22.85,2.96195122 C22.86,3.35089431 22.87,3.7597832 22.87,4.18861789 L22.87,10.5912195 L21.23,10.5912195 L21.23,0.159566396 L23.74,0.159566396 L26.42,6.90124661 C26.53,7.15056911 26.62,7.3899187 26.69,7.60932249 C26.76,7.82872629 26.82,8.02818428 26.85,8.21766938 L26.89,8.21766938 C26.98,7.93842818 27.06,7.68910569 27.14,7.459729 C27.22,7.2403252 27.29,7.04086721 27.35,6.88130081 L30.06,0.159566396 L32.5,0.159566396 L32.5,10.5912195 L32.49,10.6011924 Z" id="Path"></path>
                        <path d="M46.48,10.6011924 L44.72,10.6011924 L44.72,3.96921409 C44.72,3.6700271 44.72,3.34092141 44.75,2.97192412 C44.78,2.60292683 44.79,2.22395664 44.82,1.82504065 L44.77,1.82504065 C44.71,2.10428184 44.66,2.34363144 44.61,2.54308943 C44.56,2.74254743 44.51,2.90211382 44.46,3.02178862 L41.43,10.5912195 L40.19,10.5912195 L37.14,3.08162602 C37.1,2.97192412 37.05,2.82233062 37,2.61289973 C36.94,2.40346883 36.89,2.14417344 36.83,1.82504065 L36.78,1.82504065 C36.81,2.18406504 36.83,2.56303523 36.84,2.96195122 C36.85,3.35089431 36.86,3.7597832 36.86,4.18861789 L36.86,10.5912195 L35.22,10.5912195 L35.22,0.159566396 L37.73,0.159566396 L40.41,6.90124661 C40.52,7.15056911 40.61,7.3899187 40.68,7.60932249 C40.75,7.82872629 40.81,8.02818428 40.84,8.21766938 L40.88,8.21766938 C40.97,7.93842818 41.05,7.68910569 41.13,7.459729 C41.21,7.2403252 41.28,7.04086721 41.34,6.88130081 L44.05,0.159566396 L46.49,0.159566396 L46.49,10.5912195 L46.48,10.6011924 Z" id="Path"></path>
                        <path d="M57.27,6.23306233 C57.27,7.74894309 56.92,8.88585366 56.23,9.64379404 C55.54,10.4017344 54.49,10.7807046 53.09,10.7807046 C51.69,10.7807046 50.74,10.4117073 50.07,9.68368564 C49.4,8.95566396 49.06,7.84867209 49.06,6.37268293 L49.06,0.169539295 L50.83,0.169539295 L50.83,6.35273713 C50.83,7.3101355 51.03,8.02818428 51.42,8.50688347 C51.81,8.98558266 52.41,9.22493225 53.19,9.22493225 C53.97,9.22493225 54.53,8.99555556 54.91,8.52682927 C55.29,8.06807588 55.48,7.3699729 55.48,6.43252033 L55.48,0.159566396 L57.25,0.159566396 L57.25,6.22308943 L57.27,6.23306233 Z" id="Path"></path>
                        <path d="M68.77,10.6011924 L66.84,10.6011924 L61.98,3.14146341 C61.88,2.99186992 61.8,2.85224932 61.73,2.72260163 C61.66,2.59295393 61.6,2.48325203 61.55,2.38352304 L61.51,2.38352304 C61.53,2.53311653 61.54,2.73257453 61.55,2.99186992 C61.56,3.25116531 61.56,3.5603252 61.56,3.93929539 L61.56,10.6011924 L59.85,10.6011924 L59.85,0.169539295 L61.91,0.169539295 L66.62,7.459729 C66.72,7.61929539 66.81,7.75891599 66.89,7.88856369 C66.97,8.01821138 67.03,8.13788618 67.08,8.23761518 L67.11,8.23761518 C67.09,8.09799458 67.08,7.90850949 67.07,7.65918699 C67.07,7.4098645 67.06,7.11067751 67.06,6.75165312 L67.06,0.169539295 L68.77,0.169539295 L68.77,10.6011924 L68.77,10.6011924 Z" id="Path"></path>
                        <polygon id="Path" points="73.28 10.6011924 71.5 10.6011924 71.5 0.169539295 73.28 0.169539295"></polygon>
                        <path d="M75.16,9.84325203 L75.95,8.47696477 C76.43,8.77615176 76.87,8.98558266 77.28,9.11523035 C77.69,9.24487805 78.14,9.30471545 78.64,9.30471545 C79.24,9.30471545 79.71,9.17506775 80.05,8.91577236 C80.39,8.65647696 80.56,8.28747967 80.56,7.80878049 C80.56,7.3699729 80.42,7.03089431 80.13,6.78157182 C79.85,6.53224932 79.36,6.30287263 78.67,6.09344173 C77.59,5.78428184 76.81,5.39533875 76.31,4.92661247 C75.81,4.45788618 75.56,3.8196206 75.56,3.02178862 C75.56,2.15414634 75.88,1.43609756 76.53,0.867642276 C77.18,0.299186992 78.06,0.00997289973 79.18,0.00997289973 C79.67,0.00997289973 80.15,0.0698102981 80.63,0.179512195 C81.11,0.289214092 81.57,0.458753388 82.03,0.698102981 L81.34,2.09430894 C80.95,1.88487805 80.57,1.73528455 80.21,1.63555556 C79.84,1.54579946 79.47,1.49593496 79.1,1.49593496 C78.55,1.49593496 78.12,1.61560976 77.81,1.85495935 C77.5,2.09430894 77.34,2.43338753 77.34,2.87219512 C77.34,3.26113821 77.48,3.5603252 77.77,3.7897019 C78.06,4.00910569 78.55,4.22850949 79.26,4.44791328 C80.35,4.76704607 81.14,5.16596206 81.62,5.65463415 C82.1,6.14330623 82.34,6.81149051 82.34,7.65918699 C82.34,8.57669377 82.01,9.32466125 81.36,9.91306233 C80.71,10.5014634 79.77,10.7906775 78.56,10.7906775 C77.95,10.7906775 77.36,10.7108943 76.78,10.5513279 C76.2,10.3917615 75.66,10.1623848 75.16,9.85322493 L75.16,9.84325203 Z" id="Path"></path>
                        <polygon id="Path" points="91.08 1.66547425 88.07 1.66547425 88.07 10.6011924 86.3 10.6011924 86.3 1.66547425 83.3 1.66547425 83.3 0.169539295 91.08 0.169539295"></polygon>
                        <path d="M5.6,28.6621138 C4.11,28.6621138 2.9,28.1734417 1.99,27.2060705 C1.07,26.2287263 0.61,24.962168 0.61,23.4063957 C0.61,21.7409214 1.08,20.4045528 2.01,19.39729 C2.94,18.3900271 4.2,17.8814092 5.77,17.8814092 C7.24,17.8814092 8.42,18.3700813 9.33,19.3374526 C10.23,20.3147967 10.68,21.5913279 10.68,23.1670461 C10.68,24.8424932 10.22,26.1788618 9.29,27.1661789 C8.36,28.1634688 7.13,28.6621138 5.61,28.6621138 L5.6,28.6621138 Z M5.63,27.1063415 C6.62,27.1063415 7.4,26.7772358 7.96,26.1090515 C8.52,25.4408672 8.81,24.5133875 8.81,23.3166396 C8.81,22.1198916 8.53,21.1325745 7.98,20.4544173 C7.43,19.7762602 6.66,19.4371816 5.7,19.4371816 C4.74,19.4371816 3.95,19.7862331 3.37,20.4943089 C2.79,21.2023848 2.49,22.1298645 2.49,23.2867209 C2.49,24.4435772 2.78,25.3810298 3.36,26.0691599 C3.94,26.7672629 4.7,27.1063415 5.64,27.1063415 L5.63,27.1063415 Z" id="Shape"></path>
                        <path d="M14.5,24.8524661 L14.5,28.4826016 L12.73,28.4826016 L12.73,18.0509485 L16.01,18.0509485 C17.23,18.0509485 18.15,18.3301897 18.79,18.8886721 C19.43,19.4471545 19.75,20.2649322 19.75,21.3420054 C19.75,22.4190786 19.39,23.2268835 18.67,23.8850949 C17.95,24.5333333 16.99,24.862439 15.77,24.862439 L14.51,24.862439 L14.5,24.8524661 Z M14.5,19.497019 L14.5,23.4063957 L15.61,23.4063957 C16.35,23.4063957 16.92,23.2368564 17.3,22.8977778 C17.68,22.5586992 17.87,22.0600542 17.87,21.4118157 C17.87,20.7635772 17.69,20.284878 17.33,19.9657453 C16.97,19.6466125 16.42,19.4870461 15.7,19.4870461 L14.51,19.4870461 L14.5,19.497019 Z" id="Shape"></path>
                        <path d="M23.41,24.8524661 L23.41,28.4826016 L21.64,28.4826016 L21.64,18.0509485 L24.92,18.0509485 C26.14,18.0509485 27.06,18.3301897 27.7,18.8886721 C28.34,19.4471545 28.66,20.2649322 28.66,21.3420054 C28.66,22.4190786 28.3,23.2268835 27.58,23.8850949 C26.86,24.5333333 25.9,24.862439 24.68,24.862439 L23.42,24.862439 L23.41,24.8524661 Z M23.41,19.497019 L23.41,23.4063957 L24.52,23.4063957 C25.26,23.4063957 25.83,23.2368564 26.21,22.8977778 C26.59,22.5586992 26.78,22.0600542 26.78,21.4118157 C26.78,20.7635772 26.6,20.284878 26.24,19.9657453 C25.88,19.6466125 25.33,19.4870461 24.61,19.4870461 L23.42,19.4870461 L23.41,19.497019 Z" id="Shape"></path>
                        <path d="M38.49,28.4826016 L36.45,28.4826016 L34.85,25.7101355 C34.57,25.2214634 34.31,24.8923577 34.08,24.7028726 C33.85,24.5133875 33.57,24.4136585 33.26,24.4136585 L32.33,24.4136585 L32.33,28.4826016 L30.56,28.4826016 L30.56,18.0509485 L33.97,18.0509485 C35.06,18.0509485 35.91,18.2902981 36.53,18.7789702 C37.15,19.2676423 37.46,19.9856911 37.46,20.9430894 C37.46,21.6611382 37.26,22.2694851 36.87,22.7681301 C36.47,23.2667751 35.93,23.6357724 35.24,23.8651491 L35.24,23.8950678 C35.5,24.0047696 35.74,24.1743089 35.96,24.4036856 C36.18,24.6330623 36.38,24.9123035 36.57,25.2314363 L38.5,28.4726287 L38.49,28.4826016 Z M32.32,19.4870461 L32.32,22.977561 L33.67,22.977561 C34.23,22.977561 34.69,22.7980488 35.05,22.4489973 C35.41,22.0999458 35.59,21.6511653 35.59,21.1226016 C35.59,20.5940379 35.43,20.2050949 35.12,19.9258537 C34.8,19.6366396 34.34,19.497019 33.72,19.497019 L32.33,19.497019 L32.32,19.4870461 Z" id="Shape"></path>
                        <polygon id="Path" points="45.89 28.4826016 40 28.4826016 40 18.0509485 45.66 18.0509485 45.66 19.5468835 41.77 19.5468835 41.77 22.4589702 45.38 22.4589702 45.38 23.9549051 41.77 23.9549051 41.77 26.9966396 45.89 26.9966396 45.89 28.4925745"></polygon>
                        <path d="M47.05,27.7246612 L47.84,26.358374 C48.32,26.657561 48.76,26.8669919 49.17,26.9966396 C49.58,27.1262873 50.03,27.1861247 50.53,27.1861247 C51.13,27.1861247 51.6,27.056477 51.94,26.7971816 C52.28,26.5378862 52.45,26.1688889 52.45,25.6901897 C52.45,25.2513821 52.31,24.9123035 52.02,24.662981 C51.74,24.4136585 51.25,24.1842818 50.56,23.9748509 C49.49,23.6656911 48.7,23.276748 48.2,22.8080217 C47.7,22.3392954 47.45,21.7010298 47.45,20.9031978 C47.45,20.0355556 47.77,19.3175068 48.42,18.7490515 C49.07,18.1706233 49.95,17.8913821 51.07,17.8913821 C51.56,17.8913821 52.04,17.9512195 52.52,18.0609214 C53,18.1706233 53.46,18.3401626 53.92,18.5795122 L53.23,19.9757182 C52.84,19.7662873 52.46,19.6166938 52.1,19.5169648 C51.74,19.4172358 51.36,19.3773442 50.99,19.3773442 C50.44,19.3773442 50.01,19.497019 49.7,19.7363686 C49.39,19.9757182 49.23,20.3147967 49.23,20.7536043 C49.23,21.1425474 49.37,21.4417344 49.66,21.6711111 C49.95,21.8905149 50.44,22.1099187 51.15,22.3293225 C52.24,22.6484553 53.03,23.0473713 53.51,23.5360434 C53.99,24.0247154 54.23,24.6928997 54.23,25.5405962 C54.23,26.458103 53.9,27.2060705 53.25,27.7944715 C52.6,28.3828726 51.66,28.6720867 50.45,28.6720867 C49.84,28.6720867 49.25,28.5923035 48.67,28.4327371 C48.09,28.2731707 47.55,28.043794 47.05,27.7346341 L47.05,27.7246612 Z" id="Path"></path>
                        <path d="M55.4,27.7246612 L56.19,26.358374 C56.67,26.657561 57.11,26.8669919 57.52,26.9966396 C57.93,27.1262873 58.39,27.1861247 58.88,27.1861247 C59.48,27.1861247 59.95,27.056477 60.29,26.7971816 C60.63,26.5378862 60.8,26.1688889 60.8,25.6901897 C60.8,25.2513821 60.66,24.9123035 60.37,24.662981 C60.08,24.4136585 59.6,24.1842818 58.91,23.9748509 C57.84,23.6656911 57.05,23.276748 56.55,22.8080217 C56.05,22.3392954 55.8,21.7010298 55.8,20.9031978 C55.8,20.0355556 56.12,19.3175068 56.77,18.7490515 C57.42,18.1706233 58.3,17.8913821 59.42,17.8913821 C59.91,17.8913821 60.4,17.9512195 60.87,18.0609214 C61.35,18.1706233 61.81,18.3401626 62.27,18.5795122 L61.58,19.9757182 C61.19,19.7662873 60.81,19.6166938 60.45,19.5169648 C60.09,19.4172358 59.71,19.3773442 59.34,19.3773442 C58.79,19.3773442 58.36,19.497019 58.05,19.7363686 C57.74,19.9757182 57.58,20.3147967 57.58,20.7536043 C57.58,21.1425474 57.72,21.4417344 58.01,21.6711111 C58.3,21.8905149 58.79,22.1099187 59.5,22.3293225 C60.59,22.6484553 61.38,23.0473713 61.86,23.5360434 C62.34,24.0247154 62.58,24.6928997 62.58,25.5405962 C62.58,26.458103 62.25,27.2060705 61.6,27.7944715 C60.95,28.3828726 60.01,28.6720867 58.8,28.6720867 C58.19,28.6720867 57.6,28.5923035 57.02,28.4327371 C56.44,28.2731707 55.9,28.043794 55.4,27.7346341 L55.4,27.7246612 Z" id="Path"></path>
                        <polygon id="Path" points="66.37 28.4826016 64.59 28.4826016 64.59 18.0509485 66.37 18.0509485"></polygon>
                        <path d="M73.41,28.6621138 C71.92,28.6621138 70.71,28.1734417 69.79,27.2060705 C68.87,26.2287263 68.41,24.962168 68.41,23.4063957 C68.41,21.7409214 68.88,20.4045528 69.81,19.39729 C70.74,18.3900271 72,17.8814092 73.57,17.8814092 C75.04,17.8814092 76.22,18.3700813 77.13,19.3374526 C78.03,20.3147967 78.48,21.5913279 78.48,23.1670461 C78.48,24.8424932 78.02,26.1788618 77.09,27.1661789 C76.16,28.1634688 74.93,28.6621138 73.41,28.6621138 L73.41,28.6621138 Z M73.43,27.1063415 C74.42,27.1063415 75.2,26.7772358 75.76,26.1090515 C76.33,25.4408672 76.61,24.5133875 76.61,23.3166396 C76.61,22.1198916 76.33,21.1325745 75.78,20.4544173 C75.23,19.7762602 74.46,19.4371816 73.5,19.4371816 C72.54,19.4371816 71.75,19.7862331 71.17,20.4943089 C70.58,21.2023848 70.29,22.1298645 70.29,23.2867209 C70.29,24.4435772 70.58,25.3810298 71.16,26.0691599 C71.74,26.7672629 72.5,27.1063415 73.44,27.1063415 L73.43,27.1063415 Z" id="Shape"></path>
                        <path d="M89.44,28.4826016 L87.51,28.4826016 L82.65,21.0228726 C82.55,20.8732791 82.47,20.7336585 82.4,20.6040108 C82.33,20.4743631 82.27,20.3646612 82.22,20.2649322 L82.18,20.2649322 C82.2,20.4145257 82.21,20.6139837 82.22,20.8732791 C82.23,21.1325745 82.23,21.4417344 82.23,21.8207046 L82.23,28.4826016 L80.52,28.4826016 L80.52,18.0509485 L82.58,18.0509485 L87.29,25.3411382 C87.39,25.5007046 87.48,25.6403252 87.56,25.7699729 C87.64,25.8996206 87.7,26.0192954 87.75,26.1190244 L87.78,26.1190244 C87.76,25.9794038 87.75,25.7899187 87.74,25.5405962 C87.74,25.2912737 87.73,24.9920867 87.73,24.6330623 L87.73,18.0509485 L89.44,18.0509485 L89.44,28.4826016 L89.44,28.4826016 Z" id="Path"></path>
                    </g>
                </g>
            </g>
        </g>
    </g>
</svg>