<?xml version="1.0" encoding="UTF-8"?>
<svg width="168px" height="189px" viewBox="0 0 168 189" version="1.1" xmlns="http://www.w3.org/2000/svg" xmlns:xlink="http://www.w3.org/1999/xlink">
    <title>persecution_islamic</title>
    <defs>
        <ellipse id="path-1" cx="70" cy="69.7271546" rx="70" ry="69.7271546"></ellipse>
    </defs>
    <g id="Page-1" stroke="none" stroke-width="1" fill="none" fill-rule="evenodd">
        <g id="Apple-TV" transform="translate(-502, -32)">
            <g id="persecution_islamic" transform="translate(507.2597, 37)">
                <g id="Oval-Copy-7">
                    <ellipse stroke="#EA743D" stroke-width="4" stroke-linejoin="square" cx="70" cy="69.7271546" rx="68" ry="67.7271546"></ellipse>
                    <ellipse stroke="#0E0E0E" stroke-width="5" cx="70" cy="69.7271546" rx="72.5" ry="72.2271546"></ellipse>
                </g>
                <path d="M98.9202863,46.0697272 L75.5602863,46.0697272 L75.5602863,25.9883066 C75.5602863,24.354699 74.2302863,23.0398441 72.6002863,23.0398441 L67.4402863,23.0398441 C65.8002863,23.0398441 64.4802863,24.36466 64.4802863,25.9883066 L64.4802863,46.0697272 L41.1202863,46.0697272 C39.7202863,46.0697272 38.5902863,47.1953227 38.5902863,48.5898657 L38.5902863,54.586401 C38.5902863,55.9809441 39.7202863,57.1065396 41.1202863,57.1065396 L64.4802863,57.1065396 L64.4802863,113.724989 C64.4802863,115.358597 65.8102863,116.673452 67.4402863,116.673452 L72.6002863,116.673452 C74.2402863,116.673452 75.5602863,115.348636 75.5602863,113.724989 L75.5602863,57.1065396 L98.9202863,57.1065396 C100.320286,57.1065396 101.450286,55.9809441 101.450286,54.586401 L101.450286,48.5898657 C101.450286,47.1953227 100.320286,46.0697272 98.9202863,46.0697272 Z" id="Path-Copy-6" fill="#EA743D" fill-rule="nonzero"></path>
                <g id="icon_bwl_islamic_opp_text" transform="translate(28.1303, 40.4716)" fill-rule="nonzero">
                    <g id="Group-Copy-2" transform="translate(51.0756, 0)">
                        <polygon id="Path" fill="#FFFFFF" points="75.0143759 91.6712863 61.1843759 93.2550888 23.6643759 93.1654396 8.2043759 92.896492 8.2043759 69.2988307 24.5743759 65.7626678 40.9143759 53.4807276 49.5443759 57.3057601 57.3443759 68.6214812 70.2143759 68.8904288 75.0143759 71.0918146"></polygon>
                        <path d="M1.1443759,94.6097878 C0.404375896,94.3109571 -0.145624104,93.8726722 0.0343758963,92.9861412 C0.114375896,92.5976613 0.654375896,92.2091815 1.0243759,92.2091815 L5.3243759,92.2091815 L5.2443759,63.8700736 C4.7443759,63.9398008 4.2443759,63.8003465 3.7643759,63.7903854 C3.0143759,63.7704634 1.7443759,63.9497618 1.0843759,63.7405803 C0.254375896,63.4815938 0.0443758963,62.1468168 0.854375896,61.6985708 C1.5743759,61.2901689 2.3743759,61.5491555 3.1143759,61.5591165 C9.5243759,61.6288437 15.9443759,61.5093114 22.3543759,61.5391945 L22.3543759,48.1017757 C22.3543759,48.1017757 19.9143759,48.1017757 19.9143759,48.1017757 C19.8943759,48.1017757 19.5743759,47.9025552 19.5143759,47.8627111 C18.5243759,47.1255955 19.2743759,45.9003898 20.3143759,45.7808575 L63.5243759,45.8007796 C64.7443759,46.2888696 64.7343759,47.6037246 63.4043759,47.9722824 C62.5943759,48.2013859 61.8243759,48.0519706 61.0043759,48.0220875 L61.0843759,61.5491555 C67.4143759,61.4993504 73.7543759,61.6089216 80.0943759,61.5491555 C80.3243759,61.5491555 80.5243759,61.4694673 80.7343759,61.4595063 C81.8743759,61.4395842 83.3643759,61.4196622 83.1043759,63.0233867 C83.0343759,63.4417497 82.4243759,63.8700736 82.0243759,63.8700736 L78.2443759,63.8700736 L78.1243759,92.2091815 L82.2643759,92.2091815 C82.3843759,92.2091815 82.9743759,92.458207 83.0843759,92.5578172 C83.7843759,93.2351667 83.2943759,94.2312689 82.5443759,94.6097878 L1.1443759,94.6097878 L1.1443759,94.6097878 Z M53.8643759,92.3685578 L53.8643759,73.6019922 C53.8643759,73.074058 53.5343759,72.0879168 53.3143759,71.5898657 C51.2943759,66.8583803 44.0443759,65.1650065 43.0343759,60.2940667 C42.8343759,59.3477696 43.0043759,58.0727588 41.5343759,58.2819402 C40.4043759,58.4413166 40.5343759,59.965353 40.3343759,60.7721958 C39.3843759,64.6968385 33.2743759,66.8384582 30.9343759,70.1455175 C29.6843759,71.9086184 29.6843759,73.064097 29.6743759,75.1260286 C29.6243759,80.8735383 29.7043759,86.6310091 29.6743759,92.3785188 L32.2043759,92.3785188 C32.2043759,92.3785188 32.3243759,92.2689476 32.3243759,92.2589866 L32.3243759,73.532265 C32.3243759,72.5660459 33.8243759,70.7730619 34.5843759,70.1754006 C37.0243759,68.2628844 40.1243759,66.8484192 41.6443759,63.9597228 L41.8443759,64.039411 C43.4943759,67.7150282 50.2443759,69.458207 51.0943759,73.3928107 C51.1843759,79.1901256 51.3743759,85.0870507 51.2143759,90.8943265 C51.2043759,91.3724556 51.0643759,91.8705067 51.1343759,92.3685578 L53.8643759,92.3685578 L53.8643759,92.3685578 Z M21.3943759,85.8042443 L21.3943759,78.0844521 C21.3943759,77.9449978 21.2343759,77.3572975 21.1743759,77.1779991 C20.5343759,75.0662625 18.3643759,73.4525769 16.5943759,72.2970983 C16.3043759,72.2472932 13.5843759,74.5383283 13.2343759,74.9168471 C12.8043759,75.3850152 11.6643759,76.9190126 11.6643759,77.5166739 L11.6643759,85.8042443 L21.3843759,85.8042443 L21.3943759,85.8042443 Z M62.1443759,85.8042443 L71.6643759,85.8042443 C71.7543759,85.8042443 71.7843759,85.6050238 71.7843759,85.5253356 C71.9243759,84.3100909 71.7643759,82.5669121 71.7843759,81.2719792 C71.7843759,80.1065396 71.9643759,79.0506713 71.7643759,77.8553486 C71.3543759,75.3949762 69.1443759,73.3728887 67.0143759,72.2871373 C64.8243759,73.8012126 62.0943759,75.7934171 62.0943759,78.7319186 L62.1443759,85.8042443 L62.1443759,85.8042443 Z" id="Shape" fill="#3D5039"></path>
                        <path d="M41.9743759,0 C42.0143759,0.18925942 41.8743759,0.169337375 41.7643759,0.229103508 C38.9943759,1.65352967 37.0443759,3.62581204 36.8243759,6.92291035 C36.2943759,15.0112603 46.6443759,18.5573841 51.2743759,11.8735383 C51.4043759,11.6842789 51.7243759,10.9870074 51.8543759,10.9272412 C51.9343759,10.8873971 52.0143759,10.9770463 52.0143759,11.0069294 C52.0343759,11.1264617 51.7743759,12.2520572 51.7143759,12.4711997 C50.4943759,17.0632308 47.1243759,19.0952793 42.6743759,19.7925509 C42.5743759,19.8124729 42.3143759,19.822434 42.3743759,19.9718493 C44.0843759,22.4720658 46.3143759,24.4244262 48.7743759,26.157644 C51.8543759,28.3291468 56.4943759,30.4508445 58.1343759,33.9670853 C59.3243759,36.517107 59.1543759,39.0970117 57.8443759,41.5474231 C57.4543759,42.2745777 57.0143759,43.2507579 56.0743759,43.2208748 C46.7043759,43.3702902 37.3243759,42.9917713 27.9443759,43.1411867 C27.5243759,43.1411867 27.0543759,43.3802512 26.6643759,43.0614985 C26.4243759,42.862278 25.6643759,41.6171503 25.4843759,41.2784755 C23.1643759,36.985275 25.0443759,32.9510611 28.5943759,30.1818969 C32.2943759,27.2932005 36.5543759,25.4802945 39.6843759,21.7747943 C40.0243759,21.3763534 40.8743759,20.3404071 41.0043759,19.8822001 C41.0443759,19.7228237 40.9843759,19.7925509 40.9043759,19.7626678 C40.6743759,19.6829796 40.4343759,19.7029017 40.2043759,19.6530966 C29.8043759,17.2823733 29.3643759,3.49631875 39.3243759,0.358596795 L40.9343759,0 L41.9743759,0 L41.9743759,0 Z" id="Path" fill="#3D5039"></path>
                    </g>
                    <g id="Group-Copy-3" transform="translate(0, 113.8346)" fill="#010101">
                        <g id="Group-15" transform="translate(12.61, -0)">
                            <polygon id="Path" points="1.78 10.5885665 0 10.5885665 0 0.169337375 1.78 0.169337375"></polygon>
                            <path d="M3.67,9.82156778 L4.46,8.45690775 C4.94,8.75573841 5.38,8.96491988 5.79,9.09441317 C6.2,9.22390645 6.65,9.28367259 7.15,9.28367259 C7.75,9.28367259 8.22,9.1541793 8.56,8.89519272 C8.9,8.63620615 9.07,8.26764833 9.07,7.78951927 C9.07,7.3512343 8.93,7.01255955 8.64,6.763534 C8.36,6.51450845 7.87,6.28540494 7.18,6.07622347 C6.11,5.76743179 5.32,5.37895193 4.82,4.91078389 C4.32,4.44261585 4.07,3.80511044 4.07,3.00822867 C4.07,2.14161975 4.39,1.42442616 5.04,0.8566479 C5.69,0.288869641 6.57,2.83109275e-14 7.69,2.83109275e-14 C8.18,2.83109275e-14 8.67,0.0597661325 9.14,0.169337375 C9.62,0.278908618 10.08,0.448245994 10.54,0.687310524 L9.85,2.08185362 C9.46,1.87267215 9.08,1.72325682 8.72,1.6236466 C8.35,1.5339974 7.98,1.48419229 7.61,1.48419229 C7.06,1.48419229 6.63,1.60372456 6.32,1.84278909 C6.01,2.08185362 5.85,2.42052837 5.85,2.85881334 C5.85,3.2472932 5.99,3.54612386 6.28,3.77522737 C6.57,3.99436986 7.06,4.21351234 7.77,4.43265483 C8.86,4.75140754 9.65,5.14984842 10.13,5.6379385 C10.61,6.12602858 10.85,6.79341706 10.85,7.64010394 C10.85,8.55651797 10.52,9.30359463 9.87,9.89129493 C9.22,10.4789952 8.28,10.7678649 7.07,10.7678649 C6.46,10.7678649 5.87,10.6881767 5.29,10.5288003 C4.71,10.369424 4.17,10.1403205 3.67,9.8315288 L3.67,9.82156778 Z" id="Path"></path>
                            <polygon id="Path" points="18.67 10.5885665 12.85 10.5885665 12.85 0.169337375 14.62 0.169337375 14.62 9.10437419 18.67 9.10437419 18.67 10.5985275"></polygon>
                            <path d="M19.59,10.5885665 L23.5,0.169337375 L25.51,0.169337375 L29.39,10.5885665 L27.43,10.5885665 L26.55,8.09831096 L22.37,8.09831096 L21.52,10.5885665 L19.58,10.5885665 L19.59,10.5885665 Z M22.85,6.65396275 L26.09,6.65396275 L24.66,2.54006063 C24.63,2.43048939 24.6,2.33087917 24.57,2.22130793 C24.54,2.11173668 24.52,1.9822434 24.49,1.81290602 L24.45,1.81290602 C24.43,1.95236033 24.4,2.08185362 24.37,2.19142486 C24.34,2.3009961 24.31,2.41056735 24.28,2.52013859 L22.85,6.64400173 L22.85,6.65396275 Z" id="Shape"></path>
                            <path d="M42.25,10.5885665 L40.49,10.5885665 L40.49,3.96448679 C40.49,3.66565613 40.49,3.3369424 40.52,2.96838458 C40.55,2.59982676 40.56,2.22130793 40.59,1.82286704 L40.54,1.82286704 C40.48,2.10177566 40.43,2.34084019 40.38,2.54006063 C40.33,2.73928107 40.28,2.89865743 40.23,3.01818969 L37.2,10.5786055 L35.96,10.5786055 L32.91,3.07795583 C32.87,2.96838458 32.82,2.81896925 32.77,2.60978779 C32.71,2.40060632 32.66,2.14161975 32.6,1.82286704 L32.55,1.82286704 C32.58,2.18146384 32.6,2.55998268 32.61,2.95842356 C32.62,3.34690342 32.63,3.75530533 32.63,4.18362928 L32.63,10.5786055 L30.99,10.5786055 L30.99,0.159376353 L33.5,0.159376353 L36.18,6.89302728 C36.29,7.14205284 36.38,7.38111737 36.45,7.60025985 C36.52,7.81940234 36.58,8.01862278 36.61,8.2078822 L36.65,8.2078822 C36.74,7.92897358 36.82,7.67994803 36.9,7.45084452 C36.98,7.23170204 37.05,7.03248159 37.11,6.87310524 L39.82,0.159376353 L42.26,0.159376353 L42.26,10.5786055 L42.25,10.5885665 Z" id="Path"></path>
                            <polygon id="Path" points="46.75 10.5885665 44.97 10.5885665 44.97 0.169337375 46.75 0.169337375"></polygon>
                            <path d="M57.11,10.0506713 C56.58,10.2996968 56.06,10.4889563 55.56,10.5985275 C55.06,10.7080987 54.51,10.7678649 53.93,10.7678649 C52.33,10.7678649 51.07,10.2996968 50.16,9.37332178 C49.25,8.44694673 48.8,7.16197488 48.8,5.5482893 C48.8,3.93460372 49.3,2.5699437 50.31,1.54395842 C51.31,0.517973149 52.63,0 54.25,0 C54.78,0 55.27,0.0398440883 55.71,0.129493287 C56.15,0.219142486 56.6,0.358596795 57.06,0.547856215 L56.48,1.99220442 C56.11,1.83282806 55.76,1.72325682 55.41,1.65352967 C55.06,1.58380251 54.69,1.54395842 54.28,1.54395842 C53.23,1.54395842 52.37,1.8925942 51.7,2.58986574 C51.02,3.28713729 50.69,4.23343439 50.69,5.41879602 C50.69,6.60415764 51,7.51061065 51.62,8.18796016 C52.24,8.86530966 53.08,9.20398441 54.13,9.20398441 C54.48,9.20398441 54.85,9.1541793 55.24,9.0645301 C55.63,8.9748809 56.03,8.82546557 56.44,8.61628411 L57.13,10.0506713 L57.11,10.0506713 Z" id="Path"></path>
                        </g>
                        <g id="Group-14" transform="translate(0, 18.916)">
                            <path d="M4.99,10.7678649 C3.5,10.7678649 2.29,10.2797748 1.38,9.31355565 C0.46,8.34733651 0,7.07232568 0,5.51840624 C0,3.85491555 0.47,2.52013859 1.4,1.51407536 C2.33,0.508012126 3.59,0 5.16,0 C6.63,0 7.81,0.488090082 8.72,1.45430922 C9.62,2.42052837 10.07,3.69553919 10.07,5.27934171 C10.07,6.95279342 9.61,8.28757038 8.68,9.27371156 C7.75,10.2698138 6.52,10.7678649 5,10.7678649 L4.99,10.7678649 Z M5.02,9.22390645 C6.01,9.22390645 6.79,8.89519272 7.35,8.22780424 C7.92,7.56041576 8.2,6.63404071 8.2,5.42875704 C8.2,4.22347337 7.92,3.2472932 7.37,2.5699437 C6.82,1.8925942 6.05,1.55391945 5.09,1.55391945 C4.13,1.55391945 3.34,1.90255522 2.76,2.60978779 C2.17,3.31702036 1.88,4.24339541 1.88,5.39887397 C1.88,6.55435253 2.17,7.49068861 2.75,8.17799913 C3.33,8.87527068 4.09,9.21394543 5.03,9.21394543 L5.02,9.22390645 Z" id="Shape"></path>
                            <path d="M13.89,6.97271546 L13.89,10.5985275 L12.12,10.5985275 L12.12,0.179298398 L15.4,0.179298398 C16.62,0.179298398 17.54,0.458207016 18.18,1.01602425 C18.82,1.57384149 19.14,2.3906453 19.14,3.46643569 C19.14,4.54222607 18.78,5.34906886 18.06,6.00649632 C17.34,6.65396275 16.38,6.98267648 15.16,6.98267648 L13.9,6.98267648 L13.89,6.97271546 Z M13.89,1.6236466 L13.89,5.52836726 L15,5.52836726 C15.74,5.52836726 16.31,5.35902988 16.69,5.02035513 C17.07,4.68168038 17.26,4.18362928 17.26,3.53616284 C17.26,2.88869641 17.08,2.41056735 16.72,2.09181464 C16.36,1.77306193 15.81,1.61368558 15.09,1.61368558 L13.9,1.61368558 L13.89,1.6236466 Z" id="Shape"></path>
                            <path d="M22.8,6.97271546 L22.8,10.5985275 L21.03,10.5985275 L21.03,0.179298398 L24.31,0.179298398 C25.53,0.179298398 26.45,0.458207016 27.09,1.01602425 C27.73,1.57384149 28.05,2.3906453 28.05,3.46643569 C28.05,4.54222607 27.69,5.34906886 26.97,6.00649632 C26.25,6.66392378 25.29,6.98267648 24.07,6.98267648 L22.81,6.98267648 L22.8,6.97271546 Z M22.8,1.6236466 L22.8,5.52836726 L23.91,5.52836726 C24.65,5.52836726 25.22,5.35902988 25.59,5.02035513 C25.97,4.68168038 26.16,4.18362928 26.16,3.53616284 C26.16,2.88869641 25.98,2.41056735 25.62,2.09181464 C25.26,1.77306193 24.71,1.61368558 23.99,1.61368558 L22.8,1.61368558 L22.8,1.6236466 Z" id="Shape"></path>
                            <path d="M37.88,10.5985275 L35.84,10.5985275 L34.24,7.82936336 C33.96,7.34127328 33.7,7.01255955 33.47,6.82330013 C33.24,6.63404071 32.96,6.53443049 32.65,6.52446947 L31.72,6.52446947 L31.72,10.5985275 L29.95,10.5985275 L29.95,0.179298398 L33.36,0.179298398 C34.45,0.179298398 35.3,0.418362928 35.92,0.90645301 C36.54,1.39454309 36.85,2.11173668 36.85,3.0679948 C36.85,3.78518839 36.65,4.39281074 36.26,4.89086184 C35.86,5.38891295 35.32,5.75747077 34.63,5.98657427 L34.63,6.01645734 C34.89,6.12602858 35.13,6.29536596 35.35,6.52446947 C35.57,6.75357298 35.77,7.03248159 35.96,7.3512343 L37.89,10.5885665 L37.88,10.5985275 Z M31.71,1.61368558 L31.71,5.09008229 L33.06,5.09008229 C33.62,5.09008229 34.08,4.92074491 34.44,4.56214812 C34.8,4.21351234 34.98,3.77522737 34.98,3.23733218 C34.98,2.69943699 34.82,2.32091815 34.51,2.04200953 C34.19,1.75313989 33.73,1.61368558 33.11,1.61368558 L31.72,1.61368558 L31.71,1.61368558 Z" id="Shape"></path>
                            <polygon id="Path" points="45.28 10.5985275 39.39 10.5985275 39.39 0.179298398 45.05 0.179298398 45.05 1.67345171 41.16 1.67345171 41.16 4.58207016 44.77 4.58207016 44.77 6.07622347 41.16 6.07622347 41.16 9.11433521 45.28 9.11433521 45.28 10.6084885"></polygon>
                            <path d="M46.44,9.8315288 L47.23,8.46686877 C47.71,8.76569944 48.15,8.9748809 48.56,9.10437419 C48.97,9.23386748 49.43,9.29363361 49.92,9.29363361 C50.52,9.29363361 50.99,9.16414032 51.33,8.90515375 C51.67,8.64616717 51.84,8.27760935 51.84,7.79948029 C51.84,7.36119532 51.7,7.02252057 51.41,6.77349502 C51.12,6.52446947 50.64,6.29536596 49.95,6.0861845 C48.88,5.77739281 48.09,5.38891295 47.59,4.92074491 C47.09,4.45257687 46.84,3.81507146 46.84,3.01818969 C46.84,2.15158077 47.16,1.43438718 47.81,0.866608922 C48.46,0.298830663 49.34,0.00996102209 50.46,0.00996102209 C50.95,0.00996102209 51.44,0.0697271546 51.91,0.179298398 C52.39,0.288869641 52.85,0.458207016 53.31,0.697271546 L52.62,2.09181464 C52.23,1.88263317 51.85,1.73321784 51.49,1.63360762 C51.12,1.54395842 50.75,1.49415331 50.38,1.49415331 C49.83,1.49415331 49.4,1.61368558 49.09,1.85275011 C48.78,2.09181464 48.62,2.43048939 48.62,2.86877436 C48.62,3.25725422 48.76,3.55608489 49.05,3.78518839 C49.34,4.00433088 49.83,4.22347337 50.54,4.44261585 C51.63,4.76136856 52.42,5.15980944 52.9,5.64789952 C53.38,6.13598961 53.62,6.80337809 53.62,7.65006496 C53.62,8.566479 53.29,9.31355565 52.64,9.90125595 C51.99,10.4889563 51.05,10.7778259 49.84,10.7778259 C49.23,10.7778259 48.64,10.6981377 48.06,10.5387614 C47.48,10.379385 46.94,10.1502815 46.44,9.84148982 L46.44,9.8315288 Z" id="Path"></path>
                            <path d="M54.79,9.8315288 L55.58,8.46686877 C56.06,8.76569944 56.5,8.9748809 56.91,9.10437419 C57.32,9.23386748 57.78,9.29363361 58.27,9.29363361 C58.87,9.29363361 59.34,9.16414032 59.68,8.90515375 C60.02,8.64616717 60.19,8.27760935 60.19,7.79948029 C60.19,7.36119532 60.05,7.02252057 59.76,6.77349502 C59.47,6.52446947 58.99,6.29536596 58.3,6.0861845 C57.23,5.77739281 56.44,5.38891295 55.94,4.92074491 C55.44,4.45257687 55.19,3.81507146 55.19,3.01818969 C55.19,2.15158077 55.51,1.43438718 56.16,0.866608922 C56.81,0.298830663 57.69,0.00996102209 58.81,0.00996102209 C59.3,0.00996102209 59.79,0.0697271546 60.26,0.179298398 C60.74,0.288869641 61.2,0.458207016 61.66,0.697271546 L60.97,2.09181464 C60.58,1.88263317 60.2,1.73321784 59.84,1.63360762 C59.47,1.54395842 59.1,1.49415331 58.73,1.49415331 C58.18,1.49415331 57.75,1.61368558 57.44,1.85275011 C57.13,2.09181464 56.97,2.43048939 56.97,2.86877436 C56.97,3.25725422 57.11,3.55608489 57.4,3.78518839 C57.69,4.00433088 58.18,4.22347337 58.89,4.44261585 C59.98,4.76136856 60.77,5.15980944 61.25,5.64789952 C61.73,6.13598961 61.97,6.80337809 61.97,7.65006496 C61.97,8.566479 61.64,9.31355565 60.99,9.90125595 C60.34,10.4889563 59.4,10.7778259 58.19,10.7778259 C57.58,10.7778259 56.99,10.6981377 56.41,10.5387614 C55.83,10.379385 55.29,10.1502815 54.79,9.84148982 L54.79,9.8315288 Z" id="Path"></path>
                            <polygon id="Path" points="65.76 10.5985275 63.98 10.5985275 63.98 0.179298398 65.76 0.179298398"></polygon>
                            <path d="M72.8,10.7678649 C71.31,10.7678649 70.1,10.2797748 69.18,9.31355565 C68.26,8.34733651 67.8,7.07232568 67.8,5.51840624 C67.8,3.85491555 68.27,2.52013859 69.2,1.51407536 C70.13,0.508012126 71.39,0 72.96,0 C74.43,0 75.61,0.488090082 76.52,1.45430922 C77.42,2.42052837 77.87,3.69553919 77.87,5.27934171 C77.87,6.95279342 77.41,8.28757038 76.48,9.27371156 C75.55,10.2698138 74.32,10.7678649 72.8,10.7678649 L72.8,10.7678649 Z M72.82,9.22390645 C73.81,9.22390645 74.59,8.89519272 75.15,8.22780424 C75.72,7.56041576 76,6.63404071 76,5.42875704 C76,4.22347337 75.72,3.2472932 75.17,2.5699437 C74.62,1.8925942 73.85,1.55391945 72.89,1.55391945 C71.93,1.55391945 71.14,1.90255522 70.56,2.60978779 C69.97,3.31702036 69.68,4.24339541 69.68,5.39887397 C69.68,6.55435253 69.97,7.49068861 70.55,8.17799913 C71.13,8.87527068 71.89,9.21394543 72.83,9.21394543 L72.82,9.22390645 Z" id="Shape"></path>
                            <path d="M88.83,10.5985275 L86.9,10.5985275 L82.04,3.14768298 C81.94,2.99826765 81.86,2.85881334 81.79,2.72932005 C81.72,2.59982676 81.66,2.49025552 81.61,2.3906453 L81.57,2.3906453 C81.59,2.54006063 81.6,2.73928107 81.61,2.99826765 C81.62,3.25725422 81.62,3.56604591 81.62,3.94456475 L81.62,10.5985275 L79.91,10.5985275 L79.91,0.179298398 L81.97,0.179298398 L86.68,7.46080554 C86.78,7.6201819 86.87,7.75963621 86.95,7.88912949 C87.03,8.01862278 87.09,8.13815505 87.14,8.23776527 L87.17,8.23776527 C87.15,8.09831096 87.14,7.90905154 87.13,7.66002599 C87.13,7.41100043 87.12,7.11216977 87.12,6.75357298 L87.12,0.179298398 L88.83,0.179298398 L88.83,10.5985275 L88.83,10.5985275 Z" id="Path"></path>
                        </g>
                    </g>
                </g>
            </g>
        </g>
    </g>
</svg>