<?xml version="1.0" encoding="UTF-8"?>
<svg width="92px" height="61px" viewBox="0 0 92 61" version="1.1" xmlns="http://www.w3.org/2000/svg" xmlns:xlink="http://www.w3.org/1999/xlink">
    <title>persecution_religious</title>
    <g id="Page-1" stroke="none" stroke-width="1" fill="none" fill-rule="evenodd">
        <g id="Apple-TV" transform="translate(-741, -114)" fill-rule="nonzero">
            <g id="persecution_religious" transform="translate(741.7072, 114.0419)">
                <g id="Group-4" transform="translate(0, -0)">
                    <path d="M44.4813031,0.850159552 C49.80236,2.32039926 55.1533665,6.12101893 58.8671248,10.1916826 C62.7705643,14.4623789 65.1066381,19.8132514 69.4293729,23.7638955 C74.5108325,28.4046521 81.5390202,31.0550843 88.5672079,30.4649881 C89.2261005,30.4049783 89.8949763,30.3349669 90.5438857,30.1649391 C90.6736676,30.2949603 89.2959831,32.1252588 89.1362515,32.3652979 C84.2644396,39.8265144 79.1630135,47.337739 74.1813862,54.7489474 C73.1531144,56.2791969 72.1847419,57.8594545 71.1564701,59.389704 C70.4376782,59.4297106 69.7188863,59.5997383 69.0000944,59.6497464 C67.6922924,59.7397611 65.9751783,59.7297595 64.6773596,59.579735 C57.6591551,58.7596013 51.9387693,55.4990697 47.3964037,50.1682005 C44.7807997,47.0876983 42.9538702,43.5371194 40.3582327,40.4666188 C37.4031992,36.9760496 33.5496758,33.7355213 29.4765216,31.7652 C27.5397767,30.8350484 25.4932163,30.0849261 23.3867567,29.6648576 C22.7278641,30.6850239 21.9891057,31.6651837 21.3102466,32.6753484 C15.5998441,41.1667329 9.87945837,49.9781696 4.12912295,58.389541 C3.83960954,58.8196111 3.55009612,59.5097236 3.20068338,59.8997872 C1.91284785,61.3300204 -0.483125244,60.0298084 0.0859183644,58.0994937 C0.335498895,57.2293518 2.06259616,55.1190077 2.65160621,54.2388642 C12.8145254,38.8563562 23.0772768,23.5838661 33.2601624,8.36138421 C34.867461,5.96099284 36.3948939,3.58060473 38.0221589,1.25022478 C38.2417898,0.940174228 38.6011858,0.0800339877 39.0005146,0.0100225728 C39.2600784,-0.02998395 40.2883502,0.0600307263 40.6177965,0.100037249 C41.7558837,0.240060079 43.4031152,0.540109 44.5012695,0.840157921 L44.4813031,0.850159552 Z" id="Path" fill="#3D5039"></path>
                    <path d="M38.4913703,8.63142824 L35.995565,12.5220626 C38.3116724,13.1921718 49.4928801,16.2726741 55.9819739,27.7445445 C56.4012692,28.4746635 59.4860845,35.5758213 66.9834837,39.646485 C74.4808828,43.7171487 77.605631,42.6069677 79.4724934,42.6169694 L81.8485,38.9263676 C79.3327283,38.6763269 72.3344902,38.7863448 68.4011011,36.1659176 C61.7522758,31.7351952 57.6491718,20.9634389 51.2399438,15.4825453 C46.6077292,11.5118979 41.9555481,9.1415114 38.4913703,8.64142987 L38.4913703,8.63142824 Z" id="Path" fill="#FFFFFF"></path>
                    <path d="M32.9007665,17.3328469 L30.4049612,21.2234813 C32.7210685,21.8935905 43.9022762,24.9740928 50.39137,36.4459632 C50.8106653,37.1760823 54.224927,43.7271504 61.3928798,48.3479037 C68.3811346,52.8486376 72.0150272,51.3083864 73.8818895,51.3183881 L76.2578962,47.6277863 C73.7421244,47.3777456 68.7205642,48.6779576 62.8104972,44.8673363 C56.0917893,40.5366302 51.8289539,29.1247695 45.64934,24.183964 C40.8873434,20.3733427 32.9007665,17.3428486 32.9007665,17.3428486 L32.9007665,17.3328469 Z" id="Path" fill="#FFFFFF"></path>
                </g>
            </g>
        </g>
    </g>
</svg>