<?xml version="1.0" encoding="UTF-8"?>
<svg width="161px" height="191px" viewBox="0 0 161 191" version="1.1" xmlns="http://www.w3.org/2000/svg" xmlns:xlink="http://www.w3.org/1999/xlink">
    <title>persecution_ethno</title>
    <defs>
        <circle id="path-1" cx="70" cy="70" r="70"></circle>
    </defs>
    <g id="Page-1" stroke="none" stroke-width="1" fill="none" fill-rule="evenodd">
        <g id="BWL---Style-Guide-and-CDN-Images" transform="translate(-921, -2403)">
            <g id="persecution_ethno" transform="translate(926.2597, 2408)">
                <g id="Oval-Copy-6">
                    <circle stroke="#EA743D" stroke-width="4" stroke-linejoin="square" cx="70" cy="70" r="68"></circle>
                    <circle stroke="#0E0E0E" stroke-width="5" cx="70" cy="70" r="72.5"></circle>
                </g>
                <path d="M98.9202863,46.25 L75.5602863,46.25 L75.5602863,26.09 C75.5602863,24.45 74.2302863,23.13 72.6002863,23.13 L67.4402863,23.13 C65.8002863,23.13 64.4802863,24.46 64.4802863,26.09 L64.4802863,46.25 L41.1202863,46.25 C39.7202863,46.25 38.5902863,47.38 38.5902863,48.78 L38.5902863,54.8 C38.5902863,56.2 39.7202863,57.33 41.1202863,57.33 L64.4802863,57.33 L64.4802863,114.17 C64.4802863,115.81 65.8102863,117.13 67.4402863,117.13 L72.6002863,117.13 C74.2402863,117.13 75.5602863,115.8 75.5602863,114.17 L75.5602863,57.33 L98.9202863,57.33 C100.320286,57.33 101.450286,56.2 101.450286,54.8 L101.450286,48.78 C101.450286,47.38 100.320286,46.25 98.9202863,46.25 Z" id="Path-Copy-5" fill="#EA743D" fill-rule="nonzero"></path>
                <g id="icon_bwl_ethno_religious_text" transform="translate(91.2603, 47.94)" fill-rule="nonzero">
                    <g id="Group-2-Copy" transform="translate(0, 0)">
                        <circle id="Oval" fill="#FFFFFF" cx="29.1030679" cy="68.4687966" r="23.5797922"></circle>
                        <path d="M28.3912591,0.036040951 C28.4543308,4.46907792 30.3554909,8.79399203 32.6981528,12.4791793 C35.8607462,17.470851 41.1857967,21.9759698 40.9335101,28.4363103 C41.4290731,28.2020441 41.5642267,27.4632046 41.7174007,26.9676416 C42.6274348,24.0753552 42.2760355,21.2191099 42.104841,18.2457314 C45.7089361,20.0207483 47.8083215,24.3186317 49.1598571,27.9407472 C51.1601299,33.2928285 52.1422458,39.2035444 52.6828601,44.8890044 C53.81815,44.5376052 54.5029281,42.9878443 54.9264093,41.9516669 C55.8004023,39.8162406 55.9986276,37.5276402 56.4941906,35.2931012 C60.4947362,40.9785612 62.2607428,48.4300279 61.2696166,55.3408802 C60.6659307,59.539651 58.2872279,63.369002 58.5575351,67.7029264 C59.5847022,67.4326193 60.0802653,66.2973293 60.6749409,65.5134386 L62.4769885,61.1434733 C63.8465446,65.4053158 64.1438825,70.4150079 63.0896847,74.775963 C60.3956236,85.9396476 47.7092088,94.9949365 36.194125,93.003674 C34.7885279,92.7603975 32.8062756,92.246814 31.7340573,91.300739 C40.5460698,87.1380092 49.3130312,79.0558259 49.3580823,68.5769194 C48.1146695,69.6311173 46.7901646,70.8835403 45.0511887,70.9285915 C46.465796,66.7928924 47.4929631,62.3328247 45.4386289,58.1971256 L43.9068885,61.4588316 C42.5283221,63.7654525 40.9244998,67.0181483 37.9961726,67.3965783 C38.2484592,66.6126876 38.6989711,65.9369198 38.9782885,65.1440189 C41.4020424,58.1700949 37.3384252,50.4573313 33.6892789,44.6727587 C33.3468899,44.6727587 33.4730332,45.5287313 33.4910537,45.7539872 C33.8875041,51.4214268 34.563272,59.1702312 32.5269582,64.5493432 C31.9142621,66.1801962 30.6708493,67.6398547 30.166276,69.3427897 C29.7788357,69.4058613 29.6076412,69.0814928 29.3913955,68.8472266 C26.490099,65.6846331 25.7782902,62.1075687 24.1113962,58.4584225 C24.0303041,58.2872279 24.0212938,57.8457263 23.7059355,58.1791051 C23.5257307,58.3683201 22.6427274,62.6031318 22.5616353,63.2068178 C21.8768572,68.1894792 22.246277,73.5145297 24.2916009,78.1548022 C22.9851165,79.1008771 20.4622499,74.1182157 20.0838199,73.2532328 C18.0475062,68.5679092 17.2005438,63.1707768 16.2544689,58.1791051 L15.425527,60.1793779 C14.3893497,63.9096163 13.2180188,67.7750083 13.9118071,71.6854515 L9.4066882,69.3337794 C10.3347427,76.9924815 13.8036842,86.2820366 20.5073011,90.6429917 C21.3812942,91.2106366 22.3093486,91.5620359 23.2283929,92.0305683 C23.3635465,92.1026502 23.8861403,92.1206707 23.5077103,92.436029 C23.2103724,92.6793054 18.9755607,92.8685204 18.3088031,92.8414897 C6.12696166,92.210773 0.828941872,80.8488632 0.19822523,70.0095472 C-0.144163804,64.0537801 2.37870276,57.7466137 0,52.0881844 C2.15344682,52.7369215 3.63112581,54.7912557 5.09078432,56.395078 C7.30730281,48.7273657 7.66771232,40.6181517 6.85679092,32.6981528 C9.43371891,33.7613608 11.3799303,36.7347393 12.6413636,39.149483 C13.0288038,39.8973327 13.2810904,40.9425203 13.6685307,41.6543291 C13.794674,41.879585 13.6595204,41.9877079 14.1010221,41.9066157 C17.4888715,33.2477773 18.5610897,23.6969253 15.8670287,14.6866875 C19.9486664,15.0561073 22.1021132,19.858564 23.4987,23.1923519 C23.9582222,23.8861403 24.7060719,21.3812942 24.7781538,21.147028 C26.3369249,15.4525577 24.3186317,9.03726845 25.6881878,3.45092105 C26.0395871,2.00928302 26.6973344,0.153174042 28.4002694,0 L28.3912591,0.036040951 Z M30.9411564,27.1568566 C31.0492793,26.264843 30.8690745,25.2286657 30.9411564,24.3186317 C29.0940577,25.3007476 28.4182898,28.0578803 28.9859348,29.9950814 C30.2383579,29.8779483 30.8150131,28.2200646 30.9411564,27.1568566 L30.9411564,27.1568566 Z" id="Shape" fill="#3D5039"></path>
                    </g>
                </g>
                <g id="Group" transform="translate(10.4403, 157)" fill="#010101" fill-rule="nonzero">
                    <polygon id="Path" points="5.89 10.64 -2.66453526e-15 10.64 -2.66453526e-15 0.18 5.66 0.18 5.66 1.68 1.77 1.68 1.77 4.6 5.38 4.6 5.38 6.1 1.77 6.1 1.77 9.15 5.89 9.15 5.89 10.65"></polygon>
                    <polygon id="Path" points="14.64 1.68 11.63 1.68 11.63 10.64 9.86 10.64 9.86 1.68 6.86 1.68 6.86 0.18 14.64 0.18"></polygon>
                    <polygon id="Path" points="24.76 10.64 22.98 10.64 22.98 6.12 18.09 6.12 18.09 10.64 16.32 10.64 16.32 0.18 18.09 0.18 18.09 4.57 22.98 4.57 22.98 0.18 24.76 0.18"></polygon>
                    <path d="M36.39,10.64 L34.46,10.64 L29.6,3.16 C29.5,3.01 29.42,2.87 29.34,2.74 C29.27,2.61 29.21,2.5 29.16,2.4 L29.12,2.4 C29.14,2.55 29.15,2.75 29.16,3.01 C29.17,3.27 29.17,3.58 29.17,3.96 L29.17,10.64 L27.46,10.64 L27.46,0.18 L29.52,0.18 L34.23,7.49 C34.33,7.65 34.42,7.79 34.5,7.92 C34.58,8.05 34.64,8.17 34.69,8.27 L34.72,8.27 C34.7,8.13 34.69,7.94 34.68,7.69 C34.68,7.44 34.67,7.14 34.67,6.78 L34.67,0.18 L36.38,0.18 L36.38,10.64 L36.39,10.64 Z" id="Path"></path>
                    <path d="M43.43,10.82 C41.94,10.82 40.73,10.33 39.82,9.36 C38.9,8.38 38.44,7.11 38.44,5.55 C38.44,3.88 38.91,2.54 39.84,1.53 C40.77,0.52 42.03,0.01 43.6,0.01 C45.07,0.01 46.25,0.5 47.16,1.47 C48.06,2.45 48.51,3.73 48.51,5.31 C48.51,6.99 48.05,8.33 47.12,9.32 C46.19,10.32 44.96,10.82 43.44,10.82 L43.43,10.82 Z M43.45,9.26 C44.44,9.26 45.22,8.93 45.78,8.26 C46.34,7.59 46.63,6.66 46.63,5.46 C46.63,4.26 46.35,3.27 45.8,2.59 C45.25,1.91 44.48,1.57 43.52,1.57 C42.56,1.57 41.77,1.92 41.19,2.63 C40.61,3.34 40.31,4.27 40.31,5.43 C40.31,6.59 40.6,7.53 41.18,8.22 C41.76,8.92 42.52,9.26 43.46,9.26 L43.45,9.26 Z" id="Shape"></path>
                    <polygon id="Path" points="50.32 7.15 50.32 5.89 54.3 5.89 54.3 7.15"></polygon>
                    <path d="M64.65,10.64 L62.61,10.64 L61.01,7.86 C60.73,7.37 60.47,7.04 60.24,6.85 C60.01,6.66 59.73,6.56 59.42,6.56 L58.49,6.56 L58.49,10.64 L56.72,10.64 L56.72,0.18 L60.13,0.18 C61.22,0.18 62.07,0.42 62.69,0.91 C63.31,1.4 63.62,2.12 63.62,3.08 C63.62,3.8 63.42,4.41 63.03,4.91 C62.63,5.41 62.09,5.78 61.4,6.01 L61.4,6.04 C61.66,6.15 61.9,6.32 62.12,6.55 C62.34,6.78 62.54,7.06 62.73,7.38 L64.66,10.63 L64.65,10.64 Z M58.48,1.62 L58.48,5.12 L59.83,5.12 C60.39,5.12 60.85,4.94 61.21,4.59 C61.57,4.24 61.75,3.79 61.75,3.26 C61.75,2.73 61.59,2.34 61.28,2.06 C60.96,1.77 60.5,1.63 59.88,1.63 L58.49,1.63 L58.48,1.62 Z" id="Shape"></path>
                    <polygon id="Path" points="72.05 10.64 66.16 10.64 66.16 0.18 71.82 0.18 71.82 1.68 67.93 1.68 67.93 4.6 71.54 4.6 71.54 6.1 67.93 6.1 67.93 9.15 72.05 9.15 72.05 10.65"></polygon>
                    <polygon id="Path" points="79.87 10.64 74.05 10.64 74.05 0.18 75.82 0.18 75.82 9.15 79.87 9.15 79.87 10.65"></polygon>
                    <polygon id="Path" points="83.31 10.64 81.53 10.64 81.53 0.18 83.31 0.18"></polygon>
                    <path d="M94.23,9.89 C93.72,10.19 93.16,10.42 92.55,10.58 C91.94,10.74 91.28,10.82 90.58,10.82 C88.99,10.82 87.72,10.37 86.78,9.47 C85.84,8.57 85.37,7.27 85.37,5.56 C85.37,3.85 85.87,2.57 86.88,1.54 C87.88,0.51 89.22,2.84217094e-14 90.9,2.84217094e-14 C91.52,2.84217094e-14 92.1,0.06 92.62,0.18 C93.15,0.3 93.68,0.48 94.23,0.73 L93.6,2.13 C93.15,1.92 92.72,1.76 92.3,1.67 C91.88,1.58 91.41,1.53 90.9,1.53 C89.81,1.53 88.93,1.87 88.26,2.54 C87.59,3.21 87.25,4.19 87.25,5.46 C87.25,6.73 87.56,7.7 88.18,8.34 C88.8,8.97 89.65,9.29 90.73,9.29 C91.07,9.29 91.39,9.26 91.69,9.2 C91.98,9.14 92.24,9.05 92.48,8.93 L92.48,6.43 L90.28,6.43 L90.28,4.94 L94.26,4.94 L94.26,9.89 L94.23,9.89 Z" id="Path"></path>
                    <polygon id="Path" points="98.39 10.64 96.61 10.64 96.61 0.18 98.39 0.18"></polygon>
                    <path d="M105.43,10.82 C103.94,10.82 102.73,10.33 101.81,9.36 C100.89,8.38 100.43,7.11 100.43,5.55 C100.43,3.88 100.9,2.54 101.83,1.53 C102.76,0.52 104.02,0.01 105.59,0.01 C107.06,0.01 108.24,0.5 109.15,1.47 C110.05,2.45 110.5,3.73 110.5,5.31 C110.5,6.99 110.04,8.33 109.11,9.32 C108.18,10.32 106.95,10.82 105.43,10.82 L105.43,10.82 Z M105.46,9.26 C106.45,9.26 107.23,8.93 107.79,8.26 C108.36,7.59 108.64,6.66 108.64,5.46 C108.64,4.26 108.36,3.27 107.81,2.59 C107.26,1.91 106.49,1.57 105.53,1.57 C104.57,1.57 103.78,1.92 103.2,2.63 C102.61,3.34 102.32,4.27 102.32,5.43 C102.32,6.59 102.61,7.53 103.19,8.22 C103.77,8.92 104.53,9.26 105.47,9.26 L105.46,9.26 Z" id="Shape"></path>
                    <path d="M120.64,6.25 C120.64,7.77 120.29,8.91 119.6,9.67 C118.91,10.43 117.86,10.81 116.46,10.81 C115.06,10.81 114.11,10.44 113.44,9.71 C112.77,8.98 112.43,7.87 112.43,6.39 L112.43,0.18 L114.2,0.18 L114.2,6.38 C114.2,7.34 114.4,8.06 114.79,8.54 C115.18,9.02 115.78,9.26 116.56,9.26 C117.34,9.26 117.9,9.03 118.28,8.56 C118.66,8.09 118.85,7.4 118.85,6.46 L118.85,0.17 L120.62,0.17 L120.62,6.25 L120.64,6.25 Z" id="Path"></path>
                    <path d="M122.39,9.87 L123.18,8.5 C123.66,8.8 124.1,9.01 124.51,9.14 C124.92,9.27 125.38,9.33 125.87,9.33 C126.47,9.33 126.94,9.2 127.28,8.94 C127.62,8.68 127.79,8.31 127.79,7.83 C127.79,7.39 127.65,7.05 127.36,6.8 C127.07,6.55 126.59,6.32 125.9,6.11 C124.83,5.8 124.04,5.41 123.54,4.94 C123.04,4.47 122.79,3.83 122.79,3.03 C122.79,2.16 123.11,1.44 123.76,0.87 C124.41,0.29 125.29,0.01 126.41,0.01 C126.9,0.01 127.39,0.07 127.86,0.18 C128.34,0.29 128.8,0.46 129.26,0.7 L128.57,2.1 C128.18,1.89 127.8,1.74 127.44,1.64 C127.08,1.54 126.7,1.5 126.33,1.5 C125.78,1.5 125.35,1.62 125.04,1.86 C124.73,2.1 124.57,2.44 124.57,2.88 C124.57,3.27 124.71,3.57 125,3.8 C125.29,4.02 125.78,4.24 126.49,4.46 C127.58,4.78 128.37,5.18 128.85,5.67 C129.33,6.16 129.57,6.83 129.57,7.68 C129.57,8.6 129.24,9.35 128.59,9.94 C127.94,10.53 127,10.82 125.79,10.82 C125.18,10.82 124.59,10.74 124.01,10.58 C123.43,10.42 122.89,10.19 122.39,9.88 L122.39,9.87 Z" id="Path"></path>
                    <polygon id="Path" points="37.54 28.57 35.76 28.57 35.76 24.05 30.87 24.05 30.87 28.57 29.1 28.57 29.1 18.11 30.87 18.11 30.87 22.5 35.76 22.5 35.76 18.11 37.54 18.11"></polygon>
                    <path d="M44.58,28.74 C43.09,28.74 41.88,28.25 40.97,27.28 C40.05,26.31 39.59,25.03 39.59,23.47 C39.59,21.8 40.06,20.46 40.99,19.45 C41.92,18.44 43.18,17.93 44.75,17.93 C46.22,17.93 47.4,18.42 48.31,19.39 C49.21,20.36 49.66,21.64 49.66,23.23 C49.66,24.91 49.2,26.25 48.27,27.24 C47.34,28.24 46.11,28.74 44.59,28.74 L44.58,28.74 Z M44.6,27.19 C45.59,27.19 46.37,26.86 46.93,26.19 C47.5,25.52 47.78,24.59 47.78,23.38 C47.78,22.17 47.5,21.19 46.95,20.51 C46.4,19.83 45.63,19.49 44.67,19.49 C43.71,19.49 42.92,19.84 42.34,20.55 C41.75,21.26 41.46,22.19 41.46,23.35 C41.46,24.51 41.75,25.45 42.33,26.14 C42.91,26.84 43.67,27.18 44.61,27.18 L44.6,27.19 Z" id="Shape"></path>
                    <path d="M50.86,27.8 L51.65,26.43 C52.13,26.73 52.57,26.94 52.98,27.07 C53.39,27.2 53.84,27.26 54.34,27.26 C54.94,27.26 55.41,27.13 55.75,26.87 C56.09,26.61 56.26,26.24 56.26,25.76 C56.26,25.32 56.12,24.98 55.83,24.73 C55.55,24.48 55.06,24.25 54.37,24.04 C53.3,23.73 52.51,23.34 52.01,22.87 C51.51,22.4 51.26,21.76 51.26,20.96 C51.26,20.09 51.58,19.37 52.23,18.8 C52.88,18.23 53.76,17.94 54.88,17.94 C55.37,17.94 55.86,18 56.33,18.11 C56.81,18.22 57.27,18.39 57.73,18.63 L57.04,20.03 C56.65,19.82 56.27,19.67 55.91,19.57 C55.54,19.48 55.17,19.43 54.8,19.43 C54.25,19.43 53.82,19.55 53.51,19.79 C53.2,20.03 53.04,20.37 53.04,20.81 C53.04,21.2 53.18,21.5 53.47,21.73 C53.76,21.95 54.25,22.17 54.96,22.39 C56.05,22.71 56.84,23.11 57.32,23.6 C57.8,24.09 58.04,24.76 58.04,25.61 C58.04,26.53 57.71,27.28 57.06,27.87 C56.41,28.46 55.47,28.75 54.26,28.75 C53.65,28.75 53.06,28.67 52.48,28.51 C51.9,28.35 51.36,28.12 50.86,27.81 L50.86,27.8 Z" id="Path"></path>
                    <polygon id="Path" points="66.79 19.61 63.78 19.61 63.78 28.57 62.01 28.57 62.01 19.61 59.01 19.61 59.01 18.11 66.79 18.11"></polygon>
                    <polygon id="Path" points="70.26 28.57 68.48 28.57 68.48 18.11 70.26 18.11"></polygon>
                    <polygon id="Path" points="78.8 28.57 72.98 28.57 72.98 18.11 74.75 18.11 74.75 27.08 78.8 27.08 78.8 28.58"></polygon>
                    <polygon id="Path" points="82.24 28.57 80.46 28.57 80.46 18.11 82.24 18.11"></polygon>
                    <polygon id="Path" points="91.7 19.61 88.69 19.61 88.69 28.57 86.92 28.57 86.92 19.61 83.92 19.61 83.92 18.11 91.7 18.11"></polygon>
                    <path d="M100.99,18.11 L97.57,24.78 L97.57,28.57 L95.79,28.57 L95.79,24.81 L92.46,18.11 L94.47,18.11 L96.5,22.44 C96.5,22.44 96.54,22.55 96.59,22.68 C96.64,22.81 96.69,22.97 96.75,23.19 L96.78,23.19 C96.8,23.06 96.84,22.93 96.88,22.81 C96.92,22.69 96.97,22.57 97.03,22.46 L99.12,18.12 L101,18.12 L100.99,18.11 Z" id="Path"></path>
                </g>
            </g>
        </g>
    </g>
</svg>