<?xml version="1.0" encoding="UTF-8"?>
<svg width="159px" height="189px" viewBox="0 0 159 189" version="1.1" xmlns="http://www.w3.org/2000/svg" xmlns:xlink="http://www.w3.org/1999/xlink">
    <title>persecution_organized</title>
    <defs>
        <ellipse id="path-1" cx="70.3626892" cy="70.3262203" rx="70" ry="70.3262203"></ellipse>
    </defs>
    <g id="Page-1" stroke="none" stroke-width="1" fill="none" fill-rule="evenodd">
        <g id="Apple-TV" transform="translate(-502, -284)">
            <g id="persecution_organized" transform="translate(506.897, 289)">
                <g id="Oval-Copy-3">
                    <ellipse stroke="#EA743D" stroke-width="4" stroke-linejoin="square" cx="70.3626892" cy="70.3262203" rx="68" ry="68.3262203"></ellipse>
                    <ellipse stroke="#0E0E0E" stroke-width="5" cx="70.3626892" cy="70.3262203" rx="72.5" ry="72.8262203"></ellipse>
                </g>
                <path d="M99.2829755,46.4655384 L75.9229755,46.4655384 L75.9229755,26.211587 C75.9229755,24.5639441 74.5929755,23.2377925 72.9629755,23.2377925 L67.8029755,23.2377925 C66.1629755,23.2377925 64.8429755,24.5739907 64.8429755,26.211587 L64.8429755,46.4655384 L41.4829755,46.4655384 C40.0829755,46.4655384 38.9529755,47.6008045 38.9529755,49.0073289 L38.9529755,55.0553839 C38.9529755,56.4619083 40.0829755,57.5971744 41.4829755,57.5971744 L64.8429755,57.5971744 L64.8429755,114.702065 C64.8429755,116.349708 66.1729755,117.67586 67.8029755,117.67586 L72.9629755,117.67586 C74.6029755,117.67586 75.9229755,116.339662 75.9229755,114.702065 L75.9229755,57.5971744 L99.2829755,57.5971744 C100.682976,57.5971744 101.812976,56.4619083 101.812976,55.0553839 L101.812976,49.0073289 C101.812976,47.6008045 100.682976,46.4655384 99.2829755,46.4655384 Z" id="Path-Copy-2" fill="#EA743D" fill-rule="nonzero"></path>
                <g id="icon_bwl_crime_text" transform="translate(78.3944, 73.8395)" fill="#3D5039" fill-rule="nonzero">
                    <path d="M7.29398633,0.385152787 C7.8871707,0.705364075 8.29443162,1.88836689 9.13551394,2.00399874 L63.8678395,17.2318245 C64.8063103,17.4986672 64.7354823,15.6841366 65.7801951,16.0132426 C66.8249079,16.3423487 66.311405,17.7032466 66.7363729,17.9967737 C67.6571367,18.6283015 69.7642693,18.0768265 69.4721038,19.9980942 C69.1268174,22.2662575 67.7456717,24.9969482 67.4889202,27.2206377 C67.4003853,28.0122712 68.0998116,28.901747 67.7191112,29.6489066 C66.9222964,31.2232788 65.4614692,30.369382 64.1245909,30.4672244 C59.9723003,30.7518566 59.6093069,35.5105522 60.1228098,38.7838231 C61.1763761,45.4282074 63.1152922,52.1437497 64.2131259,58.8059234 C64.2751004,59.8377153 64.2042724,61.0207182 63.3100691,61.7056145 C62.6903242,62.1859315 59.8306443,62.3994057 59.3614089,62.8352488 C58.8921735,63.2710919 59.4145299,63.6090927 59.4322369,63.9381988 C59.4499439,64.3651472 59.219753,65.0500435 58.7239571,65.0589383 L42.5397625,62.1859315 C42.300718,61.5544036 42.9735839,61.0918762 42.9558769,60.4959274 C42.9558769,60.1935057 42.40696,59.739873 42.2387435,59.3751879 C41.8668966,58.5835545 42.0174061,58.01429 42.265304,57.204867 C41.5924382,51.5655904 41.0700818,45.7751029 40.060783,40.1714054 C39.7154965,38.2590324 39.3613566,36.3110804 37.0594471,36.0531324 C36.1121228,35.9463953 35.102824,36.9603977 34.0226972,36.4978703 C29.3214897,34.8790244 23.9474163,34.0962857 19.3170368,32.4062816 C16.5193314,31.3922792 18.7592664,30.9831203 19.3258903,29.7200647 C19.7597117,28.7594308 20.7158895,25.6996341 20.8929595,24.6500526 C21.0965899,23.4759446 20.795571,21.9727305 20.2643611,20.9498333 L0.211187808,14.8391346 C-0.426264059,13.9585535 0.574181232,12.321918 0.662716213,11.2723366 C0.698130206,10.8187039 0.361697276,10.8364935 0.405964767,10.5340717 C0.591888228,9.28880556 1.08768412,9.40443741 1.36214257,8.84406766 C1.45067755,8.6661725 1.84023147,7.33195879 1.80481747,7.26080073 C1.75169649,7.17185315 1.07883063,7.15406363 0.928321158,6.99395799 C0.706983704,6.75379952 1.98188744,2.15520963 2.28290637,2.06626205 C2.49539033,2.00399874 3.07972121,2.34199955 3.16825619,2.288631 C3.25679117,2.23526245 3.37188665,0.963312057 3.79685456,0.714258833 C4.25723646,0.447416093 5.64723567,1.13231246 5.76233115,1.0611544 C5.84201263,1.01668061 5.9748151,0.0471519821 6.05449659,0.00267819202 C6.10761757,-0.03290084 7.12576986,0.296205206 7.28513283,0.385152787 L7.29398633,0.385152787 Z M38.4937138,31.6502272 C38.5733953,31.3567002 38.9629492,27.869955 38.1041599,28.3769563 C37.608364,30.2003816 36.4131417,31.7391748 34.6867096,32.5219135 C34.3148627,32.6909139 32.56187,33.3224417 32.3316791,32.9310724 C32.685819,32.0327018 33.6597038,31.5523849 34.1820602,30.7251724 C35.3595755,28.8483796 34.8814866,26.1977405 33.7482388,24.4365785 C31.4994503,23.8851035 29.1444198,22.9422591 26.8867777,22.4886264 C24.1599003,21.9371515 23.3630855,23.0312067 22.6105381,25.4327914 C22.0262072,27.282901 20.866399,30.5028034 22.982385,31.7124905 L34.2794487,34.9146034 C35.24448,35.0480248 35.8996388,34.5766026 36.6256257,34.0251276 C37.3161985,33.5092316 38.2546694,32.5308082 38.5025673,31.6413324 L38.4937138,31.6502272 Z" id="Shape-Copy-3"></path>
                </g>
                <g id="ORGANIZED-CORRUPTION" transform="translate(0, 154.8418)" fill="#010101" fill-rule="nonzero">
                    <g id="Group-19" transform="translate(36.0401, 0)">
                        <path d="M10.0341797,5.5334805 C10.0341797,7.28476821 9.59838867,8.64606328 8.72680664,9.61736571 C7.85522461,10.5886681 6.62109375,11.0743194 5.02441406,11.0743194 C3.40820313,11.0743194 2.16674805,10.5923473 1.30004883,9.62840324 C0.433349609,8.66445916 1.42108547e-14,7.29457935 1.42108547e-14,5.5187638 C1.42108547e-14,3.74294825 0.435791016,2.37920039 1.30737305,1.42752024 C2.17895508,0.475840078 3.42285156,0 5.0390625,0 C6.63085938,0 7.86132813,0.48319843 8.73046875,1.44959529 C9.59960938,2.41599215 10.0341797,3.77728722 10.0341797,5.5334805 Z M1.86035156,5.5334805 C1.86035156,6.85798381 2.12646484,7.86239882 2.65869141,8.54672553 C3.19091797,9.23105224 3.97949219,9.5732156 5.02441406,9.5732156 C6.06445313,9.5732156 6.84936523,9.23473142 7.37915039,8.55776306 C7.90893555,7.8807947 8.17382813,6.87270052 8.17382813,5.5334805 C8.17382813,4.21388276 7.91137695,3.21314692 7.38647461,2.53127299 C6.86157227,1.84939907 6.07910156,1.5084621 5.0390625,1.5084621 C3.98925781,1.5084621 3.19702148,1.84939907 2.66235352,2.53127299 C2.12768555,3.21314692 1.86035156,4.21388276 1.86035156,5.5334805 Z" id="Shape"></path>
                        <path d="M13.6803057,5.17292127 L14.896126,5.17292127 C15.7115557,5.17292127 16.302376,5.02084866 16.6685869,4.71670346 C17.0347978,4.41255825 17.2179033,3.96124601 17.2179033,3.36276674 C17.2179033,2.75447633 17.0201494,2.31788079 16.6246416,2.05298013 C16.2291338,1.78807947 15.6334307,1.65562914 14.8375322,1.65562914 L13.6803057,1.65562914 L13.6803057,5.17292127 Z M13.6803057,6.62987491 L13.6803057,10.9271523 L11.9298174,10.9271523 L11.9298174,0.16924209 L14.9547197,0.16924209 C16.3365557,0.16924209 17.3595049,0.429237184 18.0235674,0.949227373 C18.6876299,1.46921756 19.0196611,2.25410841 19.0196611,3.30389993 C19.0196611,4.64311994 18.3263017,5.59725288 16.939583,6.16629875 L19.9644853,10.9271523 L17.9722978,10.9271523 L15.4088213,6.62987491 L13.6803057,6.62987491 Z" id="Shape"></path>
                        <path d="M25.4929355,5.0919794 L29.4333652,5.0919794 L29.4333652,10.4930096 C28.788834,10.703949 28.1699375,10.8535688 27.5766758,10.941869 C26.983414,11.0301692 26.3425449,11.0743194 25.6540683,11.0743194 C24.0329746,11.0743194 22.7829746,10.5923473 21.9040683,9.62840324 C21.0251621,8.66445916 20.585709,7.30439048 20.585709,5.5481972 C20.585709,3.81653176 21.0813144,2.46136865 22.0725254,1.48270787 C23.0637363,0.504047093 24.4284824,0.0147167035 26.1667637,0.0147167035 C27.2849277,0.0147167035 28.344498,0.230561688 29.3454746,0.662251656 L28.7302402,2.12656365 C27.8610996,1.72430709 26.991959,1.52317881 26.1228183,1.52317881 C24.9802402,1.52317881 24.0769199,1.88373804 23.4128574,2.60485651 C22.7487949,3.32597498 22.4167637,4.31199411 22.4167637,5.56291391 C22.4167637,6.87760608 22.7158359,7.87711553 23.3139805,8.56144224 C23.912125,9.24576895 24.7727207,9.5879323 25.8957676,9.5879323 C26.4621738,9.5879323 27.0676426,9.51680157 27.7121738,9.3745401 L27.7121738,6.6004415 L25.4929355,6.6004415 L25.4929355,5.0919794 Z" id="Path"></path>
                        <path d="M38.2430654,10.9271523 L37.1737295,7.93966152 L33.0794912,7.93966152 L32.0321279,10.9271523 L30.1864248,10.9271523 L34.1927724,0.125091979 L36.0970693,0.125091979 L40.103417,10.9271523 L38.2430654,10.9271523 Z M36.7123037,6.42384106 L35.7088857,3.49521707 C35.6356435,3.29899436 35.5343252,2.98994359 35.4049306,2.56806475 C35.2755361,2.14618592 35.1864248,1.83713515 35.1375967,1.64091244 C35.0057607,2.24429728 34.8128896,2.90409615 34.5589834,3.62030905 L33.5921865,6.42384106 L36.7123037,6.42384106 Z" id="Shape"></path>
                        <path d="M50.0337226,10.9271523 L47.8877265,10.9271523 L42.6216133,2.35467255 L42.5630195,2.35467255 L42.5996406,2.83296542 C42.668,3.74540103 42.7021797,4.57934756 42.7021797,5.334805 L42.7021797,10.9271523 L41.1128242,10.9271523 L41.1128242,0.16924209 L43.2368476,0.16924209 L48.4883125,8.69757174 L48.5322578,8.69757174 C48.5224922,8.58474368 48.5029609,8.17390238 48.473664,7.46504783 C48.4443672,6.75619328 48.4297187,6.20309051 48.4297187,5.80573951 L48.4297187,0.16924209 L50.0337226,0.16924209 L50.0337226,10.9271523 Z" id="Path"></path>
                        <polygon id="Path" points="52.4567041 10.9271523 52.4567041 0.16924209 54.2071923 0.16924209 54.2071923 10.9271523"></polygon>
                        <polygon id="Path" points="63.3611308 10.9271523 55.699998 10.9271523 55.699998 9.70566593 61.0979472 1.67770419 55.8464824 1.67770419 55.8464824 0.16924209 63.2146464 0.16924209 63.2146464 1.40544518 57.7947246 9.41869021 63.3611308 9.41869021"></polygon>
                        <polygon id="Path" points="70.9110654 10.9271523 64.8539365 10.9271523 64.8539365 0.16924209 70.9110654 0.16924209 70.9110654 1.65562914 66.6044247 1.65562914 66.6044247 4.58425313 70.6400693 4.58425313 70.6400693 6.05592347 66.6044247 6.05592347 66.6044247 9.43340692 70.9110654 9.43340692"></polygon>
                        <path d="M81.5298476,5.44518028 C81.5298476,7.22099583 81.0391249,8.57861172 80.0576796,9.51802796 C79.0762343,10.4574442 77.6626601,10.9271523 75.816957,10.9271523 L72.8213515,10.9271523 L72.8213515,0.16924209 L76.1318984,0.16924209 C77.8359999,0.16924209 79.1616835,0.630365465 80.1089492,1.55261221 C81.0562148,2.47485896 81.5298476,3.77238165 81.5298476,5.44518028 Z M79.6841445,5.50404709 C79.6841445,2.92862399 78.485414,1.64091244 76.0879531,1.64091244 L74.5718398,1.64091244 L74.5718398,9.44812362 L75.816957,9.44812362 C78.395082,9.44812362 79.6841445,8.13343144 79.6841445,5.50404709 Z" id="Shape"></path>
                    </g>
                    <g id="Group-18" transform="translate(0, 18.0839)">
                        <path d="M5.08300781,1.52317881 C4.07714844,1.52317881 3.28613281,1.88128526 2.70996094,2.59749816 C2.13378906,3.31371106 1.84570312,4.30218298 1.84570312,5.56291391 C1.84570312,6.88251165 2.12280273,7.8807947 2.67700195,8.55776306 C3.23120117,9.23473142 4.03320312,9.5732156 5.08300781,9.5732156 C5.53710937,9.5732156 5.9765625,9.5278391 6.40136719,9.43708609 C6.82617187,9.34633309 7.26806641,9.22982585 7.72705078,9.08756439 L7.72705078,10.5960265 C6.88720703,10.9148884 5.93505859,11.0743194 4.87060547,11.0743194 C3.30322266,11.0743194 2.09960937,10.5972529 1.25976562,9.64311994 C0.419921875,8.688987 0,7.32401275 0,5.5481972 C0,4.42972774 0.203857422,3.45106696 0.611572266,2.61221486 C1.01928711,1.77336277 1.60888672,1.13073338 2.38037109,0.684326711 C3.15185547,0.237920039 4.05761719,0.0147167035 5.09765625,0.0147167035 C6.19140625,0.0147167035 7.20214844,0.245278391 8.12988281,0.706401766 L7.5,2.17071376 C7.13867187,1.99901889 6.7565918,1.84817268 6.35375977,1.71817513 C5.95092773,1.58817758 5.52734375,1.52317881 5.08300781,1.52317881 Z" id="Path"></path>
                        <path d="M19.1368486,5.5334805 C19.1368486,7.28476821 18.7010576,8.64606328 17.8294756,9.61736571 C16.9578935,10.5886681 15.7237627,11.0743194 14.127083,11.0743194 C12.5108721,11.0743194 11.269417,10.5923473 10.4027178,9.62840324 C9.53601855,8.66445916 9.10266894,7.29457935 9.10266894,5.5187638 C9.10266894,3.74294825 9.53845995,2.37920039 10.410042,1.42752024 C11.281624,0.475840078 12.5255205,0 14.1417314,0 C15.7335283,0 16.9639971,0.48319843 17.8331377,1.44959529 C18.7022783,2.41599215 19.1368486,3.77728722 19.1368486,5.5334805 Z M10.9630205,5.5334805 C10.9630205,6.85798381 11.2291338,7.86239882 11.7613603,8.54672553 C12.2935869,9.23105224 13.0821611,9.5732156 14.127083,9.5732156 C15.1671221,9.5732156 15.9520342,9.23473142 16.4818193,8.55776306 C17.0116045,7.8807947 17.2764971,6.87270052 17.2764971,5.5334805 C17.2764971,4.21388276 17.0140459,3.21314692 16.4891435,2.53127299 C15.9642412,1.84939907 15.1817705,1.5084621 14.1417314,1.5084621 C13.0919267,1.5084621 12.2996904,1.84939907 11.7650225,2.53127299 C11.2303545,3.21314692 10.9630205,4.21388276 10.9630205,5.5334805 Z" id="Shape"></path>
                        <path d="M22.7829746,5.17292127 L23.9987949,5.17292127 C24.8142246,5.17292127 25.4050449,5.02084866 25.7712558,4.71670346 C26.1374668,4.41255825 26.3205722,3.96124601 26.3205722,3.36276674 C26.3205722,2.75447633 26.1228183,2.31788079 25.7273105,2.05298013 C25.3318027,1.78807947 24.7360996,1.65562914 23.9402012,1.65562914 L22.7829746,1.65562914 L22.7829746,5.17292127 Z M22.7829746,6.62987491 L22.7829746,10.9271523 L21.0324863,10.9271523 L21.0324863,0.16924209 L24.0573887,0.16924209 C25.4392246,0.16924209 26.4621738,0.429237184 27.1262363,0.949227373 C27.7902988,1.46921756 28.1223301,2.25410841 28.1223301,3.30389993 C28.1223301,4.64311994 27.4289707,5.59725288 26.0422519,6.16629875 L29.0671543,10.9271523 L27.0749668,10.9271523 L24.5114902,6.62987491 L22.7829746,6.62987491 Z" id="Shape"></path>
                        <path d="M31.9662099,5.17292127 L33.1820302,5.17292127 C33.9974599,5.17292127 34.5882802,5.02084866 34.9544912,4.71670346 C35.3207021,4.41255825 35.5038076,3.96124601 35.5038076,3.36276674 C35.5038076,2.75447633 35.3060537,2.31788079 34.9105459,2.05298013 C34.5150381,1.78807947 33.9193349,1.65562914 33.1234365,1.65562914 L31.9662099,1.65562914 L31.9662099,5.17292127 Z M31.9662099,6.62987491 L31.9662099,10.9271523 L30.2157217,10.9271523 L30.2157217,0.16924209 L33.240624,0.16924209 C34.6224599,0.16924209 35.6454092,0.429237184 36.3094717,0.949227373 C36.9735342,1.46921756 37.3055654,2.25410841 37.3055654,3.30389993 C37.3055654,4.64311994 36.612206,5.59725288 35.2254873,6.16629875 L38.2503896,10.9271523 L36.2582021,10.9271523 L33.6947256,6.62987491 L31.9662099,6.62987491 Z" id="Shape"></path>
                        <path d="M47.7925117,0.16924209 L47.7925117,7.13024283 C47.7925117,7.92494481 47.622834,8.62030905 47.2834785,9.21633554 C46.944123,9.81236203 46.4534004,10.2710326 45.8113105,10.5923473 C45.1692207,10.913662 44.4013984,11.0743194 43.5078437,11.0743194 C42.1797187,11.0743194 41.1470039,10.7211185 40.4096992,10.0147167 C39.6723945,9.30831494 39.3037422,8.33701251 39.3037422,7.10080942 L39.3037422,0.16924209 L41.0615547,0.16924209 L41.0615547,6.97571744 C41.0615547,7.86362521 41.2666328,8.51851852 41.676789,8.94039735 C42.0869453,9.36227618 42.7168281,9.5732156 43.5664375,9.5732156 C45.2168281,9.5732156 46.0420234,8.70247731 46.0420234,6.96100074 L46.0420234,0.16924209 L47.7925117,0.16924209 Z" id="Path"></path>
                        <path d="M57.2174462,3.42163355 C57.2174462,4.54500858 56.8512353,5.40593574 56.1188134,6.00441501 C55.3863916,6.60289429 54.3439111,6.90213392 52.991372,6.90213392 L51.8780908,6.90213392 L51.8780908,10.9271523 L50.1276025,10.9271523 L50.1276025,0.16924209 L53.2110986,0.16924209 C54.5489892,0.16924209 55.5511865,0.443953888 56.2176904,0.993377483 C56.8841943,1.54280108 57.2174462,2.35221977 57.2174462,3.42163355 Z M51.8780908,5.42310522 L52.8082666,5.42310522 C53.7067041,5.42310522 54.3658837,5.26612705 54.7858056,4.95217071 C55.2057275,4.63821437 55.4156884,4.14765759 55.4156884,3.48050037 C55.4156884,2.86239882 55.2277002,2.40127545 54.8517236,2.09713024 C54.475747,1.79298504 53.8898095,1.64091244 53.0939111,1.64091244 L51.8780908,1.64091244 L51.8780908,5.42310522 Z" id="Shape"></path>
                        <polygon id="Path" points="62.6506816 10.9271523 60.9001933 10.9271523 60.9001933 1.67770419 57.7507792 1.67770419 57.7507792 0.16924209 65.8000957 0.16924209 65.8000957 1.67770419 62.6506816 1.67770419"></polygon>
                        <polygon id="Path" points="67.0365537 10.9271523 67.0365537 0.16924209 68.7870419 0.16924209 68.7870419 10.9271523"></polygon>
                        <path d="M80.7168593,5.5334805 C80.7168593,7.28476821 80.2810683,8.64606328 79.4094863,9.61736571 C78.5379042,10.5886681 77.3037734,11.0743194 75.7070937,11.0743194 C74.0908827,11.0743194 72.8494277,10.5923473 71.9827285,9.62840324 C71.1160292,8.66445916 70.6826796,7.29457935 70.6826796,5.5187638 C70.6826796,3.74294825 71.1184706,2.37920039 71.9900527,1.42752024 C72.8616347,0.475840078 74.1055312,0 75.7217421,0 C77.313539,0 78.5440077,0.48319843 79.4131484,1.44959529 C80.282289,2.41599215 80.7168593,3.77728722 80.7168593,5.5334805 Z M72.5430312,5.5334805 C72.5430312,6.85798381 72.8091445,7.86239882 73.341371,8.54672553 C73.8735976,9.23105224 74.6621718,9.5732156 75.7070937,9.5732156 C76.7471327,9.5732156 77.5320449,9.23473142 78.06183,8.55776306 C78.5916152,7.8807947 78.8565077,6.87270052 78.8565077,5.5334805 C78.8565077,4.21388276 78.5940566,3.21314692 78.0691542,2.53127299 C77.5442519,1.84939907 76.7617812,1.5084621 75.7217421,1.5084621 C74.6719374,1.5084621 73.8797011,1.84939907 73.3450331,2.53127299 C72.8103652,3.21314692 72.5430312,4.21388276 72.5430312,5.5334805 Z" id="Shape"></path>
                        <path d="M91.5333954,10.9271523 L89.3873993,10.9271523 L84.1212861,2.35467255 L84.0626923,2.35467255 L84.0993134,2.83296542 C84.1676728,3.74540103 84.2018525,4.57934756 84.2018525,5.334805 L84.2018525,10.9271523 L82.612497,10.9271523 L82.612497,0.16924209 L84.7365204,0.16924209 L89.9879853,8.69757174 L90.0319306,8.69757174 C90.022165,8.58474368 90.0026337,8.17390238 89.9733368,7.46504783 C89.94404,6.75619328 89.9293915,6.20309051 89.9293915,5.80573951 L89.9293915,0.16924209 L91.5333954,0.16924209 L91.5333954,10.9271523 Z" id="Path"></path>
                        <path d="M99.3383427,2.48712288 C99.3383427,2.79617366 99.4201298,3.08805494 99.583704,3.36276674 C99.7472782,3.63747854 99.9755497,3.92935982 100.268518,4.2384106 C100.820276,3.92445426 101.207239,3.63134658 101.429407,3.35908756 C101.651575,3.08682855 101.762659,2.78145695 101.762659,2.44297277 C101.762659,2.12411087 101.656458,1.86902134 101.444056,1.67770419 C101.231653,1.48638705 100.949671,1.39072848 100.598108,1.39072848 C100.212366,1.39072848 99.9059696,1.49006623 99.6789189,1.68874172 C99.4518681,1.88741722 99.3383427,2.15354427 99.3383427,2.48712288 Z M100.429651,9.5879323 C101.323206,9.5879323 102.087366,9.32548442 102.722132,8.80058867 L99.916956,6.02649007 C99.3993778,6.36006868 99.0429325,6.67279863 98.84762,6.96467991 C98.6523075,7.2565612 98.5546513,7.58891342 98.5546513,7.96173657 C98.5546513,8.44248222 98.724329,8.83370125 99.0636845,9.13539367 C99.40304,9.43708609 99.8583622,9.5879323 100.429651,9.5879323 Z M96.738245,8.0794702 C96.738245,7.43684081 96.894495,6.87637969 97.206995,6.39808683 C97.519495,5.91979397 98.0834599,5.44518028 98.8988896,4.97424577 C98.4350224,4.42972774 98.1188603,3.96983076 97.9504032,3.59455482 C97.7819462,3.21927888 97.6977177,2.83051263 97.6977177,2.42825607 C97.6977177,1.68260976 97.9626103,1.09394162 98.4923954,0.662251656 C99.0221806,0.230561688 99.7338505,0.0147167035 100.627405,0.0147167035 C101.491663,0.0147167035 102.170374,0.224429728 102.663538,0.643855776 C103.156702,1.06328182 103.403284,1.62864852 103.403284,2.33995585 C103.403284,2.89919058 103.238489,3.40691685 102.908899,3.86313466 C102.579309,4.31935247 102.028772,4.77557027 101.257288,5.23178808 L103.791468,7.68947756 C104.186975,7.1645818 104.516565,6.39440765 104.780237,5.37895511 L106.552698,5.37895511 C106.210901,6.77213637 105.664026,7.90777532 104.912073,8.78587196 L107.116663,10.9271523 L104.897425,10.9271523 L103.806116,9.86019132 C103.308069,10.2624479 102.777063,10.5653667 102.213099,10.7689478 C101.649134,10.9725288 101.025354,11.0743194 100.341761,11.0743194 C99.2187138,11.0743194 98.3373661,10.8069659 97.6977177,10.272259 C97.0580692,9.73755212 96.738245,9.00662252 96.738245,8.0794702 Z" id="Shape"></path>
                        <path d="M116.196024,1.52317881 C115.190165,1.52317881 114.399149,1.88128526 113.822977,2.59749816 C113.246806,3.31371106 112.95872,4.30218298 112.95872,5.56291391 C112.95872,6.88251165 113.235819,7.8807947 113.790018,8.55776306 C114.344218,9.23473142 115.14622,9.5732156 116.196024,9.5732156 C116.650126,9.5732156 117.089579,9.5278391 117.514384,9.43708609 C117.939188,9.34633309 118.381083,9.22982585 118.840067,9.08756439 L118.840067,10.5960265 C118.000224,10.9148884 117.048075,11.0743194 115.983622,11.0743194 C114.416239,11.0743194 113.212626,10.5972529 112.372782,9.64311994 C111.532938,8.688987 111.113016,7.32401275 111.113016,5.5481972 C111.113016,4.42972774 111.316874,3.45106696 111.724589,2.61221486 C112.132304,1.77336277 112.721903,1.13073338 113.493388,0.684326711 C114.264872,0.237920039 115.170634,0.0147167035 116.210673,0.0147167035 C117.304423,0.0147167035 118.315165,0.245278391 119.242899,0.706401766 L118.613016,2.17071376 C118.251688,1.99901889 117.869608,1.84817268 117.466776,1.71817513 C117.063944,1.58817758 116.64036,1.52317881 116.196024,1.52317881 Z" id="Path"></path>
                        <path d="M122.493517,5.17292127 L123.709338,5.17292127 C124.524767,5.17292127 125.115588,5.02084866 125.481799,4.71670346 C125.84801,4.41255825 126.031115,3.96124601 126.031115,3.36276674 C126.031115,2.75447633 125.833361,2.31788079 125.437853,2.05298013 C125.042346,1.78807947 124.446642,1.65562914 123.650744,1.65562914 L122.493517,1.65562914 L122.493517,5.17292127 Z M122.493517,6.62987491 L122.493517,10.9271523 L120.743029,10.9271523 L120.743029,0.16924209 L123.767932,0.16924209 C125.149767,0.16924209 126.172717,0.429237184 126.836779,0.949227373 C127.500842,1.46921756 127.832873,2.25410841 127.832873,3.30389993 C127.832873,4.64311994 127.139514,5.59725288 125.752795,6.16629875 L128.777697,10.9271523 L126.78551,10.9271523 L124.222033,6.62987491 L122.493517,6.62987491 Z" id="Shape"></path>
                        <polygon id="Path" points="129.926265 10.9271523 129.926265 0.16924209 131.676753 0.16924209 131.676753 10.9271523"></polygon>
                        <path d="M138.72864,10.9271523 L135.623172,1.94260486 L135.564578,1.94260486 C135.647586,3.2769193 135.68909,4.5278391 135.68909,5.69536424 L135.68909,10.9271523 L134.099734,10.9271523 L134.099734,0.16924209 L136.567996,0.16924209 L139.541629,8.72700515 L139.585574,8.72700515 L142.647098,0.16924209 L145.122683,0.16924209 L145.122683,10.9271523 L143.438113,10.9271523 L143.438113,5.60706402 C143.438113,5.07235713 143.451541,4.37576649 143.478396,3.51729213 C143.505252,2.65881776 143.528445,2.13882757 143.547976,1.95732156 L143.489383,1.95732156 L140.274051,10.9271523 L138.72864,10.9271523 Z" id="Path"></path>
                        <polygon id="Path" points="153.59547 10.9271523 147.538341 10.9271523 147.538341 0.16924209 153.59547 0.16924209 153.59547 1.65562914 149.288829 1.65562914 149.288829 4.58425313 153.324473 4.58425313 153.324473 6.05592347 149.288829 6.05592347 149.288829 9.43340692 153.59547 9.43340692"></polygon>
                    </g>
                </g>
            </g>
        </g>
    </g>
</svg>