<?xml version="1.0" encoding="UTF-8"?>
<svg width="162px" height="189px" viewBox="0 0 162 189" version="1.1" xmlns="http://www.w3.org/2000/svg" xmlns:xlink="http://www.w3.org/1999/xlink">
    <title>persecution_clan</title>
    <defs>
        <ellipse id="path-1" cx="70" cy="69.9847859" rx="70" ry="69.9847859"></ellipse>
    </defs>
    <g id="Page-1" stroke="none" stroke-width="1" fill="none" fill-rule="evenodd">
        <g id="Apple-TV" transform="translate(-77, -292)">
            <g id="persecution_clan" transform="translate(82.2597, 297)">
                <g id="Oval-Copy">
                    <ellipse stroke="#EA743D" stroke-width="4" stroke-linejoin="square" cx="70" cy="69.9847859" rx="68" ry="67.9847859"></ellipse>
                    <ellipse stroke="#0E0E0E" stroke-width="5" cx="70" cy="69.9847859" rx="72.5" ry="72.4847859"></ellipse>
                </g>
                <path d="M98.9202863,46.2399478 L75.5602863,46.2399478 L75.5602863,26.0843295 C75.5602863,24.4446859 74.2302863,23.1249728 72.6002863,23.1249728 L67.4402863,23.1249728 C65.8002863,23.1249728 64.4802863,24.4546838 64.4802863,26.0843295 L64.4802863,46.2399478 L41.1202863,46.2399478 C39.7202863,46.2399478 38.5902863,47.3697022 38.5902863,48.769398 L38.5902863,54.7880895 C38.5902863,56.1877853 39.7202863,57.3175397 41.1202863,57.3175397 L64.4802863,57.3175397 L64.4802863,114.145186 C64.4802863,115.784829 65.8102863,117.104542 67.4402863,117.104542 L72.6002863,117.104542 C74.2402863,117.104542 75.5602863,115.774832 75.5602863,114.145186 L75.5602863,57.3175397 L98.9202863,57.3175397 C100.320286,57.3175397 101.450286,56.1877853 101.450286,54.7880895 L101.450286,48.769398 C101.450286,47.3697022 100.320286,46.2399478 98.9202863,46.2399478 Z" id="Path" fill="#EA743D" fill-rule="nonzero"></path>
                <ellipse id="Oval" fill="#FFFFFF" fill-rule="nonzero" cx="116.330286" cy="99.9382743" rx="37.52" ry="37.5118453"></ellipse>
                <g id="Group" transform="translate(79.3722, 63.5862)" fill="#3D5039" fill-rule="nonzero">
                    <ellipse id="Oval" cx="56.4081037" cy="10.6176918" rx="1.28" ry="1.2797218"></ellipse>
                    <ellipse id="Oval" cx="20.3481037" cy="10.607694" rx="1.28" ry="1.2797218"></ellipse>
                    <ellipse id="Oval" cx="56.3981037" cy="64.6159531" rx="1.28" ry="1.2797218"></ellipse>
                    <ellipse id="Oval" cx="20.3581037" cy="64.6159531" rx="1.28" ry="1.2797218"></ellipse>
                    <ellipse id="Oval" cx="8.9581037" cy="21.6452945" rx="1.27" ry="1.26972397"></ellipse>
                    <path d="M41.3581037,0 L45.1781037,0.529884808 C60.8281037,3.21930015 73.5281037,15.8165616 76.2481037,31.473158 L76.7781037,35.1723538 L76.7781037,41.0510759 L76.2481037,44.6302978 C73.4781037,60.0869376 60.6581037,72.5042382 45.2981037,75.3336231 L41.7181037,75.8635079 L35.2181037,75.8635079 L31.6381037,75.3336231 C16.4381037,72.7741795 3.6481037,60.526842 0.688103703,45.3701369 L0.0381037025,41.0510759 C0.128103703,39.1214953 -0.0818962975,37.0819387 0.0381037025,35.1723538 C1.2481037,16.5963921 17.0781037,1.13975223 35.5881037,0 L41.3481037,0 L41.3581037,0 Z M32.5381037,1.4696805 L32.5381037,10.7176701 C32.2481037,10.9676157 30.7081037,11.4975005 30.4481037,11.3375353 C28.6681037,8.68811128 27.2781037,5.59878287 25.0581037,3.30928059 C25.6981037,6.5885677 27.1081037,9.68789394 28.1181037,12.8672028 C24.5681037,13.8469898 21.5181037,16.3064551 19.9081037,19.6057379 L19.5981037,19.485764 C16.8881037,17.0262986 14.3781037,14.296892 11.3281037,12.2573354 C11.1481037,12.4972832 11.8681037,13.6670289 12.0081037,13.9669637 L19.0081037,23.8448163 C19.0281037,24.094762 16.2881037,27.78396 16.0481037,27.9539231 C15.9681037,28.01391 15.6081037,28.2038687 15.5581037,28.2038687 L2.6281037,28.2038687 C3.7181037,28.9836992 4.8981037,30.0634645 6.0481037,30.7333188 C7.1981037,31.4031732 8.2781037,31.0932406 9.5581037,31.1432297 C9.8881037,31.1532276 10.1781037,31.2732015 10.5281037,31.2732015 C12.2381037,31.2931971 13.9181037,31.1432297 15.6181037,31.1432297 C15.3881037,32.1830037 15.3781037,33.3827429 14.9481037,34.3325364 L3.9781037,34.3325364 L6.6681037,38.3116714 L3.9781037,42.540752 L14.9281037,42.4307759 C15.2581037,42.540752 15.4881037,45.1101934 15.6181037,45.6000869 L7.2181037,45.6000869 C6.1381037,45.6000869 3.6781037,47.8695936 2.7481037,48.5394479 L16.7881037,48.5394479 C16.9581037,48.5394479 17.5681037,48.8393827 17.7081037,48.999348 C17.8681037,49.1793088 19.1581037,51.5787872 19.1181037,51.7287546 C16.9581037,55.0380352 14.2181037,58.2073462 12.1881037,61.5866116 C11.8381037,62.1764834 11.3781037,62.776353 11.3381037,63.4861987 C11.4681037,63.6461639 13.4681037,61.8865464 13.6681037,61.7065855 C15.8281037,59.7570093 17.8181037,57.587481 19.9781037,55.6379048 C22.0481037,58.4672897 24.7881037,60.4168659 28.1181037,61.5366225 C28.1881037,61.6565964 28.1181037,61.8765486 28.0781037,62.0165181 C27.3781037,65.0958487 25.3681037,68.6050859 24.9581037,71.764399 C24.9381037,71.8943708 24.8581037,72.2143012 25.0681037,72.1743099 C25.6281037,71.3344925 26.2381037,70.5246686 26.7881037,69.6648555 C27.7781037,68.1151923 31.2281037,62.6463812 31.4081037,61.1767007 C31.4681037,60.6668116 31.4481037,60.1969137 31.1781037,59.7570093 C30.8281037,59.1871332 28.6981037,58.1873506 27.9681037,57.6974571 C21.7781037,53.4883721 16.2281037,41.5809607 17.3781037,34.1625734 C18.0081037,30.0834601 21.6681037,24.7046294 24.9481037,22.2451641 C30.1481037,18.3460117 43.8581037,18.5559661 49.6981037,21.0154314 C54.0281037,22.8350359 59.1681037,30.1734406 59.5081037,34.8524234 C60.0981037,42.8206912 54.7481037,53.7083243 48.0981037,58.1373614 C46.7981037,58.9971745 45.2581037,59.1671376 45.4081037,61.0867203 C45.5081037,62.3864377 49.3781037,68.7150619 50.3281037,70.1347533 C50.7681037,70.7946099 51.2881037,71.5544447 51.8981037,72.054336 C51.3281037,68.4451206 49.6981037,65.0958487 48.7181037,61.5966094 C50.0381037,60.9367529 51.4881037,60.4368616 52.7481037,59.6070419 C54.2681037,58.5972615 55.5981037,57.0376005 56.7381037,55.6379048 C59.4881037,58.1173658 62.0681037,60.7767877 64.8981037,63.1662682 L65.4981037,63.4762008 C65.6581037,63.2762443 64.7581037,61.7765703 64.5981037,61.4966312 L57.6781037,51.7387524 L57.7081037,51.4588133 C58.3081037,50.7689633 58.8781037,48.5194523 59.9281037,48.5194523 L74.0881037,48.5194523 C73.3681037,47.899587 70.5281037,45.5800913 69.7381037,45.5800913 L61.2181037,45.5800913 C61.5081037,44.7102804 61.4681037,43.4105629 61.7281037,42.600739 C61.7581037,42.5107585 61.8081037,42.4507716 61.8881037,42.3907846 L72.8581037,42.3907846 L70.1581037,38.2816779 L72.8581037,34.3025429 L61.8881037,34.3025429 C61.6881037,34.3025429 61.2881037,31.5231471 61.2181037,31.1132363 L69.7381037,31.1132363 C69.8681037,31.1132363 70.6981037,30.6633341 70.8881037,30.553358 L74.2081037,28.1738752 L61.1581037,28.1738752 C61.0981037,28.1738752 60.5781037,27.8339491 60.4881037,27.7439687 C60.0881037,27.3640513 58.1981037,24.6846338 57.9281037,24.1747446 C57.8581037,24.034775 57.7581037,23.9048033 57.8081037,23.7348403 C59.5381037,21.0854162 61.5581037,18.6359487 63.3281037,16.0165181 C63.6081037,15.5966094 65.7581037,12.4972832 65.5081037,12.2473375 C64.7381037,12.567268 63.9481037,13.2371224 63.2981037,13.777005 C61.1381037,15.5866116 59.1281037,17.7461421 56.9881037,19.5957401 C55.1281037,16.3764399 52.4481037,13.7070202 48.7181037,12.857205 L51.9081037,3.17930885 C49.6281037,5.51880026 48.2481037,8.6581178 46.3881037,11.3275375 C45.9981037,11.5674853 44.9281037,10.8476418 44.4281037,10.8976309 L44.4281037,1.45968268 C44.0381037,1.54966312 43.6581037,2.01956097 43.3881037,2.31949576 C42.4981037,3.25929146 41.7681037,4.37904803 40.8781037,5.31884373 C40.8781037,5.46881113 42.8581037,7.10845468 42.9581037,7.5283634 L40.9881037,9.4879374 C42.4481037,10.7676592 43.0081037,12.0373832 42.1081037,13.9069767 C43.5181037,14.5168442 45.0981037,14.9067594 46.5681037,15.4366442 C49.7781037,16.5863943 51.1781037,17.0662899 53.2981037,19.8656814 C53.4281037,20.0356444 54.2081037,21.0854162 54.1081037,21.2053901 C52.7481037,20.2256031 51.2781037,19.5657466 49.6681037,19.0858509 C46.8181037,18.2460335 43.6681037,18.0060856 40.8681037,17.2262552 C40.3681037,17.0862856 39.8981037,16.9263204 39.7781037,16.3564443 C39.4081037,11.7974353 39.2581037,7.20843295 38.4881037,2.69941317 C38.1381037,4.44903282 37.8681037,6.2486416 37.6881037,8.02825473 C37.4481037,10.4977179 37.4981037,13.0471637 37.1981037,15.4966312 C37.1181037,16.1164964 37.0981037,16.946316 36.3681037,17.1162791 C31.8181037,18.2560313 26.7381037,18.44599 22.7981037,21.1953923 C22.5981037,21.0854162 22.8381037,20.9154532 22.9081037,20.8154749 C24.5281037,18.3060204 25.9281037,17.1462725 28.6781037,16.0465116 C30.6481037,15.2566833 32.6981037,14.6668116 34.6981037,13.9669637 C34.5381037,13.1471419 34.1981037,12.1973484 34.4081037,11.357531 C34.5381037,10.8276462 35.4681037,9.92784177 35.8481037,9.4879374 C35.3081037,8.96805042 34.7981037,8.40817214 34.2581037,7.88828516 C34.1081037,7.73831776 33.8381037,7.75831341 33.8781037,7.5283634 C34.0481037,7.09845686 35.8481037,5.62877635 35.8481037,5.31884373 C34.8081037,3.97913497 33.8181037,2.56944143 32.5381037,1.45968268 L32.5381037,1.4696805 Z M23.8181037,10.607694 C23.8181037,8.71810476 22.2781037,7.17843947 20.3881037,7.17843947 C18.4981037,7.17843947 16.9581037,8.71810476 16.9581037,10.607694 C16.9581037,12.4972832 18.4981037,14.0369485 20.3881037,14.0369485 C22.2781037,14.0369485 23.8181037,12.4972832 23.8181037,10.607694 Z M59.8681037,10.5976962 C59.8681037,8.69810911 58.3281037,7.16844164 56.4381037,7.16844164 C54.5481037,7.16844164 53.0081037,8.70810693 53.0081037,10.5976962 C53.0081037,12.4872854 54.5481037,14.0269507 56.4381037,14.0269507 C58.3281037,14.0269507 59.8681037,12.4872854 59.8681037,10.5976962 Z M12.3681037,21.6552923 C12.3681037,19.7757009 10.8481037,18.2560313 8.9681037,18.2560313 C7.0881037,18.2560313 5.5681037,19.7757009 5.5681037,21.6552923 C5.5681037,23.5348837 7.0881037,25.0545534 8.9681037,25.0545534 C10.8481037,25.0545534 12.3681037,23.5348837 12.3681037,21.6552923 Z M71.2181037,21.6552923 C71.2181037,19.7856988 69.6981037,18.2660291 67.8281037,18.2660291 C65.9581037,18.2660291 64.4381037,19.7856988 64.4381037,21.6552923 C64.4381037,23.5248859 65.9581037,25.0445555 67.8281037,25.0445555 C69.6981037,25.0445555 71.2181037,23.5248859 71.2181037,21.6552923 Z M38.5381037,28.1838731 C38.6381037,27.0041295 39.9281037,25.1945229 39.8981037,24.0847642 C39.8881037,23.7348403 38.9581037,21.6552923 38.7281037,21.445338 C38.6081037,21.3353619 38.5281037,21.2953706 38.3581037,21.3153662 C37.9081037,21.3653554 36.9281037,23.7348403 36.9381037,24.2047381 C36.9581037,24.7346229 37.9981037,27.3940448 38.2781037,28.0239078 C38.3481037,28.1638774 38.2181037,28.24386 38.5381037,28.1938709 L38.5381037,28.1838731 Z M36.0881037,27.2040861 C35.6581037,24.1347533 33.8381037,21.2253858 30.3881037,21.445338 C27.4481037,21.6252988 24.0281037,25.0345577 22.4381037,27.3440556 C22.3581037,27.4640296 22.0181037,27.8339491 22.1181037,27.9439252 C24.6881037,26.5642252 27.5681037,24.6746359 30.6281037,25.0145621 C32.5881037,25.2345142 34.2981037,26.5242339 36.0981037,27.2040861 L36.0881037,27.2040861 Z M54.5981037,27.8139535 C54.7081037,27.6939796 53.4781037,26.1643121 53.3181037,25.9743534 C50.7781037,23.0749837 45.7881037,19.1058466 42.3381037,23.0949794 C41.4081037,24.1747446 40.8181037,25.9743534 40.6881037,27.32406 C42.3581037,26.5242339 44.3481037,25.2145186 46.2181037,25.0045642 C49.2081037,24.6646381 52.0081037,26.6142143 54.5981037,27.8139535 L54.5981037,27.8139535 Z M40.2581037,42.8906759 L39.2581037,31.4431645 C39.1581037,29.4336014 37.9881037,28.5138013 37.5681037,31.0732449 C37.1481037,33.6326885 37.0081037,36.9619648 36.8181037,39.6413823 C36.7381037,40.7111498 36.7181037,41.8109107 36.6981037,42.8906759 L33.6981037,42.8906759 C33.6181037,42.8906759 33.1681037,43.1506194 33.0581037,43.230602 C31.2481037,44.4103456 31.9781037,47.4596827 34.2481037,47.1797435 C33.6181037,46.3599218 33.4881037,45.4601174 34.5781037,45.0002173 C36.9181037,45.1201913 39.6081037,44.7502717 41.9181037,44.9702239 C42.8181037,45.0602043 43.4381037,45.6600739 43.0181037,46.5698761 C42.8781037,46.8698109 42.6081037,46.9997827 42.5881037,47.3097153 C42.8681037,47.1297544 43.1981037,47.2397305 43.4781037,47.1597479 C44.7081037,46.7998261 45.1481037,45.1001956 44.5781037,44.040426 C44.4281037,43.750489 43.5381037,42.9006738 43.2681037,42.9006738 L40.2681037,42.9006738 L40.2581037,42.8906759 Z M35.5981037,31.3731797 C31.6681037,30.5033688 27.6781037,28.6937622 23.6781037,30.2934145 C22.0381037,30.953271 20.5481037,32.3429689 20.3981037,34.182569 C23.8481037,30.9432732 28.7281037,30.9332754 32.9481037,32.6029124 L35.2281037,33.9326233 L35.5881037,31.3631819 L35.5981037,31.3731797 Z M56.3181037,34.0625951 C56.1081037,32.2629863 54.8281037,31.0332536 53.2181037,30.3633993 C49.1681037,28.6737666 45.2181037,30.4233862 41.2481037,31.3731797 L41.6081037,34.0625951 C45.7081037,30.7633123 52.2481037,30.5233645 56.3181037,34.0625951 Z M21.0681037,39.1614866 C24.8381037,42.9306672 29.0481037,43.4305586 33.2781037,40.0113019 C33.5381037,39.8013475 34.7381037,38.7615736 34.7482193,38.5416214 C34.7681037,37.7717887 32.1881037,35.622256 31.4781037,35.1923495 C27.1481037,32.6029124 23.2481037,34.8024343 20.2981037,38.1916975 C20.2781037,38.331667 20.9181037,39.0115192 21.0781037,39.1614866 L21.0681037,39.1614866 Z M48.4481037,34.1025864 C45.7581037,34.3725277 43.3781037,36.3121061 41.9981037,38.5416214 C43.1881037,39.8413388 44.6981037,41.1110628 46.3581037,41.7609215 C50.4981037,43.3705716 53.8181037,41.2410346 56.5581037,38.3016735 C54.4281037,35.9221908 51.8681037,33.7626603 48.4481037,34.1125842 L48.4481037,34.1025864 Z M29.4681037,44.2403825 L26.9381037,45.5700935 L24.4481037,44.2403825 C24.3181037,45.5001087 24.2981037,46.7698326 24.3281037,48.0395566 C24.4881037,48.2195175 26.6681037,46.6998479 26.9381037,46.7098457 C27.4381037,46.7398392 28.8781037,47.8695936 29.4681037,48.0395566 L29.4681037,44.2403825 Z M52.5181037,44.2403825 C51.8881037,44.3003695 50.4381037,45.5201043 49.9881037,45.5600956 C49.6081037,45.6000869 47.9081037,44.3503586 47.3681037,44.2403825 L47.3681037,48.0395566 C47.9181037,47.9295805 49.5281037,46.749837 49.8981037,46.7198435 C50.3381037,46.6798522 51.9381037,47.9395784 52.5181037,48.0395566 L52.5181037,44.2403825 Z M33.3381037,71.6944143 C33.9681037,71.594436 34.8281037,71.7743969 35.4881037,71.6944143 L34.9981037,67.0354271 C35.2081037,66.8254727 37.7981037,68.4851119 38.3681037,68.5151054 C39.1481037,68.5450989 40.7581037,67.155401 41.6781037,67.0354271 L41.3781037,71.6944143 L43.3981037,71.6944143 C44.0281037,71.6944143 45.7181037,73.4140404 46.2181037,73.9039339 C46.0881037,72.4542491 45.6581037,70.9245816 45.2381037,69.4948924 C44.8181037,68.0652032 43.4381037,63.3562269 42.6581037,62.3964356 C42.0381037,61.6465986 41.4981037,61.7065855 41.3781037,60.4868507 C40.9781037,56.3277548 44.3881037,57.587481 46.8181037,55.9878287 C49.2481037,54.3881765 48.8081037,51.1488807 46.3681037,49.8591611 C43.2181037,48.1995218 34.1781037,48.249511 30.9181037,49.6492067 C27.6581037,51.0489024 27.5181037,54.9280591 30.7581037,56.3977396 C32.8481037,57.3375353 35.6581037,56.8276462 35.5081037,60.1169311 C35.4381037,61.6865899 34.6781037,61.6465986 33.9781037,62.6363834 C33.2781037,63.6261682 32.0581037,67.7252771 31.6381037,69.1249728 C31.1781037,70.6446425 30.8881037,72.1943056 30.4781037,73.723973 C30.5681037,73.9039339 30.6881037,73.7339709 30.7881037,73.6639861 C31.4581037,73.1440991 32.5181037,71.8443817 33.3581037,71.7044121 L33.3381037,71.6944143 Z M12.3581037,54.1782221 C12.3581037,52.3086286 10.8381037,50.7889589 8.9681037,50.7889589 C7.0981037,50.7889589 5.5781037,52.3086286 5.5781037,54.1782221 C5.5781037,56.0478157 7.0981037,57.5674853 8.9681037,57.5674853 C10.8381037,57.5674853 12.3581037,56.0478157 12.3581037,54.1782221 Z M71.1981037,54.1782221 C71.1981037,52.3186264 69.6881037,50.8089546 67.8281037,50.8089546 C65.9681037,50.8089546 64.4581037,52.3186264 64.4581037,54.1782221 C64.4581037,56.0378179 65.9681037,57.5474897 67.8281037,57.5474897 C69.6881037,57.5474897 71.1981037,56.0378179 71.1981037,54.1782221 Z M23.7981037,64.6159531 C23.7981037,62.7263638 22.2681037,61.1966964 20.3781037,61.1966964 C18.4881037,61.1966964 16.9581037,62.7263638 16.9581037,64.6159531 C16.9581037,66.5055423 18.4881037,68.0352097 20.3781037,68.0352097 C22.2681037,68.0352097 23.7981037,66.5055423 23.7981037,64.6159531 Z M59.8581037,64.6059552 C59.8581037,62.716366 58.3281037,61.1767007 56.4281037,61.1767007 C54.5281037,61.1767007 52.9981037,62.7063682 52.9981037,64.6059552 C52.9981037,66.5055423 54.5281037,68.0352097 56.4281037,68.0352097 C58.3281037,68.0352097 59.8581037,66.5055423 59.8581037,64.6059552 Z" id="Shape"></path>
                    <ellipse id="Oval" cx="8.9681037" cy="54.1782221" rx="1.27" ry="1.26972397"></ellipse>
                    <ellipse id="Oval" cx="11.0881037" cy="38.3516627" rx="2.92" ry="2.91936536"></ellipse>
                    <ellipse id="Oval" cx="67.7981037" cy="21.6352967" rx="1.26" ry="1.25972615"></ellipse>
                    <ellipse id="Oval" cx="65.7381037" cy="38.3516627" rx="2.92" ry="2.91936536"></ellipse>
                    <ellipse id="Oval" cx="67.8381037" cy="54.1682243" rx="1.26" ry="1.25972615"></ellipse>
                    <g transform="translate(22.1181, 35.4161)">
                        <path d="M12.11,14.742965 C14.49,14.5530063 18.03,14.5530063 20.41,14.7029737 C22.21,14.8129498 25.06,15.6827607 24.6,18.0522456 C24.18,20.2717631 21.08,20.391737 19.3,20.4717196 C17.13,20.5716979 11.3,20.7016696 9.5,19.8418566 C7.82,19.0320326 7.47,17.0824564 8.87,15.8127325 C9.77,14.9929107 10.92,14.8429433 12.1,14.7529628 L12.11,14.742965 Z M21.79,18.1022347 C22.53,17.3923891 21.6,16.8625043 20.9,16.7825216 C18.85,16.5525716 16.11,16.702539 14.04,16.7825216 C13.25,16.8125151 11.49,16.6225564 10.87,17.0124716 C10.48,17.2524195 10.67,18.0422478 11.15,18.1922152 C11.4,18.2721978 12.46,18.3521804 12.81,18.3721761 C14.91,18.49215 17.7,18.49215 19.8,18.3721761 C20.14,18.3521804 21.65,18.2222087 21.79,18.0922369 L21.79,18.1022347 Z" id="Shape"></path>
                        <ellipse id="Oval" cx="16.29" cy="23.7909981" rx="1.6" ry="1.59965225"></ellipse>
                        <ellipse id="Oval" cx="14.17" cy="28.9898679" rx="1.6" ry="1.59965225"></ellipse>
                        <ellipse id="Oval" cx="18.42" cy="28.97987" rx="1.59" ry="1.58965442"></ellipse>
                        <path d="M4.75,0.0361621507 C7.11,-0.243776993 9.52,1.13592307 10.9,2.98552099 C8.75,5.06506891 5.96,6.33479288 3.02,5.00508195 C1.94,4.51518845 0.87,3.67537102 0,2.87554489 C1.19,1.57582744 2.95,0.246116508 4.75,0.0261643241 L4.75,0.0361621507 Z" id="Path"></path>
                        <path d="M26.45,0.0361621507 C28.82,-0.243776993 31,1.1459209 32.46,2.88554272 C29.28,6.38478202 24.76,6.39477984 21.58,2.88554272 C22.84,1.53583613 24.56,0.256114335 26.45,0.0361621507 Z" id="Path"></path>
                    </g>
                </g>
                <g id="Group" transform="translate(21.6603, 156.196)" fill="#010101" fill-rule="nonzero">
                    <g id="Group-17" transform="translate(27.65, 0)">
                        <path d="M8.31,10.087807 C7.78,10.3377527 7.26,10.5277114 6.76,10.6376875 C6.26,10.7476636 5.71,10.8076505 5.13,10.8076505 C3.53,10.8076505 2.27,10.3377527 1.36,9.40795479 C0.45,8.47815692 0,7.1884373 0,5.56878939 C0,3.94914149 0.5,2.57943925 1.51,1.54966312 C2.51,0.519886981 3.83,0 5.45,0 C5.98,0 6.47,0.0399913062 6.91,0.129971745 C7.35,0.219952184 7.8,0.359921756 8.26,0.549880461 L7.68,1.99956531 C7.31,1.83960009 6.96,1.72962399 6.61,1.65963921 C6.26,1.58965442 5.89,1.54966312 5.48,1.54966312 C4.43,1.54966312 3.57,1.89958705 2.9,2.59943491 C2.22,3.29928276 1.89,4.24907629 1.89,5.43881765 C1.89,6.62855901 2.2,7.53836123 2.82,8.21821343 C3.44,8.89806564 4.28,9.23799174 5.33,9.23799174 C5.68,9.23799174 6.05,9.18800261 6.44,9.09802217 C6.83,9.00804173 7.23,8.85807433 7.64,8.64811997 L8.33,10.087807 L8.31,10.087807 Z" id="Path"></path>
                        <polygon id="Path" points="15.99 10.6276896 10.17 10.6276896 10.17 0.169963052 11.94 0.169963052 11.94 9.13801348 15.99 9.13801348 15.99 10.6376875"></polygon>
                        <path d="M16.91,10.6276896 L20.82,0.169963052 L22.83,0.169963052 L26.71,10.6276896 L24.75,10.6276896 L23.87,8.12823299 L19.69,8.12823299 L18.84,10.6276896 L16.9,10.6276896 L16.91,10.6276896 Z M20.16,6.66855032 L23.4,6.66855032 L21.97,2.53944795 C21.94,2.42947185 21.91,2.32949359 21.88,2.2195175 C21.85,2.1095414 21.83,1.97956966 21.8,1.80960661 L21.76,1.80960661 C21.74,1.94957618 21.71,2.07954792 21.68,2.18952402 C21.65,2.29950011 21.62,2.4094762 21.59,2.51945229 L20.16,6.65855249 L20.16,6.66855032 Z" id="Shape"></path>
                        <path d="M37.19,10.6276896 L35.26,10.6276896 L30.4,3.14931537 C30.3,2.99934797 30.22,2.8593784 30.14,2.72940665 C30.07,2.59943491 30.01,2.48945881 29.96,2.38948055 L29.92,2.38948055 C29.94,2.53944795 29.95,2.73940448 29.96,2.99934797 C29.97,3.25929146 29.97,3.56922408 29.97,3.94914149 L29.97,10.6276896 L28.26,10.6276896 L28.26,0.169963052 L30.32,0.169963052 L35.03,7.47837427 C35.13,7.63833949 35.22,7.77830906 35.3,7.90828081 C35.38,8.03825255 35.44,8.15822647 35.49,8.25820474 L35.52,8.25820474 C35.5,8.11823517 35.49,7.92827646 35.48,7.6783308 C35.48,7.42838513 35.47,7.12845034 35.47,6.76852858 L35.47,0.169963052 L37.18,0.169963052 L37.18,10.6276896 L37.19,10.6276896 Z" id="Path"></path>
                    </g>
                    <g id="Group-16" transform="translate(0, 16.9863)">
                        <path d="M4.99,10.8076505 C3.5,10.8076505 2.29,10.317757 1.38,9.34796783 C0.46,8.37817866 0,7.09845686 0,5.53879591 C0,3.86915888 0.47,2.52945012 1.4,1.51966964 C2.33,0.509889155 3.59,0 5.16,0 C6.63,0 7.81,0.489893501 8.72,1.45968268 C9.62,2.42947185 10.07,3.70919365 10.07,5.29884808 C10.07,6.97848294 9.61,8.3181917 8.68,9.30797653 C7.75,10.3077592 6.52,10.8076505 5,10.8076505 L4.99,10.8076505 Z M5.01,9.25798739 C6,9.25798739 6.78,8.92805912 7.34,8.25820474 C7.91,7.58835036 8.19,6.65855249 8.19,5.44881547 C8.19,4.23907846 7.91,3.25929146 7.36,2.57943925 C6.81,1.89958705 6.04,1.55966094 5.08,1.55966094 C4.12,1.55966094 3.33,1.90958487 2.75,2.61943056 C2.16,3.32927624 1.87,4.25907411 1.87,5.418822 C1.87,6.57856988 2.16,7.51836557 2.74,8.20821561 C3.32,8.90806346 4.08,9.24798957 5.02,9.24798957 L5.01,9.25798739 Z" id="Shape"></path>
                        <path d="M13.88,6.99847859 L13.88,10.6376875 L12.11,10.6376875 L12.11,0.179960878 L15.39,0.179960878 C16.61,0.179960878 17.53,0.459900022 18.17,1.01977831 C18.81,1.5796566 19.13,2.39947837 19.13,3.47924364 C19.13,4.55900891 18.77,5.36883286 18.05,6.02868942 C17.33,6.67854814 16.37,7.00847642 15.15,7.00847642 L13.89,7.00847642 L13.88,6.99847859 Z M13.88,1.62964573 L13.88,5.54879374 L14.99,5.54879374 C15.73,5.54879374 16.3,5.37883069 16.68,5.03890459 C17.06,4.69897848 17.25,4.19908715 17.25,3.54922843 C17.25,2.8993697 17.07,2.41947403 16.71,2.09954358 C16.35,1.77961313 15.8,1.6196479 15.08,1.6196479 L13.89,1.6196479 L13.88,1.62964573 Z" id="Shape"></path>
                        <path d="M22.79,6.99847859 L22.79,10.6376875 L21.02,10.6376875 L21.02,0.179960878 L24.3,0.179960878 C25.52,0.179960878 26.44,0.459900022 27.08,1.01977831 C27.72,1.5796566 28.04,2.39947837 28.04,3.47924364 C28.04,4.55900891 27.68,5.36883286 26.96,6.02868942 C26.24,6.67854814 25.28,7.00847642 24.06,7.00847642 L22.8,7.00847642 L22.79,6.99847859 Z M22.79,1.62964573 L22.79,5.54879374 L23.9,5.54879374 C24.64,5.54879374 25.21,5.37883069 25.59,5.03890459 C25.97,4.69897848 26.16,4.19908715 26.16,3.54922843 C26.16,2.8993697 25.98,2.41947403 25.62,2.09954358 C25.26,1.77961313 24.71,1.6196479 23.99,1.6196479 L22.8,1.6196479 L22.79,1.62964573 Z" id="Shape"></path>
                        <path d="M37.87,10.6376875 L35.83,10.6376875 L34.23,7.85829168 C33.95,7.36839817 33.69,7.0384699 33.46,6.84851119 C33.23,6.65855249 32.95,6.55857422 32.64,6.5485764 L31.71,6.5485764 L31.71,10.6376875 L29.94,10.6376875 L29.94,0.179960878 L33.35,0.179960878 C34.44,0.179960878 35.29,0.419908715 35.91,0.909802217 C36.53,1.39969572 36.84,2.11953923 36.84,3.07933058 C36.84,3.79917409 36.64,4.40904151 36.25,4.90893284 C35.85,5.40882417 35.31,5.77874375 34.62,6.00869376 L34.62,6.03868724 C34.88,6.14866333 35.12,6.31862639 35.34,6.5485764 C35.56,6.77852641 35.76,7.05846555 35.95,7.378396 L37.88,10.6276896 L37.87,10.6376875 Z M31.7,1.60965008 L31.7,5.09889155 L33.05,5.09889155 C33.61,5.09889155 34.07,4.92892849 34.43,4.56900674 C34.79,4.21908281 34.97,3.77917844 34.97,3.23929581 C34.97,2.69941317 34.81,2.31949576 34.5,2.03955662 C34.18,1.74961965 33.72,1.60965008 33.1,1.60965008 L31.71,1.60965008 L31.7,1.60965008 Z" id="Shape"></path>
                        <polygon id="Path" points="45.27 10.6376875 39.38 10.6376875 39.38 0.179960878 45.04 0.179960878 45.04 1.67963486 41.15 1.67963486 41.15 4.59900022 44.76 4.59900022 44.76 6.0986742 41.15 6.0986742 41.15 9.1480113 45.27 9.1480113 45.27 10.6476853"></polygon>
                        <path d="M46.43,9.86785481 L47.22,8.49815258 C47.7,8.79808737 48.14,9.00804173 48.55,9.13801348 C48.96,9.26798522 49.42,9.32797218 49.91,9.32797218 C50.51,9.32797218 50.98,9.19800043 51.32,8.93805694 C51.66,8.67811345 51.83,8.30819387 51.83,7.8282982 C51.83,7.38839383 51.69,7.04846772 51.4,6.79852206 C51.11,6.5485764 50.63,6.31862639 49.94,6.10867203 C48.87,5.7987394 48.08,5.40882417 47.58,4.93892632 C47.08,4.46902847 46.83,3.82916757 46.83,3.02934145 C46.83,2.15953054 47.15,1.43968702 47.8,0.869810911 C48.45,0.299934797 49.33,0.00999782656 50.45,0.00999782656 C50.94,0.00999782656 51.43,0.0699847859 51.9,0.179960878 C52.38,0.28993697 52.84,0.459900022 53.3,0.699847859 L52.61,2.09954358 C52.22,1.88958922 51.84,1.73962182 51.48,1.63964356 C51.11,1.54966312 50.74,1.49967398 50.37,1.49967398 C49.82,1.49967398 49.39,1.6196479 49.08,1.85959574 C48.77,2.09954358 48.61,2.43946968 48.61,2.87937405 C48.61,3.26928928 48.75,3.56922408 49.04,3.79917409 C49.33,4.01912628 49.82,4.23907846 50.53,4.45903065 C51.62,4.7789611 52.41,5.17887416 52.89,5.66876766 C53.37,6.15866116 53.61,6.82851554 53.61,7.6783308 C53.61,8.59813084 53.28,9.34796783 52.63,9.9378396 C51.98,10.5277114 51.04,10.8176483 49.83,10.8176483 C49.22,10.8176483 48.63,10.7376657 48.05,10.5777005 C47.47,10.4177353 46.93,10.1877853 46.43,9.87785264 L46.43,9.86785481 Z" id="Path"></path>
                        <path d="M54.78,9.86785481 L55.57,8.49815258 C56.05,8.79808737 56.49,9.00804173 56.9,9.13801348 C57.31,9.26798522 57.76,9.32797218 58.26,9.32797218 C58.86,9.32797218 59.33,9.19800043 59.67,8.93805694 C60.01,8.67811345 60.18,8.30819387 60.18,7.8282982 C60.18,7.38839383 60.04,7.04846772 59.75,6.79852206 C59.47,6.5485764 58.98,6.31862639 58.29,6.10867203 C57.21,5.7987394 56.43,5.40882417 55.93,4.93892632 C55.43,4.46902847 55.18,3.82916757 55.18,3.02934145 C55.18,2.15953054 55.5,1.43968702 56.15,0.869810911 C56.8,0.299934797 57.68,0.00999782656 58.8,0.00999782656 C59.29,0.00999782656 59.77,0.0699847859 60.25,0.179960878 C60.73,0.28993697 61.19,0.459900022 61.65,0.699847859 L60.96,2.09954358 C60.57,1.88958922 60.19,1.73962182 59.83,1.63964356 C59.46,1.54966312 59.09,1.49967398 58.72,1.49967398 C58.17,1.49967398 57.74,1.6196479 57.43,1.85959574 C57.12,2.09954358 56.96,2.43946968 56.96,2.87937405 C56.96,3.26928928 57.1,3.56922408 57.39,3.79917409 C57.68,4.01912628 58.17,4.23907846 58.88,4.45903065 C59.97,4.7789611 60.76,5.17887416 61.24,5.66876766 C61.72,6.15866116 61.96,6.82851554 61.96,7.6783308 C61.96,8.59813084 61.63,9.34796783 60.98,9.9378396 C60.33,10.5277114 59.39,10.8176483 58.18,10.8176483 C57.57,10.8176483 56.98,10.7376657 56.4,10.5777005 C55.82,10.4177353 55.28,10.1877853 54.78,9.87785264 L54.78,9.86785481 Z" id="Path"></path>
                        <polygon id="Path" points="65.75 10.6376875 63.97 10.6376875 63.97 0.179960878 65.75 0.179960878"></polygon>
                        <path d="M72.79,10.8076505 C71.3,10.8076505 70.09,10.317757 69.18,9.34796783 C68.26,8.37817866 67.8,7.09845686 67.8,5.53879591 C67.8,3.86915888 68.27,2.52945012 69.2,1.51966964 C70.13,0.509889155 71.39,0 72.96,0 C74.43,0 75.61,0.489893501 76.52,1.45968268 C77.42,2.42947185 77.87,3.70919365 77.87,5.29884808 C77.87,6.97848294 77.41,8.3181917 76.48,9.30797653 C75.55,10.2977614 74.32,10.8076505 72.8,10.8076505 L72.79,10.8076505 Z M72.81,9.25798739 C73.8,9.25798739 74.58,8.92805912 75.14,8.25820474 C75.71,7.58835036 75.99,6.65855249 75.99,5.44881547 C75.99,4.23907846 75.71,3.25929146 75.16,2.57943925 C74.61,1.89958705 73.84,1.55966094 72.88,1.55966094 C71.92,1.55966094 71.13,1.90958487 70.55,2.61943056 C69.96,3.32927624 69.67,4.25907411 69.67,5.418822 C69.67,6.57856988 69.96,7.51836557 70.54,8.20821561 C71.12,8.90806346 71.88,9.24798957 72.82,9.24798957 L72.81,9.25798739 Z" id="Shape"></path>
                        <path d="M88.82,10.6376875 L86.89,10.6376875 L82.03,3.15931319 C81.93,3.00934579 81.85,2.86937622 81.78,2.73940448 C81.71,2.60943273 81.65,2.49945664 81.6,2.39947837 L81.56,2.39947837 C81.58,2.54944577 81.59,2.7494023 81.6,3.00934579 C81.61,3.26928928 81.61,3.57922191 81.61,3.95913932 L81.61,10.6376875 L79.9,10.6376875 L79.9,0.179960878 L81.96,0.179960878 L86.67,7.48837209 C86.77,7.64833732 86.86,7.78830689 86.94,7.91827864 C87.02,8.04825038 87.08,8.1682243 87.13,8.26820256 L87.16,8.26820256 C87.14,8.12823299 87.13,7.93827429 87.12,7.68832862 C87.12,7.43838296 87.11,7.13844816 87.11,6.77852641 L87.11,0.179960878 L88.82,0.179960878 L88.82,10.6376875 L88.82,10.6376875 Z" id="Path"></path>
                    </g>
                </g>
            </g>
        </g>
    </g>
</svg>