<?xml version="1.0" encoding="UTF-8"?>
<svg width="151px" height="189px" viewBox="0 0 151 189" version="1.1" xmlns="http://www.w3.org/2000/svg" xmlns:xlink="http://www.w3.org/1999/xlink">
    <title>persecution_denominational</title>
    <defs>
        <ellipse id="path-1" cx="70" cy="70.1907357" rx="70" ry="70.1907357"></ellipse>
    </defs>
    <g id="Page-1" stroke="none" stroke-width="1" fill="none" fill-rule="evenodd">
        <g id="Apple-TV" transform="translate(-722, -284)">
            <g id="persecution_denominational" transform="translate(727.2597, 289)">
                <g id="Oval-Copy-4">
                    <ellipse stroke="#EA743D" stroke-width="4" stroke-linejoin="square" cx="70" cy="70.1907357" rx="68" ry="68.1907357"></ellipse>
                    <ellipse stroke="#0E0E0E" stroke-width="5" cx="70" cy="70.1907357" rx="72.5" ry="72.6907357"></ellipse>
                </g>
                <path d="M98.9202863,46.3760218 L75.5602863,46.3760218 L75.5602863,26.1610899 C75.5602863,24.5166213 74.2302863,23.1930245 72.6002863,23.1930245 L67.4402863,23.1930245 C65.8002863,23.1930245 64.4802863,24.5266485 64.4802863,26.1610899 L64.4802863,46.3760218 L41.1202863,46.3760218 C39.7202863,46.3760218 38.5902863,47.5091008 38.5902863,48.9129155 L38.5902863,54.9493188 C38.5902863,56.3531335 39.7202863,57.4862125 41.1202863,57.4862125 L64.4802863,57.4862125 L64.4802863,114.48109 C64.4802863,116.125559 65.8102863,117.449155 67.4402863,117.449155 L72.6002863,117.449155 C74.2402863,117.449155 75.5602863,116.115531 75.5602863,114.48109 L75.5602863,57.4862125 L98.9202863,57.4862125 C100.320286,57.4862125 101.450286,56.3531335 101.450286,54.9493188 L101.450286,48.9129155 C101.450286,47.5091008 100.320286,46.3760218 98.9202863,46.3760218 Z" id="Path-Copy-3" fill="#EA743D" fill-rule="nonzero"></path>
                <g id="icon_bwl_denominational_prot_text" transform="translate(9.8903, 67.7402)" fill-rule="nonzero">
                    <path d="M104.85246,31.536642 C105.038391,32.2061223 106.492033,31.8840938 106.348359,30.9942782 L106.348359,6.88451213 C107.185048,3.24050531 112.272795,3.45236617 112.864393,7.1472196 L112.932004,42.5025602 C113.38838,43.2059383 114.343389,43.1974639 114.487063,42.2906994 L114.487063,29.4943033 C115.112467,25.7740266 120.217117,25.5028447 121.02,29.2231214 L120.96084,51.9176569 C119.710032,55.0193 117.918334,57.9599287 115.966059,60.6717478 C114.436355,62.8073052 112.737622,65.1208259 110.43884,66.4343632 C110.236006,68.8326282 110.658576,71.5359727 110.405034,73.8918655 C110.219103,75.637599 108.773913,77.586719 106.95686,77.7901054 C102.080399,78.3409436 96.1813175,77.3748581 91.1949879,77.7901054 C85.7522824,76.4680936 88.4567323,69.688546 87.7299114,65.8750505 C87.7045572,65.7309851 86.4283949,64.2225358 86.1664013,63.7649163 C84.1465152,60.2310772 83.1492493,53.6125438 82.9717698,49.5278664 C82.4815882,38.5704226 83.352083,27.265527 82.9717698,16.2741855 C83.2760204,12.8928862 88.2116416,12.8928862 88.5581492,16.6809584 L88.6257605,33.1044124 C88.9976223,33.7060973 89.8596658,33.7060973 89.9188256,32.9095004 L89.9188256,7.28281055 C89.8934714,2.82525802 95.9953866,2.30831752 96.5785336,6.74044675 L96.5785336,31.4095255 C96.6123393,32.3501877 97.5757996,32.6552674 98.1335924,31.8840938 L98.2012036,3.33372409 C98.0152727,-1.10687958 104.869363,-1.07298184 104.869363,3.20660757 L104.869363,31.5451165 L104.85246,31.536642 Z" id="Path-Copy-10" fill="#3D5039"></path>
                    <g id="Group" transform="translate(0, 87.4314)" fill="#010101">
                        <path d="M0,10.6589646 L0,0.170463215 L3.29,0.170463215 C5.14,0.170463215 6.53,0.591607629 7.46,1.44392371 C8.38,2.29623978 8.85,3.56970027 8.85,5.28435967 C8.85,6.99901907 8.34,8.21231608 7.32,9.19498638 C6.3,10.1776567 4.94,10.6689918 3.24,10.6689918 L0.01,10.6689918 L0,10.6589646 Z M1.77,1.67455041 L1.77,9.15487738 L3.14,9.15487738 C4.34,9.15487738 5.28,8.81395095 5.96,8.14212534 C6.64,7.46027248 6.97,6.51771117 6.97,5.31444142 C6.97,4.11117166 6.65,3.23880109 6,2.61711172 C5.36,1.99542234 4.41,1.68457766 3.17,1.68457766 L1.77,1.68457766 L1.77,1.67455041 Z" id="Shape"></path>
                        <polygon id="Path" points="16.78 10.6589646 10.89 10.6589646 10.89 0.170463215 16.55 0.170463215 16.55 1.67455041 12.66 1.67455041 12.66 4.60250681 16.27 4.60250681 16.27 6.10659401 12.66 6.10659401 12.66 9.16490463 16.78 9.16490463 16.78 10.6689918"></polygon>
                        <path d="M27.69,10.6589646 L25.76,10.6589646 L20.9,3.15858311 C20.8,3.00817439 20.72,2.86779292 20.64,2.73743869 C20.57,2.60708447 20.51,2.49678474 20.46,2.39651226 L20.42,2.39651226 C20.44,2.54692098 20.45,2.74746594 20.46,3.00817439 C20.47,3.26888283 20.47,3.57972752 20.47,3.96076294 L20.47,10.6589646 L18.76,10.6589646 L18.76,0.170463215 L20.82,0.170463215 L25.53,7.50038147 C25.63,7.66081744 25.72,7.80119891 25.8,7.93155313 C25.88,8.06190736 25.94,8.18223433 25.99,8.28250681 L26.02,8.28250681 C26,8.14212534 25.99,7.95160763 25.98,7.70092643 C25.98,7.45024523 25.97,7.14942779 25.97,6.78844687 L25.97,0.170463215 L27.68,0.170463215 L27.68,10.6589646 L27.69,10.6589646 Z" id="Path"></path>
                        <path d="M34.73,10.839455 C33.24,10.839455 32.03,10.3481199 31.12,9.37547684 C30.2,8.40283379 29.74,7.11934605 29.74,5.55509537 C29.74,3.88054496 30.21,2.53689373 31.14,1.52414169 C32.07,0.511389646 33.33,0 34.9,0 C36.37,0 37.55,0.49133515 38.46,1.4639782 C39.36,2.43662125 39.81,3.72010899 39.81,5.31444142 C39.81,6.99901907 39.35,8.3426703 38.42,9.33536785 C37.49,10.3380926 36.26,10.839455 34.74,10.839455 L34.73,10.839455 Z M34.75,9.27520436 C35.74,9.27520436 36.52,8.94430518 37.08,8.27247956 C37.65,7.60065395 37.93,6.66811989 37.93,5.45482289 C37.93,4.24152589 37.65,3.25885559 37.1,2.57700272 C36.55,1.89514986 35.78,1.55422343 34.82,1.55422343 C33.86,1.55422343 33.07,1.90517711 32.49,2.61711172 C31.9,3.32904632 31.61,4.26158038 31.61,5.42474114 C31.61,6.58790191 31.9,7.53046322 32.48,8.22234332 C33.06,8.92425068 33.82,9.26517711 34.76,9.26517711 L34.75,9.27520436 Z" id="Shape"></path>
                        <path d="M53.13,10.6589646 L51.37,10.6589646 L51.37,3.99084469 C51.37,3.69002725 51.37,3.35912807 51.4,2.98811989 C51.43,2.61711172 51.44,2.23607629 51.47,1.83498638 L51.42,1.83498638 C51.36,2.11574932 51.31,2.35640327 51.26,2.55694823 C51.21,2.75749319 51.16,2.91792916 51.11,3.03825613 L48.08,10.6489373 L46.84,10.6489373 L43.79,3.09841962 C43.75,2.98811989 43.7,2.83771117 43.65,2.62713896 C43.59,2.41656676 43.54,2.15585831 43.48,1.83498638 L43.43,1.83498638 C43.46,2.1959673 43.48,2.57700272 43.49,2.97809264 C43.5,3.36915531 43.51,3.78027248 43.51,4.21144414 L43.51,10.6489373 L41.87,10.6489373 L41.87,0.160435967 L44.38,0.160435967 L47.06,6.93885559 C47.17,7.18953678 47.26,7.43019074 47.33,7.65079019 C47.4,7.87138965 47.46,8.0719346 47.49,8.26245232 L47.53,8.26245232 C47.62,7.98168937 47.7,7.73100817 47.78,7.50038147 C47.86,7.27978202 47.93,7.07923706 47.99,6.91880109 L50.7,0.160435967 L53.14,0.160435967 L53.14,10.6489373 L53.13,10.6589646 Z" id="Path"></path>
                        <polygon id="Path" points="57.63 10.6589646 55.85 10.6589646 55.85 0.170463215 57.63 0.170463215"></polygon>
                        <path d="M69.26,10.6589646 L67.33,10.6589646 L62.47,3.15858311 C62.37,3.00817439 62.29,2.86779292 62.21,2.73743869 C62.14,2.60708447 62.08,2.49678474 62.03,2.39651226 L61.99,2.39651226 C62.01,2.54692098 62.02,2.74746594 62.03,3.00817439 C62.04,3.26888283 62.04,3.57972752 62.04,3.96076294 L62.04,10.6589646 L60.33,10.6589646 L60.33,0.170463215 L62.39,0.170463215 L67.1,7.50038147 C67.2,7.66081744 67.29,7.80119891 67.37,7.93155313 C67.45,8.06190736 67.51,8.18223433 67.56,8.28250681 L67.59,8.28250681 C67.57,8.14212534 67.56,7.95160763 67.55,7.70092643 C67.55,7.45024523 67.54,7.14942779 67.54,6.78844687 L67.54,0.170463215 L69.25,0.170463215 L69.25,10.6589646 L69.26,10.6589646 Z" id="Path"></path>
                        <path d="M70.81,10.6589646 L74.72,0.170463215 L76.73,0.170463215 L80.61,10.6589646 L78.65,10.6589646 L77.77,8.15215259 L73.59,8.15215259 L72.74,10.6589646 L70.8,10.6589646 L70.81,10.6589646 Z M74.06,6.69820163 L77.3,6.69820163 L75.87,2.55694823 C75.84,2.4466485 75.8,2.34637602 75.78,2.23607629 C75.75,2.12577657 75.73,1.99542234 75.7,1.82495913 L75.66,1.82495913 C75.64,1.9653406 75.61,2.09569482 75.58,2.20599455 C75.55,2.31629428 75.52,2.42659401 75.49,2.53689373 L74.06,6.68817439 L74.06,6.69820163 Z" id="Shape"></path>
                        <polygon id="Path" points="88.04 1.67455041 85.03 1.67455041 85.03 10.6589646 83.26 10.6589646 83.26 1.67455041 80.26 1.67455041 80.26 0.170463215 88.04 0.170463215"></polygon>
                        <polygon id="Path" points="91.51 10.6589646 89.73 10.6589646 89.73 0.170463215 91.51 0.170463215"></polygon>
                        <path d="M98.55,10.839455 C97.06,10.839455 95.85,10.3481199 94.94,9.37547684 C94.02,8.40283379 93.56,7.11934605 93.56,5.55509537 C93.56,3.88054496 94.03,2.53689373 94.96,1.52414169 C95.89,0.511389646 97.15,0 98.72,0 C100.19,0 101.37,0.49133515 102.28,1.4639782 C103.18,2.43662125 103.63,3.72010899 103.63,5.31444142 C103.63,6.99901907 103.17,8.3426703 102.24,9.33536785 C101.31,10.3380926 100.08,10.839455 98.56,10.839455 L98.55,10.839455 Z M98.58,9.27520436 C99.57,9.27520436 100.35,8.94430518 100.91,8.27247956 C101.48,7.60065395 101.76,6.66811989 101.76,5.45482289 C101.76,4.24152589 101.48,3.25885559 100.93,2.57700272 C100.38,1.89514986 99.61,1.55422343 98.65,1.55422343 C97.69,1.55422343 96.9,1.90517711 96.32,2.61711172 C95.73,3.32904632 95.44,4.26158038 95.44,5.42474114 C95.44,6.58790191 95.73,7.53046322 96.31,8.22234332 C96.89,8.92425068 97.65,9.26517711 98.59,9.26517711 L98.58,9.27520436 Z" id="Shape"></path>
                        <path d="M114.58,10.6589646 L112.65,10.6589646 L107.79,3.15858311 C107.69,3.00817439 107.61,2.86779292 107.53,2.73743869 C107.46,2.60708447 107.4,2.49678474 107.36,2.39651226 L107.32,2.39651226 C107.34,2.54692098 107.35,2.74746594 107.36,3.00817439 C107.37,3.26888283 107.38,3.57972752 107.38,3.96076294 L107.38,10.6589646 L105.67,10.6589646 L105.67,0.170463215 L107.73,0.170463215 L112.44,7.50038147 C112.54,7.66081744 112.63,7.80119891 112.71,7.93155313 C112.79,8.06190736 112.85,8.18223433 112.9,8.28250681 L112.93,8.28250681 C112.91,8.14212534 112.9,7.95160763 112.89,7.70092643 C112.89,7.45024523 112.88,7.14942779 112.88,6.78844687 L112.88,0.170463215 L114.59,0.170463215 L114.59,10.6589646 L114.58,10.6589646 Z" id="Path"></path>
                        <path d="M116.14,10.6589646 L120.05,0.170463215 L122.06,0.170463215 L125.94,10.6589646 L123.98,10.6589646 L123.1,8.15215259 L118.92,8.15215259 L118.07,10.6589646 L116.13,10.6589646 L116.14,10.6589646 Z M119.39,6.69820163 L122.63,6.69820163 L121.2,2.55694823 C121.16,2.4466485 121.13,2.34637602 121.11,2.23607629 C121.08,2.12577657 121.06,1.99542234 121.03,1.82495913 L120.99,1.82495913 C120.97,1.9653406 120.94,2.09569482 120.91,2.20599455 C120.88,2.31629428 120.85,2.42659401 120.82,2.53689373 L119.39,6.68817439 L119.39,6.69820163 Z" id="Shape"></path>
                        <polygon id="Path" points="133.33 10.6589646 127.51 10.6589646 127.51 0.170463215 129.28 0.170463215 129.28 9.16490463 133.33 9.16490463 133.33 10.6689918"></polygon>
                        <path d="M10.29,24.9879019 L10.29,28.6378202 L8.52,28.6378202 L8.52,18.1493188 L11.8,18.1493188 C13.02,18.1493188 13.94,18.4300817 14.58,18.9916076 C15.22,19.5531335 15.54,20.3753678 15.54,21.4583106 C15.54,22.5412534 15.18,23.3534605 14.46,24.0152589 C13.74,24.66703 12.78,24.9979292 11.56,24.9979292 L10.3,24.9979292 L10.29,24.9879019 Z M10.29,19.6032698 L10.29,23.533951 L11.4,23.533951 C12.14,23.533951 12.71,23.3634877 13.09,23.0225613 C13.47,22.6816349 13.66,22.1802725 13.66,21.5285014 C13.66,20.8767302 13.48,20.3954223 13.12,20.0745504 C12.76,19.7536785 12.21,19.5932425 11.49,19.5932425 L10.3,19.5932425 L10.29,19.6032698 Z" id="Shape"></path>
                        <path d="M25.37,28.6378202 L23.33,28.6378202 L21.73,25.8502452 C21.45,25.3589101 21.19,25.0280109 20.96,24.8374932 C20.73,24.6469755 20.45,24.546703 20.14,24.546703 L19.21,24.546703 L19.21,28.6378202 L17.44,28.6378202 L17.44,18.1493188 L20.85,18.1493188 C21.94,18.1493188 22.79,18.3899728 23.41,18.8813079 C24.03,19.3726431 24.34,20.0946049 24.34,21.0572207 C24.34,21.7791826 24.14,22.3908447 23.75,22.8922071 C23.35,23.3935695 22.81,23.7645777 22.12,23.9952044 L22.12,24.0252861 C22.38,24.1355858 22.62,24.306049 22.84,24.5366757 C23.06,24.7673025 23.26,25.0480654 23.45,25.3689373 L25.38,28.6277929 L25.37,28.6378202 Z M19.2,19.5932425 L19.2,23.1027793 L20.55,23.1027793 C21.11,23.1027793 21.57,22.9222888 21.93,22.5713351 C22.29,22.2203815 22.47,21.7691553 22.47,21.2377112 C22.47,20.706267 22.31,20.3152044 22,20.0344414 C21.68,19.7436512 21.22,19.6032698 20.6,19.6032698 L19.21,19.6032698 L19.2,19.5932425 Z" id="Shape"></path>
                        <path d="M31.36,28.8183106 C29.87,28.8183106 28.66,28.3269755 27.75,27.3543324 C26.83,26.3716621 26.37,25.0982016 26.37,23.533951 C26.37,21.8594005 26.84,20.5157493 27.77,19.5029973 C28.7,18.4902452 29.96,17.9788556 31.53,17.9788556 C33,17.9788556 34.18,18.4701907 35.09,19.4428338 C35.99,20.4255041 36.44,21.7089918 36.44,23.293297 C36.44,24.9778747 35.98,26.3215259 35.05,27.3142234 C34.12,28.3169482 32.89,28.8183106 31.37,28.8183106 L31.36,28.8183106 Z M31.38,27.2540599 C32.37,27.2540599 33.15,26.9231608 33.71,26.2513351 C34.27,25.5795095 34.56,24.6469755 34.56,23.4437057 C34.56,22.240436 34.28,21.2477384 33.73,20.5658856 C33.18,19.8840327 32.41,19.5431063 31.45,19.5431063 C30.49,19.5431063 29.7,19.8940599 29.12,20.6059946 C28.54,21.3179292 28.24,22.2504632 28.24,23.413624 C28.24,24.5767847 28.53,25.519346 29.11,26.2112262 C29.69,26.9131335 30.45,27.2540599 31.39,27.2540599 L31.38,27.2540599 Z" id="Shape"></path>
                        <polygon id="Path" points="44.55 19.653406 41.54 19.653406 41.54 28.6378202 39.77 28.6378202 39.77 19.653406 36.77 19.653406 36.77 18.1493188 44.55 18.1493188"></polygon>
                        <polygon id="Path" points="52.13 28.6378202 46.24 28.6378202 46.24 18.1493188 51.9 18.1493188 51.9 19.653406 48.01 19.653406 48.01 22.5813624 51.62 22.5813624 51.62 24.0854496 48.01 24.0854496 48.01 27.1437602 52.13 27.1437602 52.13 28.6478474"></polygon>
                        <path d="M61.76,28.0963488 C61.23,28.34703 60.71,28.5375477 60.21,28.6478474 C59.71,28.7581471 59.16,28.8183106 58.58,28.8183106 C56.98,28.8183106 55.72,28.34703 54.81,27.4144959 C53.9,26.4819619 53.45,25.1984741 53.45,23.5640327 C53.45,21.9295913 53.95,20.5658856 54.96,19.533079 C55.97,18.5002725 57.28,17.9788556 58.9,17.9788556 C59.43,17.9788556 59.92,18.0189646 60.36,18.1092098 C60.8,18.199455 61.25,18.3398365 61.71,18.5303542 L61.13,19.9843052 C60.76,19.8238692 60.41,19.7135695 60.06,19.6433787 C59.71,19.573188 59.34,19.533079 58.93,19.533079 C57.88,19.533079 57.02,19.8840327 56.35,20.5859401 C55.67,21.2878474 55.34,22.240436 55.34,23.4336785 C55.34,24.626921 55.65,25.5394005 56.27,26.2212534 C56.89,26.9031063 57.73,27.2440327 58.78,27.2440327 C59.13,27.2440327 59.5,27.1938965 59.89,27.1036512 C60.28,27.013406 60.68,26.8629973 61.09,26.6524251 L61.78,28.0963488 L61.76,28.0963488 Z" id="Path"></path>
                        <polygon id="Path" points="70.36 19.653406 67.35 19.653406 67.35 28.6378202 65.58 28.6378202 65.58 19.653406 62.58 19.653406 62.58 18.1493188 70.36 18.1493188"></polygon>
                        <polygon id="Path" points="73.83 28.6378202 72.05 28.6378202 72.05 18.1493188 73.83 18.1493188"></polygon>
                        <path d="M80.87,28.8183106 C79.38,28.8183106 78.17,28.3269755 77.26,27.3543324 C76.34,26.3716621 75.88,25.0982016 75.88,23.533951 C75.88,21.8594005 76.35,20.5157493 77.28,19.5029973 C78.21,18.4902452 79.47,17.9788556 81.04,17.9788556 C82.51,17.9788556 83.69,18.4701907 84.6,19.4428338 C85.5,20.4255041 85.95,21.7089918 85.95,23.293297 C85.95,24.9778747 85.49,26.3215259 84.56,27.3142234 C83.63,28.306921 82.4,28.8183106 80.88,28.8183106 L80.87,28.8183106 Z M80.89,27.2540599 C81.88,27.2540599 82.66,26.9231608 83.22,26.2513351 C83.79,25.5795095 84.07,24.6469755 84.07,23.4437057 C84.07,22.240436 83.79,21.2477384 83.24,20.5658856 C82.69,19.8840327 81.92,19.5431063 80.96,19.5431063 C80,19.5431063 79.21,19.8940599 78.63,20.6059946 C78.05,21.3179292 77.75,22.2504632 77.75,23.413624 C77.75,24.5767847 78.04,25.519346 78.62,26.2112262 C79.2,26.9131335 79.96,27.2540599 80.9,27.2540599 L80.89,27.2540599 Z" id="Shape"></path>
                        <path d="M96.9,28.6378202 L94.97,28.6378202 L90.11,21.1374387 C90.01,20.98703 89.93,20.8466485 89.85,20.7162943 C89.78,20.5859401 89.72,20.4756403 89.68,20.3753678 L89.64,20.3753678 C89.66,20.5257766 89.67,20.7263215 89.68,20.98703 C89.69,21.2477384 89.7,21.5585831 89.7,21.9396185 L89.7,28.6378202 L87.99,28.6378202 L87.99,18.1493188 L90.05,18.1493188 L94.76,25.4792371 C94.86,25.639673 94.95,25.7800545 95.03,25.9104087 C95.11,26.0407629 95.17,26.1610899 95.22,26.2613624 L95.25,26.2613624 C95.23,26.1209809 95.22,25.9304632 95.21,25.679782 C95.21,25.4291008 95.2,25.1282834 95.2,24.7673025 L95.2,18.1493188 L96.91,18.1493188 L96.91,28.6378202 L96.9,28.6378202 Z" id="Path"></path>
                        <polygon id="Path" points="101.41 28.6378202 99.63 28.6378202 99.63 18.1493188 101.41 18.1493188"></polygon>
                        <path d="M103.29,27.8757493 L104.08,26.5020163 C104.56,26.8028338 105,27.013406 105.41,27.1437602 C105.82,27.2640872 106.27,27.3342779 106.77,27.3342779 C107.37,27.3342779 107.84,27.2039237 108.18,26.9432153 C108.52,26.6825068 108.69,26.3114986 108.69,25.8301907 C108.69,25.3889918 108.55,25.0480654 108.26,24.7973842 C107.97,24.546703 107.49,24.3160763 106.8,24.1055041 C105.72,23.7946594 104.94,23.4035967 104.44,22.9323161 C103.94,22.4610354 103.69,21.8192916 103.69,21.0171117 C103.69,20.1447411 104.01,19.4227793 104.66,18.8512262 C105.31,18.2696458 106.19,17.9888828 107.31,17.9888828 C107.8,17.9888828 108.29,18.0490463 108.76,18.159346 C109.24,18.2696458 109.7,18.440109 110.16,18.6807629 L109.47,20.0845777 C109.08,19.8740054 108.7,19.7235967 108.34,19.6233243 C107.98,19.5230518 107.6,19.4829428 107.23,19.4829428 C106.68,19.4829428 106.25,19.6032698 105.94,19.8439237 C105.63,20.0845777 105.47,20.4255041 105.47,20.866703 C105.47,21.2577657 105.61,21.5585831 105.9,21.7892098 C106.19,22.0098093 106.68,22.2304087 107.39,22.4510082 C108.48,22.7718801 109.27,23.17297 109.75,23.6643052 C110.23,24.1556403 110.47,24.8274659 110.47,25.679782 C110.47,26.6022888 110.14,27.3543324 109.49,27.9459401 C108.84,28.5375477 107.9,28.8283379 106.69,28.8283379 C106.08,28.8283379 105.49,28.7481199 104.91,28.5876839 C104.33,28.427248 103.79,28.1966213 103.29,27.8857766 L103.29,27.8757493 Z" id="Path"></path>
                        <path d="M123.76,28.6378202 L122,28.6378202 L122,21.9697003 C122,21.6688828 122,21.3379837 122.03,20.9669755 C122.05,20.6059946 122.07,20.2149319 122.1,19.813842 L122.05,19.813842 C121.99,20.0946049 121.94,20.3352589 121.89,20.5358038 C121.84,20.7363488 121.79,20.8967847 121.74,21.0171117 L118.71,28.6277929 L117.47,28.6277929 L114.42,21.0772752 C114.38,20.9669755 114.33,20.8065395 114.28,20.6059946 C114.23,20.4054496 114.17,20.1347139 114.11,19.813842 L114.06,19.813842 C114.09,20.1848501 114.11,20.5558583 114.12,20.9569482 C114.13,21.3480109 114.14,21.7591281 114.14,22.1902997 L114.14,28.6277929 L112.5,28.6277929 L112.5,18.1392916 L115.01,18.1392916 L117.7,24.9177112 C117.81,25.1683924 117.9,25.4090463 117.97,25.6296458 C118.04,25.8502452 118.09,26.0507902 118.13,26.2413079 L118.17,26.2413079 C118.26,25.960545 118.34,25.6998365 118.42,25.4792371 C118.5,25.2586376 118.57,25.0580926 118.63,24.8976567 L121.34,18.1392916 L123.78,18.1392916 L123.78,28.6277929 L123.76,28.6378202 Z" id="Path"></path>
                    </g>
                </g>
            </g>
        </g>
    </g>
</svg>