<?xml version="1.0" encoding="UTF-8"?>
<svg width="151px" height="189px" viewBox="0 0 151 189" version="1.1" xmlns="http://www.w3.org/2000/svg" xmlns:xlink="http://www.w3.org/1999/xlink">
    <title>persecution_dictator</title>
    <defs>
        <ellipse id="path-1" cx="70" cy="69.9889491" rx="70" ry="69.9889491"></ellipse>
    </defs>
    <g id="Page-1" stroke="none" stroke-width="1" fill="none" fill-rule="evenodd">
        <g id="Apple-TV" transform="translate(-53, -32)">
            <g id="persecution_dictator" transform="translate(58.2597, 37)">
                <g id="Oval-Copy-5">
                    <ellipse stroke="#EA743D" stroke-width="4" stroke-linejoin="square" cx="70" cy="69.9889491" rx="68" ry="67.9889491"></ellipse>
                    <ellipse stroke="#0E0E0E" stroke-width="5" cx="70" cy="69.9889491" rx="72.5" ry="72.4889491"></ellipse>
                </g>
                <path d="M98.9202863,46.2426985 L75.5602863,46.2426985 L75.5602863,26.0858812 C75.5602863,24.4461401 74.2302863,23.1263485 72.6002863,23.1263485 L67.4402863,23.1263485 C65.8002863,23.1263485 64.4802863,24.4561385 64.4802863,26.0858812 L64.4802863,46.2426985 L41.1202863,46.2426985 C39.7202863,46.2426985 38.5902863,47.3725201 38.5902863,48.7722991 L38.5902863,54.7913487 C38.5902863,56.1911277 39.7202863,57.3209493 41.1202863,57.3209493 L64.4802863,57.3209493 L64.4802863,114.151976 C64.4802863,115.791717 65.8102863,117.111509 67.4402863,117.111509 L72.6002863,117.111509 C74.2402863,117.111509 75.5602863,115.781719 75.5602863,114.151976 L75.5602863,57.3209493 L98.9202863,57.3209493 C100.320286,57.3209493 101.450286,56.1911277 101.450286,54.7913487 L101.450286,48.7722991 C101.450286,47.3725201 100.320286,46.2426985 98.9202863,46.2426985 Z" id="Path-Copy-4" fill="#EA743D" fill-rule="nonzero"></path>
                <g id="icon_bwl_dictator_paranoia_text" transform="translate(36.0903, 63.14)" fill-rule="nonzero">
                    <path d="M89.8098675,62.7052276 C89.7583561,62.7223953 89.681089,62.8425696 89.6982594,62.9026568 C90.1103506,64.5250097 90.1876177,66.1988659 90.3335667,67.8641382 C90.5396123,70.2590401 90.676976,72.6453581 90.788584,75.04026 C90.8315102,76.0016544 90.9259478,76.937297 90.8744364,77.8986914 C90.8315102,78.765663 90.6168794,79.6412186 90.5567828,80.4910225 C90.5396123,80.6798678 90.6598056,80.9631357 90.5567828,81.08331 C90.4966861,81.1605649 90.2906405,81.1433972 90.2820553,81.3064909 C90.2734701,81.5296717 90.6426351,82.1047915 90.7456579,82.3451401 C90.9946296,82.9631793 90.8830216,83.0919374 90.9173625,83.6756411 C90.9173625,83.7700638 91.0032149,83.9503252 90.9946296,83.967493 C90.9688739,84.0189962 90.0845949,84.5168612 90.0159131,84.5340289 C89.8527936,84.5769483 89.646748,84.5168612 89.5179695,84.5769483 C89.3290944,84.6627871 88.9255884,85.2379069 88.8053952,85.2722424 C88.6680315,85.3151618 88.4705711,85.2636585 88.3160369,85.2808263 C88.1615027,85.297994 88.0584799,85.4010006 87.8610195,85.4181683 C86.993911,85.4954232 85.9808535,85.3752489 85.1137449,85.3924167 C84.9849664,85.3151618 85.0193073,85.1434842 84.967796,85.0404777 C84.8905289,84.8945518 84.7875061,84.8859679 84.7531651,84.6627871 C84.7188242,84.4396063 84.675898,82.8000856 84.710239,82.628408 C84.7445799,82.491066 84.9420403,82.2507174 84.967796,82.1133754 C84.9849664,82.0189527 84.9849664,81.7099331 84.967796,81.6155105 C84.9420403,81.50392 84.7875061,81.4094974 84.7188242,81.2721553 C84.6243866,81.08331 84.3668296,80.1820029 84.3410739,79.9674059 C84.3153182,79.7356412 84.3925853,79.5725475 84.3668296,79.3493667 C84.2895625,78.4995628 83.8173747,77.2549005 83.6542553,76.3364256 C83.1820674,73.6410879 82.8043172,70.9114148 82.2634475,68.224661 C82.134669,67.5722863 81.877112,67.0057504 81.6968221,66.3791273 C81.5165322,65.7525042 81.25039,63.9756415 80.9327364,63.5550315 C80.7782022,63.3490184 80.7696169,63.4606088 80.5721566,63.4606088 C79.962605,63.4606088 79.5247581,63.4262733 78.9409623,63.3661862 C78.820769,63.3576023 78.3571664,63.3747701 78.2798993,63.4348572 C78.1339503,63.5378637 78.2026322,64.8082777 78.194047,65.0743779 C78.048098,68.7396937 77.902149,72.4050095 77.644592,76.0703254 C77.5759102,77.1003907 77.4042055,78.1218722 77.3698646,79.1605214 C77.3612793,79.4781249 77.4643021,79.752809 77.4643021,79.9759898 C77.4643021,80.2678416 77.387035,81.014639 77.3183532,81.2893231 C77.2925975,81.4094974 77.163819,81.4610007 77.1466485,81.5725911 C77.1208928,81.7099331 77.1895747,81.8386913 77.1981599,81.9760333 C77.1981599,82.2335497 77.2153304,83.1434407 77.052211,83.3065344 C76.9320177,83.4181248 75.2664825,83.3494538 74.9488288,83.3580377 C72.4247703,83.4438764 69.8921265,83.5726346 67.3594827,83.6327217 C66.9044653,83.6413056 66.3979366,83.6756411 65.9515044,83.6756411 C65.7540441,83.6756411 65.5050723,83.5898024 65.2818563,83.615554 C65.1015664,83.6241379 64.9642026,83.0747697 64.9727879,82.9717632 C64.9899583,82.8773405 65.1530778,82.6884952 65.2131744,82.5683209 C65.2561006,82.4738982 65.2303449,82.3279723 65.3161972,82.2593013 C65.6853622,82.1648786 66.0030158,81.8987784 66.3807661,81.8215235 C66.9903177,81.6927654 67.5569431,81.7957719 68.1836651,81.5811749 C68.4583925,81.4867523 69.359842,81.0232229 69.505791,80.8086259 C69.7461775,80.2935933 69.8663708,79.6669702 70.0810016,79.1605214 C70.1582687,78.98026 70.3042177,78.8429179 70.3814848,78.6369048 C70.5789451,78.1390399 70.647627,77.3664909 70.5875304,76.868626 C70.5102633,76.2420029 70.4415814,75.5982121 70.4415814,74.971589 C70.4415814,74.61965 70.536019,74.2934627 70.536019,73.9672753 C70.536019,72.722613 70.4329962,71.4693669 70.3557291,70.2418723 C70.2097801,68.0100641 70.1067573,65.8297591 69.8062741,63.6151186 C69.763348,63.306099 69.7204218,62.6451404 69.617399,62.396208 C69.5916433,62.3361208 69.4800353,62.2073627 69.4199387,62.1901949 C69.1194555,62.1730272 68.7932166,62.1386916 68.5099039,62.0614367 C68.1922503,61.9670141 67.9432785,61.7695849 67.6513806,61.6494106 C67.1019257,61.4176459 65.7025327,61.1172102 65.1101516,61.1000424 C64.6036228,61.0828747 64.6894752,61.1257941 64.1743612,60.988452 C63.7880257,60.8854455 63.3845197,60.919781 62.989599,60.8596938 C62.0366381,60.7223518 61.1180182,60.4476677 60.1993982,60.1987353 C59.6671138,60.0528093 58.9631246,59.9412189 58.4737663,59.7008703 C58.3449878,59.6407832 58.3278174,59.5206089 58.3192321,59.3918507 C58.4651811,58.7223083 58.5682039,58.035598 58.6969824,57.3574717 C59.0661474,55.4947702 59.4954091,53.6320687 59.7958923,51.7779511 C60.2251539,49.116949 60.6544156,46.4559468 61.1094329,43.777777 C61.4700127,41.7090624 61.9765415,39.6746834 62.3457065,37.6059688 C62.4573145,36.9793457 62.7062863,35.9406965 62.7234568,35.3484089 C62.7234568,35.1423959 62.620434,35.0136377 62.6376044,34.8162085 C62.6891158,33.9492368 63.2814969,32.4127227 63.504713,31.5028317 C63.9940713,29.511372 64.388992,27.5027446 64.8783503,25.5112849 C65.2217596,24.0949451 65.6338508,22.7043569 65.9515044,21.2794332 C65.9257487,21.1850105 65.5995099,21.0562523 65.4879019,21.0133329 C63.9168042,20.309455 62.2083428,19.8030062 60.6114894,19.0733765 C56.2759466,17.1076685 52.4726883,14.1376468 48.4977254,11.5624834 C47.785151,11.098954 48.0341228,10.7899344 47.9654409,10.0946403 C47.9482705,9.88862727 47.8366624,9.70836583 47.8280772,9.50235276 C47.8109067,9.15041377 47.9997819,8.69546825 48.1028047,8.36069701 C48.1028047,8.31777762 48.1028047,8.28344211 48.077049,8.2491066 C48.0255376,8.15468394 47.3644746,7.93150312 47.2013552,7.84566434 C46.1968829,7.33921555 44.9949502,6.18039204 44.1621826,5.3820914 C43.6556539,4.90139424 43.0461023,4.3777777 42.7971306,3.74257074 C42.6597668,3.38204787 41.8527549,3.15028317 41.784073,2.66100213 C41.7669026,2.55799559 41.8355844,2.48074069 41.8012435,2.37773416 C41.7325616,2.15455334 41.3118852,2.01721129 41.6123684,1.65668842 C41.8699254,1.3562527 42.1532381,1.57943352 42.3163575,1.49359474 C42.4279655,1.4335076 42.4022098,1.17599126 42.5996702,1.09873636 C42.9860057,0.935642684 43.5268754,1.22749453 43.8874552,1.37342045 C44.7717342,1.73394332 45.5959166,2.2060566 46.5145365,2.51507621 C46.6347298,2.55799559 47.3301337,2.79834417 47.3730598,2.78117642 C47.4074008,2.78117642 47.4417417,2.7125054 47.4417417,2.66958601 C47.4417417,2.54082784 46.9094572,1.81119822 46.8150197,1.61376903 C46.5832184,1.15882351 46.2226386,7.10542736e-15 47.0554062,7.10542736e-15 C47.2528666,7.10542736e-15 47.304378,0.0257516335 47.4417417,0.163093679 C47.8366624,0.557952059 48.2487536,1.42492372 48.6093334,1.90562088 C49.1587883,2.6352505 49.8284365,3.31337684 50.214772,4.16318075 C50.3006244,4.36060994 50.5238404,5.21041385 50.618278,5.27050099 C50.6697894,5.3048365 50.7899826,5.31342038 50.875835,5.36492365 C52.6787339,6.47224389 54.3957806,7.7083223 56.2931171,8.66971661 C56.9112539,8.97873622 57.5637316,9.22766867 58.1732832,9.56243991 C58.5081073,9.74270134 58.8343461,10.0088016 59.1519998,10.1718952 C59.4009715,10.3006534 59.6842842,10.3435728 59.9246708,10.4894987 C60.3539324,10.7384312 60.9377283,11.3736381 61.3755752,11.5367318 C61.5558651,11.6054028 61.6846436,11.5624834 61.847763,11.6054028 C61.9851267,11.6397383 62.1310757,11.7856643 62.2512689,11.8371675 C62.9638433,12.1290194 63.7966109,12.5410455 64.4748443,12.789978 C64.9556174,12.9616555 65.5222428,13.0732459 66.0201863,13.2449235 C66.1232091,13.279259 66.2434024,13.3994333 66.3206695,13.4080172 C66.3979366,13.4080172 66.7155902,13.210588 66.9130506,13.1848364 C67.2307042,13.1505008 67.4195793,13.279259 67.6342102,13.2706751 C67.8145,13.2706751 68.0978127,13.0389104 68.329614,13.0045749 C68.8361428,12.92732 69.1108703,13.0732459 69.5487172,13.1247492 C70.1926096,13.2020041 70.8365021,13.1676686 71.4889799,13.2706751 C71.8495596,13.3307623 72.3560884,13.5281915 72.6823273,13.5367753 C73.1115889,13.5453592 73.558021,13.5110237 73.9958679,13.5367753 C74.3135216,13.5539431 74.6655161,13.6827013 74.991755,13.6226141 C75.249312,13.5796947 75.6098918,12.8328974 75.8331078,12.6011327 C76.0305682,12.3951196 76.3052957,12.2835292 76.5113413,12.0946839 C76.1250058,11.4251414 75.6013065,10.8586055 75.395261,10.0860565 C75.2321415,9.50235276 75.2149711,7.81132883 75.3780905,7.22762514 C75.5583804,6.54949879 75.7129146,6.1203049 75.7472555,5.37350752 C75.7558407,5.10740731 75.5755508,5.00440078 75.8846192,4.73830056 C76.1250058,4.52370362 76.1593467,4.58379076 76.3482218,4.24901953 C76.537097,3.91424829 76.5285117,3.64814808 76.6658755,3.33912848 C76.7431426,3.15886704 77.1123076,2.6352505 77.2496713,2.47215682 C77.6360068,2.01721129 78.159706,1.83694986 78.7349167,1.69102393 C79.6878775,1.45067535 81.5165322,1.42492372 82.4265669,1.83694986 C83.164897,2.17172109 84.6329719,3.37346399 84.967796,4.11167748 C85.5859327,5.50226569 84.4956081,7.92291924 84.2122954,9.39076235 C84.160784,9.66544644 84.195125,9.93154666 84.1092726,10.2405663 C83.9976646,10.6525924 83.7143519,11.030283 83.5941586,11.3993898 C83.4138687,11.9315902 83.7315224,11.7770804 84.0835169,11.8629192 C84.2895625,11.9144224 84.5213638,12.4208712 84.7016537,12.6011327 C84.9506255,12.858649 85.2682791,12.9788233 85.5000804,13.1676686 C85.5859327,13.2363396 85.6546146,13.4166011 85.7318817,13.4337688 C85.8263193,13.4595204 86.0323649,13.3393462 86.1611434,13.4080172 C88.1615027,13.8372111 90.1361063,14.403747 92.1021247,14.9187797 C92.5313864,15.0303701 93.8620975,16.4724616 94.0767284,16.8930716 C94.2055069,17.142004 94.2741887,17.5025269 94.394382,17.7514594 C94.617598,18.2321565 95.6220703,18.6699343 96.0770877,19.0218733 C97.6739411,20.2837033 99.1591864,22.0949015 100.41263,23.6829189 C101.082279,24.5327229 102.292797,25.9748143 102.181188,27.0907184 C102.112507,27.8117642 100.77321,29.6229624 100.292437,30.2925049 C99.0647488,31.9921127 97.339117,33.3912848 95.7508488,34.7475375 C95.6134851,34.8677118 95.3645133,34.9964699 95.2529053,35.1166442 C95.132712,35.2454024 95.1155416,35.3999122 94.9610074,35.5458381 C94.6862799,35.8033544 94.5145753,35.7518512 94.2741887,35.8634416 C94.2140921,35.8977771 94.1196545,36.1123741 94.025217,36.2067967 C93.7504895,36.4814808 93.5186882,36.464313 93.2439607,36.6016551 C92.9864037,36.7304133 91.8789087,37.5287139 91.7157892,37.5115461 C91.2092605,37.2711976 90.9259478,36.8334198 90.6254646,36.3784743 C90.5567828,36.2754677 90.3421519,35.7346834 90.1876177,35.83769 C90.1704473,35.8462738 90.1017654,36.1295418 90.0760097,36.1982128 C89.9644017,36.4557292 89.6553333,37.0050973 89.6124071,37.2282782 C89.5437252,37.5802172 89.5780662,37.9922433 89.4922138,38.3785178 C89.423532,38.6875374 89.0629522,39.2540733 89.0543669,39.4429187 C89.0457817,39.631764 89.1402193,39.9236158 89.1488045,40.121045 C89.1831454,41.0395199 89.1058783,41.9751626 89.1488045,42.8936375 C89.1917307,43.8121125 89.3033387,44.6962519 89.3290944,45.6233107 C89.3548501,46.6619599 89.4750434,47.640522 89.5093843,48.6620034 C89.6038219,51.0397376 89.9901574,53.4432234 90.2391291,55.8381253 C90.4451747,57.8553366 90.5825385,59.9068834 90.6941465,61.9240947 C90.6941465,62.044269 90.7284874,62.6279727 90.5825385,62.6279727 C90.4108338,62.6279727 89.938646,62.5936372 89.8098675,62.6279727 L89.8098675,62.7052276 Z M91.0203853,25.5112849 C90.3249815,27.331067 89.7669413,29.2023524 89.2432421,31.0736378 C89.2003159,31.4169929 89.6553333,31.0307184 89.7583561,30.9448796 C90.6082942,30.283921 92.4197784,29.0306748 93.0121594,28.2409581 C93.1495232,28.0606966 93.2010346,27.7945964 93.3555688,27.6229189 C93.4929325,27.4598252 93.9651203,27.3053154 93.6989781,27.1078862 C92.9692333,26.6701084 92.2824146,26.1464919 91.561255,25.7001302 C91.449647,25.6314592 91.1234081,25.3996945 91.0289706,25.502701 L91.0203853,25.5112849 Z" id="Shape" fill="#3D5039"></path>
                    <g id="Group-Copy-5" transform="translate(0, 94.0551)" fill="#010101">
                        <g id="Group-13" transform="translate(1.65, 0)">
                            <path d="M0,10.6383203 L0,0.179971583 L3.29,0.179971583 C5.14,0.179971583 6.53,0.599905278 7.46,1.44977109 C8.38,2.2996369 8.85,3.5694364 8.85,5.27916645 C8.85,6.98889649 8.34,8.19870547 7.32,9.17855076 C6.3,10.158396 4.94,10.6483187 3.24,10.6483187 L0,10.6483187 L0,10.6383203 Z M1.77,1.67973478 L1.77,9.13855707 L3.14,9.13855707 C4.34,9.13855707 5.28,8.79861075 5.96,8.12871652 C6.64,7.44882387 6.97,6.50897227 6.97,5.30916171 C6.97,4.10935116 6.65,3.2394885 6,2.61958638 C5.36,1.99968426 4.41,1.6897332 3.17,1.6897332 L1.77,1.6897332 L1.77,1.67973478 Z" id="Shape"></path>
                            <polygon id="Path" points="12.67 10.6383203 10.89 10.6383203 10.89 0.179971583 12.67 0.179971583"></polygon>
                            <path d="M23.03,10.0984055 C22.5,10.348366 21.98,10.5383361 21.48,10.6483187 C20.98,10.7583013 20.43,10.8182918 19.85,10.8182918 C18.25,10.8182918 16.99,10.348366 16.08,9.41851287 C15.17,8.48865969 14.72,7.20886176 14.72,5.57911909 C14.72,3.94937641 15.22,2.58959112 16.23,1.55975372 C17.24,0.529916329 18.55,0.0099984213 20.17,0.0099984213 C20.7,0.0099984213 21.19,0.0499921065 21.63,0.139977898 C22.07,0.22996369 22.52,0.369941588 22.98,0.559911593 L22.4,2.00968268 C22.03,1.84970794 21.68,1.73972531 21.33,1.66973636 C20.98,1.59974741 20.61,1.55975372 20.2,1.55975372 C19.15,1.55975372 18.29,1.90969847 17.62,2.60958796 C16.94,3.30947745 16.61,4.25932747 16.61,5.44913961 C16.61,6.63895174 16.92,7.54880808 17.54,8.22870073 C18.16,8.90859338 19,9.2485397 20.05,9.2485397 C20.4,9.2485397 20.77,9.1985476 21.16,9.10856181 C21.55,9.01857601 21.95,8.86859969 22.36,8.65863285 L23.05,10.0984055 L23.03,10.0984055 Z" id="Path"></path>
                            <polygon id="Path" points="31.62 1.67973478 28.61 1.67973478 28.61 10.6383203 26.84 10.6383203 26.84 1.67973478 23.84 1.67973478 23.84 0.179971583 31.62 0.179971583"></polygon>
                            <path d="M31.12,10.6383203 L35.03,0.179971583 L37.04,0.179971583 L40.92,10.6383203 L38.96,10.6383203 L38.08,8.13871494 L33.9,8.13871494 L33.05,10.6383203 L31.11,10.6383203 L31.12,10.6383203 Z M34.37,6.67894543 L37.61,6.67894543 L36.18,2.54959743 C36.15,2.4396148 36.12,2.33963058 36.09,2.21964953 C36.06,2.10966689 36.04,1.97968742 36.01,1.81971268 L35.97,1.81971268 C35.95,1.95969058 35.92,2.08967005 35.89,2.19965269 C35.86,2.30963532 35.83,2.41961796 35.8,2.52960059 L34.37,6.66894701 L34.37,6.67894543 Z" id="Shape"></path>
                            <polygon id="Path" points="48.35 1.67973478 45.34 1.67973478 45.34 10.6383203 43.57 10.6383203 43.57 1.67973478 40.57 1.67973478 40.57 0.179971583 48.35 0.179971583"></polygon>
                            <path d="M53.66,10.8082934 C52.17,10.8082934 50.96,10.3183708 50.05,9.34852392 C49.13,8.36867863 48.67,7.09887912 48.67,5.5391254 C48.67,3.86938904 49.14,2.52960059 50.07,1.51976004 C51,0.509919486 52.26,0 53.83,0 C55.3,0 56.48,0.489922644 57.39,1.45976951 C58.29,2.4396148 58.74,3.71941272 58.74,5.29916329 C58.74,6.97889807 58.28,8.31868652 57.35,9.30853023 C56.42,10.3083724 55.19,10.8082934 53.67,10.8082934 L53.66,10.8082934 Z M53.68,9.25853813 C54.67,9.25853813 55.45,8.92859022 56.01,8.258696 C56.57,7.58880177 56.86,6.65894859 56.86,5.45913803 C56.86,4.25932747 56.58,3.26948377 56.03,2.58959112 C55.48,1.90969847 54.71,1.56975214 53.75,1.56975214 C52.79,1.56975214 52,1.91969689 51.42,2.6295848 C50.84,3.33947271 50.54,4.2693259 50.54,5.42914277 C50.54,6.58895964 50.83,7.52881124 51.41,8.21870231 C51.99,8.9185918 52.75,9.25853813 53.69,9.25853813 L53.68,9.25853813 Z" id="Shape"></path>
                            <path d="M68.73,10.6383203 L66.69,10.6383203 L65.09,7.85875914 C64.81,7.3688365 64.55,7.0388886 64.32,6.84891859 C64.09,6.65894859 63.81,6.55896437 63.5,6.55896437 L62.57,6.55896437 L62.57,10.6383203 L60.8,10.6383203 L60.8,0.179971583 L64.21,0.179971583 C65.3,0.179971583 66.15,0.419933695 66.77,0.909856338 C67.39,1.39977898 67.7,2.11966532 67.7,3.07951376 C67.7,3.79940009 67.5,4.40930379 67.11,4.90922486 C66.71,5.40914592 66.17,5.77908751 65.48,6.0090512 L65.48,6.03904647 C65.74,6.1490291 65.98,6.31900226 66.2,6.54896595 C66.42,6.77892964 66.62,7.05888544 66.81,7.37883492 L68.74,10.6283218 L68.73,10.6383203 Z M62.56,1.60974583 L62.56,5.10919329 L63.91,5.10919329 C64.47,5.10919329 64.93,4.9292217 65.29,4.57927696 C65.65,4.22933221 65.83,3.77940325 65.83,3.24948692 C65.83,2.71957059 65.67,2.32963216 65.36,2.04967637 C65.04,1.75972215 64.58,1.61974425 63.96,1.61974425 L62.57,1.61974425 L62.56,1.60974583 Z" id="Shape"></path>
                        </g>
                        <g id="Group-12" transform="translate(0, 15.9965)">
                            <path d="M1.77,6.99889491 L1.77,10.6383203 L0,10.6383203 L0,0.179971583 L3.28,0.179971583 C4.5,0.179971583 5.42,0.45992738 6.06,1.01983897 C6.7,1.57975057 7.02,2.39962111 7.02,3.47945061 C7.02,4.55928011 6.66,5.36915224 5.94,6.02904805 C5.22,6.67894543 4.26,7.00889333 3.04,7.00889333 L1.78,7.00889333 L1.77,6.99889491 Z M1.77,1.62974267 L1.77,5.54912382 L2.88,5.54912382 C3.62,5.54912382 4.19,5.37915066 4.57,5.03920434 C4.95,4.69925801 5.14,4.19933695 5.14,3.54943956 C5.14,2.89954218 4.96,2.41961796 4.6,2.09966847 C4.24,1.77971899 3.69,1.61974425 2.97,1.61974425 L1.78,1.61974425 L1.77,1.62974267 Z" id="Shape"></path>
                            <path d="M7.01,10.6383203 L10.92,0.179971583 L12.93,0.179971583 L16.81,10.6383203 L14.85,10.6383203 L13.97,8.13871494 L9.79,8.13871494 L8.94,10.6383203 L7,10.6383203 L7.01,10.6383203 Z M10.26,6.67894543 L13.5,6.67894543 L12.07,2.54959743 C12.04,2.4396148 12.01,2.33963058 11.98,2.21964953 C11.95,2.10966689 11.93,1.97968742 11.9,1.81971268 L11.86,1.81971268 C11.84,1.95969058 11.81,2.08967005 11.78,2.19965269 C11.75,2.30963532 11.72,2.41961796 11.69,2.52960059 L10.26,6.66894701 L10.26,6.67894543 Z" id="Shape"></path>
                            <path d="M26.32,10.6383203 L24.28,10.6383203 L22.68,7.85875914 C22.4,7.3688365 22.14,7.0388886 21.91,6.84891859 C21.68,6.65894859 21.4,6.55896437 21.09,6.55896437 L20.16,6.55896437 L20.16,10.6383203 L18.39,10.6383203 L18.39,0.179971583 L21.8,0.179971583 C22.89,0.179971583 23.74,0.419933695 24.36,0.909856338 C24.98,1.39977898 25.29,2.11966532 25.29,3.07951376 C25.29,3.79940009 25.09,4.40930379 24.7,4.90922486 C24.3,5.40914592 23.76,5.77908751 23.07,6.0090512 L23.07,6.03904647 C23.33,6.1490291 23.57,6.31900226 23.79,6.54896595 C24.01,6.77892964 24.21,7.05888544 24.4,7.37883492 L26.33,10.6283218 L26.32,10.6383203 Z M20.16,1.60974583 L20.16,5.10919329 L21.51,5.10919329 C22.07,5.10919329 22.53,4.9292217 22.89,4.57927696 C23.25,4.22933221 23.43,3.77940325 23.43,3.24948692 C23.43,2.71957059 23.27,2.32963216 22.96,2.04967637 C22.65,1.76972057 22.18,1.61974425 21.56,1.61974425 L20.17,1.61974425 L20.16,1.60974583 Z" id="Shape"></path>
                            <path d="M26.67,10.6383203 L30.58,0.179971583 L32.59,0.179971583 L36.47,10.6383203 L34.51,10.6383203 L33.63,8.13871494 L29.45,8.13871494 L28.6,10.6383203 L26.66,10.6383203 L26.67,10.6383203 Z M29.92,6.67894543 L33.16,6.67894543 L31.73,2.54959743 C31.7,2.4396148 31.67,2.33963058 31.64,2.21964953 C31.61,2.10966689 31.59,1.97968742 31.56,1.81971268 L31.52,1.81971268 C31.5,1.95969058 31.47,2.08967005 31.44,2.19965269 C31.41,2.30963532 31.38,2.41961796 31.35,2.52960059 L29.92,6.66894701 L29.92,6.67894543 Z" id="Shape"></path>
                            <path d="M46.95,10.6383203 L45.02,10.6383203 L40.16,3.15950113 C40.06,3.00952481 39.98,2.86954691 39.91,2.73956744 C39.84,2.60958796 39.78,2.49960533 39.73,2.39962111 L39.69,2.39962111 C39.71,2.54959743 39.72,2.74956586 39.73,3.00952481 C39.74,3.26948377 39.74,3.57943483 39.74,3.95937484 L39.74,10.6383203 L38.03,10.6383203 L38.03,0.179971583 L40.09,0.179971583 L44.8,7.48881756 C44.9,7.6487923 44.99,7.78877019 45.07,7.91874967 C45.15,8.04872915 45.21,8.1687102 45.26,8.26869442 L45.29,8.26869442 C45.27,8.12871652 45.26,7.93874651 45.25,7.68878598 C45.25,7.43882545 45.24,7.13887281 45.24,6.77892964 L45.24,0.179971583 L46.95,0.179971583 L46.95,10.6383203 L46.95,10.6383203 Z" id="Path"></path>
                            <path d="M53.99,10.8082934 C52.5,10.8082934 51.29,10.3183708 50.37,9.34852392 C49.45,8.36867863 48.99,7.09887912 48.99,5.5391254 C48.99,3.86938904 49.46,2.52960059 50.39,1.51976004 C51.32,0.509919486 52.58,0 54.15,0 C55.62,0 56.8,0.489922644 57.71,1.45976951 C58.61,2.4396148 59.06,3.71941272 59.06,5.29916329 C59.06,6.97889807 58.6,8.31868652 57.67,9.30853023 C56.74,10.3083724 55.51,10.8082934 53.99,10.8082934 L53.99,10.8082934 Z M54.01,9.25853813 C55,9.25853813 55.78,8.92859022 56.34,8.258696 C56.91,7.58880177 57.19,6.65894859 57.19,5.45913803 C57.19,4.25932747 56.91,3.26948377 56.36,2.58959112 C55.81,1.90969847 55.04,1.56975214 54.08,1.56975214 C53.12,1.56975214 52.33,1.91969689 51.75,2.6295848 C51.16,3.33947271 50.87,4.2693259 50.87,5.42914277 C50.87,6.58895964 51.16,7.52881124 51.74,8.21870231 C52.32,8.9185918 53.08,9.25853813 54.02,9.25853813 L54.01,9.25853813 Z" id="Shape"></path>
                            <polygon id="Path" points="62.9 10.6383203 61.12 10.6383203 61.12 0.179971583 62.9 0.179971583"></polygon>
                            <path d="M64.45,10.6383203 L68.36,0.179971583 L70.37,0.179971583 L74.25,10.6383203 L72.29,10.6383203 L71.41,8.13871494 L67.23,8.13871494 L66.38,10.6383203 L64.44,10.6383203 L64.45,10.6383203 Z M67.7,6.67894543 L70.94,6.67894543 L69.51,2.54959743 C69.48,2.4396148 69.45,2.33963058 69.42,2.21964953 C69.39,2.10966689 69.37,1.97968742 69.34,1.81971268 L69.3,1.81971268 C69.28,1.95969058 69.25,2.08967005 69.22,2.19965269 C69.19,2.30963532 69.16,2.41961796 69.13,2.52960059 L67.7,6.66894701 L67.7,6.67894543 Z" id="Shape"></path>
                        </g>
                    </g>
                </g>
            </g>
        </g>
    </g>
</svg>