<?xml version="1.0" encoding="UTF-8"?>
<svg width="166px" height="189px" viewBox="0 0 166 189" version="1.1" xmlns="http://www.w3.org/2000/svg" xmlns:xlink="http://www.w3.org/1999/xlink">
    <title>persecution_religious</title>
    <defs>
        <ellipse id="path-1" cx="69.8825484" cy="70.0114149" rx="69.8825484" ry="70.0114149"></ellipse>
    </defs>
    <g id="Page-1" stroke="none" stroke-width="1" fill="none" fill-rule="evenodd">
        <g id="BWL---Style-Guide-and-CDN-Images" transform="translate(-707, -2404)">
            <g id="persecution_religious" transform="translate(712.2597, 2409)">
                <g id="Oval-Copy-9">
                    <ellipse stroke="#EA743D" stroke-width="4" stroke-linejoin="square" cx="69.8825484" cy="70.0114149" rx="67.8825484" ry="68.0114149"></ellipse>
                    <ellipse stroke="#0E0E0E" stroke-width="5" cx="69.8825484" cy="70.0114149" rx="72.3825484" ry="72.5114149"></ellipse>
                </g>
                <path d="M98.75431,46.257542 L75.4335053,46.257542 L75.4335053,26.0942545 C75.4335053,24.4539871 74.1057368,23.1337718 72.4784718,23.1337718 L67.3271296,23.1337718 C65.6898814,23.1337718 64.3720962,24.4639887 64.3720962,26.0942545 L64.3720962,46.257542 L41.0512914,46.257542 C39.6536405,46.257542 38.5255365,47.3877263 38.5255365,48.7879546 L38.5255365,54.8089362 C38.5255365,56.2091645 39.6536405,57.3393488 41.0512914,57.3393488 L64.3720962,57.3393488 L64.3720962,114.188618 C64.3720962,115.828885 65.6998646,117.1491 67.3271296,117.1491 L72.4784718,117.1491 C74.1157201,117.1491 75.4335053,115.818884 75.4335053,114.188618 L75.4335053,57.3393488 L98.75431,57.3393488 C100.151961,57.3393488 101.280065,56.2091645 101.280065,54.8089362 L101.280065,48.7879546 C101.280065,47.3877263 100.151961,46.257542 98.75431,46.257542 Z" id="Path-Copy-8" fill="#EA743D" fill-rule="nonzero"></path>
                <g id="icon_bwl_religious_nationalism_text" transform="translate(25.4176, 73.0419)" fill-rule="nonzero">
                    <g id="Group-4" transform="translate(44.0299, -0)">
                        <path d="M44.4813031,0.850159552 C49.80236,2.32039926 55.1533665,6.12101893 58.8671248,10.1916826 C62.7705643,14.4623789 65.1066381,19.8132514 69.4293729,23.7638955 C74.5108325,28.4046521 81.5390202,31.0550843 88.5672079,30.4649881 C89.2261005,30.4049783 89.8949763,30.3349669 90.5438857,30.1649391 C90.6736676,30.2949603 89.2959831,32.1252588 89.1362515,32.3652979 C84.2644396,39.8265144 79.1630135,47.337739 74.1813862,54.7489474 C73.1531144,56.2791969 72.1847419,57.8594545 71.1564701,59.389704 C70.4376782,59.4297106 69.7188863,59.5997383 69.0000944,59.6497464 C67.6922924,59.7397611 65.9751783,59.7297595 64.6773596,59.579735 C57.6591551,58.7596013 51.9387693,55.4990697 47.3964037,50.1682005 C44.7807997,47.0876983 42.9538702,43.5371194 40.3582327,40.4666188 C37.4031992,36.9760496 33.5496758,33.7355213 29.4765216,31.7652 C27.5397767,30.8350484 25.4932163,30.0849261 23.3867567,29.6648576 C22.7278641,30.6850239 21.9891057,31.6651837 21.3102466,32.6753484 C15.5998441,41.1667329 9.87945837,49.9781696 4.12912295,58.389541 C3.83960954,58.8196111 3.55009612,59.5097236 3.20068338,59.8997872 C1.91284785,61.3300204 -0.483125244,60.0298084 0.0859183644,58.0994937 C0.335498895,57.2293518 2.06259616,55.1190077 2.65160621,54.2388642 C12.8145254,38.8563562 23.0772768,23.5838661 33.2601624,8.36138421 C34.867461,5.96099284 36.3948939,3.58060473 38.0221589,1.25022478 C38.2417898,0.940174228 38.6011858,0.0800339877 39.0005146,0.0100225728 C39.2600784,-0.02998395 40.2883502,0.0600307263 40.6177965,0.100037249 C41.7558837,0.240060079 43.4031152,0.540109 44.5012695,0.840157921 L44.4813031,0.850159552 Z" id="Path" fill="#3D5039"></path>
                        <path d="M38.4913703,8.63142824 L35.995565,12.5220626 C38.3116724,13.1921718 49.4928801,16.2726741 55.9819739,27.7445445 C56.4012692,28.4746635 59.4860845,35.5758213 66.9834837,39.646485 C74.4808828,43.7171487 77.605631,42.6069677 79.4724934,42.6169694 L81.8485,38.9263676 C79.3327283,38.6763269 72.3344902,38.7863448 68.4011011,36.1659176 C61.7522758,31.7351952 57.6491718,20.9634389 51.2399438,15.4825453 C46.6077292,11.5118979 41.9555481,9.1415114 38.4913703,8.64142987 L38.4913703,8.63142824 Z" id="Path" fill="#FFFFFF"></path>
                        <path d="M32.9007665,17.3328469 L30.4049612,21.2234813 C32.7210685,21.8935905 43.9022762,24.9740928 50.39137,36.4459632 C50.8106653,37.1760823 54.224927,43.7271504 61.3928798,48.3479037 C68.3811346,52.8486376 72.0150272,51.3083864 73.8818895,51.3183881 L76.2578962,47.6277863 C73.7421244,47.3777456 68.7205642,48.6779576 62.8104972,44.8673363 C56.0917893,40.5366302 51.8289539,29.1247695 45.64934,24.183964 C40.8873434,20.3733427 32.9007665,17.3428486 32.9007665,17.3428486 L32.9007665,17.3328469 Z" id="Path" fill="#FFFFFF"></path>
                    </g>
                    <g id="Group" transform="translate(0, 82.2034)" fill="#010101">
                        <path d="M21.2442947,10.6417351 L19.2077176,10.6417351 L17.6104022,7.86128173 C17.330872,7.37120183 17.0713083,7.04114801 16.8416942,6.85111703 C16.6120801,6.66108605 16.3325499,6.56106974 16.02307,6.56106974 L15.0946305,6.56106974 L15.0946305,10.6417351 L13.3276003,10.6417351 L13.3276003,0.180029353 L16.7318787,0.180029353 C17.8200499,0.180029353 18.6686237,0.420068489 19.2875834,0.910148394 C19.9065431,1.4002283 20.2160229,2.12034571 20.2160229,3.08050226 C20.2160229,3.80061967 20.0163585,4.41071914 19.6270129,4.91080067 C19.227684,5.41088221 18.6885901,5.78094254 17.9997478,6.01098005 L17.9997478,6.04098494 C18.2593116,6.15100288 18.4989089,6.3210306 18.7185398,6.55106811 C18.9381706,6.78110562 19.1378351,7.06115127 19.3275163,7.38120346 L21.2542779,10.6317334 L21.2442947,10.6417351 Z M15.0846472,1.61026254 L15.0846472,5.11083329 L16.4323821,5.11083329 C16.9914425,5.11083329 17.4506707,4.93080394 17.8100666,4.58074686 C18.1694626,4.23068979 18.3491606,3.7806164 18.3491606,3.25052998 C18.3491606,2.72044355 18.189429,2.33037995 17.8799492,2.05033429 C17.5604861,1.760287 17.1012579,1.62026417 16.4822982,1.62026417 L15.0946305,1.62026417 L15.0846472,1.61026254 Z" id="Shape"></path>
                        <polygon id="Path" points="28.6318784 10.6417351 22.7517611 10.6417351 22.7517611 0.180029353 28.4022643 0.180029353 28.4022643 1.68027396 24.5187913 1.68027396 24.5187913 4.60075012 28.1227341 4.60075012 28.1227341 6.10099473 24.5187913 6.10099473 24.5187913 9.15149209 28.6318784 9.15149209 28.6318784 10.6517367"></polygon>
                        <polygon id="Path" points="36.4387574 10.6417351 30.6285227 10.6417351 30.6285227 0.180029353 32.3955528 0.180029353 32.3955528 9.15149209 36.4387574 9.15149209 36.4387574 10.6517367"></polygon>
                        <polygon id="Path" points="39.8729855 10.6417351 38.0959721 10.6417351 38.0959721 0.180029353 39.8729855 0.180029353"></polygon>
                        <path d="M50.7746631,9.89161276 C50.2655188,10.1916617 49.7064584,10.4216992 49.0974819,10.5817253 C48.4885054,10.7417514 47.8296128,10.8217644 47.1307873,10.8217644 C45.5334719,10.8217644 44.2755861,10.371691 43.3371633,9.47154427 C42.3987405,8.57139751 41.9295291,7.27118552 41.9295291,5.56090667 C41.9295291,3.85062782 42.4286901,2.57041909 43.4369955,1.54025113 C44.4353176,0.510083166 45.7730692,5.68434189e-14 47.4502504,5.68434189e-14 C48.0692101,5.68434189e-14 48.6482369,0.0600097842 49.1673644,0.180029353 C49.6964752,0.300048921 50.2255859,0.480078274 50.7646798,0.730119041 L50.1357369,2.13034734 C49.6864919,1.92031309 49.2572134,1.760287 48.8379181,1.67027233 C48.4186229,1.58025765 47.9494115,1.5302495 47.4402672,1.5302495 C46.3520961,1.5302495 45.4735726,1.87030494 44.8046968,2.5404142 C44.135821,3.22052509 43.7963914,4.19068326 43.7963914,5.46089036 C43.7963914,6.73109746 44.1058713,7.70125564 44.724831,8.34136 C45.3437907,8.98146437 46.1923645,9.29151492 47.2705524,9.29151492 C47.6199652,9.29151492 47.929445,9.26151003 48.2289416,9.20150024 C48.5184551,9.14149046 48.7780188,9.05147578 49.0176161,8.93145622 L49.0176161,6.43104854 L46.8213075,6.43104854 L46.8213075,4.94080557 L50.7946295,4.94080557 L50.7946295,9.89161276 L50.7746631,9.89161276 Z" id="Path"></path>
                        <polygon id="Path" points="54.9276831 10.6417351 53.1506697 10.6417351 53.1506697 0.180029353 54.9276831 0.180029353"></polygon>
                        <path d="M61.9558708,10.8117628 C60.4683708,10.8117628 59.2604011,10.3216829 58.351928,9.35152471 C57.4334716,8.3713649 56.9742434,7.1011578 56.9742434,5.54090341 C56.9742434,3.87063108 57.4434548,2.53041257 58.3718944,1.52024787 C59.300334,0.510083166 60.5582198,0 62.1255856,0 C63.5931191,0 64.7711392,0.490079904 65.6796123,1.46023808 C66.5781022,2.44039789 67.0273472,3.72060662 67.0273472,5.30086427 C67.0273472,6.98113823 66.568119,8.32135674 65.6396794,9.31151818 C64.7112399,10.3016796 63.4833037,10.8117628 61.965854,10.8117628 L61.9558708,10.8117628 Z M61.9858205,9.26151003 C62.9741594,9.26151003 63.7528506,8.93145622 64.311911,8.26134696 C64.8809546,7.5912377 65.1604848,6.66108605 65.1604848,5.46089036 C65.1604848,4.26069468 64.8809546,3.27053324 64.3318775,2.59042235 C63.7828003,1.91031146 63.0140923,1.57025602 62.055703,1.57025602 C61.0973138,1.57025602 60.3086393,1.92031309 59.7296125,2.63042887 C59.1406024,3.34054465 58.851089,4.27069631 58.851089,5.43088547 C58.851089,6.59107463 59.1406024,7.53122792 59.7196293,8.22134044 C60.2986561,8.91145295 61.0573809,9.26151003 61.9958037,9.26151003 L61.9858205,9.26151003 Z" id="Shape"></path>
                        <path d="M77.1403503,6.25101919 C77.1403503,7.77126705 76.7909375,8.91145295 76.1020953,9.67157689 C75.413253,10.4317008 74.3650148,10.8117628 72.9673638,10.8117628 C71.5697128,10.8117628 70.6213068,10.4417025 69.952431,9.71158341 C69.2835552,8.98146437 68.9441257,7.87128336 68.9441257,6.39104202 L68.9441257,0.180029353 L70.7111558,0.180029353 L70.7111558,6.38104039 C70.7111558,7.34119693 70.9108202,8.06131434 71.3001659,8.54139262 C71.6895115,9.02147089 72.2885048,9.26151003 73.067196,9.26151003 C73.8458873,9.26151003 74.4049477,9.03147252 74.7843101,8.56139588 C75.1636725,8.09131924 75.3533537,7.40120672 75.3533537,6.46105343 L75.3533537,0.170027722 L77.1203838,0.170027722 L77.1203838,6.25101919 L77.1403503,6.25101919 Z" id="Path"></path>
                        <path d="M78.887414,9.8716095 L79.6760885,8.5013861 C80.1552831,8.80143502 80.5945448,9.01146926 81.0038569,9.14149046 C81.4131689,9.27151166 81.8624139,9.33152144 82.361575,9.33152144 C82.9605682,9.33152144 83.4297796,9.20150024 83.7692091,8.94145785 C84.1086387,8.68141545 84.2783534,8.31135511 84.2783534,7.83127684 C84.2783534,7.39120509 84.1385883,7.05114964 83.8490749,6.80110888 C83.5695447,6.55106811 83.0803669,6.3210306 82.3915246,6.11099636 C81.3133367,5.80094581 80.5346455,5.41088221 80.0354844,4.94080557 C79.5363234,4.47072892 79.2867428,3.83062456 79.2867428,3.0304941 C79.2867428,2.16035223 79.6062059,1.44023482 80.2551153,0.870141871 C80.9040247,0.29004729 81.7825481,0.0100016307 82.9006689,0.0100016307 C83.3898467,0.0100016307 83.8690414,0.0700114149 84.348236,0.180029353 C84.8274306,0.29004729 85.2866588,0.460075012 85.7458869,0.700114149 L85.0570447,2.10034245 C84.6676991,1.8903082 84.2883366,1.74028374 83.9289407,1.64026743 C83.5695447,1.54025113 83.1901823,1.50024461 82.8208031,1.50024461 C82.271726,1.50024461 81.8424475,1.62026417 81.5329676,1.86030331 C81.2234877,2.10034245 81.0637562,2.44039789 81.0637562,2.88046964 C81.0637562,3.27053324 81.2035213,3.57058216 81.4930347,3.80061967 C81.7825481,4.02065554 82.271726,4.24069142 82.9805347,4.46072729 C84.0687058,4.78077947 84.8573803,5.1808447 85.3365749,5.67092461 C85.8157695,6.16100451 86.0553668,6.83111377 86.0553668,7.68125238 C86.0553668,8.6014024 85.7259205,9.35152471 85.0770111,9.94162092 C84.4281017,10.5317171 83.489679,10.8217644 82.2817092,10.8217644 C81.6727327,10.8217644 81.0837226,10.7417514 80.5046958,10.5817253 C79.925669,10.4216992 79.386575,10.1916617 78.887414,9.88161113 L78.887414,9.8716095 Z" id="Path"></path>
                        <path d="M8.91501654,28.5746589 L6.98825484,28.5746589 L2.13640934,21.0934391 C2.03657713,20.9434147 1.95671136,20.8033919 1.87684559,20.6733707 C1.80696304,20.5433495 1.74706371,20.4333315 1.69714761,20.3333152 L1.65721472,20.3333152 C1.67718116,20.4833397 1.68716438,20.6833723 1.69714761,20.9434147 C1.70713083,21.2034571 1.70713083,21.5135076 1.70713083,21.8935696 L1.70713083,28.5746589 L0,28.5746589 L0,18.1129532 L2.05654357,18.1129532 L6.75864076,25.4241452 C6.85847297,25.5841713 6.94832196,25.7241942 7.02818773,25.8542154 C7.1080535,25.9842366 7.16795283,26.1042561 7.21786893,26.2042724 L7.2478186,26.2042724 C7.22785215,26.0642496 7.21786893,25.8742186 7.20788571,25.6241779 C7.20788571,25.3741371 7.19790249,25.0740882 7.19790249,24.7140295 L7.19790249,18.1129532 L8.90503332,18.1129532 L8.90503332,28.5746589 L8.91501654,28.5746589 Z" id="Path"></path>
                        <path d="M10.472399,28.5746589 L14.3758385,18.1129532 L16.382466,18.1129532 L20.2559558,28.5746589 L18.2992445,28.5746589 L17.420721,26.0742512 L13.2477345,26.0742512 L12.3991607,28.5746589 L10.4624158,28.5746589 L10.472399,28.5746589 Z M13.7169459,24.6140132 L16.9515096,24.6140132 L15.523909,20.4833397 C15.4939593,20.3733217 15.4640096,20.2733054 15.43406,20.1632875 C15.4041103,20.0532696 15.3841439,19.9232484 15.3541942,19.7532206 L15.3142613,19.7532206 C15.2942949,19.8932435 15.2643452,20.0232647 15.2343956,20.1332826 C15.2044459,20.2433005 15.1744962,20.3533185 15.1445466,20.4633364 L13.7169459,24.6040115 L13.7169459,24.6140132 Z" id="Shape"></path>
                        <polygon id="Path" points="27.6734892 19.6131978 24.6685396 19.6131978 24.6685396 28.5746589 22.9015094 28.5746589 22.9015094 19.6131978 19.9065431 19.6131978 19.9065431 18.1129532 27.6734892 18.1129532"></polygon>
                        <polygon id="Path" points="31.1376669 28.5746589 29.3606536 28.5746589 29.3606536 18.1129532 31.1376669 18.1129532"></polygon>
                        <path d="M38.1658547,28.7446866 C36.6783547,28.7446866 35.4703849,28.2546067 34.5619118,27.2844486 C33.6434555,26.3142904 33.1842273,25.0340816 33.1842273,23.4738273 C33.1842273,21.8035549 33.6534387,20.4633364 34.5818783,19.4531717 C35.5103178,18.443007 36.7682037,17.9329238 38.3355694,17.9329238 C39.803103,17.9329238 40.9811231,18.4230038 41.8895962,19.3931619 C42.7880861,20.3633201 43.237331,21.6435288 43.237331,23.2337881 C43.237331,24.9140621 42.7781029,26.2542806 41.8496633,27.244442 C40.9212237,28.2446051 39.6932875,28.7446866 38.1758379,28.7446866 L38.1658547,28.7446866 Z M38.1858211,27.1944339 C39.17416,27.1944339 39.9528513,26.8643801 40.5119117,26.1942708 C41.0809553,25.5241615 41.3604855,24.5940099 41.3604855,23.3838126 C41.3604855,22.1736153 41.0809553,21.1934555 40.5318781,20.5133446 C39.9828009,19.8332337 39.2140929,19.4931782 38.2557037,19.4931782 C37.2973144,19.4931782 36.50864,19.8432353 35.9296131,20.5533511 C35.3406031,21.2634669 35.0510897,22.1936185 35.0510897,23.3538077 C35.0510897,24.5139968 35.3406031,25.4541501 35.9196299,26.1442627 C36.4986567,26.8443768 37.2573815,27.1844322 38.1958043,27.1844322 L38.1858211,27.1944339 Z" id="Shape"></path>
                        <path d="M54.1689583,28.5746589 L52.2421966,28.5746589 L47.3903511,21.0934391 C47.2905189,20.9434147 47.2106531,20.8033919 47.1307873,20.6733707 C47.0609048,20.5433495 47.0010054,20.4333315 46.9510893,20.3333152 L46.9111565,20.3333152 C46.9311229,20.4833397 46.9411061,20.6833723 46.9510893,20.9434147 C46.9610726,21.2034571 46.9610726,21.5135076 46.9610726,21.8935696 L46.9610726,28.5746589 L45.2539417,28.5746589 L45.2539417,18.1129532 L47.3104853,18.1129532 L52.0125825,25.4241452 C52.1124147,25.5841713 52.2022637,25.7241942 52.2821295,25.8542154 C52.3619952,25.9842366 52.4218946,26.1042561 52.4718107,26.2042724 L52.5017603,26.2042724 C52.4817939,26.0642496 52.4718107,25.8742186 52.4618274,25.6241779 C52.4618274,25.3741371 52.4518442,25.0740882 52.4518442,24.7140295 L52.4518442,18.1129532 L54.158975,18.1129532 L54.158975,28.5746589 L54.1689583,28.5746589 Z" id="Path"></path>
                        <path d="M55.7263408,28.5746589 L59.6297803,18.1129532 L61.6364077,18.1129532 L65.5098976,28.5746589 L63.5531862,28.5746589 L62.6746627,26.0742512 L58.5016763,26.0742512 L57.6531025,28.5746589 L55.7163576,28.5746589 L55.7263408,28.5746589 Z M58.9708877,24.6140132 L62.2054513,24.6140132 L60.7778507,20.4833397 C60.747901,20.3733217 60.7079682,20.2733054 60.6880017,20.1632875 C60.6680353,20.0532696 60.6380856,19.9232484 60.6081359,19.7532206 L60.5682031,19.7532206 C60.5482366,19.8932435 60.518287,20.0232647 60.4883373,20.1332826 C60.4583876,20.2433005 60.428438,20.3533185 60.3984883,20.4633364 L58.9708877,24.6040115 L58.9708877,24.6140132 Z" id="Shape"></path>
                        <polygon id="Path" points="72.887498 28.5746589 67.0772633 28.5746589 67.0772633 18.1129532 68.8442934 18.1129532 68.8442934 27.0844159 72.887498 27.0844159 72.887498 28.5846605"></polygon>
                        <polygon id="Path" points="76.3217261 28.5746589 74.5447128 28.5746589 74.5447128 18.1129532 76.3217261 18.1129532"></polygon>
                        <path d="M78.1985717,27.8045333 L78.9872462,26.4343099 C79.4664408,26.7343589 79.9057025,26.9443931 80.3150146,27.0744143 C80.7243267,27.2044355 81.1835549,27.2644453 81.6727327,27.2644453 C82.271726,27.2644453 82.7409374,27.1344241 83.0803669,26.8743817 C83.4197964,26.6143393 83.5895112,26.244279 83.5895112,25.7642007 C83.5895112,25.3241289 83.4497461,24.9840735 83.1602327,24.7340327 C82.8707192,24.483992 82.3915246,24.2539544 81.7026824,24.0439202 C80.6344777,23.7338697 79.8458032,23.3438061 79.3466422,22.8737294 C78.8474811,22.4036528 78.5979006,21.7635484 78.5979006,20.9634179 C78.5979006,20.0932761 78.9173636,19.3731587 79.566273,18.8030657 C80.2151824,18.2329728 81.0937059,17.9429255 82.2118266,17.9429255 C82.7010045,17.9429255 83.1901823,18.0029353 83.6593937,18.1129532 C84.1385883,18.2229711 84.5978165,18.3929989 85.0570447,18.633038 L84.3682024,20.0332663 C83.9788568,19.823232 83.5994944,19.6732076 83.2400984,19.5731913 C82.8707192,19.4831766 82.5013401,19.4331685 82.1319609,19.4331685 C81.5828837,19.4331685 81.1536052,19.553188 80.8441253,19.7932272 C80.5346455,20.0332663 80.3749139,20.3733217 80.3749139,20.8133935 C80.3749139,21.2034571 80.514679,21.503506 80.8041924,21.7335435 C81.0937059,21.9535794 81.5828837,22.1736153 82.2916924,22.3936511 C83.3798635,22.7137033 84.168538,23.1137685 84.6477326,23.6038485 C85.1269272,24.0939284 85.3665245,24.7640376 85.3665245,25.6141762 C85.3665245,26.5343262 85.0370782,27.2844486 84.3881689,27.8745448 C83.7392595,28.464641 82.8008367,28.7546883 81.5928669,28.7546883 C80.9838904,28.7546883 80.3948804,28.6746752 79.8158535,28.5146491 C79.2368267,28.354623 78.6977328,28.1245855 78.1985717,27.814535 L78.1985717,27.8045333 Z" id="Path"></path>
                        <path d="M98.6342255,28.5746589 L96.8771786,28.5746589 L96.8771786,21.9235745 C96.8771786,21.6235256 96.8771786,21.2934718 96.9071283,20.9234114 C96.9270947,20.5633527 96.9470611,20.1732891 96.9770108,19.7732239 L96.9270947,19.7732239 C96.8671954,20.0532696 96.8172793,20.2933087 96.7673632,20.4933413 C96.7174471,20.6933739 96.6675309,20.8534 96.6176148,20.9734196 L93.5926988,28.5646573 L92.3547794,28.5646573 L89.3098969,21.0334294 C89.269964,20.9234114 89.2200479,20.773387 89.1701318,20.5633527 C89.1202157,20.3533185 89.0603164,20.0932761 89.0004171,19.7732239 L88.950501,19.7732239 C88.9804506,20.1332826 89.0004171,20.5133446 89.0104003,20.9134098 C89.0203835,21.3034734 89.0303667,21.7135403 89.0303667,22.1436104 L89.0303667,28.5646573 L87.3931184,28.5646573 L87.3931184,18.1029516 L89.898907,18.1029516 L92.5744102,24.8640539 C92.6842257,25.1140947 92.7740747,25.3541338 92.8439572,25.5741697 C92.9138398,25.7942056 92.9737391,25.9942382 93.013672,26.1842692 L93.0536049,26.1842692 C93.1434539,25.9042235 93.2233196,25.6541827 93.3031854,25.4241452 C93.3830512,25.2041094 93.4529337,25.0040768 93.512833,24.8440507 L96.218286,18.1029516 L98.654192,18.1029516 L98.654192,28.5646573 L98.6342255,28.5746589 Z" id="Path"></path>
                    </g>
                </g>
            </g>
        </g>
    </g>
</svg>