<?xml version="1.0" encoding="UTF-8" standalone="no"?>
<!DOCTYPE svg PUBLIC "-//W3C//DTD SVG 1.1//EN" "http://www.w3.org/Graphics/SVG/1.1/DTD/svg11.dtd">
<svg xmlns="http://www.w3.org/2000/svg" version="1.1" viewBox="0.00 0.00 406.00 406.00">
<g stroke-width="2.00" fill="none" stroke-linecap="butt">
<path stroke="#ff8080" vector-effect="non-scaling-stroke" d="
  M 379.68 195.32
  A 181.62 181.62 0.0 0 0 198.06 13.70
  A 181.62 181.62 0.0 0 0 16.44 195.32
  A 181.62 181.62 0.0 0 0 198.06 376.94
  A 181.62 181.62 0.0 0 0 379.68 195.32"
/>
<path stroke="#880909" vector-effect="non-scaling-stroke" d="
  M 156.97 117.69
  Q 159.98 121.71 163.46 124.24
  Q 163.88 124.54 164.13 124.24"
/>
<path stroke="#ff8080" vector-effect="non-scaling-stroke" d="
  M 164.13 124.24
  Q 164.06 124.83 164.37 125.13
  Q 190.16 150.54 215.51 174.69"
/>
<path stroke="#880909" vector-effect="non-scaling-stroke" d="
  M 215.51 174.69
  Q 219.70 178.85 223.05 182.33
  C 223.79 183.10 224.78 183.41 225.64 184.13"
/>
<path stroke="#ff8080" vector-effect="non-scaling-stroke" d="
  M 225.64 184.13
  Q 225.63 184.39 226.12 184.88
  Q 241.77 200.34 257.61 215.60
  Q 257.92 215.89 258.27 215.99
  Q 258.75 216.12 259.03 216.05"
/>
<path stroke="#880909" vector-effect="non-scaling-stroke" d="
  M 259.03 216.05
  L 259.33 217.03
  A 1.85 1.82 13.9 0 0 259.83 217.84
  L 268.36 225.86"
/>
<path stroke="#ff8080" vector-effect="non-scaling-stroke" d="
  M 268.36 225.86
  Q 268.80 226.27 269.39 226.86
  Q 274.04 231.46 278.63 236.11
  Q 279.79 237.28 281.87 238.56"
/>
<path stroke="#880909" vector-effect="non-scaling-stroke" d="
  M 281.87 238.56
  Q 285.87 244.11 291.60 247.60"
/>
<path stroke="#ff8080" vector-effect="non-scaling-stroke" d="
  M 291.60 247.60
  Q 292.13 249.18 293.25 250.26
  Q 310.60 266.91 316.64 272.78
  A 0.73 0.73 0.0 0 0 317.76 272.67
  Q 327.61 258.11 333.41 240.24
  Q 342.79 211.35 340.00 181.92
  Q 337.62 156.68 326.88 134.10
  C 310.02 98.62 278.32 70.99 241.57 59.45
  C 199.16 46.14 153.61 52.54 116.53 78.38
  A 0.45 0.44 49.4 0 0 116.48 79.07
  L 156.97 117.69"
/>
<path stroke="#888888" vector-effect="non-scaling-stroke" d="
  M 291.60 247.60
  L 291.57 166.38
  A 0.33 0.33 0.0 0 1 292.08 166.11
  L 301.41 172.47
  A 4.57 4.57 0.0 0 0 307.87 171.11
  L 307.91 171.04
  A 4.99 4.99 0.0 0 0 306.52 164.35
  Q 274.30 141.83 270.82 139.38
  Q 261.47 132.80 248.15 123.71
  Q 235.51 115.09 225.79 108.27
  Q 206.10 94.44 203.49 92.76
  Q 201.11 91.21 199.17 90.27
  A 2.70 2.69 -49.4 0 0 196.47 90.48
  L 156.97 117.69"
/>
<path stroke="#888888" vector-effect="non-scaling-stroke" d="
  M 281.87 238.56
  L 281.83 160.11
  A 2.23 2.23 0.0 0 0 280.89 158.31
  L 198.60 101.15
  A 1.01 1.00 -44.6 0 0 197.45 101.15
  L 164.13 124.24"
/>
<path stroke="#888888" vector-effect="non-scaling-stroke" d="
  M 268.36 225.86
  Q 268.36 202.37 268.15 179.24
  Q 268.11 174.68 263.49 174.61
  Q 239.87 174.25 215.51 174.69"
/>
<path stroke="#888888" vector-effect="non-scaling-stroke" d="
  M 259.03 216.05
  L 258.92 185.12
  A 0.92 0.91 90.0 0 0 258.01 184.20
  L 225.64 184.13"
/>
<path stroke="#880909" vector-effect="non-scaling-stroke" d="
  M 267.48 282.24
  Q 266.95 280.90 266.61 280.62
  Q 263.13 277.73 260.07 274.39
  A 0.95 0.95 0.0 0 0 259.48 274.09
  L 259.15 274.06"
/>
<path stroke="#ff8080" vector-effect="non-scaling-stroke" d="
  M 259.15 274.06
  L 258.80 273.22
  A 1.64 1.51 12.8 0 0 258.40 272.64
  L 245.41 260.48"
/>
<path stroke="#880909" vector-effect="non-scaling-stroke" d="
  M 245.41 260.48
  L 235.67 251.18"
/>
<path stroke="#ff8080" vector-effect="non-scaling-stroke" d="
  M 235.67 251.18
  Q 233.73 248.03 230.85 246.45"
/>
<path stroke="#880909" vector-effect="non-scaling-stroke" d="
  M 230.85 246.45
  Q 224.12 239.13 215.68 231.58
  Q 215.34 231.28 214.75 231.45"
/>
<path stroke="#ff8080" vector-effect="non-scaling-stroke" d="
  M 214.75 231.45
  Q 214.56 230.07 213.71 229.29
  Q 204.27 220.61 195.08 211.68
  Q 193.41 210.06 191.94 208.63"
/>
<path stroke="#880909" vector-effect="non-scaling-stroke" d="
  M 191.94 208.63
  Q 187.47 203.06 181.90 199.12"
/>
<path stroke="#ff8080" vector-effect="non-scaling-stroke" d="
  M 181.90 199.12
  Q 181.35 197.99 180.41 197.09
  Q 173.51 190.46 166.78 184.23"
/>
<path stroke="#880909" vector-effect="non-scaling-stroke" d="
  M 166.78 184.23
  L 156.94 174.69"
/>
<path stroke="#ff8080" vector-effect="non-scaling-stroke" d="
  M 156.94 174.69
  L 129.69 148.31"
/>
<path stroke="#880909" vector-effect="non-scaling-stroke" d="
  M 129.69 148.31
  L 122.70 141.69"
/>
<path stroke="#ff8080" vector-effect="non-scaling-stroke" d="
  M 122.70 141.69
  L 87.65 107.35
  A 1.25 1.24 -48.7 0 0 85.80 107.47
  Q 69.75 127.78 62.00 152.38
  C 51.07 187.07 54.01 226.47 70.46 259.07
  C 87.77 293.38 118.11 319.54 154.75 331.21
  C 201.25 346.02 252.67 335.97 289.89 304.38
  A 0.82 0.82 0.0 0 0 289.92 303.15
  L 267.48 282.24"
/>
<path stroke="#888888" vector-effect="non-scaling-stroke" d="
  M 122.70 141.69
  L 89.81 164.13
  A 4.99 4.98 58.5 0 0 88.25 170.65
  L 88.43 170.98
  A 4.41 4.40 58.0 0 0 94.81 172.46
  L 103.61 166.28
  A 0.64 0.64 0.0 0 1 104.62 166.80
  L 104.62 279.86
  A 1.69 1.69 0.0 0 0 104.73 280.46
  C 106.40 284.73 110.75 285.86 113.59 281.98
  Q 114.53 280.69 114.39 277.38
  Q 114.36 276.68 114.37 160.14
  A 0.48 0.46 58.0 0 1 114.41 159.95
  Q 114.87 158.58 116.76 157.26
  Q 122.87 152.98 129.69 148.31"
/>
<path stroke="#888888" vector-effect="non-scaling-stroke" d="
  M 156.94 174.69
  Q 144.44 174.19 132.32 174.69
  C 128.78 174.84 127.62 176.92 127.62 180.36
  Q 127.64 204.65 127.64 278.98
  C 127.64 284.01 133.19 286.32 136.44 282.11
  Q 137.28 281.02 137.29 278.03
  Q 137.32 238.10 137.27 184.66
  A 0.40 0.39 -0.8 0 1 137.66 184.27
  L 166.78 184.23"
/>
<path stroke="#888888" vector-effect="non-scaling-stroke" d="
  M 181.90 199.12
  C 178.83 198.87 174.97 198.17 173.22 201.28
  Q 172.52 202.51 172.52 205.83
  Q 172.52 223.98 172.61 236.12
  A 0.67 0.66 -90.0 0 1 171.95 236.79
  Q 160.90 236.84 158.76 236.79
  C 154.51 236.69 151.53 237.52 151.53 242.25
  Q 151.54 276.50 151.52 277.25
  C 151.45 281.79 152.56 284.35 157.50 284.35
  Q 227.01 284.31 238.40 284.36
  C 242.82 284.38 245.35 283.51 245.41 278.74
  Q 245.50 270.24 245.41 260.48"
/>
<path stroke="#888888" vector-effect="non-scaling-stroke" d="
  M 259.15 274.06
  C 258.32 278.36 258.62 285.83 265.06 284.06
  Q 266.81 283.58 267.48 282.24"
/>
<path stroke="#888888" vector-effect="non-scaling-stroke" d="
  M 191.94 208.63
  L 182.86 208.61
  A 0.56 0.55 -0.0 0 0 182.30 209.16
  L 182.30 235.72
  A 0.82 0.82 0.0 0 0 183.12 236.54
  L 214.08 236.54
  A 0.60 0.60 0.0 0 0 214.67 236.06
  Q 215.13 233.89 214.75 231.45"
/>
<path stroke="#888888" vector-effect="non-scaling-stroke" d="
  M 230.85 246.45
  L 203.91 246.61
  A 0.56 0.56 0.0 0 0 203.36 247.17
  L 203.36 273.98
  A 0.66 0.66 0.0 0 0 204.02 274.64
  L 235.18 274.64
  A 0.54 0.54 0.0 0 0 235.72 274.10
  L 235.67 251.18"
/>
<path stroke="#888888" vector-effect="non-scaling-stroke" d="
  M 193.4935 247.1383
  A 0.58 0.58 0.0 0 0 192.9145 246.5572
  L 161.7146 246.5028
  A 0.58 0.58 0.0 0 0 161.1336 247.0818
  L 161.0865 274.0417
  A 0.58 0.58 0.0 0 0 161.6655 274.6228
  L 192.8654 274.6772
  A 0.58 0.58 0.0 0 0 193.4464 274.0982
  L 193.4935 247.1383"
/>
</g>
<path fill="#ffffff" d="
  M 406.00 0.00
  L 406.00 406.00
  L 0.00 406.00
  L 0.00 0.00
  L 406.00 0.00
  Z
  M 379.68 195.32
  A 181.62 181.62 0.0 0 0 198.06 13.70
  A 181.62 181.62 0.0 0 0 16.44 195.32
  A 181.62 181.62 0.0 0 0 198.06 376.94
  A 181.62 181.62 0.0 0 0 379.68 195.32
  Z"
/>
<path fill="#ff0000" d="
  M 379.68 195.32
  A 181.62 181.62 0.0 0 1 198.06 376.94
  A 181.62 181.62 0.0 0 1 16.44 195.32
  A 181.62 181.62 0.0 0 1 198.06 13.70
  A 181.62 181.62 0.0 0 1 379.68 195.32
  Z
  M 156.97 117.69
  Q 159.98 121.71 163.46 124.24
  Q 163.88 124.54 164.13 124.24
  Q 164.06 124.83 164.37 125.13
  Q 190.16 150.54 215.51 174.69
  Q 219.70 178.85 223.05 182.33
  C 223.79 183.10 224.78 183.41 225.64 184.13
  Q 225.63 184.39 226.12 184.88
  Q 241.77 200.34 257.61 215.60
  Q 257.92 215.89 258.27 215.99
  Q 258.75 216.12 259.03 216.05
  L 259.33 217.03
  A 1.85 1.82 13.9 0 0 259.83 217.84
  L 268.36 225.86
  Q 268.80 226.27 269.39 226.86
  Q 274.04 231.46 278.63 236.11
  Q 279.79 237.28 281.87 238.56
  Q 285.87 244.11 291.60 247.60
  Q 292.13 249.18 293.25 250.26
  Q 310.60 266.91 316.64 272.78
  A 0.73 0.73 0.0 0 0 317.76 272.67
  Q 327.61 258.11 333.41 240.24
  Q 342.79 211.35 340.00 181.92
  Q 337.62 156.68 326.88 134.10
  C 310.02 98.62 278.32 70.99 241.57 59.45
  C 199.16 46.14 153.61 52.54 116.53 78.38
  A 0.45 0.44 49.4 0 0 116.48 79.07
  L 156.97 117.69
  Z
  M 267.48 282.24
  Q 266.95 280.90 266.61 280.62
  Q 263.13 277.73 260.07 274.39
  A 0.95 0.95 0.0 0 0 259.48 274.09
  L 259.15 274.06
  L 258.80 273.22
  A 1.64 1.51 12.8 0 0 258.40 272.64
  L 245.41 260.48
  L 235.67 251.18
  Q 233.73 248.03 230.85 246.45
  Q 224.12 239.13 215.68 231.58
  Q 215.34 231.28 214.75 231.45
  Q 214.56 230.07 213.71 229.29
  Q 204.27 220.61 195.08 211.68
  Q 193.41 210.06 191.94 208.63
  Q 187.47 203.06 181.90 199.12
  Q 181.35 197.99 180.41 197.09
  Q 173.51 190.46 166.78 184.23
  L 156.94 174.69
  L 129.69 148.31
  L 122.70 141.69
  L 87.65 107.35
  A 1.25 1.24 -48.7 0 0 85.80 107.47
  Q 69.75 127.78 62.00 152.38
  C 51.07 187.07 54.01 226.47 70.46 259.07
  C 87.77 293.38 118.11 319.54 154.75 331.21
  C 201.25 346.02 252.67 335.97 289.89 304.38
  A 0.82 0.82 0.0 0 0 289.92 303.15
  L 267.48 282.24
  Z"
/>
<path fill="#ffffff" d="
  M 291.60 247.60
  L 291.57 166.38
  A 0.33 0.33 0.0 0 1 292.08 166.11
  L 301.41 172.47
  A 4.57 4.57 0.0 0 0 307.87 171.11
  L 307.91 171.04
  A 4.99 4.99 0.0 0 0 306.52 164.35
  Q 274.30 141.83 270.82 139.38
  Q 261.47 132.80 248.15 123.71
  Q 235.51 115.09 225.79 108.27
  Q 206.10 94.44 203.49 92.76
  Q 201.11 91.21 199.17 90.27
  A 2.70 2.69 -49.4 0 0 196.47 90.48
  L 156.97 117.69
  L 116.48 79.07
  A 0.45 0.44 49.4 0 1 116.53 78.38
  C 153.61 52.54 199.16 46.14 241.57 59.45
  C 278.32 70.99 310.02 98.62 326.88 134.10
  Q 337.62 156.68 340.00 181.92
  Q 342.79 211.35 333.41 240.24
  Q 327.61 258.11 317.76 272.67
  A 0.73 0.73 0.0 0 1 316.64 272.78
  Q 310.60 266.91 293.25 250.26
  Q 292.13 249.18 291.60 247.60
  Z"
/>
<path fill="#111111" d="
  M 291.60 247.60
  Q 285.87 244.11 281.87 238.56
  L 281.83 160.11
  A 2.23 2.23 0.0 0 0 280.89 158.31
  L 198.60 101.15
  A 1.01 1.00 -44.6 0 0 197.45 101.15
  L 164.13 124.24
  Q 163.88 124.54 163.46 124.24
  Q 159.98 121.71 156.97 117.69
  L 196.47 90.48
  A 2.70 2.69 -49.4 0 1 199.17 90.27
  Q 201.11 91.21 203.49 92.76
  Q 206.10 94.44 225.79 108.27
  Q 235.51 115.09 248.15 123.71
  Q 261.47 132.80 270.82 139.38
  Q 274.30 141.83 306.52 164.35
  A 4.99 4.99 0.0 0 1 307.91 171.04
  L 307.87 171.11
  A 4.57 4.57 0.0 0 1 301.41 172.47
  L 292.08 166.11
  A 0.33 0.33 0.0 0 0 291.57 166.38
  L 291.60 247.60
  Z"
/>
<path fill="#ffffff" d="
  M 281.87 238.56
  Q 279.79 237.28 278.63 236.11
  Q 274.04 231.46 269.39 226.86
  Q 268.80 226.27 268.36 225.86
  Q 268.36 202.37 268.15 179.24
  Q 268.11 174.68 263.49 174.61
  Q 239.87 174.25 215.51 174.69
  Q 190.16 150.54 164.37 125.13
  Q 164.06 124.83 164.13 124.24
  L 197.45 101.15
  A 1.01 1.00 -44.6 0 1 198.60 101.15
  L 280.89 158.31
  A 2.23 2.23 0.0 0 1 281.83 160.11
  L 281.87 238.56
  Z"
/>
<path fill="#ffffff" d="
  M 122.70 141.69
  L 89.81 164.13
  A 4.99 4.98 58.5 0 0 88.25 170.65
  L 88.43 170.98
  A 4.41 4.40 58.0 0 0 94.81 172.46
  L 103.61 166.28
  A 0.64 0.64 0.0 0 1 104.62 166.80
  L 104.62 279.86
  A 1.69 1.69 0.0 0 0 104.73 280.46
  C 106.40 284.73 110.75 285.86 113.59 281.98
  Q 114.53 280.69 114.39 277.38
  Q 114.36 276.68 114.37 160.14
  A 0.48 0.46 58.0 0 1 114.41 159.95
  Q 114.87 158.58 116.76 157.26
  Q 122.87 152.98 129.69 148.31
  L 156.94 174.69
  Q 144.44 174.19 132.32 174.69
  C 128.78 174.84 127.62 176.92 127.62 180.36
  Q 127.64 204.65 127.64 278.98
  C 127.64 284.01 133.19 286.32 136.44 282.11
  Q 137.28 281.02 137.29 278.03
  Q 137.32 238.10 137.27 184.66
  A 0.40 0.39 -0.8 0 1 137.66 184.27
  L 166.78 184.23
  Q 173.51 190.46 180.41 197.09
  Q 181.35 197.99 181.90 199.12
  C 178.83 198.87 174.97 198.17 173.22 201.28
  Q 172.52 202.51 172.52 205.83
  Q 172.52 223.98 172.61 236.12
  A 0.67 0.66 -90.0 0 1 171.95 236.79
  Q 160.90 236.84 158.76 236.79
  C 154.51 236.69 151.53 237.52 151.53 242.25
  Q 151.54 276.50 151.52 277.25
  C 151.45 281.79 152.56 284.35 157.50 284.35
  Q 227.01 284.31 238.40 284.36
  C 242.82 284.38 245.35 283.51 245.41 278.74
  Q 245.50 270.24 245.41 260.48
  L 258.40 272.64
  A 1.64 1.51 12.8 0 1 258.80 273.22
  L 259.15 274.06
  C 258.32 278.36 258.62 285.83 265.06 284.06
  Q 266.81 283.58 267.48 282.24
  L 289.92 303.15
  A 0.82 0.82 0.0 0 1 289.89 304.38
  C 252.67 335.97 201.25 346.02 154.75 331.21
  C 118.11 319.54 87.77 293.38 70.46 259.07
  C 54.01 226.47 51.07 187.07 62.00 152.38
  Q 69.75 127.78 85.80 107.47
  A 1.25 1.24 -48.7 0 1 87.65 107.35
  L 122.70 141.69
  Z"
/>
<path fill="#111111" d="
  M 122.70 141.69
  L 129.69 148.31
  Q 122.87 152.98 116.76 157.26
  Q 114.87 158.58 114.41 159.95
  A 0.48 0.46 58.0 0 0 114.37 160.14
  Q 114.36 276.68 114.39 277.38
  Q 114.53 280.69 113.59 281.98
  C 110.75 285.86 106.40 284.73 104.73 280.46
  A 1.69 1.69 0.0 0 1 104.62 279.86
  L 104.62 166.80
  A 0.64 0.64 0.0 0 0 103.61 166.28
  L 94.81 172.46
  A 4.41 4.40 58.0 0 1 88.43 170.98
  L 88.25 170.65
  A 4.99 4.98 58.5 0 1 89.81 164.13
  L 122.70 141.69
  Z"
/>
<path fill="#111111" d="
  M 156.94 174.69
  L 166.78 184.23
  L 137.66 184.27
  A 0.40 0.39 -0.8 0 0 137.27 184.66
  Q 137.32 238.10 137.29 278.03
  Q 137.28 281.02 136.44 282.11
  C 133.19 286.32 127.64 284.01 127.64 278.98
  Q 127.64 204.65 127.62 180.36
  C 127.62 176.92 128.78 174.84 132.32 174.69
  Q 144.44 174.19 156.94 174.69
  Z"
/>
<path fill="#111111" d="
  M 268.36 225.86
  L 259.83 217.84
  A 1.85 1.82 13.9 0 1 259.33 217.03
  L 259.03 216.05
  L 258.92 185.12
  A 0.92 0.91 90.0 0 0 258.01 184.20
  L 225.64 184.13
  C 224.78 183.41 223.79 183.10 223.05 182.33
  Q 219.70 178.85 215.51 174.69
  Q 239.87 174.25 263.49 174.61
  Q 268.11 174.68 268.15 179.24
  Q 268.36 202.37 268.36 225.86
  Z"
/>
<path fill="#ffffff" d="
  M 259.03 216.05
  Q 258.75 216.12 258.27 215.99
  Q 257.92 215.89 257.61 215.60
  Q 241.77 200.34 226.12 184.88
  Q 225.63 184.39 225.64 184.13
  L 258.01 184.20
  A 0.92 0.91 -90.0 0 1 258.92 185.12
  L 259.03 216.05
  Z"
/>
<path fill="#111111" d="
  M 181.90 199.12
  Q 187.47 203.06 191.94 208.63
  L 182.86 208.61
  A 0.56 0.55 -0.0 0 0 182.30 209.16
  L 182.30 235.72
  A 0.82 0.82 0.0 0 0 183.12 236.54
  L 214.08 236.54
  A 0.60 0.60 0.0 0 0 214.67 236.06
  Q 215.13 233.89 214.75 231.45
  Q 215.34 231.28 215.68 231.58
  Q 224.12 239.13 230.85 246.45
  L 203.91 246.61
  A 0.56 0.56 0.0 0 0 203.36 247.17
  L 203.36 273.98
  A 0.66 0.66 0.0 0 0 204.02 274.64
  L 235.18 274.64
  A 0.54 0.54 0.0 0 0 235.72 274.10
  L 235.67 251.18
  L 245.41 260.48
  Q 245.50 270.24 245.41 278.74
  C 245.35 283.51 242.82 284.38 238.40 284.36
  Q 227.01 284.31 157.50 284.35
  C 152.56 284.35 151.45 281.79 151.52 277.25
  Q 151.54 276.50 151.53 242.25
  C 151.53 237.52 154.51 236.69 158.76 236.79
  Q 160.90 236.84 171.95 236.79
  A 0.67 0.66 90.0 0 0 172.61 236.12
  Q 172.52 223.98 172.52 205.83
  Q 172.52 202.51 173.22 201.28
  C 174.97 198.17 178.83 198.87 181.90 199.12
  Z
  M 193.4935 247.1383
  A 0.58 0.58 0.0 0 0 192.9145 246.5572
  L 161.7146 246.5028
  A 0.58 0.58 0.0 0 0 161.1336 247.0818
  L 161.0865 274.0417
  A 0.58 0.58 0.0 0 0 161.6655 274.6228
  L 192.8654 274.6772
  A 0.58 0.58 0.0 0 0 193.4464 274.0982
  L 193.4935 247.1383
  Z"
/>
<path fill="#ffffff" d="
  M 191.94 208.63
  Q 193.41 210.06 195.08 211.68
  Q 204.27 220.61 213.71 229.29
  Q 214.56 230.07 214.75 231.45
  Q 215.13 233.89 214.67 236.06
  A 0.60 0.60 0.0 0 1 214.08 236.54
  L 183.12 236.54
  A 0.82 0.82 0.0 0 1 182.30 235.72
  L 182.30 209.16
  A 0.56 0.55 0.0 0 1 182.86 208.61
  L 191.94 208.63
  Z"
/>
<rect fill="#ffffff" x="-16.18" y="-14.06" transform="translate(177.29,260.59) rotate(0.1)" width="32.36" height="28.12" rx="0.58"/>
<path fill="#ffffff" d="
  M 230.85 246.45
  Q 233.73 248.03 235.67 251.18
  L 235.72 274.10
  A 0.54 0.54 0.0 0 1 235.18 274.64
  L 204.02 274.64
  A 0.66 0.66 0.0 0 1 203.36 273.98
  L 203.36 247.17
  A 0.56 0.56 0.0 0 1 203.91 246.61
  L 230.85 246.45
  Z"
/>
<path fill="#111111" d="
  M 267.48 282.24
  Q 266.81 283.58 265.06 284.06
  C 258.62 285.83 258.32 278.36 259.15 274.06
  L 259.48 274.09
  A 0.95 0.95 0.0 0 1 260.07 274.39
  Q 263.13 277.73 266.61 280.62
  Q 266.95 280.90 267.48 282.24
  Z"
/>
</svg>
