<?xml version="1.0" encoding="UTF-8"?>
<svg width="694px" height="92px" viewBox="0 0 694 92" version="1.1" xmlns="http://www.w3.org/2000/svg" xmlns:xlink="http://www.w3.org/1999/xlink">
    <title>bai_logo_title</title>
    <defs>
        <filter x="-0.1%" y="-0.6%" width="100.2%" height="102.8%" filterUnits="objectBoundingBox" id="filter-1">
            <feOffset dx="0" dy="1" in="SourceAlpha" result="shadowOffsetOuter1"></feOffset>
            <feColorMatrix values="0 0 0 0 0   0 0 0 0 0   0 0 0 0 0  0 0 0 0.5 0" type="matrix" in="shadowOffsetOuter1" result="shadowMatrixOuter1"></feColorMatrix>
            <feMerge>
                <feMergeNode in="shadowMatrixOuter1"></feMergeNode>
                <feMergeNode in="SourceGraphic"></feMergeNode>
            </feMerge>
        </filter>
        <linearGradient x1="0%" y1="50%" x2="100%" y2="50%" id="linearGradient-2">
            <stop stop-color="#ECA203" offset="0%"></stop>
            <stop stop-color="#BF1D1B" offset="100%"></stop>
        </linearGradient>
        <linearGradient x1="0%" y1="50%" x2="100%" y2="50%" id="linearGradient-3">
            <stop stop-color="#ECA203" offset="0%"></stop>
            <stop stop-color="#BF1D1B" offset="100%"></stop>
        </linearGradient>
    </defs>
    <g id="Page-1" stroke="none" stroke-width="1" fill="none" fill-rule="evenodd">
        <g id="BWL-Front-Page-Access" transform="translate(-89, -2161)">
            <g id="bai_logo_title" filter="url(#filter-1)" transform="translate(90, 2161)">
                <text id="Bible-Access-Initiat" font-family="TrajanSansPro-Regular, Trajan Sans Pro" font-size="50" font-weight="normal" letter-spacing="-3.780769">
                    <tspan x="121.925385" y="67" fill="#A02D05">B</tspan>
                    <tspan x="150.944615" y="67" font-size="48" letter-spacing="-3.8" fill="#A02D05">ib</tspan>
                    <tspan x="187.072616" y="67" font-size="48" letter-spacing="-0.5" fill="#A02D05">le</tspan>
                    <tspan x="233.592615" y="67" font-size="48" fill="#A02D05"> </tspan>
                    <tspan x="246.456615" y="67" letter-spacing="-4" fill="#FDA400">A</tspan>
                    <tspan x="277.606615" y="67" font-size="48" letter-spacing="-4" fill="#FDA400">c</tspan>
                    <tspan x="307.254615" y="67" font-size="48" letter-spacing="-1" fill="#FDA400">ce</tspan>
                    <tspan x="363.526615" y="67" font-size="48" letter-spacing="-0.6" fill="#FDA400">ss</tspan>
                    <tspan x="407.110615" y="67" font-size="48" fill="#A02D05"> </tspan>
                    <tspan x="419.974615" y="67" letter-spacing="-2" fill="#A02D05">Initiative</tspan>
                </text>
                <g id="bwl_logo_no_title">
                    <g id="Group" fill-rule="nonzero">
                        <ellipse id="Oval" fill="#D1D1D1" cx="44.495401" cy="45" rx="44.495401" ry="45"></ellipse>
                        <g transform="translate(0.9652, 3.4662)" fill="#A02D05" id="Path">
                            <path d="M51.1769776,82.1378949 C50.8469988,81.8640578 50.5164451,81.5908017 50.1490993,81.2861504 C50.5359908,80.8913835 50.5083968,80.5919649 50.2123356,80.2431276 C49.7662319,79.7175457 49.297708,79.1855692 48.9809513,78.5809183 C48.6975374,78.0396388 48.4974807,77.4018484 48.4601137,76.79429 C48.4244714,76.2082436 48.2445352,75.7588252 47.8898367,75.3373136 C47.6932291,75.1041739 47.5403121,74.8192904 47.3080622,74.6338252 C46.7147902,74.159988 46.743534,73.584988 47.0154503,72.991383 C47.2896662,72.3925458 47.5564086,71.7878949 48.1312846,71.3762672 C48.6630449,70.9960346 48.6526971,70.7652202 48.3681335,70.1844066 C48.2698297,69.9838248 48.3209937,69.7070808 48.3117957,69.4646389 C48.3094962,69.3960341 48.3704331,69.3024294 48.342839,69.2605693 C47.9030589,68.5983601 47.8202767,67.7251042 47.1315753,67.2076626 C46.6038391,66.8111506 46.0933492,66.3908018 45.5863087,65.967546 C45.4402901,65.8460343 45.3333632,65.6768483 45.3661311,65.5471971 C45.533995,65.1198715 45.7018587,64.692546 45.8702974,64.2652204 C45.9869972,63.9692902 46.1847545,63.6780111 46.1985515,63.3774297 C46.2100491,63.1256855 46.0749533,62.7844065 45.8869688,62.6221971 C45.4190197,62.2181274 44.8481679,62.1053367 44.2319008,62.2710344 C43.957685,62.3448716 43.6690972,62.3634762 43.3868332,62.4041739 C42.8993384,62.4739413 42.5250941,62.345453 42.2790471,61.8640576 C41.9306723,61.183825 41.2885358,61.0535925 40.6009841,61.0152204 C39.2126586,60.9373134 37.8823956,61.2797553 36.5498331,61.5855693 C36.0629132,61.6971971 35.6173842,61.6948716 35.1419618,61.5303367 C34.0617699,61.1564995 32.9614572,61.0588251 31.8232028,61.2890576 C31.4914993,61.3559181 31.0379222,61.2861506 30.7665808,61.0960343 C29.5380708,60.2355693 28.350377,59.3140576 27.1586591,58.4001042 C26.9787229,58.2623134 26.7832651,58.0721972 26.7188789,57.8663832 C26.3969484,56.8309181 25.592122,56.1803367 24.9028457,55.4349879 C24.5418236,55.0448716 24.1704538,54.6628948 23.8312769,54.2541739 C23.6996303,54.095453 23.6237467,53.8791739 23.5559113,53.6780111 C23.3932214,53.1937088 23.2489275,52.7030111 23.1006095,52.2134762 C23.0758899,52.1314995 23.0442717,52.039639 23.0569189,51.958825 C23.1477494,51.3611506 23.2862945,50.7681274 23.3351589,50.167546 C23.3725259,49.7094065 23.3190624,49.239639 23.2713477,48.7791739 C23.2224832,48.3024297 23.1454499,47.8274297 23.0534697,47.3570809 C23.0132284,47.1512669 22.9488423,46.9192902 22.8177705,46.7692902 C22.3963864,46.2878948 22.4814681,45.7756855 22.6591048,45.2466158 C23.0505953,44.0785925 23.436912,42.9082436 23.8496729,41.7471972 C23.9548752,41.4506855 24.1468838,41.1855692 24.3061245,40.9094064 C24.3590131,40.8169646 24.470539,40.7448716 24.4906596,40.6495227 C24.67462,39.7838251 25.3213554,39.3611506 25.9606175,38.8442901 C26.8373034,38.1361507 27.4357493,37.2326623 27.4598941,35.9460344 C27.4817394,34.7692902 28.0796104,33.7024297 29.0833439,33.0437088 C29.9013924,32.5070809 30.4710945,31.8262669 30.8723579,30.9588251 C30.9626135,30.7640576 31.0379222,30.5297553 31.1925639,30.4082436 C31.3063893,30.3192902 31.6127982,30.3059181 31.7042035,30.3948716 C32.0313079,30.7128949 32.378533,30.7274297 32.7907191,30.6553367 C33.2057795,30.5826623 33.6323375,30.5814995 34.0531468,30.539639 C34.297469,30.5152204 34.57111,30.5355693 34.7774904,30.4285925 C35.5156313,30.0471972 36.2313518,29.620453 36.9551207,29.2105692 C37.0172073,29.1756855 37.0712456,29.120453 37.1367815,29.0983599 C38.6757245,28.5849878 40.2198414,28.0995227 41.8766339,28.289639 C42.0169037,28.3059181 42.1703956,28.3634762 42.2957185,28.3256856 C43.1885009,28.0582436 44.0870321,28.0739413 44.9987854,28.192546 C45.2551801,28.2256855 45.5472171,28.1948716 45.7875153,28.1006856 C46.3462947,27.8814995 46.8378137,27.8262669 47.3143858,28.3030111 C47.429361,28.4181274 47.7116252,28.3611507 47.9272037,28.3844065 C47.9335273,28.3995228 47.9657204,28.4501041 47.9576721,28.4570809 C47.5069693,28.8844064 47.5052447,29.2820809 47.9743435,29.7163832 C48.2646559,29.9849878 48.1950958,30.3001041 47.9197303,30.5658018 C47.7909581,30.6902204 47.6564371,30.808825 47.5259402,30.9314995 C47.2747194,31.1681274 47.2511495,31.3913832 47.5788288,31.5756855 C48.2629312,31.9611507 48.9476085,32.3466158 49.6380346,32.7210344 C49.7604831,32.7873135 49.9105258,32.839639 50.0467714,32.8361506 C50.8280278,32.8158018 51.517879,33.1001042 52.1571411,33.5041739 C52.4238836,33.6727785 52.7113215,33.9140576 52.8314706,34.1919646 C53.0562471,34.7099878 53.4080712,35.0082437 53.9254596,35.1221972 C54.6434798,35.2803367 55.2373266,35.642546 55.7903573,36.1227785 C55.972593,36.2809181 56.3928274,36.4309181 56.5072276,36.3378949 C56.7331539,36.1541739 56.8303079,35.8018483 56.9590802,35.5094064 C56.9883988,35.442546 56.93666,35.3344065 56.9125152,35.2477785 C56.7739701,34.7477785 56.7164825,34.2855692 57.3034309,34.0099878 C57.9133743,33.7233599 58.5394143,33.8623134 58.9596486,34.3181274 C59.2108694,34.5908018 59.5569448,34.7745227 59.8633536,34.9931274 C60.0766326,35.145453 60.2968101,35.2884762 60.5118138,35.4390576 C60.5974702,35.4989413 60.6676052,35.5902204 60.7601602,35.6303367 C61.3741277,35.8960343 62.0001676,36.1361507 62.6066618,36.417546 C62.9590608,36.5809181 63.2568466,36.6355692 63.5942988,36.370453 C63.9898134,36.0594064 64.3790045,36.0623134 64.7957896,36.4239414 C65.3942354,36.942546 66.0967339,36.7099878 66.2151584,35.9332436 C66.3985438,34.7338251 66.7825609,33.5390576 66.425563,32.3012669 C66.3738241,32.1221971 66.4186644,31.9140576 66.4186644,31.7262669 C65.9702612,31.6419646 65.5684229,31.4809181 65.1717585,31.8832436 C65.0780536,31.9785925 64.6279257,31.789639 64.3916518,31.6477785 C64.0702961,31.4547553 63.7966551,31.1803367 63.4844974,30.9256855 C63.1372724,31.6140576 62.9671091,31.6314995 62.5106575,31.1687088 C62.3525666,31.0088251 62.1220413,30.9221972 61.961651,30.7640576 C61.6684642,30.4751041 61.391374,30.167546 61.1298054,29.84836 C60.9314732,29.6064995 60.7687833,29.3355692 60.5670018,29.0442902 C60.7371651,28.6797553 60.612417,28.2495227 60.2513949,27.9221972 C60.1341202,27.8158018 60.0714587,27.5948716 60.0674346,27.4239414 C60.0507632,26.7890576 58.9924165,26.1349878 58.4451346,26.4605692 C58.3341836,26.5262669 58.3094638,26.739639 58.2295561,26.9192901 C58.0266249,26.8251041 57.7782785,26.7094065 57.428179,26.5466157 C57.4810676,26.7640576 57.4747439,26.9192901 57.5477532,27.0070808 C57.9214226,27.4570808 58.091011,28.0547553 58.6405924,28.3878948 C59.0079382,28.6105693 58.9757451,28.7041739 58.7889104,29.0937087 C58.6336939,29.0378948 58.4750281,28.9809181 58.3106136,28.9216158 C58.2835945,29.2971971 58.2582999,29.6460344 58.2249571,30.1134762 C57.9593644,29.9692902 57.6081152,29.8867321 57.4448504,29.6640576 C57.2005281,29.3303367 57.0878524,28.8977785 56.9205635,28.5064995 C56.8808971,28.4140576 56.8653754,28.3012669 56.8032888,28.2291739 C56.2330118,27.5652204 55.6322664,26.9256855 55.0941825,26.236732 C54.9366665,26.0349878 54.9763329,25.6861506 54.8780291,25.4233599 C54.7711022,25.1373135 54.6785472,24.7710343 54.4583697,24.6163832 C53.6161764,24.0245228 52.714196,23.520453 51.8582056,22.9471972 C51.4799372,22.6942902 51.1436347,22.3698715 50.8171052,22.0477785 C50.5923287,21.8262669 50.4169915,21.5541739 50.2014131,21.2814995 C49.8087727,21.6413832 49.6150396,21.5832437 49.3712921,21.136732 C49.2718386,20.9553367 48.7487014,21.0105692 48.4026261,20.9559181 C48.3250179,21.7588251 48.6170549,22.1623134 49.176984,22.4652204 C49.4776441,22.6274297 49.7001212,22.9384762 49.9565158,23.1832437 C50.2261327,23.4402204 50.4537836,23.8344065 50.7711152,23.9314995 C51.8012929,24.2483599 52.486545,25.111732 53.4402643,25.5378949 C53.7397747,25.6716158 53.9766236,25.9489413 54.2422163,26.1599878 C54.206574,26.2105692 54.1709317,26.2605693 54.1352894,26.3111506 C53.7633446,26.0948715 53.3913999,25.8785925 53.0137063,25.658825 C52.695225,25.9966158 52.5503563,26.2768483 53.024629,26.5384762 C53.2850478,26.6820809 53.3344871,26.8727785 53.1229328,27.1024297 C52.8406687,27.4088251 52.7337417,27.9547553 52.1174747,27.8221971 C52.060562,27.8099878 51.8921233,28.1309181 51.8478578,28.314639 C51.8104909,28.470453 51.8789011,28.6524297 51.9001715,28.8221972 C51.8570558,28.8710344 51.8145151,28.9192902 51.7713993,28.9681274 C50.9723217,28.5535925 50.1726692,28.1384762 49.3735916,27.7239413 C49.381065,27.6512669 49.3891133,27.5791739 49.3965867,27.5064995 C49.6305612,27.486732 49.8651106,27.4431274 50.0979354,27.4524297 C50.7492699,27.4774297 51.402329,27.5669646 52.0490644,27.5332437 C52.2088799,27.5251041 52.5210376,27.0559181 52.4675742,26.9483599 C52.2692419,26.5471972 51.9818039,26.1739413 51.6627478,25.8564995 C51.3643872,25.5594065 50.9999157,25.320453 50.6377439,25.1012669 C49.7886521,24.5878948 48.8912706,24.1489413 48.0760965,23.5867321 C47.563882,23.2338251 47.1321502,22.7408018 46.7234133,22.258825 C46.36814,21.839639 45.4397153,21.6134762 44.9418727,21.845453 C43.8634053,22.3483599 42.789537,22.8844065 41.5305586,22.4111507 C41.26899,22.3128948 40.9079679,22.4187088 40.6113319,22.4995227 C40.2612324,22.5948715 40.0749726,22.8547553 40.1824745,23.2442902 C40.281928,23.6053367 40.1060159,23.7797553 39.8001819,23.8948716 C39.549536,23.9884762 39.3144117,24.1419646 39.0574422,24.1966158 C38.116945,24.3983599 37.5535665,25.1192901 36.9309759,25.7512669 C36.8068027,25.8774297 36.7119481,26.1867321 36.7797835,26.3216157 C36.9413237,26.642546 36.8338218,26.8227786 36.6130695,27.0181274 C35.9922034,27.567546 35.3880088,28.136732 34.7481718,28.6623134 C34.5854819,28.795453 34.3170148,28.8128948 34.0922383,28.8489413 C33.1902579,28.9931274 32.2917267,29.1216157 31.590378,29.8198716 C31.5236924,29.8861506 31.1028832,29.7669646 31.0678158,29.6599879 C30.8493629,28.9931274 30.4383266,28.9809181 29.8904697,29.1919646 C29.6639686,29.2791739 29.4069991,29.2849878 29.07817,29.342546 C29.1161118,29.0431274 29.152329,28.8030111 29.1741743,28.561732 C29.1868215,28.4233599 29.2333865,28.2128948 29.1644014,28.1541739 C28.7510655,27.8001042 28.9700933,27.4814995 29.1827974,27.1599878 C29.7904414,26.242546 30.02844,25.2442902 29.88932,24.1437087 C29.8737984,24.0210344 30.0267153,23.7913832 30.1474393,23.7506855 C30.7958995,23.5314995 31.4478088,23.2803367 32.1186891,23.1844065 C33.1574899,23.0361506 34.2118125,22.995453 35.2609612,22.9268483 C35.9329912,22.8826623 36.1744391,22.7163832 36.3900176,22.0652204 C36.4802731,21.792546 36.5693789,21.5181274 36.642963,21.2402204 C36.7516146,20.8297553 36.6671078,20.6064995 36.3106847,20.2349879 C35.7524801,19.6530111 35.1885268,19.5035925 34.4814293,19.4716158 C34.3745024,19.4669646 34.2767735,19.2588251 34.1750204,19.1448716 C34.1922667,19.0797553 34.2089381,19.0152204 34.2261844,18.9501041 C35.0166389,18.8628948 35.8070933,18.7762669 36.6274414,18.6861507 L36.6274414,17.995453 C36.782083,18.0210343 36.912005,18.0326623 37.036753,18.064639 C37.4466396,18.1698716 37.8318065,18.2239414 38.1750075,17.8634762 C38.2865335,17.7460344 38.4980878,17.7309181 38.6573284,17.6547553 C38.8476124,17.5634762 39.1574706,17.4902204 39.1936878,17.3501042 C39.3425807,16.7751042 39.8381238,16.8291739 40.2204163,16.6419646 C40.843007,16.336732 41.4242065,15.9466157 42.0226525,15.5919646 C41.9990826,15.5541739 41.9755126,15.5158018 41.9519427,15.4780111 C42.1014104,15.5355692 42.2503033,15.5931274 42.3997711,15.6501042 C42.42794,15.5064995 42.456109,15.3628948 42.5038236,15.1192902 C43.1488345,15.0564995 43.8243138,14.970453 44.5020925,14.9320809 C44.9481963,14.9064995 45.1195094,14.7192902 44.977515,14.2762669 C44.9073801,14.0582437 44.8222985,13.8274297 44.6820287,13.6530111 C44.2600698,13.1280111 44.4095375,12.6437088 45.0476499,12.49836 C45.3546336,12.4280111 45.6506947,12.3059181 45.9312343,12.2140576 C46.0163159,12.5134762 46.0962237,12.7931274 46.1882038,13.117546 C46.1617595,13.1361506 46.0266636,13.2001041 45.9329589,13.3018483 C45.7823414,13.4652204 45.5104251,13.7274297 45.5541156,13.8187088 C45.6650666,14.0524297 45.9070894,14.236732 46.1243926,14.4030111 C46.8671323,14.9710343 47.6403405,14.5134762 48.394003,14.4384762 C48.7142089,15.0187088 49.2453942,14.9611507 49.7512852,14.9030111 C50.299142,14.839639 50.8389505,14.689639 51.3873822,14.6460343 C51.6414774,14.6256855 51.9375385,14.7163832 52.1628899,14.8483599 C52.472748,15.0297553 52.7130462,15.0861507 53.0435999,14.8768483 C53.2574537,14.7413832 53.5586887,14.7477785 53.8978656,14.6739413 C53.8518755,14.5169646 53.7627697,14.3274297 53.7478229,14.1326622 C53.7248279,13.8256855 53.6679152,13.4785925 53.7794412,13.2152204 C53.9168365,12.8919646 54.243366,12.7785925 54.5790936,13.033825 C54.7216628,13.1419646 54.8400873,13.3111506 54.9976033,13.3617321 C55.2074331,13.4291739 55.4454318,13.4082437 55.6707831,13.4256855 C55.5960493,13.1570809 55.5701798,12.8576623 55.4322096,12.6280111 C55.2976886,12.4047553 55.0481925,12.2524297 54.8492853,12.0692901 C54.8849277,12.0088251 54.92057,11.9477785 54.9567871,11.8873134 C55.4983203,11.8873134 56.0818194,11.7570809 56.5721887,11.9181274 C57.2994068,12.1564995 57.9582146,11.94836 58.6739352,11.8762669 C57.9323452,11.2640576 57.0976253,11.1570809 56.2036932,11.267546 C55.2723941,11.3832437 54.2933802,11.4582437 53.5903069,10.7314995 C53.247106,10.3762669 53.1436283,9.7535925 53.0240541,9.23033666 C52.9970349,9.11231341 53.3379364,8.87859248 53.5385681,8.742546 C54.0387102,8.40301112 54.5675961,8.10649947 55.0545161,7.75010411 C55.1447716,7.68440646 55.1700661,7.34835996 55.0907332,7.25708088 C54.7383342,6.85301111 53.3477093,6.80708088 52.9728901,7.167546 C52.8653883,7.27103438 52.7239688,7.48556926 52.7630604,7.5745227 C52.9935857,8.09777854 52.55668,8.15359251 52.2887877,8.29080181 C51.8317613,8.52394137 51.3569138,8.72219713 50.8826411,8.91870877 C50.4296388,9.10649948 50.4514841,9.54719717 50.4819525,9.88033667 C50.5032229,10.108825 50.8015836,10.3344065 51.0137128,10.5152204 C51.225842,10.6960343 51.485686,10.8198716 51.8903987,11.0716158 C51.4736135,11.3192902 51.1942238,11.5535925 50.8740179,11.6576622 C50.544614,11.764639 50.3934216,11.9094065 50.410093,12.2599879 C50.4204408,12.4733599 50.4003201,12.6942902 50.3526054,12.9024297 C50.2732725,13.2518483 50.095061,13.4780111 49.6771261,13.420453 C49.3597946,13.3768483 49.070632,13.392546 48.8562032,13.7553367 C48.7044359,14.011732 48.0996665,13.8198715 47.7915329,13.4349878 C47.624244,13.6652204 47.4632787,13.8861506 47.2701204,14.1518483 C47.0424695,13.9716158 46.8406881,13.8123134 46.5785446,13.6047553 C47.0459187,13.4384762 47.4379842,13.2989413 47.842122,13.1547553 C47.2339032,12.3628948 46.6854715,11.6483599 46.136465,10.9332437 C44.9596938,11.3739413 43.8812265,12.4082436 42.5434901,11.3460344 C42.6067265,11.2553367 42.6797357,11.1506855 42.7918365,10.9908018 C42.5958038,10.9809181 42.4676064,10.9739413 42.3348101,10.9669646 C42.2784723,10.4431274 42.200864,9.93440646 42.1818931,9.42394137 C42.1761443,9.26696458 42.28882,9.02452271 42.4164425,8.95824369 C42.8671452,8.72335994 43.3454421,8.54080179 43.8179901,8.35184834 C44.6693815,8.01056921 45.5236471,7.7378948 46.2824835,7.13091808 C46.6343075,6.84952273 46.9573879,6.51056925 47.3115115,6.22568552 C47.7869339,5.84429017 48.1652023,5.3408018 48.6055573,4.91115064 C48.7073104,4.81173204 48.8941451,4.80475529 49.0384389,4.74661576 C49.1551387,4.69894134 49.2660898,4.63789483 49.3649684,4.51754599 C48.9924489,4.47103436 48.5532436,4.73091808 48.3859547,4.16289483 C48.6871897,4.02277855 48.9631302,3.94487157 49.2655149,4.21173204 C49.5265086,4.4419646 49.8156712,4.39312739 50.0985102,4.0908018 C49.9829602,4.01173204 49.886381,3.94545297 49.7898018,3.8791739 L49.8012993,3.76987157 L50.6090001,3.76987157 C50.5750824,3.74022041 50.5417396,3.71115064 50.5078219,3.68149948 C50.6452173,3.52684832 50.7831875,3.37277855 50.9177085,3.22161576 C51.5058067,3.66347622 52.0013498,3.63673204 52.5635784,3.27277855 C52.8734366,3.07219715 53.2994197,3.05184831 53.6748137,2.95824367 C54.0737777,2.85882506 54.475041,2.76870878 54.9504635,2.65708088 C54.7981213,2.93615064 54.6923442,3.13033669 54.586567,3.32452274 C54.6112867,3.34894134 54.6354315,3.37335994 54.6601511,3.39777855 C54.8774543,3.23731343 55.0947574,3.07684832 55.3275822,2.90475529 C55.4276105,3.01929017 55.5126922,3.11812738 55.6006482,3.21870878 C56.1525292,2.64312738 56.2502581,2.64312738 56.4773341,3.19312738 C57.057384,2.87335994 57.4460001,3.3413832 57.9156738,3.47684831 C57.9139492,3.5280111 57.9122245,3.57975529 57.9104999,3.63091809 C57.6615786,3.65649948 57.4132322,3.68208088 57.0050703,3.72394134 C57.5644246,4.06812739 58.0616923,4.16289483 58.5693078,4.12510413 C58.8532966,4.1041739 59.0533534,3.97742971 59.1671788,4.40824367 C59.2091448,4.5663832 59.6604224,4.62219715 59.9294644,4.70940645 C60.4991665,4.89370878 61.094738,5.0158018 61.6374209,5.25940646 C62.3514169,5.58033669 63.0516158,5.95242971 63.7041,6.38498785 C63.996137,6.5785925 64.158827,6.97219717 64.3807291,7.27510412 C64.0743202,7.45533671 63.7863073,7.70766226 63.4557536,7.79429014 C63.1671659,7.86987154 62.8113176,7.81812738 62.5181309,7.72103438 C61.4592094,7.37045294 60.4140848,6.97742973 59.3206707,6.63091808 C59.6759441,6.88615065 60.0507632,7.1181274 60.3778676,7.40591812 C60.5526299,7.55940647 60.6808273,7.79429014 60.7664838,8.01696459 C60.9308984,8.44719716 61.0004583,8.91580177 61.5408418,9.08208087 C61.7702173,9.1524297 61.9530278,9.36987159 62.1812536,9.45649947 C62.4066049,9.54254599 62.6618499,9.54835992 62.9044476,9.58905759 C62.9245682,9.53382506 62.9446889,9.47859253 62.9648096,9.42335993 C62.6561012,9.19312737 62.3473927,8.96231344 61.9208348,8.6437088 C62.8251147,8.42394136 63.3344548,9.417546 64.149629,9.07394131 C64.0225814,8.8506855 63.9145046,8.65940648 63.8081526,8.47161577 C64.8274077,7.70068551 65.1343915,7.66580178 66.0403961,8.22103435 C66.239878,7.90184834 66.3899206,7.61173206 66.0277488,7.28440643 C65.9357687,7.20126691 65.9116238,7.01987158 65.8943775,6.87859253 C65.8581603,6.58382506 65.8478126,6.28615064 65.827117,6.00126692 C66.7837107,6.04545297 66.8555702,6.07626692 67.2970752,6.7158018 C67.125762,6.75242973 66.9762941,6.77045297 66.8371742,6.81812738 C66.7107015,6.86115067 66.5945765,6.93615062 66.4307369,7.01870876 C66.7457689,7.41870879 67.0148108,7.8024297 67.5195518,7.75184829 C67.7161594,7.73208087 67.9018444,7.53382504 68.0771814,7.39719718 C68.2082531,7.29545299 68.2939097,7.11463903 68.4364794,7.04952275 C70.1490348,6.27045297 70.1639812,6.25882506 71.5781767,7.49429019 C80.02023,14.8692902 85.1619212,24.1187088 86.9147181,35.2663832 C87.8006016,40.9018483 87.5965205,46.5152204 86.3789332,52.0873134 C86.3191463,52.3599878 86.2007218,52.6280111 86.0656263,52.8733599 C85.7965839,53.3628948 85.4970734,53.3628948 85.2607997,52.845453 C85.107308,52.5088251 85.0802884,52.1158018 84.9664629,51.7570808 C84.6364843,50.7140576 84.2162502,49.6931274 83.9742274,48.6297553 C83.748301,47.6384762 83.6965623,46.6047553 83.5838867,45.5884762 C83.5390462,45.1838251 83.5373216,44.7745227 83.5172009,44.3873134 C83.2366612,44.6739413 82.9158808,45.1849879 82.7439923,45.1378948 C82.4128638,45.0471971 82.1656674,44.6413832 81.8546597,44.3378948 C82.1012815,44.1570809 82.2593722,44.0413832 82.4715015,43.8861507 C81.4637436,43.5948716 81.1918275,42.7437088 80.7652697,42.0001041 C80.1869441,42.0599879 79.6034449,42.192546 79.0285691,42.1611506 C78.3801087,42.1256855 77.7304989,41.97336 77.1010099,41.8001041 C76.9590156,41.7611507 76.8595618,41.4326623 76.8066732,41.2210344 C76.6652541,40.6570809 76.5387814,40.5751041 76.1150974,40.9344065 C75.7029114,41.2844065 75.4252462,41.0431274 75.1493063,40.7832437 C74.5589082,40.2268483 74.0817616,39.5919646 73.9075739,38.7698716 C73.8253664,38.3826623 73.5752955,38.092546 73.2068001,38.2373134 C72.8860189,38.3634762 72.6721651,38.6890576 72.8802706,39.1274297 C73.1556359,39.7076623 73.4137557,40.2995227 73.6293341,40.9047553 C73.7753522,41.3158018 73.8351398,41.7582437 74.033472,42.189639 L74.222606,41.6349878 C74.2714703,41.6378948 74.3203345,41.6408018 74.3697741,41.6437088 C74.3697741,41.8942902 74.3375808,42.1506855 74.3789722,42.3948715 C74.4197883,42.636732 74.5514346,43.0727785 74.6123721,43.067546 C74.9848913,43.0338251 75.4493914,43.2535925 75.7075104,42.761732 C75.905268,42.3849879 76.1323437,42.0239413 76.4255305,41.5187088 C76.4605983,41.9158018 76.4818683,42.1559181 76.5037136,42.395453 C76.5405059,42.8041739 76.7273408,43.095453 77.1061836,43.2803367 C77.7241753,43.5820809 77.9707971,44.2628948 77.676461,44.8768483 C77.5327421,45.1768483 77.3183129,45.4413832 77.1389516,45.7239413 C77.0918119,45.79836 77.0211023,45.8780111 77.0176532,45.9582437 C76.9825854,46.7309181 76.3674682,47.1262669 75.9995474,47.689639 C75.7132594,48.1285925 75.3171697,48.2495227 74.9785677,48.5245227 C74.7434432,48.7152204 74.5790289,48.9954529 74.3881703,49.2402204 C74.3128617,49.336732 74.2743448,49.4774297 74.1812146,49.542546 C73.2631378,50.1814995 72.334713,50.8041739 71.4154863,51.4408018 C71.1516182,51.6233599 70.9164944,51.8471972 70.6526264,52.0297553 C70.3513914,52.2384762 70.1254649,52.1652204 70.1122424,51.7756855 C70.0898225,51.1303367 70.1030443,50.4832437 70.1036196,49.8373134 C70.1036196,49.6756855 70.1611073,49.495453 70.1093679,49.3547553 C69.7351242,48.339639 69.6121006,47.2320809 68.9400703,46.3221972 C68.7359898,46.045453 68.6463088,45.6216158 68.6457342,45.264639 C68.6434343,44.4111506 68.5416814,43.6314995 67.951284,42.9471972 C67.7518019,42.7158018 67.7880189,42.292546 67.6575225,41.9826623 C67.316046,41.1727785 66.9377774,40.3785925 66.5848036,39.5733599 C66.5083451,39.39836 66.4778767,39.2024297 66.4048674,38.9373134 C66.3215104,39.2123134 66.2542499,39.4332437 66.1869894,39.6541739 C66.138125,39.6785925 66.0892605,39.7030111 66.0403961,39.7280111 C65.7759531,39.1751042 65.5115101,38.6216158 65.2476421,38.0687088 L65.1384156,38.1070809 C65.2648883,38.4751041 65.3936606,38.842546 65.5166841,39.211732 C65.9639375,40.5588251 66.4985722,41.8855693 66.8136043,43.2640576 C66.9544488,43.8803367 67.1366846,44.4309181 67.3787074,45.0053367 C67.5908367,45.5088251 67.5839378,46.1291739 67.5804887,46.6977785 C67.5770395,47.3134762 67.6770679,47.8349878 68.0455633,48.3640576 C68.2760888,48.6948715 68.2893106,49.2105693 68.3151804,49.64836 C68.3439239,50.1326622 68.510638,50.4547553 68.8802834,50.7931274 C69.3177638,51.1937088 69.6149751,51.7547553 69.9524272,52.2599878 C70.0104895,52.3466158 70.0208375,52.5489413 69.9621999,52.617546 C69.6391196,52.9937088 69.9374801,53.2681274 70.1231651,53.5140576 C70.2099716,53.6291739 70.5077575,53.6971971 70.6480273,53.6373134 C71.4005399,53.317546 72.1375308,52.9576622 72.8722225,52.5960344 C73.1038972,52.4820809 73.3108528,52.3181274 73.6678503,52.0878949 C73.5729963,52.6001041 73.5637982,53.0163832 73.4172048,53.3756855 C72.4795819,55.6768483 71.4907955,57.9349879 69.5827818,59.6530111 C68.7515109,60.4012669 68.1312199,61.3838251 67.3453648,62.1902204 C66.5951514,62.9599879 66.0754635,63.8727786 65.5500268,64.7861506 C65.4390758,64.9791739 65.5000126,65.2739413 65.4833412,65.5221971 C65.4718437,65.689639 65.4787422,65.8599878 65.4488487,66.0239414 C65.3551439,66.5332436 65.2119997,67.0297553 65.5960169,67.5076622 C65.6868473,67.6210346 65.6207366,67.8803367 65.5960169,68.0681271 C65.525882,68.6012669 65.4339019,69.1320809 65.3608926,69.6652207 C65.2510913,70.4681275 64.6468967,70.8687088 64.0748951,71.2919647 C63.2321269,71.9163833 62.3732622,72.5181274 61.5437161,73.1599879 C61.4103449,73.2634765 61.3517076,73.5192901 61.3367608,73.7105689 C61.3223889,73.9001042 61.4172434,74.0954533 61.4465621,74.2913833 C61.5793584,75.1646392 61.2907707,75.683825 60.4945675,76.0344066 C60.2663417,76.1349876 60.0300677,76.2285923 59.8254118,76.3681272 C59.7081372,76.4483602 59.5667176,76.6181271 59.574191,76.7390575 C59.6173067,77.46929 59.198797,77.9419646 58.7406209,78.4076622 C58.2013872,78.9564997 57.6908973,79.5355691 57.1326927,80.0634762 C56.0789451,81.0605694 54.8343385,81.5524295 53.3707043,81.6041741 C52.7049979,81.6274297 52.0496393,81.9477786 51.3896817,82.1332438 L51.1758278,82.1332438 L51.1769776,82.1378949 Z"></path>
                            <path d="M0.000574877108,51.6966158 C0.689851181,52.5588251 1.31934038,51.6192902 1.91203752,51.8210344 C2.12186725,51.9878948 2.30927681,52.2111507 2.5467006,52.308825 C2.95601229,52.4774297 2.96118618,52.7442902 2.77435148,53.1094065 C3.52571439,53.1338251 3.88558676,53.5535925 4.21384094,54.1256855 C4.49150604,54.6088251 4.89391923,55.0187088 5.57342263,55.017546 C6.46965429,55.0158018 7.50730544,55.9035925 7.84648227,56.8163832 C7.99997413,57.2297553 8.25234469,57.6059181 8.3954888,58.0216157 C8.45757542,58.2012669 8.40756124,58.4617321 8.3213298,58.6437088 C8.13507001,59.0361506 7.89247237,59.4006855 7.67229484,59.7768483 C7.70851203,59.8099879 7.74530411,59.8431274 7.78152129,59.8756855 C7.91719201,59.8256856 8.05286273,59.7751041 8.18278474,59.7268483 C8.67832784,60.4687088 8.88528319,60.4780111 9.56593629,59.8501041 C9.65159283,59.7710343 9.85912308,59.7152204 9.9424801,59.764639 C10.536327,60.1192902 11.2583712,60.3384762 11.4607275,61.0739414 C12.6708415,61.4640576 13.8930278,61.7064995 14.7748876,62.7448716 C15.0801468,63.1041739 15.5940858,63.276267 15.9890257,63.5663832 C16.1649377,63.695453 16.3201542,63.8861506 16.4196078,64.0832437 C16.8938804,65.0245227 17.1272801,65.9489413 16.1626382,66.7640576 C16.0235182,66.8820809 15.964306,67.0995228 15.8757751,67.2751042 C15.811389,67.403011 15.7935679,67.612895 15.6969887,67.6576626 C15.0387556,67.9628949 15.3405655,68.4599877 15.4302462,68.9088251 C15.6527232,70.021616 15.6004095,71.1024294 15.0945186,72.1367322 C14.921481,72.4913833 14.9732198,72.96929 14.5317151,73.1780114 C14.4155901,73.2326622 14.2873928,73.3774299 14.1977121,73.3541736 C13.2692874,73.1123134 12.5834604,73.7634762 11.7004508,74.0012669 C5.73151353,67.7454529 1.80741009,60.339639 0,51.6971971 L0.000574877108,51.6966158 Z"></path>
                            <path d="M9.83382854,12.4971972 C10.3420189,11.9326623 10.8663058,11.3227786 11.4187616,10.7402204 C15.3767827,6.56987157 19.9481965,3.27045297 25.1485246,0.866964596 C25.4928753,0.707662272 26.3264455,0.822778545 26.509831,1.13615064 C26.6173328,1.31929018 26.5293768,1.61929018 26.5293768,1.8663832 L26.356914,1.97510413 C25.8820664,1.68324367 25.406644,1.3913832 24.9076516,1.08440646 C25.0157283,2.08208087 25.9200082,1.98266227 26.4971837,2.38324367 C26.4626912,2.44835994 26.4213001,2.5280111 26.3793341,2.60708087 C26.4287735,2.59545297 26.4782128,2.58440645 26.528227,2.57277855 C26.6035357,2.86522041 26.6788445,3.15766227 26.7581774,3.4658018 C26.3747351,3.53731343 26.0844227,3.63033669 25.7946853,3.63033669 C25.6325702,3.63033669 25.378475,3.51463901 25.3261613,3.38498785 C25.1565729,2.96522041 24.8421158,2.84370878 24.3436983,2.7791739 C24.377616,3.03847622 24.4063598,3.25824367 24.4460262,3.55766227 C24.26609,3.64835994 24.0275165,3.76812738 23.7889429,3.88789483 C23.7912425,3.92277855 23.793542,3.95824367 23.7964163,3.99312738 L26.0533795,3.99312738 C24.3166791,5.28149948 22.5288148,6.07161575 20.3856772,6.33498785 C19.4469047,7.29545299 18.620233,8.65417392 16.9553922,8.970453 C17.0243773,8.80475527 17.0899132,8.64835992 17.155449,8.49080182 C16.5213608,8.94080182 15.8866977,9.39080182 15.2163924,9.86638318 C15.2664065,9.94952276 15.3451646,10.0803367 15.4773861,10.2989413 C15.1387841,10.7948715 14.7708634,11.3262669 14.4127157,11.8640576 C14.3126873,12.0140576 14.2293303,12.1791739 14.1614949,12.3466157 C13.9556893,12.8570809 13.8384146,13.42336 13.5458027,13.8745227 C12.9306854,14.8227786 12.8990673,14.7913832 11.977541,14.0658018 C11.8499186,13.9652204 11.5992727,13.8844065 11.4750994,13.9431274 C10.8444605,14.2437087 10.6265825,13.7326623 10.3483425,13.3826623 C10.1534596,13.1378948 10.0281366,12.836732 9.83555317,12.4971972 L9.83382854,12.4971972 Z"></path>
                            <path d="M39.1042139,15.4251042 C39.5077769,15.4832437 39.8268331,15.5291739 40.1453144,15.5751041 C40.1671597,15.633825 40.189005,15.692546 40.2108503,15.7518483 C39.9464073,15.9902204 39.6825392,16.2280111 39.3876278,16.4942902 C39.4836321,16.5413832 39.5790615,16.5884762 39.7135825,16.6547553 C39.6290757,16.7198716 39.5692886,16.8035925 39.4968543,16.8169646 C38.6086709,16.9809181 37.718188,17.1285925 36.8305794,17.2948716 C36.5258952,17.3518483 36.229834,17.4512669 35.9291739,17.5291739 C35.5066401,17.6384762 35.0835314,17.745453 34.5155539,17.8902204 C34.8656533,17.6041739 35.0984781,17.3518483 35.3841915,17.1977785 C35.6796778,17.0384762 36.026328,16.9751041 36.3453842,16.7774297 C35.8912321,16.7402204 35.437655,16.7035925 34.9271651,16.661732 C35.2318493,16.320453 36.0861151,16.3751041 35.5940212,15.620453 C35.9556183,15.317546 36.6862856,15.7169646 36.7219279,15.0140576 C36.471282,14.2919646 35.9584926,14.3355693 35.3330276,14.539639 C35.4232831,14.3291739 35.5008913,14.214639 35.5169878,14.092546 C35.534809,13.9576623 35.4957174,13.8158018 35.4807706,13.6768483 C35.3928147,13.7716158 35.3071581,13.8687088 35.2157528,13.9594065 C35.1818352,13.9931274 35.1329707,14.0111506 35.0093724,14.0861507 C35.0616861,13.8192902 35.0996279,13.6245227 35.1461929,13.3855692 C35.0231694,13.3919646 34.9104937,13.3977785 34.7363063,13.4064995 C34.8495568,13.261732 34.9386626,13.1471972 35.0570871,12.9960344 C34.904745,12.9152204 34.7610259,12.8384762 34.7041132,12.8076623 C34.9196917,12.6460344 35.1944824,12.4960343 35.3962639,12.2774297 C35.7969525,11.8431274 35.7843052,11.8262669 37.0634042,11.7134762 C36.8828932,11.8547553 36.7880387,11.9280111 36.6949087,12.0030111 C36.5920059,12.0855693 36.4908278,12.170453 36.2855971,12.3390576 L37.8889261,12.3390576 C37.5215804,12.7541739 37.2341424,13.0785925 36.832879,13.5320809 C37.6382802,13.3780111 37.7768253,14.0844065 38.1982094,14.3140576 C38.714448,14.5960344 38.9633694,14.9599879 39.1053637,15.4251042 L39.1042139,15.4251042 Z"></path>
                            <path d="M70.925899,67.5867319 C71.2530037,68.1099878 71.3926983,68.8320807 71.0816905,69.2820807 C70.5119884,70.1076621 70.3567715,71.073941 69.9141174,71.9309183 C69.4530665,72.8227787 69.0776728,73.7605693 68.6608878,74.6756853 C68.4056425,75.2367319 67.5439035,75.6134766 67.070206,75.370453 C66.9632789,75.3158016 66.7994392,75.2233601 66.7948402,75.1408019 C66.7597728,74.5169649 66.4177216,73.8594068 66.9006174,73.2785925 C67.3403977,72.7495227 67.6140384,72.2140577 67.5122855,71.4681276 C67.4352523,70.9041742 67.7698299,70.4285927 68.3010151,70.1762669 C69.022485,69.8332433 69.6450751,69.4041737 70.0526627,68.6710344 C70.2693904,68.2814996 70.6148913,67.9652201 70.925899,67.5867319 L70.925899,67.5867319 Z"></path>
                            <path d="M25.5095468,9.20417393 C25.8929891,8.88440648 25.8826413,8.84022038 25.3054658,8.51870881 C25.4647065,8.38615063 25.6302708,8.24719714 25.7964099,8.10882503 L25.7452459,7.96056924 C25.4135425,8.00068553 25.0812642,8.04080182 24.7495607,8.08091812 C24.7265657,8.03789482 24.7029958,7.9948716 24.6800007,7.95184831 C24.9122506,7.82801113 25.1439257,7.70301114 25.3779002,7.58266226 C25.406644,7.5681274 25.4543587,7.5913832 25.4825276,7.57626689 C26.0959203,7.24603439 26.1419104,7.26347619 26.3293199,7.92684832 C26.4276237,7.88324366 26.5408743,7.86115061 26.6156082,7.79487159 C27.1686389,7.30708085 27.8533162,7.24661576 28.5345442,7.14254601 C28.7972625,7.10242972 29.0392853,6.93266225 29.2939554,6.8314995 C29.3991577,6.78963902 29.536553,6.7169646 29.61991,6.7530111 C30.0125504,6.92161576 30.3994418,7.10940647 30.7667876,7.32801109 C30.8185265,7.35882508 30.7961063,7.63033667 30.7253966,7.73208087 C30.6282425,7.87161573 30.4661275,7.98673204 30.3080366,8.05708088 C29.3387957,8.4884762 28.3672553,8.91638321 27.3842173,9.31522043 C27.2025565,9.38905764 26.9657077,9.33731341 26.7558779,9.32161573 C26.3390928,9.29080182 25.9228826,9.24429015 25.5101217,9.2047553 L25.5095468,9.20417393 Z"></path>
                            <path d="M2.84391148,23.564639 C3.45328002,22.3687088 4.0568998,21.1692902 4.68351462,19.9826622 C4.73410371,19.8867321 4.94220881,19.8751041 5.07730466,19.8245227 C5.10892284,19.9285925 5.11754599,20.04836 5.17618333,20.1332437 C5.3061053,20.3233599 5.44235092,20.5169646 5.61136445,20.6692902 C5.75968246,20.8024297 6.10058391,20.8739413 6.1057578,20.9838251 C6.12127945,21.3419646 6.15117299,21.8692902 5.94306789,22.0373134 C5.21010102,22.6297553 4.38745349,23.1128948 3.58032761,23.6059181 C3.41706284,23.7053367 3.17216566,23.667546 2.96463544,23.6931274 C2.92439412,23.6501042 2.88472767,23.6070809 2.84448636,23.5640576 L2.84391148,23.564639 Z"></path>
                            <path d="M31.2163406,17.092546 C31.4911314,16.795453 31.765922,16.4983599 31.9527567,16.2966157 C31.886646,15.9948716 31.742927,15.7314995 31.8199604,15.5902204 C31.9084913,15.4274297 32.2011032,15.3884762 32.3867881,15.2663832 C32.5535021,15.1570809 32.753559,15.0390576 32.8363412,14.8721972 C33.0582433,14.4245227 34.3649364,14.114639 34.6920408,14.4919646 C34.7725235,14.5849879 34.7351565,14.9431274 34.6437513,14.9989413 C34.3706851,15.1658018 34.3143473,15.3564995 34.3321684,15.6582437 C34.3568881,16.0751041 34.1482082,16.3570809 33.7406211,16.5111506 C33.2100106,16.7123134 32.7035448,16.9803367 32.169485,17.1698716 C31.8929696,17.2681274 31.5796623,17.2588251 31.2824514,17.2983599 C31.2600312,17.2297553 31.2376111,17.1611506 31.2151909,17.092546 L31.2163406,17.092546 Z"></path>
                            <path d="M6.82320303,23.9948716 C6.87724135,24.3030111 6.92323145,24.4791739 6.93472893,24.6576623 C6.94507674,24.8140576 6.91748268,24.9733599 6.90426052,25.1611506 C7.39520464,25.3611506 7.21354382,25.701267 7.02096036,26.0431274 C6.95944864,26.0628948 6.89793692,26.0820809 6.83642519,26.1018483 C6.75766716,25.8739414 6.67948402,25.6460344 6.57083247,25.3309181 C6.38169827,25.5977786 6.18336605,25.8780111 5.98503384,26.1576623 L5.82406856,26.0163832 C5.91949798,25.8739414 6.01492739,25.7314995 6.15117299,25.5280111 C5.45844744,25.5762669 4.8180356,25.620453 4.03103038,25.6751042 C4.73927759,24.54836 5.00774467,23.2803367 5.9309955,22.4012669 C5.98618359,22.4309181 6.04137169,22.4605692 6.09713465,22.4902204 C5.92294723,22.8721971 5.74875981,23.2541739 5.57457239,23.6361507 C5.97066194,23.8547553 6.26097431,24.3756855 6.82320303,23.995453 L6.82320303,23.9948716 Z"></path>
                            <path d="M45.7894467,24.6518483 C45.9061466,24.6064995 46.0538897,24.545453 46.2039323,24.4919646 C46.789731,24.2844065 47.1720235,24.5756855 47.1070625,25.214639 C47.0645217,25.6355692 47.1070625,26.1268483 46.4781482,26.2082437 C46.1268989,26.2535925 45.987779,26.1530111 45.9590352,25.8012669 C45.9291416,25.4355692 45.8538329,25.0739414 45.7894467,24.6518483 L45.7894467,24.6518483 Z"></path>
                            <path d="M3.30208764,26.2221972 C3.45040564,26.5902204 3.53261291,26.792546 3.66023538,27.1082437 C2.82379082,27.5820809 1.95687784,28.0733599 0.994535452,28.6181274 C1.17792089,28.067546 1.32796352,27.6158018 1.50042631,27.0971972 C2.44782193,27.667546 2.97325857,27.2245227 3.30208764,26.2221972 Z"></path>
                            <path d="M27.6584332,0.0902204084 C27.3560485,0.589639012 26.6282555,0.780918081 25.9355298,0.523359943 C26.5345506,0.301266923 26.9668574,-0.117919126 27.6584332,0.0902204084 Z"></path>
                            <path d="M46.8937835,23.4163832 C46.7063739,23.6721971 46.5793263,23.8460344 46.4522788,24.0192902 C46.3091346,23.8390576 46.0912566,23.67336 46.0533148,23.4727786 C46.0326193,23.3634762 46.2970623,23.1501041 46.4718245,23.0745227 C46.5402348,23.0448715 46.7138473,23.2640576 46.8937835,23.4163832 L46.8937835,23.4163832 Z"></path>
                            <path d="M69.8721514,5.80708088 C69.5904618,5.82801111 69.3081983,5.84894134 69.0265087,5.86987157 C69.0316824,5.68963901 68.9672965,5.40708087 69.054103,5.34603436 C69.4369702,5.07801111 69.6335778,5.43673204 69.8710015,5.63382506 C69.8710015,5.6913832 69.8710015,5.74952273 69.8715768,5.80708088 L69.8721514,5.80708088 Z"></path>
                            <path d="M66.1216605,32.6152204 C66.1124624,33.1582437 65.8572175,33.2448716 65.5594318,33.2163832 C65.4835481,33.2094065 65.4249108,33.0204529 65.3582251,32.9152204 C65.590475,32.8239414 65.8221501,32.7332437 66.1216605,32.6152204 Z"></path>
                            <path d="M61.1478335,32.1727785 C60.7103529,31.9908018 60.2728722,31.8094064 59.8359665,31.6274297 C59.8606861,31.564639 59.884831,31.5018483 59.9095506,31.4390576 C60.3499056,31.6128949 60.7908354,31.786732 61.2311905,31.9599878 C61.2035964,32.0309181 61.1760024,32.1018483 61.1478335,32.1727785 Z"></path>
                        </g>
                        <g transform="translate(0.0667, 0.0581)" id="Shape">
                            <path d="M44.5528885,7.90697672 C24.2965584,7.90697672 7.87580091,24.5139535 7.87580091,45 C7.87580091,65.4860465 24.2965584,82.0930229 44.5528885,82.0930229 C64.8092186,82.0930229 81.2299759,65.4860465 81.2299759,45 C81.2299759,24.5139535 64.8092186,7.90697672 44.5528885,7.90697672 L44.5528885,7.90697672 Z M44.5528885,74.476744 C28.4557862,74.476744 15.4066763,61.2796511 15.4066763,45 C15.4066763,28.7203489 28.4557862,15.5232558 44.5528885,15.5232558 C60.6499909,15.5232558 73.6991006,28.7203489 73.6991006,45 C73.6991006,61.2796511 60.6499909,74.476744 44.5528885,74.476744 Z" fill="url(#linearGradient-2)" opacity="0.8"></path>
                            <path d="M44.4666571,0 C19.9085301,0 0,20.1343023 0,44.9709303 C0,69.8075582 19.9085301,89.9418605 44.4666571,89.9418605 C69.0247839,89.9418605 88.9333144,69.8075582 88.9333144,44.9709303 C88.9333144,20.1343023 69.0247839,0 44.4666571,0 L44.4666571,0 Z M44.5528885,82.1511629 C24.2333221,82.1511629 7.76082576,65.4918605 7.76082576,44.9418605 C7.76082576,24.3918604 24.2333221,7.73255814 44.5528885,7.73255814 C64.872455,7.73255814 81.3449514,24.3918604 81.3449514,44.9418605 C81.3449514,65.4918605 64.872455,82.1511629 44.5528885,82.1511629 Z" fill="url(#linearGradient-3)" opacity="0.6"></path>
                        </g>
                    </g>
                    <circle id="Oval" stroke="#D1D1D1" cx="44.5" cy="45.5" r="44.5"></circle>
                    <g id="Group" transform="translate(0, 1)" stroke="#FFFFFF" stroke-width="2">
                        <circle id="Oval" opacity="0.56" cx="44.4712348" cy="44.4712348" r="36.8196508"></circle>
                        <circle id="Oval" opacity="0.72" cx="44.4712348" cy="44.4712348" r="29.2831285"></circle>
                        <circle id="Oval" opacity="0.859422" cx="44.5575312" cy="44.5000003" r="7.30639939"></circle>
                        <line x1="44.5334453" y1="37.1648353" x2="44.8056857" y2="4.93849052e-15" id="Path" opacity="0.854608"></line>
                        <line x1="44.5334453" y1="52.4465361" x2="44.5334453" y2="89" id="Path" opacity="0.854608"></line>
                        <line x1="51.8926957" y1="44.4759145" x2="89" y2="44.4759145" id="Path" opacity="0.854608"></line>
                        <line x1="37.222366" y1="44.4759145" x2="0" y2="44.4759145" id="Path" opacity="0.854608"></line>
                    </g>
                    <path d="M44,86 C32.9567809,78.3819259 16.0432191,78.3819259 5,86 L15.1132638,68.4228721 C25.5252757,63.9302483 32.3168555,63.7883881 44,68.4228721 L44,86 Z" id="Path" fill="#FFFFFF" fill-rule="nonzero"></path>
                    <path d="M44,86 C55.0432191,78.3819259 71.9567808,78.3819259 83,86 L72.8867365,68.4228721 C62.4747243,63.9302483 55.6831445,63.7883881 44,68.4228721 L44,86 Z" id="Path" fill="#FFFFFF" fill-rule="nonzero"></path>
                    <path d="M44,86 C32.9567809,78.3819259 16.0432191,78.3819259 5,86 L15.1132638,68.4228721 C25.5252757,63.9302483 32.3168555,63.7883881 44,68.4228721 L44,68.5370386" id="Path" stroke="#333333"></path>
                    <path d="M44,86 C55.0432191,78.3819259 71.9567808,78.3819259 83,86 L72.8867365,68.4228721 C62.4747243,63.9302483 55.6831445,63.7883881 44,68.4228721 L44,68.5370386" id="Path" stroke="#333333"></path>
                    <line x1="44.5" y1="68" x2="44.5" y2="86" id="Path" stroke="#231F20" stroke-linecap="round"></line>
                </g>
            </g>
        </g>
    </g>
</svg>