<svg xmlns="http://www.w3.org/2000/svg" viewBox="0 0 643 92"><defs><linearGradient id="b" x1="0%" x2="100%" y1="50%" y2="50%"><stop offset="0%" stop-color="#ECA203"/><stop offset="100%" stop-color="#BF1D1B"/></linearGradient><linearGradient id="c" x1="0%" x2="100%" y1="50%" y2="50%"><stop offset="0%" stop-color="#ECA203"/><stop offset="100%" stop-color="#BF1D1B"/></linearGradient><filter id="a" width="100.2%" height="102.8%" x="-.2%" y="-.6%" filterUnits="objectBoundingBox"><feOffset dy="1" in="SourceAlpha" result="shadowOffsetOuter1"/><feColorMatrix in="shadowOffsetOuter1" result="shadowMatrixOuter1" values="0 0 0 0 0 0 0 0 0 0 0 0 0 0 0 0 0 0 0.5 0"/><feMerge><feMergeNode in="shadowMatrixOuter1"/><feMergeNode in="SourceGraphic"/></feMerge></filter></defs><g fill="none" fill-rule="evenodd" filter="url(#a)" transform="translate(1)"><g fill-rule="nonzero"><path fill="#A02D05" d="M142.15 32.45c0-.15.05-.25.15-.3.35-.15 1.5-.2 3.15-.2 5.05 0 7.65 2.85 7.65 7.1 0 2.2-1 4.6-3.05 5.95-.6.4-.95.45-1.9.45-.75 0-4.85-.1-5.8-.1-.15-.05-.2-.1-.2-.25V32.45ZM156 56.75c0 5.4-4.05 7.9-8.3 7.9-2.85 0-4.75-.45-5.3-1-.15-.15-.25-2.35-.25-11v-4.3c0-.1.05-.15.2-.2.45 0 2.8-.1 4.4.05 2.15.15 4.2.45 5.95 1.85a7.67 7.67 0 0 1 3.3 6.7Zm-18.05-4.1c0 6.5-.2 12.45-.35 14.45.75-.05 2.15-.1 2.9-.05 1.15.05 3.55.35 7 .35 8.85 0 13-5.5 13-11.25 0-5.7-4-8.85-8.2-10.05a9.19 9.19 0 0 0 4.8-8.05c0-3.7-2.05-8.75-10.6-8.75-2.55 0-4.95.2-6.8.2-.75 0-1.6-.05-2.25-.1.4 1.8.5 7.3.5 14.45v8.8ZM165.82 55.29c0 5.23-.2 10.46-.34 11.85.43-.04 1.73-.14 2.69-.14.72 0 1.63.05 2.01.1-.24-1.16-.38-6.72-.38-11.81v-7.2c0-5.76.14-10.27.29-11.81-.34.05-1.4.14-2.74.14-.62 0-1.53 0-1.97-.04.3 1.1.44 5.9.44 11.7v7.2ZM182.13 39.06c0-.14.05-.19.14-.19.24-.14 1.1-.24 2.6-.24 4.22 0 6.33 2.16 6.33 5.62a5.6 5.6 0 0 1-2.45 4.7c-.53.34-.91.39-1.68.39-.67 0-3.93-.1-4.75-.1-.14-.05-.2-.1-.2-.2v-9.98ZM193.6 58.6c0 4.32-3.36 6.29-6.82 6.29-2.44 0-4.03-.48-4.46-.87-.1-.1-.2-2.1-.2-8.73v-3.36c0-.05.06-.15.15-.2.43 0 2.45-.09 3.6.05 1.97.15 3.7.44 5.04 1.54a6.25 6.25 0 0 1 2.69 5.28Zm-15.36-3.31c0 5.28-.2 10.13-.34 11.8.72-.04 1.92-.09 2.64-.04.96.05 3.12.29 6.05.29 7.49 0 11.19-4.47 11.19-9.22 0-4.56-3.27-7.15-6.92-8.2a7.2 7.2 0 0 0 4.04-6.54c0-3.02-1.78-7.1-9.08-7.1-2.68 0-4.36.14-6.04.14-.72 0-1.5-.04-2.07-.1.34 1.5.53 5.96.53 11.77v7.2ZM201.94 55.29c0 5.8-.14 10.32-.28 11.8.52-.14 1.24-.09 2.35-.09 2.16 0 5.04.24 11.23.24 1.92 0 2.35-.05 2.6-.1.14-.67.62-2.59 1-3.36-1.06.53-2.88.82-7.44.82-1.87 0-3.31 0-4.13-.14-.53-.05-.86-.1-1-.24-.3-.15-.34-.92-.34-9.27V48c0-5.76.24-10.17.38-11.71-.53.14-1.68.14-2.78.14-.72 0-1.63.05-2.02-.1.24 1.16.43 6 .43 11.77v7.2ZM224.48 55.29c0 5.8-.24 10.32-.38 11.8.53-.04 1.58-.09 2.88-.09 1.78 0 5 .24 10.8.24 1.58 0 2.06-.05 2.2-.1.15-.9.54-2.44.87-3.36-1.3.53-3.17.82-7.05.82-1.88 0-3.17-.05-4.18-.2a2.39 2.39 0 0 1-.91-.23c-.24-.1-.29-1.35-.29-9.22v-2.73c0-.15.05-.2.14-.2.82 0 5.67 0 7.1.15 1.69.14 2.36.29 2.94.62 0-.91.14-2.69.38-3.65-.53.15-1.44.2-3.7.34l-6.72.05c-.1 0-.14-.1-.14-.24V39.1c0-.1.05-.14.14-.14 3.46 0 5.96.1 7.3.14 2.06.2 2.93.39 3.5.72 0-1.49.15-2.93.3-3.65-.78.2-2.5.24-3.42.24h-9.5c-.96 0-2.16.05-2.74-.1.34 1.16.48 5.1.48 11.77v7.2Z"/><path fill="#FDA400" d="M278.58 53.85c.05 0 .15.05.2.15 1.75 4 4.45 10.9 5.25 13.15.6-.15 2-.15 3.25-.15.55 0 1.35.05 2.3.1-1.3-1.95-4.1-8.5-6.35-13.8-4.25-10.1-9.2-21.4-9.75-22.6-.75-1.65-.95-2.05-1.2-2.05-.35 0-.55.6-1.15 2.05l-9.9 24.55c-2 4.85-3.9 9.25-5.15 11.9.4-.05 1.65-.15 2.65-.15 1.05 0 1.45-.05 2 .1.5-2.35 2.9-8.8 4.45-13.1.05-.1.1-.15.25-.15h13.15Zm-12.2-2.9c-.1 0-.15-.05-.1-.2l5.45-14.55 5.9 14.55c.05.15 0 .2-.1.2h-11.15ZM307.89 67.67c3.64 0 7.2-.67 8.88-1.39.14-.96.43-2.78.76-3.74-2.16 1.53-5.52 2.2-9.21 2.2-10.61 0-14.79-7.39-14.79-13.92 0-3.45.92-6.76 3.65-9.4 1.63-1.5 4.32-3.12 9.31-3.12 5.33 0 8.93 1.68 10.61 3.36.05-1.5.29-3.32.63-4.13-1.73-.48-5.19-1.83-10.95-1.83-6.33 0-10.41 1.92-13.1 4.47-3.89 3.6-4.61 8.01-4.61 11.09 0 3.6 1.15 8.5 5.18 12.04 3.5 3.08 7.92 4.37 13.64 4.37ZM337.53 67.67c3.65 0 7.2-.67 8.88-1.39.15-.96.44-2.78.77-3.74-2.16 1.53-5.52 2.2-9.21 2.2-10.61 0-14.79-7.39-14.79-13.92 0-3.45.91-6.76 3.65-9.4 1.63-1.5 4.32-3.12 9.31-3.12 5.33 0 8.93 1.68 10.61 3.36.05-1.5.29-3.32.62-4.13-1.72-.48-5.18-1.83-10.94-1.83-6.34 0-10.42 1.92-13.1 4.47-3.9 3.6-4.61 8.01-4.61 11.09 0 3.6 1.15 8.5 5.18 12.04 3.5 3.08 7.92 4.37 13.63 4.37ZM353.81 55.29c0 5.8-.24 10.32-.38 11.8.53-.04 1.58-.09 2.88-.09 1.78 0 5 .24 10.8.24 1.58 0 2.06-.05 2.2-.1.15-.9.54-2.44.87-3.36-1.3.53-3.17.82-7.05.82-1.88 0-3.17-.05-4.18-.2a2.39 2.39 0 0 1-.91-.23c-.24-.1-.29-1.35-.29-9.22v-2.73c0-.15.05-.2.14-.2.82 0 5.67 0 7.1.15 1.69.14 2.36.29 2.94.62 0-.91.14-2.69.38-3.65-.53.15-1.44.2-3.7.34l-6.72.05c-.1 0-.14-.1-.14-.24V39.1c0-.1.05-.14.14-.14 3.46 0 5.96.1 7.3.14 2.06.2 2.93.39 3.5.72 0-1.49.15-2.93.3-3.65-.78.2-2.5.24-3.42.24h-9.5c-.96 0-2.16.05-2.74-.1.34 1.16.48 5.1.48 11.77v7.2ZM374.51 66c1.49.95 4.27 1.67 7 1.67 2.12 0 4.66-.38 6.58-1.68a9.04 9.04 0 0 0 3.84-7.05c0-3.17-1-5.67-6.1-8.84l-2.06-1.3c-3.7-2.44-4.27-3.93-4.27-6.04 0-2.69 2.11-4.46 5.23-4.46 3.41 0 5.43 1.39 6.2 2.35 0-1.54.24-3.8.38-4.23l-2.2-.33c-.97-.2-2.46-.39-4.14-.39-5.9 0-9.3 3.56-9.3 7.92 0 2.84 1.14 5.62 5.6 8.45l2.12 1.35c3.6 2.3 4.46 3.84 4.46 6.33 0 2.88-1.96 5.23-5.85 5.23a9.3 9.3 0 0 1-7.15-3.3c0 1.29-.2 3.64-.34 4.31ZM396.66 66c1.49.95 4.27 1.67 7.01 1.67 2.11 0 4.66-.38 6.58-1.68a9.04 9.04 0 0 0 3.84-7.05c0-3.17-1.01-5.67-6.1-8.84l-2.06-1.3c-3.7-2.44-4.28-3.93-4.28-6.04 0-2.69 2.12-4.46 5.24-4.46 3.4 0 5.42 1.39 6.19 2.35 0-1.54.24-3.8.38-4.23l-2.2-.33c-.97-.2-2.45-.39-4.13-.39-5.9 0-9.32 3.56-9.32 7.92 0 2.84 1.16 5.62 5.62 8.45l2.11 1.35c3.6 2.3 4.47 3.84 4.47 6.33 0 2.88-1.97 5.23-5.86 5.23a9.3 9.3 0 0 1-7.15-3.3c0 1.29-.2 3.64-.34 4.31Z"/><path fill="#A02D05" d="M436 52.65c0 6.55-.2 12.75-.35 14.5a24.22 24.22 0 0 1 5.1-.05c-.25-1.5-.45-8.05-.45-14.45v-8.8c0-7.15.2-12.65.35-14.5-.35.05-1.6.15-3 .15-.6 0-1.65 0-2.1-.05.4 1.15.45 7.3.45 14.35v8.85ZM455.25 67.1c-.4-3.35-.55-15.85-.55-24.85 4.25 4.45 16.8 18.7 20.6 22.3 2.8 2.65 3.45 3.2 3.7 3.2s.35-.25.35-2.5c0-1.8-.05-5.95-.05-8.7 0-8.1.3-19 .55-21.55a16.82 16.82 0 0 1-4.25.05c.4 4.65.55 18.1.55 24.5-4-3.2-18.65-19.7-22.9-23.95-.85-.8-1.3-1.2-1.45-1.2-.35 0-.4.25-.4 2.5 0 7.55-.05 26.65-.45 30.25.25 0 1.9-.15 2.3-.15.65 0 1.35-.05 2 .1ZM489.35 54.8c0 5.45-.2 10.9-.35 12.35.45-.05 1.8-.15 2.8-.15.75 0 1.7.05 2.1.1-.25-1.2-.4-7-.4-12.3v-7.5c0-6 .15-10.7.3-12.3-.35.05-1.45.15-2.85.15-.65 0-1.6 0-2.05-.05.3 1.15.45 6.15.45 12.2v7.5ZM498.05 38.6c1.25-.4 2.8-.55 5.95-.7 2.85-.15 4-.1 6.05-.1v17c0 5.45-.2 10.9-.35 12.35.55-.15 1.75-.15 2.9-.15.75 0 1.5-.05 1.95.1-.15-1.6-.35-7.15-.35-12.5V37.8c3.2 0 5.1.05 6.95.2 2.85.15 4.05.3 4.8.85.05-1.2.25-3 .5-4.05-.7.25-4.15.35-6.65.35h-14.4c-3.8 0-5.55-.15-6.6-.4-.15 1-.5 3.1-.75 3.85ZM542.35 56.25c.1 0 .15.05.2.1 1.35 3.4 3.75 8.8 4.4 10.8.6-.15 2-.15 3.15-.15.55 0 1.35.05 2.2.1-1.15-1.7-3.65-7.15-5.65-11.7-4-8.55-8.3-18.2-8.8-19.2-.65-1.45-.9-1.8-1.1-1.8-.25 0-.5.45-1.1 1.8l-8.6 20.7c-1.85 4.25-3.45 8-4.6 10.25.4-.05 1.5-.15 2.55-.15 1 0 1.35-.05 1.9.1.5-1.95 2.45-7.1 3.8-10.75 0-.05.05-.1.2-.1h11.45Zm-10.5-2.7c-.15 0-.15-.05-.1-.15l4.6-11.95 5.1 11.95c0 .1-.05.15-.15.15h-9.45ZM547.55 38.6c1.25-.4 2.8-.55 5.95-.7 2.85-.15 4-.1 6.05-.1v17c0 5.45-.2 10.9-.35 12.35.55-.15 1.75-.15 2.9-.15.75 0 1.5-.05 1.95.1-.15-1.6-.35-7.15-.35-12.5V37.8c3.2 0 5.1.05 6.95.2 2.85.15 4.05.3 4.8.85.05-1.2.25-3 .5-4.05-.7.25-4.15.35-6.65.35h-14.4c-3.8 0-5.55-.15-6.6-.4-.15 1-.5 3.1-.75 3.85ZM580.3 54.8c0 5.45-.2 10.9-.35 12.35.45-.05 1.8-.15 2.8-.15.75 0 1.7.05 2.1.1-.25-1.2-.4-7-.4-12.3v-7.5c0-6 .15-10.7.3-12.3-.35.05-1.45.15-2.85.15-.65 0-1.6 0-2.05-.05.3 1.15.45 6.15.45 12.2v7.5ZM589 35.05c.95 1.35 2.2 3.65 3.85 7.7 3.25 7.65 6.45 15.15 9.65 22.8.75 1.8.9 2.15 1.25 2.15.2 0 .4-.2 1.4-2.25 1.65-3.6 3.4-7.45 6.15-13.6 2-4.45 3.05-6.6 4.25-9.25 1.6-3.65 3.25-6.6 4-7.6-.75.1-1.8.15-3.15.15-.4 0-1.1.05-1.65-.1-.2.85-.6 2.6-2.05 6.25-2.25 5.6-5.75 13.5-8.15 19-2.75-6.6-5.3-12.95-7.65-18.8a47.1 47.1 0 0 1-2.25-6.55c-.45.15-1.95.2-3.3.2-.2 0-1.6.05-2.35-.1ZM624.15 54.8c0 6.05-.25 10.75-.4 12.3.55-.05 1.65-.1 3-.1 1.85 0 5.2.25 11.25.25 1.65 0 2.15-.05 2.3-.1.15-.95.55-2.55.9-3.5-1.35.55-3.3.85-7.35.85-1.95 0-3.3-.05-4.35-.2-.45-.05-.8-.15-.95-.25-.25-.1-.3-1.4-.3-9.6V51.6c0-.15.05-.2.15-.2.85 0 5.9 0 7.4.15 1.75.15 2.45.3 3.05.65 0-.95.15-2.8.4-3.8-.55.15-1.5.2-3.85.35l-7 .05c-.1 0-.15-.1-.15-.25v-10.6c0-.1.05-.15.15-.15 3.6 0 6.2.1 7.6.15 2.15.2 3.05.4 3.65.75 0-1.55.15-3.05.3-3.8-.8.2-2.6.25-3.55.25h-9.9c-1 0-2.25.05-2.85-.1.35 1.2.5 5.3.5 12.25v7.5Z"/></g><g fill-rule="nonzero"><ellipse cx="44.5" cy="45" fill="#D1D1D1" rx="44.5" ry="45"/><g fill="#A02D05"><path d="m52.14 85.6-1.03-.85c.4-.4.36-.7.07-1.04-.45-.53-.92-1.06-1.23-1.66a4.58 4.58 0 0 1-.52-1.79 2.35 2.35 0 0 0-.57-1.46c-.2-.23-.35-.51-.59-.7-.59-.47-.56-1.05-.29-1.64.27-.6.54-1.2 1.12-1.62.53-.38.52-.6.23-1.19-.1-.2-.04-.48-.05-.72 0-.07.06-.16.03-.2-.44-.67-.52-1.54-1.21-2.06a38.7 38.7 0 0 1-1.55-1.24c-.14-.12-.25-.29-.22-.42l.5-1.28c.12-.3.32-.59.33-.89.02-.25-.12-.59-.3-.75a1.73 1.73 0 0 0-1.66-.35c-.28.07-.57.09-.85.13-.49.07-.86-.06-1.1-.54-.35-.68-1-.81-1.68-.85-1.4-.08-2.72.27-4.05.57-.5.11-.94.11-1.41-.05a6.2 6.2 0 0 0-3.32-.24c-.33.06-.79 0-1.06-.2-1.23-.86-2.41-1.78-3.6-2.7a1.23 1.23 0 0 1-.45-.53c-.32-1.03-1.12-1.68-1.81-2.43-.36-.39-.73-.77-1.07-1.18a1.8 1.8 0 0 1-.28-.58c-.16-.48-.3-.97-.45-1.46-.03-.08-.06-.17-.05-.25.1-.6.23-1.2.28-1.8.04-.45-.02-.92-.06-1.38-.05-.48-.13-.96-.22-1.43a1.3 1.3 0 0 0-.24-.58c-.42-.49-.33-1-.16-1.53.4-1.17.78-2.34 1.2-3.5.1-.3.3-.56.45-.83.05-.1.17-.17.19-.26.18-.87.83-1.3 1.47-1.81a3.66 3.66 0 0 0 1.5-2.9 3.53 3.53 0 0 1 1.62-2.9 4.83 4.83 0 0 0 1.79-2.08c.09-.2.16-.43.32-.56.11-.08.42-.1.5 0 .34.3.68.32 1.1.25.41-.07.84-.07 1.26-.11.24-.03.52 0 .72-.12.74-.38 1.46-.8 2.18-1.21.06-.04.12-.1.18-.12 1.54-.5 3.09-1 4.74-.8.14.01.3.07.42.03.9-.27 1.8-.25 2.7-.13.26.03.55 0 .8-.1.55-.21 1.04-.27 1.52.2.11.12.4.07.61.1l.03.06c-.45.43-.45.83.02 1.26.29.27.22.59-.06.85-.12.13-.26.25-.39.37-.25.23-.27.46.05.64l2.06 1.15c.13.06.28.12.41.11.78-.02 1.47.27 2.11.67.27.17.56.41.68.69.22.52.57.81 1.1.93a4.2 4.2 0 0 1 1.86 1c.18.16.6.3.71.21.23-.18.33-.53.45-.82.03-.07-.02-.18-.04-.27-.14-.5-.2-.96.39-1.23a1.38 1.38 0 0 1 1.65.3c.26.28.6.46.9.68l.66.45c.08.06.15.15.25.19.6.26 1.24.5 1.84.78.35.17.65.22.99-.04.4-.31.78-.31 1.2.05.6.52 1.3.29 1.42-.5.18-1.19.57-2.38.21-3.62-.05-.18 0-.39 0-.58-.45-.08-.86-.24-1.25.16-.1.1-.55-.1-.78-.24-.32-.19-.6-.46-.91-.72-.35.69-.52.7-.97.24-.16-.15-.4-.24-.55-.4-.3-.29-.57-.6-.83-.92-.2-.24-.37-.5-.57-.8.17-.36.05-.8-.31-1.12-.12-.1-.18-.33-.19-.5-.01-.63-1.07-1.29-1.62-.96-.11.06-.14.28-.22.46l-.8-.38c.06.22.05.38.12.46.38.45.55 1.05 1.1 1.38.36.23.33.32.14.71l-.47-.17-.09 1.19c-.27-.14-.62-.23-.78-.45-.24-.33-.36-.77-.52-1.16-.04-.09-.06-.2-.12-.27-.57-.67-1.17-1.3-1.71-2-.16-.2-.12-.55-.22-.81-.1-.29-.2-.65-.42-.8-.84-.6-1.74-1.1-2.6-1.68a7.34 7.34 0 0 1-1.04-.9c-.22-.22-.4-.49-.61-.76-.4.36-.59.3-.83-.15-.1-.18-.63-.12-.97-.18-.08.8.21 1.2.77 1.51.3.16.53.47.78.72.27.26.5.65.82.75 1.03.31 1.71 1.18 2.67 1.6.3.14.53.42.8.63l-.11.15-1.12-.65c-.32.33-.46.61.01.87.26.15.31.34.1.57-.28.3-.4.85-1 .72-.06-.01-.23.3-.28.5-.03.15.03.33.06.5l-.13.14-2.4-1.24.02-.22c.24-.02.47-.06.7-.05.65.02 1.3.11 1.95.08.16 0 .48-.48.42-.59a4.2 4.2 0 0 0-1.83-1.84c-.85-.52-1.74-.95-2.56-1.52a7.3 7.3 0 0 1-1.35-1.32c-.36-.42-1.29-.65-1.78-.42-1.08.5-2.16 1.04-3.41.57-.27-.1-.63 0-.92.09-.35.1-.54.35-.43.74.1.36-.08.54-.38.65-.26.1-.49.25-.75.3-.94.2-1.5.93-2.12 1.56-.13.12-.22.43-.16.57.17.32.06.5-.16.7-.62.54-1.23 1.11-1.87 1.64-.16.13-.43.15-.65.19-.9.14-1.8.27-2.5.97-.07.06-.5-.06-.53-.16-.22-.67-.63-.68-1.17-.47-.23.09-.49.1-.82.15.04-.3.08-.54.1-.78.01-.14.06-.35-.01-.41-.41-.35-.2-.67.02-1 .6-.91.84-1.91.7-3.01-.01-.12.14-.35.26-.4.65-.21 1.3-.46 1.97-.56 1.04-.15 2.1-.19 3.15-.26.67-.04.91-.2 1.13-.86l.25-.82c.1-.41.02-.64-.33-1a2.42 2.42 0 0 0-1.83-.77c-.11 0-.2-.21-.31-.33l.05-.2 2.4-.26v-.69l.41.07c.41.1.8.16 1.14-.2.11-.12.32-.13.48-.2.2-.1.5-.17.54-.31.15-.58.64-.52 1.03-.71.62-.3 1.2-.7 1.8-1.05l-.07-.12.44.18.1-.53c.65-.07 1.33-.15 2-.2.45-.02.62-.2.48-.65a1.95 1.95 0 0 0-.3-.62c-.41-.53-.27-1.01.37-1.16.31-.07.6-.19.89-.28l.25.9c-.02.02-.16.09-.25.19-.15.16-.42.42-.38.51.11.24.35.42.57.59.74.57 1.52.11 2.27.03.32.58.85.53 1.36.47.54-.06 1.08-.21 1.63-.26.26-.02.55.07.78.2.3.19.55.24.88.03.21-.13.51-.13.85-.2-.04-.16-.13-.35-.15-.54-.02-.3-.08-.66.03-.92.14-.32.47-.44.8-.18.15.1.27.28.42.33.21.07.45.04.68.06-.08-.27-.1-.57-.24-.8-.14-.22-.39-.37-.59-.55l.11-.19c.54 0 1.13-.13 1.62.03.72.24 1.38.03 2.1-.04a3.06 3.06 0 0 0-2.47-.6c-.93.1-1.91.18-2.61-.54-.35-.36-.45-.98-.57-1.5-.03-.12.31-.36.51-.5.5-.33 1.03-.63 1.52-.98.09-.07.12-.4.04-.5-.36-.4-1.75-.45-2.12-.09-.1.1-.25.32-.21.41.23.52-.2.58-.48.72-.45.23-.93.43-1.4.62-.46.2-.43.63-.4.97.02.23.32.45.53.63.21.18.47.3.88.56-.42.25-.7.48-1.02.58-.33.11-.48.26-.46.6 0 .22-.01.44-.06.65-.08.35-.26.57-.68.52-.32-.05-.6-.03-.82.33-.15.26-.76.07-1.06-.32l-.52.72-.7-.55 1.27-.45-1.7-2.22c-1.19.44-2.26 1.47-3.6.41.06-.09.13-.2.25-.35l-.46-.03c-.06-.52-.13-1.03-.15-1.54 0-.16.1-.4.23-.47.45-.23.93-.41 1.4-.6.85-.34 1.7-.62 2.47-1.22.35-.28.67-.62 1.03-.9.47-.39.85-.9 1.3-1.32.1-.1.28-.1.42-.17.12-.04.23-.1.33-.23-.37-.04-.81.22-.98-.35.3-.14.58-.22.88.05.26.23.55.18.83-.12l-.3-.21v-.11h.81l-.1-.1.41-.45c.6.44 1.09.41 1.65.05.3-.2.73-.22 1.11-.32l1.28-.3-.37.67.08.07.66-.49.28.31c.55-.57.65-.57.87-.02.58-.32.97.15 1.44.28v.16l-.91.09c.56.34 1.06.44 1.56.4.29-.02.49-.15.6.28.04.16.5.22.76.3.57.19 1.17.31 1.71.56.72.32 1.42.69 2.07 1.12.3.2.45.59.68.9-.31.17-.6.42-.93.51-.29.08-.64.02-.94-.07-1.06-.35-2.1-.75-3.2-1.1.36.26.74.5 1.06.78.18.16.3.39.4.61.16.43.23.9.77 1.07.23.07.4.29.64.37.22.09.48.1.72.14l.06-.17-1.04-.78c.9-.22 1.41.77 2.22.43l-.34-.6c1.02-.77 1.33-.8 2.24-.25.2-.32.35-.61-.02-.94-.09-.08-.11-.26-.13-.4-.04-.3-.05-.6-.07-.88.96.04 1.03.07 1.47.71l-.46.1-.4.2c.31.4.58.79 1.08.74.2-.02.39-.22.56-.36.13-.1.22-.28.36-.34 1.71-.78 1.73-.8 3.14.44a45.13 45.13 0 0 1 15.34 27.77c.89 5.64.68 11.25-.54 16.82a3 3 0 0 1-.3.79c-.28.49-.58.49-.81-.03-.16-.33-.18-.73-.3-1.09-.33-1.04-.75-2.06-1-3.12-.22-1-.27-2.03-.38-3.05-.05-.4-.05-.8-.07-1.2-.28.29-.6.8-.77.75-.33-.09-.58-.5-.89-.8l.62-.45c-1.01-.29-1.28-1.14-1.71-1.88-.58.06-1.16.19-1.74.16a9.25 9.25 0 0 1-1.92-.36c-.15-.04-.25-.37-.3-.58-.14-.57-.27-.65-.69-.29-.41.35-.69.1-.97-.15a3.87 3.87 0 0 1-1.24-2.01c-.08-.4-.33-.68-.7-.54-.32.13-.53.46-.32.9.27.57.53 1.17.74 1.77.15.41.21.85.4 1.29l.2-.56.14.01c0 .25-.03.5.01.75.04.24.18.68.24.67.37-.03.83.19 1.1-.3.19-.38.42-.74.71-1.25l.08.88c.04.41.22.7.6.89.62.3.87.98.57 1.6-.14.3-.36.56-.54.84-.04.07-.11.15-.12.23-.03.78-.65 1.17-1.02 1.74-.28.43-.68.56-1.02.83-.23.2-.4.47-.59.72-.07.1-.11.23-.2.3l-2.77 1.9c-.26.18-.5.4-.76.59-.3.2-.53.13-.54-.26-.02-.64-.01-1.3-.01-1.94 0-.16.06-.34 0-.48-.37-1.01-.5-2.12-1.16-3.03-.2-.28-.3-.7-.3-1.06 0-.85-.1-1.63-.7-2.32-.2-.23-.16-.65-.29-.96-.34-.81-.72-1.6-1.07-2.41-.08-.18-.1-.37-.18-.64l-.22.72-.14.07-.8-1.66-.1.04.37 1.1c.45 1.36.98 2.68 1.3 4.06.14.62.32 1.17.56 1.74.22.5.2 1.13.2 1.7 0 .61.1 1.13.47 1.66.23.33.24.85.27 1.28.03.49.2.81.57 1.15.43.4.73.96 1.07 1.47.06.08.07.29 0 .35-.32.38-.02.65.17.9.09.12.38.18.52.12.76-.32 1.5-.68 2.23-1.04.23-.11.44-.28.8-.5-.1.5-.11.92-.26 1.28-.94 2.3-1.92 4.56-3.83 6.28-.83.75-1.45 1.73-2.24 2.54-.75.77-1.27 1.68-1.8 2.6-.1.19-.04.48-.06.73-.01.17 0 .34-.04.5-.09.5-.23 1 .15 1.48.1.12.03.38 0 .56l-.23 1.6c-.11.8-.72 1.2-1.29 1.63-.84.62-1.7 1.22-2.53 1.87-.13.1-.2.36-.2.55-.02.19.07.38.1.58.13.87-.15 1.39-.95 1.74-.23.1-.46.2-.67.33-.12.08-.26.25-.25.38.04.73-.38 1.2-.83 1.66-.54.55-1.05 1.13-1.61 1.66a5.54 5.54 0 0 1-3.76 1.54c-.67.02-1.33.34-1.99.53h-.2ZM.97 55.16c.69.87 1.31-.07 1.9.13.22.16.4.39.64.49.41.16.42.43.23.8.75.02 1.11.44 1.44 1.01.28.49.68.9 1.36.9.9 0 1.93.88 2.27 1.8.16.4.4.78.55 1.2.06.18.01.44-.07.62-.19.4-.43.76-.65 1.13l.1.1.4-.15c.5.74.71.75 1.4.13.08-.08.28-.14.37-.09.6.36 1.31.57 1.52 1.31 1.2.39 2.43.63 3.31 1.67.3.36.82.53 1.21.82.18.13.34.32.43.52.48.94.71 1.87-.25 2.68-.14.12-.2.34-.29.51-.06.13-.08.34-.18.38-.66.3-.35.8-.26 1.26.22 1.1.17 2.19-.34 3.22-.17.36-.12.84-.56 1.04-.12.06-.25.2-.34.18-.93-.24-1.61.41-2.5.65a45 45 0 0 1-11.7-22.3ZM10.8 15.96c.5-.56 1.03-1.17 1.58-1.75a44.54 44.54 0 0 1 13.73-9.88c.35-.16 1.18-.04 1.37.27.1.19.01.49.01.73l-.17.11-1.45-.89c.11 1 1.02.9 1.6 1.3l-.13.22.15-.03.23.9c-.38.06-.67.16-.96.16-.16 0-.42-.12-.47-.25-.17-.42-.48-.54-.98-.6l.1.77-.66.33.01.1h2.26a11.58 11.58 0 0 1-5.67 2.35c-.94.96-1.76 2.32-3.43 2.64l.2-.48-1.94 1.37.26.44-1.06 1.56c-.1.15-.19.32-.25.48-.2.51-.33 1.08-.62 1.53-.61.95-.65.92-1.57.2-.12-.1-.38-.19-.5-.13-.63.3-.85-.21-1.13-.56-.2-.25-.32-.55-.5-.89h-.01Z"/><path d="m40.07 18.9 1.04.14.07.18-.83.74.33.16c-.09.07-.15.15-.22.16-.89.17-1.78.31-2.66.48-.3.06-.6.16-.9.24l-1.42.36c.35-.29.58-.54.87-.7.3-.16.64-.22.96-.42l-1.42-.11c.3-.34 1.16-.29.67-1.04.36-.3 1.1.1 1.13-.61-.25-.72-.77-.68-1.4-.47.1-.21.18-.33.2-.45.01-.14-.03-.28-.04-.42l-.27.29c-.03.03-.08.05-.2.12l.13-.7-.4.02.31-.4-.35-.2c.21-.16.49-.3.7-.53.4-.43.38-.45 1.66-.56l-.37.29-.4.34h1.6L37.8 17c.8-.16.94.55 1.36.78.52.28.77.65.91 1.11ZM71.9 71.05c.32.53.46 1.25.15 1.7-.57.82-.73 1.79-1.17 2.65-.46.89-.84 1.83-1.25 2.74-.26.56-1.12.94-1.6.7-.1-.06-.27-.15-.27-.23-.04-.63-.38-1.28.1-1.87.45-.52.72-1.06.62-1.8-.08-.57.26-1.05.79-1.3a3.65 3.65 0 0 0 1.75-1.5c.21-.4.56-.7.87-1.09ZM26.47 12.67c.39-.32.38-.36-.2-.69l.5-.4-.06-.15-1 .12-.06-.13.7-.37c.02-.02.07 0 .1 0 .61-.34.66-.32.84.34.1-.04.22-.06.3-.13.54-.49 1.23-.55 1.91-.65.26-.04.5-.21.76-.31.1-.04.24-.12.33-.08.39.17.77.36 1.14.57.05.04.03.3-.04.4-.1.15-.26.26-.42.33-.97.43-1.94.86-2.92 1.26-.18.08-.42.02-.63 0-.42-.02-.83-.07-1.24-.1v-.01ZM3.8 27.03c.62-1.2 1.22-2.4 1.85-3.58.05-.1.26-.1.4-.16.02.1.03.22.1.3.12.2.26.4.43.55.14.13.49.2.5.31 0 .36.04.89-.17 1.05-.73.6-1.56 1.08-2.36 1.57-.17.1-.41.06-.62.09l-.12-.13Z"/><path d="m32.18 20.56.74-.8c-.07-.3-.21-.56-.13-.7.08-.17.38-.2.56-.33.17-.1.37-.22.45-.4.22-.44 1.53-.75 1.86-.37.08.1.04.45-.05.5-.27.17-.33.36-.31.66.02.42-.19.7-.6.86-.52.2-1.03.47-1.57.66-.27.1-.59.09-.88.12l-.07-.2ZM7.79 27.46c.05.3.1.49.11.66.01.16-.02.32-.03.5.49.2.3.55.12.89l-.19.06-.26-.77c-.2.26-.4.54-.59.82l-.16-.14.33-.49-2.12.15c.7-1.13.97-2.4 1.9-3.27l.16.09-.52 1.14c.4.22.69.74 1.25.36ZM46.75 28.12l.42-.16c.58-.2.97.08.9.72-.04.42 0 .91-.63 1-.35.04-.49-.06-.52-.41-.03-.37-.1-.73-.17-1.15ZM4.27 29.69l.36.88-2.67 1.51.5-1.52c.95.57 1.48.13 1.8-.87ZM28.62 3.56c-.3.5-1.03.69-1.72.43.6-.22 1.03-.64 1.72-.43ZM47.86 26.88l-.44.6c-.15-.17-.36-.34-.4-.54-.02-.11.24-.32.42-.4.07-.03.24.19.42.34ZM70.84 9.27l-.85.07c0-.18-.06-.47.03-.53.38-.27.58.1.82.29v.17ZM67.09 36.08c-.01.54-.27.63-.57.6-.07 0-.13-.2-.2-.3l.77-.3ZM62.11 35.64l-1.3-.55.06-.18 1.33.52-.09.2Z"/></g><path fill="url(#b)" d="M44.55 7.9C24.3 7.9 7.88 24.52 7.88 45c0 20.49 16.42 37.1 36.67 37.1 20.26 0 36.68-16.61 36.68-37.1 0-20.49-16.42-37.1-36.68-37.1Zm0 66.58c-16.1 0-29.14-13.2-29.14-29.48s13.05-29.48 29.14-29.48c16.1 0 29.15 13.2 29.15 29.48S60.65 74.48 44.55 74.48Z" opacity=".8" transform="translate(.07 .06)"/><path fill="url(#c)" d="M44.47 0C19.9 0 0 20.13 0 44.97s19.9 44.97 44.47 44.97c24.55 0 44.46-20.13 44.46-44.97S69.03 0 44.47 0Zm.08 82.15c-20.32 0-36.79-16.66-36.79-37.2 0-20.56 16.47-37.22 36.8-37.22 20.31 0 36.78 16.66 36.78 37.21S64.87 82.15 44.55 82.15Z" opacity=".6" transform="translate(.07 .06)"/></g><circle cx="44.5" cy="45.5" r="44.5" stroke="#D1D1D1"/><g stroke="#FFF" stroke-width="2" transform="translate(0 1)"><circle cx="44.47" cy="44.47" r="36.82" opacity=".56"/><circle cx="44.47" cy="44.47" r="29.28" opacity=".72"/><circle cx="44.56" cy="44.5" r="7.31" opacity=".86"/><path d="M44.53 37.16 44.81 0M44.53 52.45V89M51.89 44.48H89M37.22 44.48H0" opacity=".85"/></g><path fill="#FFF" fill-rule="nonzero" d="M44 86c-11.04-7.62-27.96-7.62-39 0l10.11-17.58c10.42-4.49 17.2-4.63 28.89 0V86ZM44 86c11.04-7.62 27.96-7.62 39 0L72.89 68.42c-10.42-4.49-17.2-4.63-28.89 0V86Z"/><path stroke="#333" d="M44 86c-11.04-7.62-27.96-7.62-39 0l10.11-17.58c10.42-4.49 17.2-4.63 28.89 0v.12M44 86c11.04-7.62 27.96-7.62 39 0L72.89 68.42c-10.42-4.49-17.2-4.63-28.89 0v.12"/><path stroke="#231F20" stroke-linecap="round" d="M44.5 68v18"/></g></svg>