<svg xmlns="http://www.w3.org/2000/svg" viewBox="0 0 506 85"><defs><linearGradient id="a" x1="0%" x2="100%" y1="50%" y2="50%"><stop offset="0%" stop-color="#ECA203"/><stop offset="100%" stop-color="#BF1D1B"/></linearGradient><linearGradient id="b" x1="0%" x2="100%" y1="50%" y2="50%"><stop offset="0%" stop-color="#ECA203"/><stop offset="100%" stop-color="#BF1D1B"/></linearGradient></defs><g fill="none" fill-rule="evenodd"><g fill="#000305" fill-rule="nonzero"><path d="M128.54 28.45c0-.15.05-.25.15-.3.35-.15 1.5-.2 3.15-.2 5.05 0 7.65 2.85 7.65 7.1 0 2.2-1 4.6-3.05 5.95-.6.4-.95.45-1.9.45-.75 0-4.85-.1-5.8-.1-.15-.05-.2-.1-.2-.25V28.45Zm13.85 24.3c0 5.4-4.05 7.9-8.3 7.9-2.85 0-4.75-.45-5.3-1-.15-.15-.25-2.35-.25-11v-4.3c0-.1.05-.15.2-.2.45 0 2.8-.1 4.4.05 2.15.15 4.2.45 5.95 1.85a7.67 7.67 0 0 1 3.3 6.7Zm-18.05-4.1c0 6.5-.2 12.45-.35 14.45.75-.05 2.15-.1 2.9-.05 1.15.05 3.55.35 7 .35 8.85 0 13-5.5 13-11.25 0-5.7-4-8.85-8.2-10.05a9.19 9.19 0 0 0 4.8-8.05c0-3.7-2.05-8.75-10.6-8.75-2.55 0-4.95.2-6.8.2-.75 0-1.6-.05-2.25-.1.4 1.8.5 7.3.5 14.45v8.8ZM152.21 51.29c0 5.23-.2 10.46-.34 11.85.44-.04 1.73-.14 2.7-.14.71 0 1.62.05 2 .1-.23-1.16-.38-6.72-.38-11.81v-7.2c0-5.76.15-10.27.3-11.81-.34.05-1.4.14-2.74.14-.63 0-1.54 0-1.97-.04.29 1.1.43 5.9.43 11.7v7.2ZM168.52 35.06c0-.14.05-.19.15-.19.24-.14 1.1-.24 2.59-.24 4.22 0 6.33 2.16 6.33 5.62a5.6 5.6 0 0 1-2.44 4.7c-.53.34-.92.39-1.68.39-.68 0-3.94-.1-4.76-.1-.14-.05-.19-.1-.19-.2v-9.98ZM180 54.6c0 4.32-3.36 6.29-6.81 6.29-2.45 0-4.03-.48-4.47-.87-.1-.1-.19-2.1-.19-8.73v-3.36c0-.05.05-.15.15-.2.43 0 2.44-.09 3.6.05 1.96.15 3.7.44 5.04 1.54a6.25 6.25 0 0 1 2.68 5.28Zm-15.36-3.31c0 5.28-.19 10.13-.33 11.8.72-.04 1.92-.09 2.64-.04.96.05 3.12.29 6.05.29 7.48 0 11.18-4.47 11.18-9.22 0-4.56-3.26-7.15-6.91-8.2a7.2 7.2 0 0 0 4.03-6.54c0-3.02-1.78-7.1-9.07-7.1-2.69 0-4.37.14-6.05.14-.72 0-1.49-.04-2.06-.1.33 1.5.52 5.96.52 11.77v7.2ZM188.34 51.29c0 5.8-.15 10.32-.29 11.8.53-.14 1.25-.09 2.35-.09 2.16 0 5.04.24 11.23.24 1.92 0 2.36-.05 2.6-.1.14-.67.62-2.59 1-3.36-1.05.53-2.88.82-7.44.82-1.87 0-3.3 0-4.12-.14-.53-.05-.87-.1-1.01-.24-.29-.15-.34-.92-.34-9.27V44c0-5.76.24-10.17.39-11.71-.53.14-1.68.14-2.79.14-.72 0-1.63.05-2.01-.1.24 1.16.43 6 .43 11.77v7.2ZM210.88 51.29c0 5.8-.24 10.32-.39 11.8.53-.04 1.59-.09 2.88-.09 1.78 0 5 .24 10.8.24 1.59 0 2.07-.05 2.21-.1.15-.9.53-2.44.87-3.36-1.3.53-3.17.82-7.06.82-1.87 0-3.17-.05-4.18-.2a2.39 2.39 0 0 1-.9-.23c-.25-.1-.3-1.35-.3-9.22v-2.73c0-.15.05-.2.15-.2.81 0 5.66 0 7.1.15 1.68.14 2.35.29 2.93.62 0-.91.14-2.69.38-3.65-.52.15-1.44.2-3.7.34l-6.71.05c-.1 0-.15-.1-.15-.24V35.1c0-.1.05-.14.15-.14 3.45 0 5.95.1 7.3.14 2.06.2 2.92.39 3.5.72 0-1.49.14-2.93.29-3.65-.77.2-2.5.24-3.41.24h-9.5c-.97 0-2.17.05-2.74-.1.33 1.16.48 5.1.48 11.77v7.2ZM264.98 49.85c.05 0 .15.05.2.15 1.75 4 4.45 10.9 5.25 13.15.6-.15 2-.15 3.25-.15.55 0 1.35.05 2.3.1-1.3-1.95-4.1-8.5-6.35-13.8-4.25-10.1-9.2-21.4-9.75-22.6-.75-1.65-.95-2.05-1.2-2.05-.35 0-.55.6-1.15 2.05l-9.9 24.55c-2 4.85-3.9 9.25-5.15 11.9.4-.05 1.65-.15 2.65-.15 1.05 0 1.45-.05 2 .1.5-2.35 2.9-8.8 4.45-13.1.05-.1.1-.15.25-.15h13.15Zm-12.2-2.9c-.1 0-.15-.05-.1-.2l5.45-14.55 5.9 14.55c.05.15 0 .2-.1.2h-11.15ZM294.28 63.67c3.65 0 7.2-.67 8.88-1.39.14-.96.43-2.78.77-3.74-2.16 1.53-5.52 2.2-9.22 2.2-10.6 0-14.78-7.39-14.78-13.92 0-3.45.91-6.76 3.65-9.4 1.63-1.5 4.32-3.12 9.3-3.12 5.34 0 8.94 1.68 10.62 3.36.04-1.5.28-3.32.62-4.13-1.73-.48-5.18-1.83-10.94-1.83-6.34 0-10.42 1.92-13.1 4.47-3.9 3.6-4.62 8.01-4.62 11.09 0 3.6 1.16 8.5 5.19 12.04 3.5 3.08 7.92 4.37 13.63 4.37ZM323.93 63.67c3.65 0 7.2-.67 8.88-1.39.14-.96.43-2.78.77-3.74-2.16 1.53-5.52 2.2-9.22 2.2-10.6 0-14.78-7.39-14.78-13.92 0-3.45.9-6.76 3.64-9.4 1.64-1.5 4.32-3.12 9.32-3.12 5.32 0 8.92 1.68 10.6 3.36.05-1.5.3-3.32.63-4.13-1.73-.48-5.19-1.83-10.95-1.83-6.33 0-10.41 1.92-13.1 4.47-3.89 3.6-4.6 8.01-4.6 11.09 0 3.6 1.14 8.5 5.18 12.04 3.5 3.08 7.92 4.37 13.63 4.37ZM340.2 51.29c0 5.8-.23 10.32-.38 11.8.53-.04 1.59-.09 2.88-.09 1.78 0 5 .24 10.8.24 1.59 0 2.07-.05 2.21-.1.15-.9.53-2.44.87-3.36-1.3.53-3.17.82-7.06.82-1.87 0-3.17-.05-4.18-.2a2.39 2.39 0 0 1-.9-.23c-.25-.1-.3-1.35-.3-9.22v-2.73c0-.15.05-.2.15-.2.81 0 5.66 0 7.1.15 1.68.14 2.35.29 2.93.62 0-.91.14-2.69.38-3.65-.52.15-1.44.2-3.7.34l-6.71.05c-.1 0-.15-.1-.15-.24V35.1c0-.1.05-.14.15-.14 3.45 0 5.95.1 7.3.14 2.06.2 2.92.39 3.5.72 0-1.49.14-2.93.29-3.65-.77.2-2.5.24-3.41.24h-9.5c-.97 0-2.17.05-2.74-.1.33 1.16.48 5.1.48 11.77v7.2ZM360.9 62c1.5.95 4.28 1.67 7.01 1.67 2.11 0 4.66-.38 6.58-1.68a9.04 9.04 0 0 0 3.84-7.05c0-3.17-1.01-5.67-6.1-8.84l-2.06-1.3c-3.7-2.44-4.27-3.93-4.27-6.04 0-2.69 2.1-4.46 5.23-4.46 3.4 0 5.42 1.39 6.19 2.35 0-1.54.24-3.8.38-4.23l-2.2-.33c-.96-.2-2.45-.39-4.13-.39-5.9 0-9.31 3.56-9.31 7.92 0 2.84 1.15 5.62 5.61 8.45l2.11 1.35c3.6 2.3 4.47 3.84 4.47 6.33 0 2.88-1.97 5.23-5.86 5.23a9.3 9.3 0 0 1-7.15-3.3c0 1.29-.2 3.64-.34 4.31ZM383.06 62c1.48.95 4.27 1.67 7 1.67 2.12 0 4.66-.38 6.58-1.68a9.04 9.04 0 0 0 3.84-7.05c0-3.17-1-5.67-6.1-8.84l-2.06-1.3c-3.7-2.44-4.27-3.93-4.27-6.04 0-2.69 2.11-4.46 5.23-4.46 3.4 0 5.42 1.39 6.2 2.35 0-1.54.23-3.8.38-4.23l-2.21-.33c-.96-.2-2.45-.39-4.13-.39-5.9 0-9.31 3.56-9.31 7.92 0 2.84 1.15 5.62 5.61 8.45l2.12 1.35c3.6 2.3 4.46 3.84 4.46 6.33 0 2.88-1.97 5.23-5.86 5.23a9.3 9.3 0 0 1-7.15-3.3c0 1.29-.19 3.64-.33 4.31ZM422.54 48.65c0 7.1-.2 12.7-.35 14.45.6-.15 1.35-.1 2.5-.1 2.4 0 5.9.3 13.25.3 2.25 0 2.75-.05 3-.1.15-.75.75-2.95 1.15-3.85-1.2.55-3.2 1-8.8 1-2.15 0-3.9 0-4.9-.15-.55-.05-.95-.2-1.2-.35-.3-.15-.35-1.45-.35-11.55v-8.6c0-7.05.2-12.5.4-14.35-.45.15-1.85.15-3 .15-.6 0-1.8.05-2.2-.1.25 1.5.5 7.25.5 14.45v8.8ZM447.09 51.29c0 5.23-.2 10.46-.34 11.85.44-.04 1.73-.14 2.7-.14.71 0 1.62.05 2 .1-.23-1.16-.38-6.72-.38-11.81v-7.2c0-5.76.15-10.27.3-11.81-.34.05-1.4.14-2.74.14-.63 0-1.54 0-1.97-.04.29 1.1.43 5.9.43 11.7v7.2ZM457.33 62c1.49.95 4.27 1.67 7 1.67 2.12 0 4.66-.38 6.58-1.68a9.04 9.04 0 0 0 3.84-7.05c0-3.17-1-5.67-6.1-8.84l-2.06-1.3c-3.7-2.44-4.27-3.93-4.27-6.04 0-2.69 2.11-4.46 5.23-4.46 3.41 0 5.43 1.39 6.2 2.35 0-1.54.24-3.8.38-4.23l-2.2-.33c-.97-.2-2.46-.39-4.14-.39-5.9 0-9.3 3.56-9.3 7.92 0 2.84 1.14 5.62 5.6 8.45l2.12 1.35c3.6 2.3 4.46 3.84 4.46 6.33 0 2.88-1.96 5.23-5.85 5.23a9.3 9.3 0 0 1-7.15-3.3c0 1.29-.2 3.64-.34 4.31ZM477.8 35.74c1.2-.39 2.7-.53 5.72-.68 2.73-.14 3.84-.1 5.8-.1V51.3c0 5.23-.19 10.46-.33 11.85.53-.14 1.68-.14 2.78-.14.72 0 1.44-.05 1.88.1-.15-1.54-.34-6.87-.34-12V34.97c3.07 0 4.9.05 6.67.19 2.74.14 3.89.29 4.61.82.05-1.16.24-2.88.48-3.9-.67.25-3.98.34-6.38.34h-13.83c-3.65 0-5.33-.14-6.33-.38a33.7 33.7 0 0 1-.72 3.7Z"/></g><g transform="translate(1)"><g fill-rule="nonzero"><ellipse cx="41.5" cy="42" fill="#D1D1D1" rx="41.5" ry="42"/><g fill="#A02D05"><path d="m48.63 79.9-.96-.8c.36-.37.33-.65.06-.97-.42-.5-.86-.99-1.15-1.55-.27-.5-.45-1.1-.49-1.67a2.2 2.2 0 0 0-.53-1.36c-.18-.22-.32-.48-.54-.66-.55-.44-.53-.98-.27-1.53.25-.56.5-1.12 1.04-1.5.5-.36.48-.58.22-1.12-.1-.19-.05-.44-.06-.67 0-.07.06-.15.03-.2-.4-.61-.48-1.42-1.13-1.9-.49-.38-.96-.77-1.44-1.17-.13-.1-.23-.27-.2-.39l.47-1.2c.1-.27.3-.54.3-.82a.99.99 0 0 0-.29-.7 1.61 1.61 0 0 0-1.54-.34c-.26.07-.52.1-.79.13-.45.06-.8-.06-1.03-.5-.33-.64-.92-.76-1.57-.8-1.3-.07-2.53.25-3.77.53-.46.1-.87.1-1.32-.05-1-.35-2.03-.44-3.1-.22-.3.06-.72 0-.98-.18-1.14-.8-2.25-1.67-3.36-2.52-.17-.13-.35-.3-.41-.5-.3-.96-1.05-1.57-1.7-2.27-.33-.36-.68-.72-1-1.1-.12-.15-.19-.35-.25-.54l-.43-1.36c-.02-.08-.05-.16-.04-.24.09-.56.22-1.11.26-1.67a14.8 14.8 0 0 0-.26-2.62c-.04-.2-.1-.41-.22-.55-.4-.45-.31-.93-.15-1.42.37-1.1.73-2.19 1.11-3.27.1-.28.28-.53.43-.78.05-.09.15-.16.17-.25.17-.8.77-1.2 1.37-1.68a3.42 3.42 0 0 0 1.4-2.7 3.3 3.3 0 0 1 1.51-2.71 4.5 4.5 0 0 0 1.67-1.95c.09-.18.16-.4.3-.51.1-.09.4-.1.48-.02.3.3.63.31 1.01.25.39-.07.79-.07 1.18-.11.23-.02.48 0 .67-.1.7-.36 1.36-.76 2.03-1.14.06-.03.11-.09.17-.1 1.44-.49 2.88-.94 4.42-.76.13.01.28.07.4.03a5.95 5.95 0 0 1 2.52-.12c.23.03.5 0 .73-.09.52-.2.98-.25 1.42.2.11.1.38.05.58.07 0 .01.03.06.02.07-.42.4-.42.77.02 1.17.27.25.2.55-.05.8l-.37.33c-.23.23-.25.43.05.6.64.37 1.28.73 1.92 1.07a.8.8 0 0 0 .38.11c.73-.02 1.37.25 1.97.63.25.15.52.38.63.64.21.48.54.76 1.02.87.67.14 1.22.48 1.74.93.17.15.56.29.67.2.2-.17.3-.5.42-.77.03-.07-.02-.17-.04-.25-.13-.46-.19-.9.36-1.15a1.29 1.29 0 0 1 1.54.29c.24.25.56.42.85.63l.6.41c.08.06.15.14.23.18.58.25 1.16.47 1.73.73.32.16.6.2.92-.04.37-.29.73-.29 1.12.05.56.48 1.21.27 1.32-.46.17-1.12.53-2.23.2-3.39-.05-.16 0-.36 0-.53-.43-.08-.8-.23-1.17.14-.09.1-.5-.08-.73-.22-.3-.18-.55-.43-.85-.67-.32.64-.48.66-.9.23-.15-.15-.37-.23-.52-.38a10.9 10.9 0 0 1-.77-.86c-.19-.22-.34-.48-.53-.75.16-.34.05-.74-.29-1.04-.11-.1-.17-.31-.17-.47-.02-.6-1-1.2-1.51-.9-.1.06-.13.26-.2.43l-.75-.35c.05.2.04.35.1.43.36.42.51.98 1.03 1.29.34.2.31.3.14.66l-.45-.16-.08 1.11c-.25-.13-.58-.21-.73-.42-.23-.31-.33-.71-.49-1.08-.03-.09-.05-.19-.1-.26-.54-.62-1.1-1.21-1.6-1.86-.15-.19-.11-.51-.2-.76-.1-.26-.19-.6-.4-.75-.78-.55-1.62-1.02-2.42-1.56a6.84 6.84 0 0 1-.97-.84c-.2-.2-.37-.46-.57-.71-.37.33-.55.28-.78-.14-.09-.17-.58-.12-.9-.17-.07.75.2 1.13.72 1.41.28.15.49.44.73.67.25.24.46.61.76.7.96.3 1.6 1.1 2.49 1.5.28.13.5.38.75.58l-.1.14-1.05-.6c-.3.3-.43.57.01.81.24.14.29.32.1.53-.27.29-.37.8-.95.67-.05 0-.2.3-.25.46-.03.15.03.32.05.48l-.12.13-2.23-1.16.02-.2c.21-.02.43-.06.65-.05.6.02 1.22.1 1.82.07.15 0 .44-.44.4-.54a3.92 3.92 0 0 0-1.72-1.73c-.79-.48-1.62-.89-2.38-1.41A6.82 6.82 0 0 1 44.47 24c-.33-.4-1.2-.6-1.66-.39-1 .47-2 .97-3.18.53-.24-.09-.58 0-.86.08-.32.1-.5.34-.4.7.1.34-.07.5-.35.6-.24.1-.46.24-.7.29-.87.19-1.4.86-1.98 1.45-.11.12-.2.4-.14.53.15.3.05.47-.16.65-.57.51-1.14 1.05-1.73 1.54-.16.12-.4.14-.62.17-.84.14-1.68.26-2.33.9-.06.07-.45-.04-.49-.14-.2-.62-.58-.64-1.1-.44-.2.08-.45.09-.75.14l.09-.73c0-.13.05-.32-.01-.38-.39-.33-.18-.63.02-.93.56-.85.78-1.78.65-2.81-.01-.12.13-.33.25-.37.6-.2 1.2-.44 1.83-.53.97-.13 1.96-.17 2.93-.24.63-.04.86-.2 1.06-.8l.23-.77c.1-.38.03-.6-.3-.94a2.26 2.26 0 0 0-1.71-.71c-.1 0-.2-.2-.29-.3l.05-.19 2.24-.24v-.65l.38.07c.38.1.74.14 1.06-.2.1-.1.3-.12.45-.19.18-.08.47-.15.5-.28.14-.54.6-.49.96-.66.58-.29 1.12-.65 1.68-.98l-.07-.1.42.15.1-.5c.6-.05 1.23-.13 1.86-.17.42-.02.58-.2.45-.61-.07-.2-.15-.42-.28-.58-.4-.5-.25-.94.34-1.08.29-.07.56-.18.82-.27l.24.85c-.02.02-.15.08-.23.17-.14.15-.4.4-.36.48.1.22.33.4.53.55.7.53 1.42.1 2.12.03.3.54.8.49 1.27.43.5-.05 1.01-.2 1.52-.24.24-.01.52.07.73.2.29.16.5.22.82.02.2-.13.48-.12.8-.19-.05-.15-.13-.32-.15-.5-.02-.3-.07-.61.03-.86.13-.3.44-.4.75-.17.13.1.24.26.39.3.2.07.42.05.63.07-.07-.25-.1-.53-.22-.75-.13-.2-.36-.35-.55-.52l.1-.17c.5 0 1.05-.12 1.5.03.69.22 1.3.03 1.97-.04a2.85 2.85 0 0 0-2.3-.57c-.87.1-1.79.18-2.44-.5-.32-.33-.42-.91-.53-1.4-.03-.11.3-.33.48-.46.47-.31.96-.59 1.41-.92.09-.06.11-.38.04-.46-.33-.38-1.63-.42-1.98-.09-.1.1-.23.3-.2.38.22.5-.19.55-.44.67-.42.22-.87.4-1.3.59-.43.17-.41.59-.38.9.02.21.3.42.5.59.2.17.43.28.81.52-.39.23-.65.45-.95.55-.3.1-.44.23-.43.56.01.2 0 .4-.05.6-.08.32-.24.53-.63.48-.3-.04-.57-.03-.77.31-.14.24-.7.06-.99-.3-.16.22-.3.43-.49.67l-.64-.5 1.18-.43-1.6-2.07c-1.1.41-2.1 1.38-3.34.38l.23-.33-.43-.02c-.05-.49-.12-.96-.14-1.44 0-.15.1-.37.22-.43.42-.22.86-.4 1.3-.57.8-.32 1.6-.57 2.3-1.14.33-.26.63-.58.96-.84.45-.36.8-.83 1.2-1.23.1-.1.28-.1.41-.15.11-.05.21-.1.3-.22-.34-.04-.75.2-.9-.33.28-.13.53-.2.81.05.25.21.52.17.78-.12l-.29-.2.01-.1h.76l-.1-.08.39-.43c.54.41 1 .39 1.53.05.29-.19.69-.2 1.04-.3l1.19-.27-.34.62.07.07.62-.46c.1.1.17.2.25.29.52-.54.6-.54.82-.02.54-.3.9.13 1.34.26v.14l-.85.1c.52.31.99.4 1.46.37.27-.02.45-.14.56.26.04.15.46.2.7.28.54.17 1.1.29 1.6.51.67.3 1.32.65 1.93 1.05.27.19.42.55.63.84-.29.16-.55.4-.86.48-.27.07-.6.02-.88-.07-.98-.33-1.96-.7-2.98-1.02.33.24.68.46.99.73.16.14.28.36.36.57.15.4.22.84.72 1 .22.06.39.26.6.34.21.08.45.09.67.12l.06-.15-.97-.73c.84-.2 1.31.72 2.08.4l-.32-.56c.95-.72 1.23-.75 2.08-.23.18-.3.32-.57-.01-.88-.09-.07-.11-.24-.13-.37l-.06-.82c.9.04.96.07 1.37.66-.16.04-.3.05-.43.1-.12.04-.22.1-.38.19.3.37.55.73 1.02.68.18-.02.35-.2.52-.33.12-.1.2-.26.33-.33 1.6-.72 1.61-.73 2.93.42a42.13 42.13 0 0 1 14.3 25.92c.83 5.26.64 10.5-.5 15.7-.05.25-.16.5-.29.73-.25.46-.53.46-.75-.02-.14-.32-.17-.68-.27-1.02-.3-.97-.7-1.92-.93-2.92-.2-.92-.26-1.89-.36-2.84-.04-.37-.04-.76-.06-1.12-.26.27-.56.75-.72.7-.31-.08-.54-.46-.83-.74l.57-.42c-.94-.28-1.2-1.07-1.59-1.76-.54.05-1.08.17-1.62.15a8.62 8.62 0 0 1-1.8-.34c-.13-.04-.22-.34-.27-.54-.13-.53-.25-.6-.65-.27-.38.33-.64.1-.9-.14-.55-.52-1-1.11-1.15-1.88-.08-.36-.31-.63-.66-.5-.3.12-.5.42-.3.83.25.55.5 1.1.7 1.66.13.39.19.8.37 1.2l.18-.52.14.01c0 .24-.03.48 0 .7.04.23.17.64.22.63.35-.03.78.18 1.02-.28.19-.36.4-.7.67-1.16l.08.81c.03.39.2.66.56.83.57.28.8.92.53 1.49-.13.28-.33.53-.5.8-.05.06-.11.13-.11.2-.04.73-.61 1.1-.95 1.63-.27.4-.64.52-.96.77-.22.18-.37.44-.55.67-.07.1-.1.22-.19.28l-2.58 1.78c-.25.17-.46.38-.71.55-.28.2-.5.12-.5-.24-.03-.6-.01-1.2-.01-1.81 0-.15.05-.32 0-.45-.35-.95-.46-1.98-1.09-2.83a1.76 1.76 0 0 1-.27-.99c0-.8-.1-1.52-.65-2.16-.19-.22-.15-.61-.27-.9-.32-.76-.67-1.5-1-2.25-.08-.16-.1-.35-.17-.6l-.2.68-.14.06-.74-1.54-.1.03.35 1.03c.42 1.26.92 2.5 1.2 3.78.14.58.31 1.1.54 1.63.2.47.19 1.05.18 1.58 0 .57.1 1.06.44 1.55.21.31.23.8.25 1.2.03.46.18.76.53 1.07.4.38.68.9 1 1.37.05.08.06.27 0 .33-.3.36-.02.61.16.84.08.1.35.17.49.12.7-.3 1.38-.64 2.07-.98.22-.1.4-.25.74-.47-.09.48-.1.87-.23 1.2-.88 2.15-1.8 4.26-3.58 5.86-.77.7-1.35 1.62-2.08 2.37-.7.72-1.19 1.57-1.68 2.42-.1.18-.05.46-.06.69-.01.16 0 .31-.03.47-.1.47-.22.94.13 1.38.09.1.03.35 0 .53-.06.5-.15.99-.22 1.49-.1.75-.66 1.12-1.2 1.51-.78.59-1.58 1.15-2.36 1.75-.12.1-.17.33-.19.51-.01.18.08.36.1.54.13.82-.14 1.3-.88 1.63-.22.1-.44.18-.63.31-.1.08-.24.24-.23.35.04.68-.35 1.12-.78 1.56-.5.5-.98 1.05-1.5 1.54a5.16 5.16 0 0 1-3.5 1.44c-.63.02-1.24.32-1.85.5h-.2ZM.9 51.49c.64.8 1.23-.08 1.78.11.2.16.37.37.6.46.38.15.38.4.2.74.7.03 1.04.42 1.35.95.26.45.63.84 1.27.83.83 0 1.8.83 2.12 1.68.14.39.38.74.51 1.13.06.17.01.4-.07.58-.17.37-.4.7-.6 1.06l.1.09.37-.14c.46.7.66.7 1.3.12.07-.08.26-.13.34-.08.56.33 1.23.53 1.42 1.22 1.13.36 2.27.59 3.09 1.56.28.33.76.5 1.13.76.17.12.31.3.4.49.45.87.66 1.74-.24 2.5-.13.1-.18.31-.26.48-.06.11-.08.31-.17.35-.61.29-.33.75-.25 1.17a4.6 4.6 0 0 1-.31 3.01c-.16.33-.12.78-.53.97-.1.06-.23.2-.3.17-.88-.23-1.51.38-2.34.6A42.02 42.02 0 0 1 .9 51.5ZM10.07 14.9c.47-.53.96-1.1 1.48-1.64 3.69-3.9 7.95-6.97 12.8-9.22.32-.14 1.1-.04 1.27.26.1.17.02.45.02.68l-.16.1-1.35-.83c.1.93.94.84 1.48 1.2l-.1.22.13-.03.21.83c-.35.07-.62.15-.9.15-.15 0-.38-.1-.43-.23-.16-.39-.45-.5-.92-.56l.1.73-.61.3v.1h2.1a10.8 10.8 0 0 1-5.28 2.19c-.87.9-1.64 2.16-3.2 2.46l.19-.45-1.8 1.28.23.4-.99 1.47c-.1.14-.17.3-.23.45-.2.48-.3 1-.58 1.42-.57.89-.6.86-1.46.18-.12-.1-.35-.17-.47-.11-.59.28-.79-.2-1.05-.52-.18-.23-.3-.51-.48-.83Z"/><path d="m37.37 17.63.97.14.06.17-.77.69.3.15c-.07.06-.13.14-.2.15l-2.48.45c-.29.05-.56.14-.84.22l-1.32.33c.33-.26.54-.5.8-.64.28-.15.6-.21.9-.4l-1.32-.1c.29-.32 1.08-.27.62-.98.34-.28 1.02.1 1.06-.56-.24-.68-.72-.64-1.3-.44.09-.2.16-.3.17-.42.02-.13-.02-.26-.03-.39l-.25.26c-.03.04-.08.05-.2.12l.14-.65-.39.02c.11-.14.2-.24.3-.39l-.33-.17c.2-.15.46-.3.65-.5.37-.4.36-.42 1.55-.52l-.34.27-.38.31h1.5l-.99 1.12c.75-.15.88.51 1.27.72.48.27.72.6.85 1.04ZM67.04 66.32c.31.48.44 1.16.15 1.58-.53.77-.68 1.67-1.09 2.47-.43.83-.78 1.7-1.17 2.56-.24.53-1.04.88-1.48.65-.1-.05-.25-.14-.26-.21-.03-.59-.35-1.2.1-1.74.41-.5.67-1 .57-1.7-.07-.52.24-.96.74-1.2a3.4 3.4 0 0 0 1.63-1.4c.2-.37.52-.66.81-1.01ZM24.69 11.83c.36-.3.35-.34-.19-.64l.46-.39-.05-.14-.93.12-.06-.12.65-.35h.1c.57-.31.61-.3.78.32.1-.04.2-.06.27-.12.52-.45 1.16-.51 1.8-.6.24-.05.46-.2.7-.3.1-.04.23-.1.3-.07.37.16.73.33 1.07.53.05.03.03.29-.04.38a.96.96 0 0 1-.39.3c-.9.4-1.8.8-2.72 1.18-.17.07-.4.02-.59 0-.39-.02-.77-.07-1.16-.1ZM3.55 25.23c.57-1.12 1.13-2.24 1.72-3.34.05-.1.24-.1.37-.15.02.1.03.2.09.29.12.17.25.35.4.5.14.12.46.19.46.29.02.33.05.83-.15.98-.68.56-1.45 1-2.2 1.47-.15.09-.38.05-.58.08l-.1-.12Z"/><path d="m30.01 19.19.69-.74c-.06-.29-.2-.53-.13-.66.09-.16.36-.2.53-.3.16-.1.35-.22.42-.37.21-.42 1.43-.71 1.73-.36.08.09.04.42-.04.47-.26.16-.3.34-.3.62.03.39-.16.65-.54.8-.5.18-.97.43-1.47.61-.26.1-.55.08-.83.12l-.06-.2ZM7.26 25.63c.05.29.1.45.1.62.02.14 0 .3-.02.47.46.19.29.5.1.82l-.16.06-.25-.72-.55.77-.15-.13.3-.46-1.97.14c.66-1.05.91-2.24 1.77-3.06l.16.09-.5 1.07c.38.2.65.69 1.17.33ZM43.6 26.24l.39-.15c.55-.19.9.08.84.68-.04.4 0 .85-.59.93-.32.04-.45-.06-.48-.38-.03-.35-.1-.68-.16-1.08ZM3.98 27.7l.33.84-2.48 1.4.47-1.41c.88.53 1.37.11 1.68-.82ZM26.7 3.32c-.29.47-.97.64-1.61.4.56-.2.96-.6 1.6-.4ZM44.63 25.09c-.17.24-.3.4-.4.56-.14-.17-.35-.32-.38-.5-.02-.1.23-.3.39-.38.06-.03.22.18.4.32ZM66.06 8.66l-.79.05c0-.16-.05-.43.03-.49.36-.25.54.09.76.27v.17ZM62.56 33.68c0 .5-.24.58-.52.56-.07 0-.13-.19-.19-.28l.71-.28ZM57.93 33.26l-1.23-.5.07-.18 1.23.48-.07.2Z"/></g><path fill="url(#a)" d="M41.55 7.38c-18.9 0-34.2 15.5-34.2 34.62 0 19.12 15.3 34.62 34.2 34.62 18.89 0 34.2-15.5 34.2-34.62 0-19.12-15.31-34.62-34.2-34.62Zm0 62.13C26.54 69.51 14.37 57.2 14.37 42c0-15.2 12.17-27.51 27.18-27.51S68.73 26.8 68.73 42c0 15.2-12.17 27.51-27.18 27.51Z" opacity=".8" transform="translate(.06 .05)"/><path fill="url(#b)" d="M41.47 0C18.57 0 0 18.8 0 41.97c0 23.18 18.57 41.98 41.47 41.98s41.47-18.8 41.47-41.98C82.94 18.8 64.37 0 41.47 0Zm.08 76.67c-18.95 0-34.31-15.54-34.31-34.72S22.6 7.22 41.54 7.22c18.96 0 34.32 15.55 34.32 34.73 0 19.18-15.36 34.72-34.31 34.72Z" opacity=".6" transform="translate(.06 .05)"/></g><ellipse cx="41.5" cy="42.47" stroke="#D1D1D1" rx="41.5" ry="41.53"/><g stroke="#FFF" stroke-width="2" transform="translate(0 .93)"><ellipse cx="41.47" cy="41.51" opacity=".56" rx="34.34" ry="34.37"/><ellipse cx="41.47" cy="41.51" opacity=".72" rx="27.31" ry="27.33"/><ellipse cx="41.55" cy="41.53" opacity=".86" rx="6.81" ry="6.82"/><path d="M41.53 34.69 41.79 0M41.53 48.95v34.12M48.39 41.51H83M34.71 41.51H0" opacity=".85"/></g><path fill="#FFF" fill-rule="nonzero" d="M41.03 80.27c-10.3-7.11-26.07-7.11-36.37 0l9.43-16.4c9.71-4.2 16.05-4.33 26.94 0v16.4ZM41.03 80.27c10.3-7.11 26.08-7.11 36.37 0l-9.43-16.4c-9.7-4.2-16.04-4.33-26.94 0v16.4Z"/><path stroke="#333" d="M41.03 80.27c-10.3-7.11-26.07-7.11-36.37 0l9.43-16.4c9.71-4.2 16.05-4.33 26.94 0v.1M41.03 80.27c10.3-7.11 26.08-7.11 36.37 0l-9.43-16.4c-9.7-4.2-16.04-4.33-26.94 0v.1"/><path stroke="#231F20" stroke-linecap="round" d="M41.5 63.47v16.8"/></g></g></svg>