<svg xmlns="http://www.w3.org/2000/svg" viewBox="0 0 405 41"><g fill="#F1F1F1" fill-rule="nonzero"><path d="M5.45 4.07c0-.16.05-.26.15-.31.37-.16 1.56-.21 3.28-.21 5.25 0 7.95 2.96 7.95 7.38a7.43 7.43 0 0 1-3.17 6.19c-.62.42-.99.47-1.97.47-.78 0-5.05-.1-6.04-.1-.15-.06-.2-.11-.2-.27V4.07Zm14.4 25.27c0 5.62-4.21 8.22-8.63 8.22-2.97 0-4.94-.47-5.51-1.04-.16-.16-.26-2.45-.26-11.44V20.6c0-.1.05-.15.2-.2.47 0 2.92-.1 4.58.05 2.24.15 4.37.47 6.19 1.92a7.98 7.98 0 0 1 3.43 6.97ZM1.08 25.08c0 6.76-.21 12.94-.37 15.02.78-.05 2.24-.1 3.02-.05 1.2.05 3.7.37 7.28.37 9.2 0 13.52-5.72 13.52-11.7 0-5.93-4.16-9.2-8.53-10.46 2.24-1.24 5-4 5-8.37C21 6.04 18.85.8 9.96.8 7.32.8 4.82 1 2.9 1 2.12 1 1.23.95.56.9c.41 1.87.52 7.59.52 15.02v9.16ZM33.25 28.29c0 5.23-.2 10.46-.34 11.85.43-.04 1.73-.14 2.69-.14.72 0 1.63.05 2.01.1-.24-1.16-.38-6.72-.38-11.81v-7.2c0-5.76.14-10.27.29-11.81-.34.05-1.4.14-2.74.14-.62 0-1.53 0-1.97-.04.3 1.1.44 5.9.44 11.7v7.2ZM52.86 12.06c0-.14.05-.19.14-.19.24-.14 1.1-.24 2.6-.24 4.22 0 6.33 2.16 6.33 5.62a5.6 5.6 0 0 1-2.45 4.7c-.53.34-.91.39-1.68.39-.67 0-3.93-.1-4.75-.1-.14-.05-.2-.1-.2-.2v-9.98ZM64.33 31.6c0 4.32-3.36 6.29-6.82 6.29-2.44 0-4.03-.48-4.46-.87-.1-.1-.2-2.1-.2-8.73v-3.36c0-.05.06-.15.15-.2.43 0 2.45-.09 3.6.05 1.97.15 3.7.44 5.04 1.54a6.25 6.25 0 0 1 2.69 5.28Zm-15.36-3.31c0 5.28-.2 10.13-.34 11.8.72-.04 1.92-.09 2.64-.04.96.05 3.12.29 6.05.29 7.49 0 11.19-4.47 11.19-9.22 0-4.56-3.27-7.15-6.92-8.2a7.2 7.2 0 0 0 4.04-6.54c0-3.02-1.78-7.1-9.08-7.1-2.68 0-4.36.14-6.04.14-.72 0-1.5-.04-2.07-.1.34 1.5.53 5.96.53 11.77v7.2ZM75.97 28.29c0 5.8-.14 10.32-.28 11.8.52-.14 1.24-.09 2.35-.09 2.16 0 5.04.24 11.23.24 1.92 0 2.35-.05 2.6-.1.14-.67.62-2.59 1-3.36-1.06.53-2.88.82-7.44.82-1.87 0-3.31 0-4.13-.14-.53-.05-.86-.1-1-.24-.3-.15-.34-.92-.34-9.27V21c0-5.76.24-10.17.38-11.71-.53.14-1.68.14-2.78.14-.72 0-1.63.05-2.02-.1.24 1.16.43 6 .43 11.77v7.2ZM98.51 28.29c0 5.8-.24 10.32-.38 11.8.53-.04 1.58-.09 2.88-.09 1.78 0 5 .24 10.8.24 1.58 0 2.06-.05 2.2-.1.15-.9.54-2.44.87-3.36-1.3.53-3.17.82-7.05.82-1.88 0-3.17-.05-4.18-.2a2.39 2.39 0 0 1-.91-.23c-.24-.1-.29-1.35-.29-9.22v-2.73c0-.15.05-.2.14-.2.82 0 5.67 0 7.1.15 1.69.14 2.36.29 2.94.62 0-.91.14-2.69.38-3.65-.53.15-1.44.2-3.7.34l-6.72.05c-.1 0-.14-.1-.14-.24V12.1c0-.1.05-.14.14-.14 3.46 0 5.96.1 7.3.14 2.06.2 2.93.39 3.5.72 0-1.49.15-2.93.3-3.65-.78.2-2.5.24-3.42.24h-9.5c-.96 0-2.16.05-2.74-.1.34 1.16.48 5.1.48 11.77v7.2ZM153.55 26.32c.05 0 .15.06.2.16a294.54 294.54 0 0 1 5.46 13.68c.63-.16 2.08-.16 3.38-.16.58 0 1.4.05 2.4.1-1.36-2.02-4.27-8.84-6.6-14.35-4.43-10.5-9.58-22.25-10.15-23.5-.78-1.72-.99-2.13-1.25-2.13-.36 0-.57.62-1.2 2.13L135.5 27.78a308.64 308.64 0 0 1-5.35 12.38c.41-.06 1.71-.16 2.75-.16 1.1 0 1.51-.05 2.08.1.52-2.44 3.02-9.15 4.63-13.62.05-.1.1-.16.26-.16h13.68Zm-12.7-3.01c-.1 0-.15-.05-.1-.21l5.67-15.13 6.14 15.13c.05.16 0 .2-.1.2h-11.6ZM186.72 40.67c3.65 0 7.2-.67 8.88-1.39.15-.96.43-2.78.77-3.74-2.16 1.53-5.52 2.2-9.22 2.2-10.6 0-14.78-7.39-14.78-13.92 0-3.45.91-6.76 3.65-9.4 1.63-1.5 4.32-3.12 9.31-3.12 5.33 0 8.93 1.68 10.6 3.36.06-1.5.3-3.32.63-4.13-1.73-.48-5.18-1.83-10.94-1.83-6.34 0-10.42 1.92-13.1 4.47-3.9 3.6-4.61 8.01-4.61 11.09 0 3.6 1.15 8.5 5.18 12.04 3.5 3.08 7.92 4.37 13.63 4.37ZM219.37 40.67c3.65 0 7.2-.67 8.88-1.39.14-.96.43-2.78.77-3.74-2.16 1.53-5.52 2.2-9.22 2.2-10.6 0-14.78-7.39-14.78-13.92 0-3.45.91-6.76 3.65-9.4 1.63-1.5 4.32-3.12 9.3-3.12 5.34 0 8.94 1.68 10.62 3.36.04-1.5.28-3.32.62-4.13-1.73-.48-5.18-1.83-10.94-1.83-6.34 0-10.42 1.92-13.1 4.47-3.9 3.6-4.62 8.01-4.62 11.09 0 3.6 1.16 8.5 5.19 12.04 3.5 3.08 7.92 4.37 13.63 4.37ZM235.65 28.29c0 5.8-.24 10.32-.38 11.8.52-.04 1.58-.09 2.88-.09 1.77 0 4.99.24 10.8.24 1.58 0 2.06-.05 2.2-.1.15-.9.53-2.44.87-3.36-1.3.53-3.17.82-7.06.82-1.87 0-3.17-.05-4.17-.2a2.39 2.39 0 0 1-.92-.23c-.24-.1-.28-1.35-.28-9.22v-2.73c0-.15.04-.2.14-.2.82 0 5.66 0 7.1.15 1.68.14 2.36.29 2.93.62 0-.91.15-2.69.39-3.65-.53.15-1.44.2-3.7.34l-6.72.05c-.1 0-.14-.1-.14-.24V12.1c0-.1.04-.14.14-.14 3.46 0 5.95.1 7.3.14 2.06.2 2.92.39 3.5.72 0-1.49.14-2.93.29-3.65-.77.2-2.5.24-3.41.24h-9.5c-.96 0-2.16.05-2.74-.1.34 1.16.48 5.1.48 11.77v7.2ZM256.35 39c1.48.95 4.27 1.67 7 1.67 2.12 0 4.66-.38 6.58-1.68a9.04 9.04 0 0 0 3.84-7.05c0-3.17-1-5.67-6.1-8.84l-2.06-1.3c-3.7-2.44-4.27-3.93-4.27-6.04 0-2.69 2.11-4.46 5.23-4.46 3.4 0 5.42 1.39 6.2 2.35 0-1.54.23-3.8.38-4.23l-2.21-.33c-.96-.2-2.45-.39-4.13-.39-5.9 0-9.31 3.56-9.31 7.92 0 2.84 1.15 5.62 5.61 8.45l2.12 1.35c3.6 2.3 4.46 3.84 4.46 6.33 0 2.88-1.97 5.23-5.86 5.23a9.3 9.3 0 0 1-7.15-3.3c0 1.29-.19 3.64-.33 4.31ZM278.5 39c1.49.95 4.27 1.67 7 1.67 2.12 0 4.66-.38 6.58-1.68a9.04 9.04 0 0 0 3.84-7.05c0-3.17-1-5.67-6.1-8.84l-2.06-1.3c-3.7-2.44-4.27-3.93-4.27-6.04 0-2.69 2.11-4.46 5.23-4.46 3.41 0 5.43 1.39 6.2 2.35 0-1.54.23-3.8.38-4.23l-2.21-.33c-.96-.2-2.45-.39-4.13-.39-5.9 0-9.31 3.56-9.31 7.92 0 2.84 1.15 5.62 5.62 8.45l2.1 1.35c3.6 2.3 4.47 3.84 4.47 6.33 0 2.88-1.97 5.23-5.85 5.23a9.3 9.3 0 0 1-7.16-3.3c0 1.29-.19 3.64-.33 4.31ZM318.28 25.08c0 7.38-.2 13.2-.36 15.02.62-.15 1.4-.1 2.6-.1 2.5 0 6.13.31 13.78.31 2.34 0 2.86-.05 3.12-.1.15-.78.78-3.07 1.2-4-1.25.57-3.33 1.03-9.16 1.03-2.23 0-4.05 0-5.1-.15-.57-.05-.98-.21-1.24-.37-.31-.15-.37-1.5-.37-12v-8.95c0-7.33.21-13 .42-14.93-.47.16-1.92.16-3.12.16-.62 0-1.87.05-2.29-.1.26 1.56.52 7.54.52 15.02v9.16ZM345.15 28.29c0 5.23-.2 10.46-.34 11.85.43-.04 1.73-.14 2.69-.14.72 0 1.63.05 2.01.1-.24-1.16-.38-6.72-.38-11.81v-7.2c0-5.76.14-10.27.29-11.81-.34.05-1.4.14-2.74.14-.62 0-1.53 0-1.97-.04.3 1.1.44 5.9.44 11.7v7.2ZM356.89 39c1.48.95 4.27 1.67 7 1.67 2.12 0 4.66-.38 6.58-1.68a9.04 9.04 0 0 0 3.84-7.05c0-3.17-1-5.67-6.1-8.84l-2.06-1.3c-3.7-2.44-4.27-3.93-4.27-6.04 0-2.69 2.11-4.46 5.23-4.46 3.4 0 5.42 1.39 6.2 2.35 0-1.54.23-3.8.38-4.23l-2.21-.33c-.96-.2-2.45-.39-4.13-.39-5.9 0-9.31 3.56-9.31 7.92 0 2.84 1.15 5.62 5.61 8.45l2.12 1.35c3.6 2.3 4.46 3.84 4.46 6.33 0 2.88-1.97 5.23-5.86 5.23a9.3 9.3 0 0 1-7.15-3.3c0 1.29-.19 3.64-.33 4.31ZM377.36 12.74c1.2-.39 2.69-.53 5.71-.68 2.74-.14 3.84-.1 5.81-.1V28.3c0 5.23-.19 10.46-.33 11.85.52-.14 1.68-.14 2.78-.14.72 0 1.44-.05 1.87.1-.14-1.54-.33-6.87-.33-12V11.97c3.07 0 4.9.05 6.67.19 2.73.14 3.89.29 4.6.82.05-1.16.25-2.88.49-3.9-.68.25-3.99.34-6.39.34h-13.82c-3.65 0-5.33-.14-6.34-.38a33.7 33.7 0 0 1-.72 3.7Z"/></g></svg>