<svg xmlns="http://www.w3.org/2000/svg" viewBox="0 0 135 135"><defs><linearGradient id="a" x1="0%" x2="100%" y1="50%" y2="50%"><stop offset="0%" stop-color="#ECA203"/><stop offset="100%" stop-color="#BF1D1B"/></linearGradient><linearGradient id="b" x1="0%" x2="100%" y1="50%" y2="50%"><stop offset="0%" stop-color="#ECA203"/><stop offset="100%" stop-color="#BF1D1B"/></linearGradient></defs><g fill="none" fill-rule="evenodd" transform="translate(1 .48)"><g fill-rule="nonzero" transform="translate(.57)"><ellipse cx="66.36" cy="67" fill="#D1D1D1" rx="66.36" ry="67"/><g fill="#A02D05"><path d="m77.76 127.45-1.53-1.26c.58-.6.54-1.04.1-1.56-.67-.78-1.37-1.57-1.84-2.47a6.8 6.8 0 0 1-.78-2.66 3.5 3.5 0 0 0-.85-2.17c-.3-.35-.52-.77-.87-1.05-.88-.7-.84-1.56-.43-2.44.4-.9.8-1.8 1.66-2.4.8-.57.78-.92.36-1.78-.15-.3-.07-.71-.09-1.07 0-.1.09-.25.05-.3-.66-1-.78-2.3-1.8-3.06a57.71 57.71 0 0 1-2.31-1.85c-.22-.18-.38-.43-.33-.63l.75-1.9c.17-.45.47-.88.49-1.33.02-.37-.18-.88-.46-1.12-.7-.6-1.55-.77-2.47-.52-.41.1-.84.13-1.26.2-.73.1-1.29-.1-1.66-.81-.52-1.01-1.47-1.2-2.5-1.26-2.07-.12-4.05.39-6.04.84-.73.17-1.4.17-2.1-.08a9.26 9.26 0 0 0-4.95-.36c-.5.1-1.17 0-1.58-.28-1.83-1.29-3.6-2.66-5.38-4.02-.26-.2-.56-.49-.65-.8-.48-1.53-1.68-2.5-2.71-3.61-.54-.58-1.1-1.15-1.6-1.76-.2-.24-.3-.56-.4-.86-.25-.72-.47-1.45-.69-2.18-.04-.12-.08-.26-.06-.38.13-.89.34-1.77.41-2.67.06-.68-.02-1.38-.1-2.06-.07-.71-.18-1.42-.32-2.12-.06-.3-.15-.65-.35-.88-.63-.71-.5-1.47-.24-2.26.59-1.74 1.16-3.48 1.78-5.21.16-.44.44-.84.68-1.25.08-.14.24-.24.27-.39.28-1.29 1.24-1.91 2.2-2.68a5.44 5.44 0 0 0 2.23-4.32 5.25 5.25 0 0 1 2.42-4.32 7.2 7.2 0 0 0 2.67-3.1c.14-.3.25-.64.48-.82.17-.14.63-.16.76-.02.5.47 1 .49 1.62.38.62-.1 1.26-.1 1.89-.17.36-.04.77 0 1.08-.16 1.1-.57 2.16-1.2 3.24-1.82.1-.05.18-.13.28-.17 2.29-.76 4.6-1.48 7.06-1.2.21.03.44.11.63.05a9.54 9.54 0 0 1 4.03-.2c.38.06.82.01 1.18-.13.83-.33 1.56-.4 2.27.3.18.17.6.09.92.12 0 .02.06.1.04.11-.67.64-.67 1.23.03 1.88.43.4.33.86-.08 1.26l-.59.54c-.38.36-.41.69.08.96 1.02.58 2.04 1.15 3.07 1.7.18.1.4.19.6.18 1.17-.03 2.2.4 3.16 1 .4.25.82.6 1 1.02a2.2 2.2 0 0 0 1.63 1.38c1.07.24 1.96.78 2.79 1.5.27.23.9.45 1.06.31.34-.27.49-.8.68-1.23.04-.1-.04-.26-.07-.39-.2-.74-.3-1.43.58-1.84a2.06 2.06 0 0 1 2.47.46c.38.4.9.68 1.35 1l.97.67c.12.08.23.22.37.28.91.4 1.85.75 2.75 1.17.53.25.97.33 1.47-.07.6-.46 1.17-.46 1.8.08.89.77 1.94.43 2.11-.73.28-1.78.85-3.56.32-5.4-.08-.27-.01-.58-.01-.86-.67-.13-1.27-.37-1.86.23-.14.14-.81-.14-1.17-.35-.48-.29-.88-.7-1.35-1.07-.52 1.02-.77 1.05-1.45.36-.24-.24-.58-.37-.82-.6a17.4 17.4 0 0 1-1.24-1.37c-.3-.36-.54-.76-.84-1.2.25-.54.07-1.18-.47-1.67-.18-.15-.27-.48-.28-.74-.02-.94-1.6-1.92-2.42-1.43-.16.1-.2.41-.32.68l-1.2-.55c.09.32.08.55.19.68.55.67.8 1.56 1.63 2.06.54.33.5.47.22 1.05l-.72-.26-.12 1.78c-.4-.22-.92-.34-1.17-.67-.36-.5-.53-1.14-.78-1.73-.06-.13-.08-.3-.17-.4-.85-1-1.75-1.95-2.55-2.98-.24-.3-.18-.82-.33-1.2-.16-.43-.3-.98-.62-1.2-1.26-.89-2.6-1.64-3.88-2.5-.56-.37-1.07-.85-1.55-1.33-.34-.33-.6-.74-.92-1.14-.59.53-.87.45-1.24-.22-.15-.27-.93-.19-1.44-.27-.12 1.2.32 1.8 1.15 2.25.45.24.78.7 1.16 1.07.4.38.75.97 1.22 1.11 1.54.47 2.56 1.76 3.98 2.4.45.2.8.6 1.2.92l-.16.23-1.68-.98c-.47.5-.69.92.02 1.31.39.22.46.5.15.84-.42.46-.58 1.27-1.5 1.07-.09-.01-.34.46-.4.74-.06.23.04.5.07.75l-.19.22-3.57-1.85.03-.33c.35-.02.7-.09 1.05-.08.97.04 1.94.17 2.9.12.24 0 .7-.7.63-.87-.3-.6-.72-1.15-1.2-1.62-.45-.44-.99-.8-1.53-1.13-1.27-.76-2.6-1.41-3.82-2.25-.76-.53-1.4-1.26-2.02-1.98-.53-.62-1.91-.96-2.65-.61-1.61.74-3.21 1.54-5.1.84-.38-.15-.92.01-1.36.13-.53.14-.8.53-.64 1.1.15.55-.12.8-.57.98-.38.14-.73.37-1.11.45-1.4.3-2.24 1.37-3.17 2.31-.19.19-.33.65-.23.85.24.48.08.75-.25 1.04-.92.82-1.82 1.66-2.78 2.45-.24.2-.64.22-.98.27-1.34.22-2.68.41-3.73 1.45-.1.1-.72-.08-.78-.24-.32-1-.93-1.01-1.75-.7-.34.13-.72.14-1.21.23l.14-1.16c.02-.21.09-.52-.01-.61-.62-.53-.3-1 .02-1.48a6.4 6.4 0 0 0 1.06-4.5c-.03-.17.2-.52.38-.58.97-.32 1.94-.7 2.94-.84 1.55-.22 3.12-.28 4.69-.38 1-.07 1.36-.32 1.68-1.29.14-.4.27-.81.38-1.22.16-.62.03-.95-.5-1.5a3.62 3.62 0 0 0-2.72-1.14c-.16 0-.31-.32-.46-.48l.07-.3 3.59-.39v-1.03l.6.1c.62.16 1.2.24 1.7-.3.17-.17.49-.19.72-.3.29-.14.75-.25.8-.46.22-.85.96-.77 1.53-1.05.93-.46 1.8-1.04 2.7-1.56L64 28.2l.66.25.16-.79c.96-.1 1.97-.22 2.98-.28.67-.04.92-.31.7-.97a2.9 2.9 0 0 0-.43-.93c-.63-.78-.4-1.5.54-1.72.46-.1.9-.29 1.32-.42l.38 1.34c-.03.03-.24.12-.38.28-.22.24-.63.63-.56.77.16.34.53.62.85.87 1.1.84 2.26.16 3.38.05.48.86 1.27.78 2.03.69.82-.1 1.62-.32 2.44-.38.38-.03.82.1 1.16.3.46.27.82.35 1.3.04.33-.2.78-.2 1.28-.3-.07-.24-.2-.52-.22-.8-.04-.46-.12-.98.05-1.37.2-.48.69-.65 1.19-.27.21.16.39.41.62.48.32.1.67.07 1 .1-.1-.4-.14-.85-.35-1.19-.2-.33-.57-.56-.87-.83l.16-.27c.81 0 1.68-.2 2.41.05 1.09.35 2.07.04 3.14-.07a4.57 4.57 0 0 0-3.69-.9c-1.39.17-2.85.28-3.9-.8-.5-.53-.66-1.46-.84-2.24-.04-.17.47-.52.77-.72.74-.5 1.53-.95 2.26-1.48.13-.1.17-.6.05-.73-.52-.6-2.6-.67-3.16-.14-.16.16-.37.48-.31.6.34.79-.3.87-.7 1.07-.69.35-1.4.65-2.1.94-.68.28-.65.94-.6 1.43.03.34.47.68.8.95.3.27.7.45 1.3.83-.62.36-1.04.71-1.52.87-.49.16-.71.37-.69.9.02.31-.01.64-.08.95-.12.52-.39.86-1.01.77-.48-.06-.9-.04-1.23.5-.22.38-1.12.1-1.58-.48l-.78 1.07-1.03-.81 1.88-.67-2.54-3.31c-1.76.66-3.37 2.2-5.36.61l.37-.53-.68-.03c-.09-.78-.2-1.54-.23-2.3 0-.23.16-.6.35-.7.67-.34 1.38-.61 2.09-.9 1.27-.5 2.54-.9 3.68-1.81.52-.42 1-.93 1.53-1.35.7-.57 1.27-1.32 1.93-1.96.15-.15.43-.16.65-.24.17-.07.33-.16.48-.34-.55-.07-1.2.31-1.46-.53.45-.21.86-.33 1.31.07.4.34.82.27 1.25-.18l-.46-.31.01-.17h1.2l-.14-.13.6-.68c.89.66 1.62.62 2.46.07.46-.3 1.1-.33 1.66-.46l1.9-.45-.54 1 .1.1 1-.73.41.46c.83-.85.97-.85 1.31-.04.86-.47 1.44.23 2.14.43v.23l-1.35.14c.83.5 1.57.65 2.33.6.42-.04.72-.23.9.41.05.24.73.32 1.13.45.85.28 1.74.46 2.55.82 1.06.48 2.1 1.03 3.08 1.68.43.29.68.87 1 1.32-.45.27-.88.65-1.37.78-.43.1-.96.03-1.4-.11-1.58-.53-3.14-1.11-4.77-1.63.53.38 1.09.73 1.58 1.16.26.23.45.58.58.9.24.65.35 1.35 1.15 1.6.34.1.62.42.96.55.33.13.71.14 1.08.2l.09-.25-1.56-1.16c1.35-.33 2.1 1.15 3.32.64l-.5-.9c1.51-1.14 1.97-1.2 3.32-.37.3-.47.52-.9-.02-1.4-.13-.12-.17-.39-.2-.6-.05-.44-.07-.88-.1-1.3 1.43.06 1.54.1 2.2 1.06-.26.05-.48.08-.69.15-.19.07-.36.18-.6.3.46.6.87 1.17 1.62 1.1.3-.04.57-.33.83-.54.2-.15.32-.42.54-.51 2.55-1.16 2.57-1.18 4.68.66 12.6 10.98 20.26 24.75 22.87 41.35a67.27 67.27 0 0 1-.8 25.04c-.08.4-.26.8-.46 1.17-.4.73-.85.73-1.2-.04-.23-.5-.27-1.08-.44-1.62-.5-1.55-1.12-3.07-1.48-4.65-.34-1.48-.42-3.02-.58-4.53-.07-.6-.07-1.22-.1-1.8-.42.44-.9 1.2-1.16 1.13-.49-.14-.86-.74-1.32-1.2l.92-.67c-1.5-.43-1.91-1.7-2.55-2.8-.86.08-1.73.28-2.59.23-.96-.05-1.93-.28-2.87-.53-.21-.06-.36-.55-.44-.87-.21-.84-.4-.96-1.03-.42-.62.52-1.03.16-1.44-.23a5.76 5.76 0 0 1-1.85-3c-.13-.57-.5-1-1.05-.79-.48.19-.8.67-.49 1.33.41.86.8 1.74 1.12 2.64.22.62.3 1.27.6 1.92l.28-.83.22.01c0 .38-.04.76.02 1.12.06.36.26 1.01.35 1 .55-.05 1.24.28 1.63-.45.3-.56.63-1.1 1.07-1.85l.12 1.3c.05.61.33 1.05.9 1.32.92.45 1.28 1.46.85 2.38-.22.44-.54.84-.8 1.26-.08.1-.18.23-.19.35-.05 1.15-.97 1.74-1.52 2.58-.42.65-1.01.83-1.52 1.24-.35.28-.6.7-.88 1.06-.11.15-.17.36-.3.45-1.38.96-2.76 1.88-4.13 2.83-.4.27-.75.6-1.14.88-.45.3-.79.2-.8-.38-.04-.96-.02-1.93-.02-2.89 0-.24.09-.5.01-.72-.56-1.5-.74-3.16-1.74-4.51a2.8 2.8 0 0 1-.44-1.58c0-1.27-.16-2.43-1.04-3.45-.3-.34-.24-.97-.44-1.43-.5-1.2-1.07-2.39-1.6-3.59-.11-.26-.16-.55-.26-.95l-.33 1.07-.22.11-1.18-2.47-.16.06.56 1.64c.67 2 1.47 3.98 1.94 6.04.2.91.48 1.73.84 2.59.31.75.3 1.67.3 2.52a4 4 0 0 0 .7 2.48c.34.5.36 1.26.4 1.91.04.72.29 1.2.84 1.7.65.6 1.1 1.44 1.6 2.19.08.13.1.43.01.53-.48.56-.04.97.24 1.34.13.17.57.27.78.18a66 66 0 0 0 3.32-1.55c.35-.17.66-.41 1.19-.76-.14.77-.16 1.39-.38 1.92-1.4 3.43-2.87 6.79-5.71 9.35-1.24 1.11-2.17 2.57-3.34 3.78-1.12 1.14-1.9 2.5-2.68 3.86-.16.29-.07.73-.1 1.1-.02.25 0 .5-.05.74-.14.76-.35 1.5.22 2.21.13.17.04.56 0 .84-.1.79-.24 1.58-.35 2.37-.17 1.2-1.07 1.8-1.92 2.43-1.26.93-2.54 1.82-3.77 2.78-.2.15-.3.53-.31.82-.02.28.12.57.16.86.2 1.3-.23 2.08-1.42 2.6-.34.15-.7.29-1 .5-.17.11-.38.37-.37.55.06 1.08-.56 1.79-1.24 2.48-.8.82-1.57 1.68-2.4 2.47a8.27 8.27 0 0 1-5.61 2.29c-1 .03-1.97.51-2.96.79h-.32ZM1.44 82.13c1.03 1.28 1.97-.11 2.85.19.31.24.6.58.95.72.6.25.62.65.34 1.2 1.12.03 1.65.66 2.14 1.5.42.73 1.02 1.34 2.03 1.34 1.34 0 2.89 1.31 3.4 2.67.22.62.6 1.18.81 1.8.1.27.02.65-.11.92-.28.59-.64 1.13-.97 1.7l.16.14.6-.22c.74 1.1 1.05 1.12 2.07.18.12-.12.43-.2.56-.13.88.53 1.96.86 2.26 1.95 1.8.58 3.63.94 4.94 2.5.46.53 1.23.78 1.82 1.21.26.2.49.48.64.77.7 1.4 1.05 2.78-.39 4-.2.17-.3.5-.42.76-.1.19-.13.5-.27.57-.98.45-.53 1.19-.4 1.86a7.33 7.33 0 0 1-.5 4.8c-.26.53-.18 1.24-.84 1.55-.17.09-.36.3-.5.27-1.38-.36-2.4.6-3.72.96a66.97 66.97 0 0 1-17.45-33.2ZM16.1 23.77c.76-.84 1.55-1.75 2.37-2.62a66.43 66.43 0 0 1 20.48-14.7c.5-.24 1.75-.06 2.03.4.16.27.03.72.03 1.09l-.26.16-2.16-1.32c.16 1.48 1.5 1.33 2.37 1.93l-.18.33L41 9l.35 1.33c-.58.1-1 .25-1.44.25-.24 0-.62-.18-.7-.37-.25-.62-.72-.8-1.46-.9l.15 1.16-.98.49v.16h3.38a17.28 17.28 0 0 1-8.46 3.48c-1.4 1.43-2.63 3.46-5.11 3.93l.3-.72-2.9 2.05.4.64-1.6 2.33c-.14.23-.27.47-.37.72-.3.76-.48 1.6-.92 2.28-.92 1.41-.96 1.36-2.34.28-.19-.15-.56-.27-.75-.18-.94.45-1.26-.31-1.68-.83-.29-.37-.47-.82-.76-1.32Z"/><path d="m59.76 28.13 1.55.22.1.26-1.23 1.1.49.25c-.13.1-.22.22-.33.24-1.32.24-2.65.46-3.97.71-.46.09-.9.23-1.35.35l-2.1.54c.52-.43.87-.8 1.3-1.03.43-.24.95-.34 1.42-.63l-2.11-.17c.45-.51 1.73-.43 1-1.55.53-.45 1.62.14 1.68-.9-.38-1.08-1.14-1.02-2.07-.71.13-.31.25-.49.27-.67.03-.2-.03-.4-.05-.62-.14.15-.26.29-.4.42-.05.05-.12.08-.3.2l.2-1.05-.61.03.47-.61a93.3 93.3 0 0 1-.52-.28c.32-.24.73-.46 1.03-.79.6-.65.58-.67 2.49-.84l-.55.43-.61.5h2.39l-1.58 1.78c1.2-.23 1.41.82 2.04 1.16.77.42 1.14.96 1.35 1.66ZM107.22 105.79c.49.78.7 1.85.23 2.52-.85 1.23-1.08 2.67-1.74 3.95-.69 1.33-1.25 2.72-1.87 4.08-.38.84-1.67 1.4-2.37 1.04-.16-.08-.4-.22-.41-.34-.06-.93-.57-1.91.15-2.78.66-.78 1.07-1.58.92-2.7-.12-.83.38-1.54 1.17-1.91 1.08-.52 2-1.15 2.62-2.25.32-.58.83-1.05 1.3-1.61ZM39.48 18.86c.58-.47.56-.54-.3-1.02l.73-.6-.07-.23-1.49.18-.1-.19 1.04-.55c.04-.02.11.01.15 0 .92-.5.99-.47 1.27.51.14-.06.31-.1.42-.2.83-.72 1.85-.81 2.87-.96.39-.06.75-.32 1.13-.47.16-.06.36-.17.48-.11.59.25 1.17.53 1.71.85.08.05.05.45-.06.6-.14.21-.38.38-.62.49-1.44.64-2.9 1.28-4.36 1.87-.27.11-.62.03-.94.01l-1.85-.17ZM5.68 40.25c.91-1.78 1.81-3.57 2.74-5.34.08-.14.39-.16.6-.23.04.15.05.33.14.46.2.28.4.57.65.8.22.2.73.3.74.46.02.54.06 1.32-.25 1.57-1.09.88-2.32 1.6-3.52 2.34-.24.15-.61.09-.92.13l-.18-.2Z"/><path d="m48 30.61 1.1-1.19c-.1-.44-.32-.84-.2-1.05.13-.24.56-.3.84-.48.25-.16.55-.34.67-.59.33-.66 2.28-1.12 2.77-.56.12.14.06.67-.07.75-.41.25-.5.53-.47.98.04.62-.27 1.04-.88 1.27-.8.3-1.55.7-2.34.98-.42.15-.88.14-1.33.2l-.1-.31ZM11.62 40.89c.08.46.14.72.16.98.02.24-.02.47-.04.75.73.3.46.8.17 1.32l-.27.08-.4-1.14-.87 1.23-.24-.21.48-.73-3.16.22c1.06-1.68 1.46-3.57 2.83-4.88l.25.14-.78 1.7c.6.33 1.03 1.1 1.87.54ZM69.73 41.86l.62-.23c.87-.31 1.44.12 1.34 1.07-.06.63 0 1.36-.93 1.48-.53.07-.73-.08-.78-.6-.04-.55-.15-1.09-.25-1.72ZM6.36 44.2l.54 1.32-3.98 2.25.76-2.26c1.41.84 2.2.18 2.68-1.3ZM42.69 5.3c-.45.74-1.54 1.02-2.57.64.9-.33 1.54-.95 2.57-.64ZM71.38 40.03l-.66.9c-.22-.28-.54-.52-.6-.82-.03-.16.37-.48.63-.6.1-.04.36.29.63.52ZM105.65 13.8l-1.26.1c0-.27-.1-.69.04-.78.57-.4.86.14 1.21.43v.26ZM100.05 53.72c-.01.81-.4.94-.84.9-.1-.01-.2-.3-.3-.45l1.14-.45ZM92.64 53.06l-1.96-.81.1-.28 1.98.78-.12.31Z"/></g><path fill="url(#a)" d="M66.45 11.77c-30.21 0-54.7 24.73-54.7 55.23 0 30.5 24.49 55.23 54.7 55.23 30.2 0 54.7-24.73 54.7-55.23 0-30.5-24.5-55.23-54.7-55.23Zm0 99.12c-24.01 0-43.47-19.65-43.47-43.89 0-24.24 19.46-43.89 43.47-43.89 24 0 43.46 19.65 43.46 43.89 0 24.24-19.46 43.89-43.46 43.89Z" opacity=".8" transform="translate(.1 .09)"/><path fill="url(#b)" d="M66.32 0C29.69 0 0 29.98 0 66.96c0 36.98 29.7 66.95 66.32 66.95 36.62 0 66.31-29.97 66.31-66.95C132.63 29.98 102.94 0 66.32 0Zm.13 122.31c-30.3 0-54.88-24.8-54.88-55.4 0-30.6 24.57-55.4 54.88-55.4 30.3 0 54.87 24.8 54.87 55.4 0 30.6-24.57 55.4-54.87 55.4Z" opacity=".6" transform="translate(.1 .09)"/></g><circle cx="66.5" cy="67" r="66.5" stroke="#D1D1D1"/><g stroke="#FFF" stroke-width="2" transform="translate(.02 .52)"><circle cx="66.48" cy="66.48" r="55.04" opacity=".56"/><circle cx="66.48" cy="66.48" r="43.78" opacity=".72"/><circle cx="66.61" cy="66.53" r="10.92" opacity=".86"/><path d="M66.58 55.56 66.98 0M66.58 78.41v54.64M77.58 66.49h55.47M55.65 66.49H0" opacity=".85"/></g><path fill="#FFF" fill-rule="nonzero" d="M66.5 128c-16.42-11.6-41.58-11.6-58 0l15.04-26.78c15.48-6.85 25.59-7.07 42.96 0V128ZM66.5 128c16.42-11.6 41.58-11.6 58 0l-15.04-26.78c-15.48-6.85-25.59-7.07-42.96 0V128Z"/><path stroke="#333" d="M66.5 128c-16.42-11.6-41.58-11.6-58 0l15.04-26.78c15.48-6.85 25.59-7.07 42.96 0v.17M66.5 128c16.42-11.6 41.58-11.6 58 0l-15.04-26.78c-15.48-6.85-25.59-7.07-42.96 0v.17"/><path stroke="#231F20" stroke-linecap="round" d="M66.5 101v27"/></g></svg>