<svg xmlns="http://www.w3.org/2000/svg" viewBox="0 0 216 69"><g fill="none" fill-rule="evenodd"><g fill="#A1988A" fill-rule="nonzero"><path d="M20.47 50.54h1.9v3.42h-1.9zM21.2 31.44l.92-2.8 1.36.45-.91 2.8zM26.31 14.8l2-2.72 1.06.78-2 2.73z"/></g><g fill-rule="nonzero"><path fill="#005581" d="M18.71 0c.35 1 .93 1.84 1.65 2.62 1.35 1.42 1.44 2.73.31 4.36l-3.92 5.5c-.07.12-.14.1-.18-.02-.29-1-.82-1.82-1.52-2.57-1.33-1.43-1.4-2.78-.29-4.38 1.1-1.6 2.23-3.18 3.35-4.78.16-.22.42-.4.36-.73h.24Z"/><path fill="#A1998B" d="M181.07 24.02c1.1-.1 2.01.35 2.96.28-.09.83.13.83.13 1.27.02 3.51.07 7.07.02 10.55-.04 3.51 1.84 4.71 4.84 4.96 1.32.1 2.4-.14 4.76-1.5 0-4.92.09-9.74.09-14.7a2.29 2.29 0 0 1 1.52-.46c.49-.03.75-.4 1.35-.2 0 6.33.2 12.8.2 19.19a3.7 3.7 0 0 1-2.16.31c-.18-.73-.36-1.46-.53-2.22-.49-.11-.75.27-1.09.44-2.16 1.18-4.4 1.98-6.92 1.83-3-.18-5.06-1.87-5.17-4.91-.15-4.71 0-9.98 0-14.84Z"/><path fill="#A2998B" d="m115.9 41.34 11.85-.44c.13.93.06 1.75-.29 2.67-4.92-.05-9.88 0-14.94.3v-28.3c1.1-.24 2.17-.17 3.38-.15v25.92Z"/><path fill="#005581" d="M8.3 50.16a9.33 9.33 0 0 0-4.04-1.84c-1-.18-1.94-.58-2.74-1.24A3.88 3.88 0 0 1 0 44.03c.02-3.66.09-7.33.13-10.97 0-.2.02-.4.22-.6 1.5 1.04 3.2 1.58 4.99 1.97 2.25.52 3.5 2.18 3.49 4.51 0 3.74-.1 7.5-.14 11.22-.13.14-.26.12-.4 0Z"/><path fill="#A1988A" d="m10.2 48.16.04-8.44c.04-3.4 1.85-5 4.54-5.26.75-.1 1.48-.4 2.2-.62.74-.25 1.35-.7 2.06-1 .31.3.16.64.18.95.09 3.29-.25 6.6-.2 9.89.04 2.88-1.63 4.22-3.73 4.68-1.61.36-3.22 1.14-4.7 1.78a.24.24 0 0 1-.33-.18 9.9 9.9 0 0 1-.07-1.8Z"/><path fill="#015581" d="M90.61 43.54c-1.08.31-2.11.2-3.22.3v-30.6c1.1-.33 2.23-.27 3.51-.29-.42 10.24-.22 20.42-.29 30.6Z"/><path fill="#005581" d="M10.22 28.9a10.86 10.86 0 0 0-3.12-2.64c-1.87-1.09-2.42-2.71-1.76-4.78.86-2.69 1.72-5.37 2.62-8.26 1.13 1.4 2.52 2.2 3.87 3.06 1.4.94 1.78 2.51 1.23 4.34l-2.6 8.22c-.09.15-.16.15-.24.06Z"/><path fill="#A1988B" d="M11.47 29.13c.89-2.74 1.72-5.5 2.63-8.22.68-2.1 2.2-2.94 4.41-2.63.95.14 1.94.18 2.9-.09.26-.06.52-.17.8-.02.23.3.03.54-.06.8-.75 2.36-1.56 4.69-2.25 7.07-.73 2.55-2.7 3.35-4.94 2.93-1.17-.22-2.23.18-3.33.36a.35.35 0 0 1-.16-.2Z"/><path fill="#025681" d="M64.07 24.28V43.5c-1.01.4-2.05.2-3.15.33v-19.3c.99-.14 2-.25 3.15-.25Z"/><path fill="#A1988B" d="m17.5 13 3.77-5.38c.8-1.11 1.17-1.33 2.65-1.71.81.09 1.54.44 2.3.73.72.3 1.45.45 2.4.47-1.55 2.18-2.94 4.29-4.53 6.26-.88 1.11-2.25 1.05-3.46.5a7.8 7.8 0 0 0-3.16-.74c.03-.02.03-.09.03-.13Z"/><path fill="#025681" d="M63.83 19.5c-.97.12-1.81.36-2.78.32-.31-1.51-.22-3.02-.29-4.62 1.13-.36 2.3-.34 3.55-.63-.17 1.71-.33 3.27-.48 4.94Z"/><path fill="#005581" d="M54.87 29.8c-.29.04-2.95-.63-3.24-.8.1-.34.35-.39.64-.34.09.15 2.54 1 2.6 1.13Z"/><path fill="#A1988A" d="m11.5 29.13.26.29c-.13 0-.22.03-.35.03l.03.04c.03-.14.06-.27.06-.36Z"/><path fill="#A1988B" d="M205.65 40.21c-2.38-1.62-2.69-4.33-2.78-7.17 4.5.35 8.8.15 13.13.24 0-.82 0-1.64-.02-2.47-.4-.88-.49-1.86-.88-2.75-1.46-3.2-4.1-4.6-7.06-4.27-3.45.4-5.98 2.3-7.55 5.42a12.08 12.08 0 0 0-.95 7.82c.31 1.54.95 2.94 2 4.11 2.04 2.27 4.58 3.1 7.53 2.91a8.94 8.94 0 0 0 6.47-3.37c-.25-.47-.4-.94-.78-1.31-2.9 2.24-6 2.97-9.1.84Zm1.68-14.02a3.38 3.38 0 0 1 3.97 1.27c.77 1 1.26 2.13 1.3 3.42-1.17.2-8.32.27-9.44.09.66-2.36 1.87-4.07 4.17-4.78Z"/><path fill="#005581" d="M58.49 34.17c-.5-2.93-2.45-4.33-5.16-4.93a11.1 11.1 0 0 0-.84-.16c-.09-.13-.53-.07-.27-.4.38-.13.78-.24 1.13-.42 2.78-1.36 3.84-3.69 3.7-6.69-.08-2.5-1.5-4.42-4.03-5.4a12.71 12.71 0 0 0-3.53-.77c-2.38-.2-4.77.02-7.15.04-.6 0-1.2-.11-1.81.11V43.8c3.29.02 6.46-.1 9.64-.31 1.81-.14 3.58-.65 5.14-1.67 2.56-1.64 3.73-4.49 3.18-7.64Zm-8.43-16.09c3.27 1.03 4.61 5.54 2.43 8.18a4.54 4.54 0 0 1-2.58 1.47c-1.99.5-4 .4-6 .4-.03-3.51-.03-6.94-.03-10.53 2.19.04 4.22-.12 6.18.48Zm4.33 20.78a3.95 3.95 0 0 1-1.97 1.73c-.66.31-1.37.47-2.1.58-2.05.35-4.14.1-6.44.33V30.35c2.5 0 5.03-.22 7.48.57 3.11 1.03 4.6 5.03 3.03 7.94Z"/><path fill="#A1988A" d="M177.3 40.81a1.03 1.03 0 0 0-.22-.11 30.24 30.24 0 0 0-6.27-1.31c-1.05-.16-2.16-.13-3.22-.62.16-.87.33-1.65.86-2.3.86 0 1.72.03 2.56 0a8.1 8.1 0 0 0 4.75-1.61 5.57 5.57 0 0 0 .1-9.07c-.2-.15-.54-.2-.74-.7 1.25-1.27 2.53-2.54 3.86-3.87-1.1-.14-2.16-.3-3.29-.45-.66 1.2-1.3 2.38-1.94 3.51-.49-.06-.9-.13-1.35-.2-2.49-.42-4.8 0-6.93 1.42-3.61 2.45-3.55 7.27.07 9.69.4.27.9.36 1.15.82-1.79 2-2.83 3.42-1.1 5.4-1.9 1.24-2.6 1.89-3.36 3.09-1.3 2.1-1.01 4.38.7 5.97.93.85 2.02 1.38 3.2 1.63 3.1.62 6.12.24 9.05-.83a8.24 8.24 0 0 0 4.26-3.06c1.83-2.73 1.83-6.04-2.14-7.4Zm-11.12-10.9c-.09-2.34 1.59-3.98 4.15-3.92 2.6.07 4.43 1.6 4.48 4.58.04 2.4-1.41 3.98-4.1 4a4.37 4.37 0 0 1-4.53-4.67Zm11.32 17.08c-.24.62-.6 1.2-1.15 1.53-3.04 1.84-6.29 2.27-9.62.89-1.9-.78-2.4-2.25-1.76-4.2a6.13 6.13 0 0 1 2.38-3.24c2.52.2 4.99.53 7.4 1.3.72.25 1.43.54 2.04 1.03.95.75 1.15 1.55.7 2.69Z"/><path fill="#005581" d="M84.4 28.41c-1.22-2.95-3.58-4.4-6.78-4.42-2.05-.02-3.9.56-5.67 1.56-.33.18-.62.55-1.15.47.2-4.31.13-8.62.24-13.05-1.25 0-2.31.14-3.37.32v29.4c3.09.99 6.18 1.52 9.35 1.1a8.75 8.75 0 0 0 6.56-4.16c2.22-3.57 2.38-7.4.81-11.22Zm-2.85 8.9a5.55 5.55 0 0 1-4.13 4.06c-2.16.57-4.32.42-6.53-.05V28.24c1.99-1.27 4.04-2.07 6.42-1.23 2.7.96 4.1 2.94 4.5 5.7a10.8 10.8 0 0 1-.26 4.6Z"/><path fill="#A1988B" d="M144.2 33.24c.31-1 .03-1.87-.17-2.76-.4-2.07-1.15-3.98-2.9-5.33-3.04-2.38-7.14-1.51-9.8.73-3.19 2.67-4.16 6.24-3.72 10.2.42 3.73 2.4 6.42 6.1 7.6 1.34.42 2.7.46 4.08.3a8.84 8.84 0 0 0 5.95-3.28c-.24-.51-.33-1-.81-1.31-2.8 2.18-5.83 2.89-8.96.87-2.12-1.38-3.24-4.87-2.56-7.22 4.24.3 8.5.17 12.8.2Zm-7.67-7.25a3.35 3.35 0 0 1 2.89 1.25 7.33 7.33 0 0 1 1.48 3.75h-9.38c.3-2.6 2.56-4.89 5-5Z"/><path fill="#005581" d="M108.24 39.39c-2.78 2.15-5.71 2.87-8.82 1.02-2.12-1.27-3.33-4.53-2.83-7.29 4.28.18 8.6.1 13 .12-.07-2.27-.42-4.34-1.55-6.16a6.4 6.4 0 0 0-5.84-3.29 8.74 8.74 0 0 0-5.94 2.42c-2.71 2.5-3.62 5.67-3.44 9.27.2 3.93 2.47 7.04 6 8.2A9.21 9.21 0 0 0 109 40.7c-.2-.44-.33-.96-.75-1.31Zm-7-13.29a3.5 3.5 0 0 1 3.76 1.63c.62.9.88 1.95 1.17 3.26h-9.42a5.68 5.68 0 0 1 4.5-4.89Z"/><path fill="#A1988B" d="m160.18 42.74-.07-8.8c0-1.77.1-3.57-.2-5.35-.44-2.84-2.22-4.69-5.11-4.66-1.1 0-2.19.1-3.25.35a9.8 9.8 0 0 0-3.86 1.47c.05.62-.04 1.22.13 1.8.34.13.6.02.86-.05 1.02-.26 2.03-.53 3.05-.75 2.47-.54 4.15.55 4.79 3.04.26 1.09.24 2.18.17 3.4-1.21.05-2.3.13-3.37.29-1.97.31-3.89.71-5.54 1.93a4.82 4.82 0 0 0-1.94 5.33c.53 1.74 2.34 2.96 4.41 3.05 2.2.09 4.13-.62 5.91-1.85.36-.22.67-.57 1.13-.57.42.8.53 1.66 1.06 2.4.6-.05 1.21.1 1.7-.27.17-.27.13-.51.13-.76Zm-3.77-2.95c-1.46.69-2.83 1.73-4.64 1.58-1.74-.18-2.73-.96-3.24-2.65.18-1.04.8-1.66 1.61-2.1a18.02 18.02 0 0 1 6.27-1.87v5.04Z"/></g><path fill="#A1998B" fill-rule="nonzero" d="M194.65 23.87h3v3.01h-3zM209.67 23.87l-3.01 1.23v2.46l2.79.82z"/><path d="M53.5 51.18h136.65V69H53.5z"/><path fill="#005581" fill-rule="nonzero" d="M54.17 56.8v-5.62h.8v5.62zM64.56 56.8l-3.52-4.57v4.57h-.81v-5.62h1l3.48 4.55v-4.55h.82v5.62zM72.2 56.8v-4.85h-2.02v-.77h4.86v.77H73v4.85zM79.72 56.8v-5.62h4.33v.77h-3.52v1.57h3.3v.78h-3.3v1.68h3.58v.78h-4.4zM89.9 56.8h-.8v-5.62H92c1.16 0 1.75.54 1.75 1.57 0 .61-.2.96-.75 1.32.55.28.64.54.68 1.8.05.63.1.75.33.73v.19h-1c-.1-.33-.1-.4-.14-1.13-.06-.94-.3-1.24-1.03-1.24h-1.96v2.39h.03Zm2.03-3.09c.33 0 .52-.04.68-.14.22-.14.33-.42.33-.75 0-.35-.13-.63-.33-.75-.16-.1-.35-.14-.68-.14H89.9v1.78h2.02ZM103.3 56.8l-3.5-4.57v4.57h-.82v-5.62h1l3.48 4.55v-4.55h.82v5.62zM110.56 55.2l-.68 1.6h-.93l2.46-5.62h.93l2.46 5.63h-1l-.67-1.62h-2.57Zm1.27-3.06-.97 2.3h1.96l-.99-2.3ZM120.86 56.8v-4.85h-2.02v-.77h4.86v.77h-2.05v4.85zM128.35 56.8v-5.62h.82v5.62zM140.15 54.04a3 3 0 0 1-.8 2.09c-.52.54-1.27.84-2.17.84-1.78 0-2.96-1.17-2.96-2.95 0-1.78 1.18-2.95 2.96-2.95 1.8-.03 2.97 1.14 2.97 2.97Zm-5.12-.04c0 1.33.85 2.22 2.15 2.22 1.3 0 2.15-.89 2.15-2.2 0-1.38-.85-2.25-2.15-2.25-1.3 0-2.15.89-2.15 2.23ZM149.5 56.8 146 52.23v4.57h-.81v-5.62h1l3.48 4.55v-4.55h.82v5.62zM156.75 55.2l-.68 1.6h-.92l2.46-5.62h.92l2.46 5.63h-.98l-.69-1.62h-2.57Zm1.28-3.06-.97 2.3h1.96l-1-2.3ZM165.63 56.8v-5.62h.82v4.85h3.29v.77z"/></g></svg>