<svg xmlns="http://www.w3.org/2000/svg" viewBox="0 0 116 116"><g fill="none" fill-rule="nonzero"><g fill="#000"><path d="M26.33 42.79a6.54 6.54 0 0 1 2.54-2.57 7.43 7.43 0 0 1 3.69-.92c1.69 0 3.13.44 4.33 1.33 1.2.89 2 2.1 2.41 3.64h-3.8a3.04 3.04 0 0 0-1.2-1.35 3.4 3.4 0 0 0-1.77-.47 3.3 3.3 0 0 0-2.59 1.11 4.3 4.3 0 0 0-.99 2.97c0 1.24.33 2.23.99 2.97a3.3 3.3 0 0 0 2.59 1.11 3.3 3.3 0 0 0 1.77-.47c.52-.31.92-.76 1.2-1.35h3.8a6.33 6.33 0 0 1-2.41 3.63 7.11 7.11 0 0 1-4.33 1.32 7.37 7.37 0 0 1-3.69-.92 6.51 6.51 0 0 1-2.54-2.56 7.53 7.53 0 0 1-.91-3.74c0-1.4.3-2.65.91-3.75v.02ZM45.28 50.99h4.53v2.67h-7.99v-14.2h3.46v11.53zM54.92 52.87a6.96 6.96 0 0 1-2.65-2.6 7.29 7.29 0 0 1-.98-3.75 7 7 0 0 1 3.63-6.33 7.42 7.42 0 0 1 3.67-.93c1.33 0 2.56.31 3.67.93a6.82 6.82 0 0 1 2.63 2.59c.64 1.11.96 2.35.96 3.74 0 1.39-.32 2.64-.97 3.75a6.91 6.91 0 0 1-2.63 2.6 7.38 7.38 0 0 1-3.66.93 7.42 7.42 0 0 1-3.67-.93Zm6.39-3.36a4.3 4.3 0 0 0 1.02-2.99 4.3 4.3 0 0 0-1.02-3 3.5 3.5 0 0 0-2.72-1.12c-1.13 0-2.06.37-2.74 1.11a4.29 4.29 0 0 0-1.02 3.01c0 1.26.34 2.25 1.02 3a3.5 3.5 0 0 0 2.74 1.12c1.15 0 2.04-.38 2.72-1.13ZM70.52 53.3a4.14 4.14 0 0 1-2.75-3.89h3.68c.05.53.24.93.55 1.2.31.28.71.41 1.21.41s.92-.12 1.21-.35c.3-.24.44-.56.44-.98 0-.35-.12-.64-.35-.87a2.86 2.86 0 0 0-.87-.57c-.34-.15-.83-.32-1.47-.51-.92-.28-1.67-.57-2.24-.85a4.16 4.16 0 0 1-1.5-1.25 3.46 3.46 0 0 1-.63-2.16 3.7 3.7 0 0 1 1.44-3.1 5.88 5.88 0 0 1 3.74-1.12 6 6 0 0 1 3.78 1.12 4.02 4.02 0 0 1 1.54 3.12h-3.74c-.03-.46-.2-.82-.51-1.08a1.8 1.8 0 0 0-1.19-.39c-.42 0-.76.11-1.01.33-.26.22-.38.54-.38.96 0 .46.22.82.65 1.07.43.26 1.11.53 2.02.83.92.31 1.66.61 2.23.89.57.28 1.07.69 1.49 1.23.42.54.63 1.23.63 2.08 0 .85-.21 1.54-.62 2.2a4.33 4.33 0 0 1-1.79 1.58c-.78.39-1.71.59-2.77.59a7.16 7.16 0 0 1-2.79-.51v.02ZM84.48 42.24v2.87h4.63v2.67h-4.63v3.11h5.24v2.77h-8.7v-14.2h8.7v2.77h-5.24z"/></g><g fill="#040404"><path d="M46.78 72.76a2.6 2.6 0 0 0-1.1-1.08 3.6 3.6 0 0 0-1.69-.37c-1.12 0-2.02.37-2.69 1.1a4.2 4.2 0 0 0-1.01 2.94 4.2 4.2 0 0 0 1.06 3.06c.71.74 1.68 1.1 2.92 1.1.85 0 1.57-.22 2.15-.65A3.63 3.63 0 0 0 47.7 77h-4.39v-2.55h7.52v3.22a6.91 6.91 0 0 1-6.84 4.9 7.6 7.6 0 0 1-3.75-.92 6.59 6.59 0 0 1-2.57-2.56 7.54 7.54 0 0 1-.92-3.74c0-1.4.31-2.65.92-3.75a6.59 6.59 0 0 1 2.56-2.57 7.54 7.54 0 0 1 3.74-.92c1.7 0 3.13.41 4.3 1.23a5.8 5.8 0 0 1 2.32 3.42h-3.82.01ZM60.97 68.27h-4l-5.14 14.2h3.62l.85-2.51h1.68l.01-2.67h-.78l1.74-5.2 1.76 5.2h-.78l.01 2.67h1.65l.85 2.51h3.66l-5.14-14.2h.01ZM77.92 75.1a4.21 4.21 0 0 1-1.74 1.65c-.78.42-1.75.63-2.91.63h-2.14v5.1h-3.46v-14.2h5.6c1.13 0 2.09.2 2.87.59.78.39 1.37.93 1.76 1.62.39.69.59 1.48.59 2.37a4.6 4.6 0 0 1-.57 2.26v-.02Zm-3.44-.94c.32-.31.49-.75.49-1.31s-.16-1-.49-1.31c-.32-.31-.82-.46-1.48-.46h-1.88v3.56H73c.66 0 1.15-.15 1.48-.46v-.02Z"/></g><g fill="#000"><path d="M33.13 56.05v1.93h-2.61v7.94h-2.4v-7.94h-2.61v-1.93h7.63zM42.6 56.05v9.86h-2.4v-4.06h-3.74v4.06h-2.4v-9.86h2.4v3.86h3.74v-3.86zM46.45 57.97v2h3.22v1.85h-3.22v2.16h3.64v1.93h-6.04v-9.86h6.04v1.93h-3.64zM61.69 61.7c.35.44.52.95.52 1.52 0 .82-.29 1.48-.86 1.96-.58.48-1.38.72-2.41.72h-4.59v-9.86h4.44c1 0 1.79.23 2.35.69.57.46.85 1.08.85 1.87 0 .58-.15 1.06-.46 1.45-.3.38-.71.65-1.22.8.57.12 1.03.41 1.38.85Zm-4.95-1.67h1.57c.39 0 .7-.09.91-.26.21-.17.32-.43.32-.77a.95.95 0 0 0-.32-.77c-.21-.18-.51-.27-.91-.27h-1.57v2.07Zm2.7 3.66c.22-.18.33-.45.33-.79s-.11-.62-.34-.82a1.4 1.4 0 0 0-.95-.29h-1.74v2.18h1.77c.4 0 .71-.09.93-.27v-.01ZM66.01 56.05v9.86h-2.4v-9.86zM75.1 61.7c.35.44.52.95.52 1.52 0 .82-.29 1.48-.86 1.96-.58.48-1.38.72-2.41.72h-4.59v-9.86h4.44c1 0 1.79.23 2.35.69.57.46.85 1.08.85 1.87 0 .58-.15 1.06-.46 1.45-.3.38-.71.65-1.22.8.57.12 1.03.41 1.38.85Zm-4.95-1.67h1.57c.39 0 .7-.09.91-.26.21-.17.32-.43.32-.77a.95.95 0 0 0-.32-.77c-.21-.18-.51-.27-.91-.27h-1.57v2.07Zm2.7 3.66c.22-.18.33-.45.33-.79s-.11-.62-.34-.82a1.4 1.4 0 0 0-.95-.29h-1.74v2.18h1.77c.4 0 .71-.09.93-.27v-.01ZM79.41 64.05h3.15v1.85h-5.55v-9.86h2.4v8.01zM86.12 57.97v2h3.22v1.85h-3.22v2.16h3.64v1.93h-6.04v-9.86h6.04v1.93h-3.64z"/></g><g fill="#090808"><path d="M115.18 115.18H0V0h115.18v115.18ZM.97 114.21h113.24V.97H.97v113.24Z"/><path d="M45.87 114.35c-9.39 0-11.86-.19-12.58-.35l-30.5-1.61-1.62-30.52c-.16-.72-.35-3.19-.35-12.57s.19-11.86.35-12.57l3.2-55.28.13-.13c.16-.16.53-.52 28.31-.49 20.41.01 24.66.2 25.64.37v-.02l55.28 3.19.13.13c.17.17.49.49.49 27.13 0 21.31-.2 25.78-.37 26.8h.03l-1.61 53.96-53.96 1.6c-.73.16-3.23.35-12.57.35v.01Zm-12.28-1.25c1.79.37 22.78.37 24.57 0l.06-.06h.19l53.05-1.58 1.58-53.24.04-.04c.38-2.8.39-48.42.02-52.87L58.21 2.14l-.04-.04c-2.8-.38-48.42-.39-52.87-.02L2.13 56.97l-.05.05c-.37 1.79-.37 22.77 0 24.56l.06.06v.19l1.58 29.64 29.82 1.58.06.06-.01-.01Z"/><path d="M47.04 113.52c-4.1 0-10.89-.09-12.34-.7l-29.12-3.21-3.22-29.14c-.61-1.45-.7-8.24-.7-12.34s.09-10.9.7-12.34L8.74 2.61l.12-.12C10 1.34 55.13 1.3 59.32 2.37v-.02l53.26 6.38.12.12c1.14 1.14 1.18 46.09.13 50.43h.02l-3.21 50.33-50.25 3.2c-1.47.6-8.24.7-12.33.7l-.02.01Zm-40.58-4.8 28.59 3.16.12.12c1.4.75 22.34.75 23.79-.04l.13-.13.14.03 49.48-3.16 3.17-49.66.08-.08c.8-2.52.81-45.49.04-49.32L59.03 3.3l-.06-.07c-2.52-.8-45.49-.81-49.32-.04L3.3 56.15l-.12.12c-.75 1.4-.75 22.33.04 23.78l.12.12-.02.12 3.14 28.44v-.01Z"/><path d="M48.21 112.69c-2.5 0-10.51-.08-12.07-1.06l-27.78-4.81-4.82-27.79c-.98-1.56-1.06-9.57-1.06-12.07s.08-10.52 1.07-12.07l9.56-51.12.11-.11c1.09-1.09 18.35-1.18 23.61-1.18 5.26 0 21.18.08 23.41 1.05l51.17 9.56.11.11c1.09 1.09 1.18 18.35 1.18 23.61 0 5.26-.08 21.09-1.05 23.39l-4.81 46.62-46.57 4.8c-1.6.97-9.57 1.05-12.05 1.05l-.01.02ZM9.2 105.98l27.37 4.74.11.11c1.4 1.2 21.67 1.2 23.07 0l.11-.1.18-.04 45.91-4.73 4.75-46.08.12-.12c1.21-2.08 1.23-42.45.03-45.76l-51-9.54-.08-.08c-2.28-1.23-42.48-1.24-45.78-.05L4.46 55.32l-.11.11c-1.2 1.4-1.2 21.66 0 23.06l.09.1.05.16 4.72 27.23H9.2Z"/><path d="M49.39 111.84c-5.25 0-10.51-.47-11.76-1.4l-26.47-6.4-6.41-26.49c-1.86-2.51-1.86-21.02 0-23.52l12.73-49.1.09-.09c2.01-2.01 40.27-2.04 43.56-.11l49.12 12.74.09.09c1.45 1.45 1.52 18.46 1.52 21.85 0 3.39-.07 19.44-1.4 21.69l-6.4 42.95-42.93 6.4c-1.29.92-6.52 1.38-11.74 1.38v.01Zm-37.43-8.6 26.14 6.32.1.1c1.67 1.67 20.72 1.67 22.39 0l.11-.11 42.51-6.34 6.34-42.51.11-.11c1.62-1.95 1.64-39.43.06-42.24L60.68 5.62l-.09-.09c-1.97-1.62-39.43-1.64-42.25-.06L5.62 54.5l-.09.09c-1.67 1.67-1.67 20.71 0 22.38l.1.1 6.33 26.16v.01Z"/><path d="M50.56 111.03c-1.59 0-9.5-.09-11.45-1.78l-25.17-7.99-8.01-25.19c-2.37-2.78-2.36-20.13 0-22.9L21.85 6.1l.08-.08c1.78-1.78 17.05-1.87 20.09-1.87 3.04 0 17.81.09 19.99 1.78l47.08 15.92.08.08c2.4 2.4 2.44 36.67.11 40.04l-8 39.31-39.29 7.99c-1.99 1.68-9.85 1.76-11.43 1.76Zm-35.85-10.55 24.91 7.91.08.08c2.13 2.13 19.59 2.13 21.72 0l.1-.1.14-.03 38.79-7.89 7.92-38.93.1-.1c2.15-2.15 2.18-35.94.06-38.73L61.5 6.78l-.08-.08c-2.15-2.15-35.94-2.18-38.73-.06L6.78 53.68l-.08.08c-2.13 2.13-2.13 19.58 0 21.71l.08.08 7.92 24.93h.01Z"/><path d="M51.73 110.2c-4.28 0-9.42-.56-11.13-2.14l-23.88-9.58-9.6-23.9c-2.84-3.1-2.83-19.17 0-22.26l19.1-45.06.07-.07c1.63-1.64 10.89-2.22 18.33-2.22 7.44 0 16.42.56 18.25 2.14l45.06 19.1.07.07c1.64 1.64 2.22 10.89 2.22 18.33 0 7.44-.56 16.33-2.12 18.22l-9.59 35.66-35.66 9.59c-1.74 1.56-6.85 2.12-11.11 2.12h-.01ZM17.46 97.73l23.68 9.5.07.07c1.16 1.15 5.38 1.93 10.52 1.93s9.37-.78 10.52-1.93l.09-.09L97.7 97.7l9.51-35.36.09-.09c1.12-1.12 1.93-8.54 1.93-17.64 0-9.1-.79-16.27-1.88-17.58L62.32 7.94l-.07-.07c-1.12-1.12-8.54-1.93-17.64-1.93-9.1 0-16.27.78-17.58 1.87L7.94 52.86l-.07.07c-2.56 2.56-2.56 18.48 0 21.04l.11.16 9.48 23.61v-.01Z"/><path d="M52.9 109.37c-3.97 0-8.88-.66-10.81-2.5L19.49 95.7 8.3 73.08c-3.38-3.54-3.38-18.09 0-21.62L30.59 8.42l.05-.05c3.39-3.39 29.44-3.41 33.07-.06l43.05 22.28.05.05c3.38 3.38 3.41 29.31.08 33.05L95.71 95.72 63.69 106.9c-1.95 1.83-6.83 2.48-10.79 2.48v-.01Zm-32.68-14.4 22.5 11.15c3.05 3.05 17.32 3.05 20.37 0l.18-.12 31.68-11.06 11.1-31.79.08-.08c2.95-2.95 2.97-28.51.05-31.71L63.14 9.11l-.05-.05c-2.95-2.95-28.51-2.97-31.71-.05L9.1 52.04l-.05.05C6 55.14 6 69.41 9.05 72.45l.09.13 11.07 22.39h.01Z"/><path d="M54.07 108.52c-4.27 0-8.55-.95-10.49-2.84L22.26 92.93 9.49 71.59c-3.78-3.88-3.78-17.1 0-20.98L35 9.54c3.86-3.86 25.58-3.87 29.57-.04L105.64 35c2.15 2.15 2.91 9.32 2.91 14.8s-.75 12.51-2.84 14.74L92.94 92.93l-.17.08-28.22 12.69c-1.95 1.88-6.21 2.81-10.47 2.81l-.01.01Zm-31.1-16.3 21.25 12.73c3.5 3.5 16.2 3.5 19.69 0l.14-.1L92.18 92.2l12.69-28.22.06-.06c1.57-1.57 2.62-7.24 2.62-14.12 0-6.88-1.04-12.46-2.59-14.08L63.92 10.23c-3.55-3.55-24.52-3.56-28.2-.04L10.23 51.26c-3.5 3.5-3.5 16.19 0 19.69l.07.09 12.68 21.18h-.01Z"/><path d="M55.25 107.72c-4.35 0-8.16-1.22-10.2-3.25L24.99 90.1 10.66 70.07c-4.33-4.32-4.33-15.95.05-20.33l28.6-38.97c2.45-2.45 8.36-3.31 13.09-3.31s10.6.85 13.02 3.23l38.99 28.62c4.43 4.42 4.44 21.63.1 26.09L90.16 90.16 65.4 104.51c-2.05 2.01-5.83 3.21-10.15 3.21ZM25.74 89.47l19.94 14.26c1.89 1.88 5.53 3.02 9.57 3.02s7.68-1.14 9.51-2.97l.1-.08 24.59-14.25 14.33-24.69c3.93-3.93 3.93-20.79 0-24.71L64.76 11.41c-1.8-1.8-6.65-2.97-12.36-2.97-5.71 0-10.55 1.17-12.36 2.97L11.45 50.37C7.4 54.42 7.4 65.44 11.4 69.44l14.34 20.02v.01Z"/><path d="M56.44 106.89c-3.73 0-7.48-1.2-9.88-3.6L27.84 87.42 11.86 68.59c-2.26-2.26-3.57-5.85-3.57-9.83 0-3.98 1.31-7.57 3.6-9.86l31.8-36.98c4.87-4.87 17.71-4.88 22.58-.04l37 31.81c4.77 4.77 4.77 17.84.03 22.59L87.34 87.43l-21.1 15.91c-2.36 2.37-6.07 3.55-9.79 3.55h-.01ZM55 9.24c-4.18 0-8.37 1.11-10.59 3.34L12.6 49.56c-2.1 2.1-3.34 5.53-3.34 9.2 0 3.67 1.24 7.1 3.31 9.17l15.95 18.8 18.69 15.84c4.49 4.48 13.91 4.49 18.37.03l21.1-15.91 15.87-21.05c4.5-4.51 4.5-16.79.04-21.24L65.58 12.58c-2.23-2.23-6.41-3.34-10.6-3.34H55Z"/><path d="M57.59 106.05c-3.45 0-6.9-1.31-9.52-3.94l-35.01-35a13.48 13.48 0 0 1 0-19.04l35.01-35.01a13.48 13.48 0 0 1 19.04 0l35.01 35a13.48 13.48 0 0 1 0 19.04l-35.01 35-.34-.34.34.34a13.43 13.43 0 0 1-9.52 3.94v.01Zm0-95.95c-3.2 0-6.4 1.22-8.83 3.65L13.75 48.76a12.51 12.51 0 0 0 0 17.67l35.01 35a12.51 12.51 0 0 0 17.67 0l35.01-35a12.51 12.51 0 0 0 0-17.67L66.42 13.75a12.43 12.43 0 0 0-8.83-3.65Z"/></g></g></svg>