<?xml version="1.0" encoding="UTF-8"?>
<svg width="325px" height="53px" viewBox="0 0 325 53" version="1.1" xmlns="http://www.w3.org/2000/svg" xmlns:xlink="http://www.w3.org/1999/xlink">
    <title>odi</title>
    <g id="Page-1" stroke="none" stroke-width="1" fill="none" fill-rule="evenodd">
        <g id="BWL---Style-Guide-and-CDN-Images" transform="translate(-1186, -1006)" fill="#6B3267" fill-rule="nonzero">
            <g id="odi" transform="translate(1186, 1006)">
                <path d="M317.63706,23.4256638 C317.74386,22.940865 317.800402,22.4529285 317.800402,22.0763857 C317.800402,20.2909457 316.933435,19.4280354 315.19793,19.4280354 C313.683878,19.4280354 312.65828,20.4509763 312.65828,22.0214732 C312.65828,24.181887 314.605816,25.2613096 318.014003,27.4782048 C321.046818,29.4817259 323.050894,30.721179 323.050894,34.7203764 C323.050894,40.351259 319.256341,43.3745832 311.954655,43.3745832 C305.457112,43.3745832 302.157295,40.939607 302.157295,36.2406677 C302.157295,35.646044 302.209126,34.9415953 302.319067,34.077116 L309.784096,34.077116 C309.683578,34.7203764 309.620753,35.2695012 309.620753,35.7542999 C309.620753,37.8033199 310.489291,38.7211428 312.436827,38.7211428 C314.122074,38.7211428 315.361271,37.4801208 315.361271,35.4828754 C315.361271,33.0494681 313.255106,32.1865577 309.784096,29.5915508 C306.979017,27.4782048 305.186969,25.9108458 305.186969,22.8247644 C305.186969,18.0160001 308.813469,14.9346255 315.529325,14.9346255 C321.752014,14.9346255 325,17.2111401 325,21.371937 C325,22.0214732 324.943459,22.724353 324.784829,23.4256638 L317.63706,23.4256638 Z M302.647321,22.2379854 C301.885583,22.1234536 301.181957,22.0246111 300.591415,22.0246111 C296.745032,22.0246111 295.122609,24.2336617 294.150412,28.9388767 L291.23068,42.7281849 L283.542627,42.7281849 L288.031383,21.5947249 C288.464866,19.5315845 288.788408,17.5374771 289.002009,15.5857307 L296.426202,15.5857307 L295.775976,19.5315845 C297.553888,16.7216345 299.780988,15.4209933 302.914321,15.4209933 C303.294405,15.4209933 303.672918,15.4209933 304.054572,15.4806124 L302.647321,22.2379854 Z M273.468845,29.0487017 C272.763648,32.5113258 272.180958,34.7219454 271.854274,35.6429061 C271.094107,37.7013396 270.065369,38.7211428 268.329864,38.7211428 C266.54253,38.7211428 265.622162,37.5883768 265.622162,35.4248251 C265.622162,33.9641531 266.328929,31.049085 267.302697,26.5133141 C267.737751,24.3434867 268.122546,23.0381386 268.273323,22.6208037 C268.984801,20.6078691 269.958569,19.6429784 271.692504,19.6429784 C273.468845,19.6429784 274.338952,20.7239698 274.338952,22.8279023 C274.338952,24.0736311 274.06724,26.1838392 273.468845,29.0487017 L273.468845,29.0487017 Z M271.854274,14.9361945 C267.087526,14.9361945 264.109681,16.3388161 261.893575,19.8579215 C261.026607,21.2071996 259.999439,23.858688 259.189014,27.5425309 C258.592188,30.2928616 258.267075,32.6148751 258.267075,34.3485405 C258.267075,40.1912283 261.725521,43.3196707 268.329864,43.3196707 C273.101326,43.3196707 276.069746,41.8558609 278.240305,38.4010815 C279.210932,36.7835167 280.18627,34.1838031 280.996697,30.6160608 C281.595092,27.9143669 281.863664,25.7476773 281.863664,24.0265633 C281.863664,18.127394 278.398936,14.9361945 271.854274,14.9361945 L271.854274,14.9361945 Z M246.577151,29.0487017 C245.881379,32.5113258 245.279841,34.7219454 244.954729,35.6429061 C244.18985,37.7013396 243.162683,38.7211428 241.438172,38.7211428 C239.646124,38.7211428 238.728899,37.5883768 238.728899,35.4248251 C238.728899,33.9641531 239.430953,31.049085 240.404721,26.5133141 C240.838204,24.3434867 241.218288,23.0381386 241.3832,22.6208037 C242.085256,20.6078691 243.059023,19.6429784 244.794529,19.6429784 C246.577151,19.6429784 247.437836,20.7239698 247.437836,22.8279023 C247.437836,24.0736311 247.167695,26.1838392 246.577151,29.0487017 L246.577151,29.0487017 Z M244.954729,14.9361945 C240.187979,14.9361945 237.213276,16.3388161 234.989316,19.8579215 C234.122349,21.2071996 233.09204,23.858688 232.286325,27.5425309 C231.695783,30.2928616 231.364388,32.6148751 231.364388,34.3485405 C231.364388,40.1912283 234.833828,43.3196707 241.438172,43.3196707 C246.195498,43.3196707 249.174912,41.8558609 251.339189,38.4010815 C252.312957,36.7835167 253.288295,34.1838031 254.097151,30.6160608 C254.690834,27.9143669 254.962548,25.7476773 254.962548,24.0265633 C254.962548,18.127394 251.504102,14.9361945 244.954729,14.9361945 L244.954729,14.9361945 Z M219.789118,23.3221146 C218.87032,27.8076797 217.83687,30.8859164 217.086127,32.4564133 C215.454281,35.8060745 213.615117,36.7835167 209.341534,36.7835167 C208.80439,36.7835167 208.154165,36.7835167 207.500799,36.7254663 L213.291574,9.57987428 C213.838141,9.52966857 214.375284,9.52966857 214.859027,9.52966857 C219.192292,9.52966857 220.704773,11.2601962 220.704773,15.8006738 C220.704773,17.7461445 220.434631,20.2940836 219.789118,23.3221146 L219.789118,23.3221146 Z M216.809702,3.79680578 L206.253747,3.79680578 L197.975152,42.7297538 L209.233163,42.7297538 C212.484289,42.7297538 215.509251,42.7297538 218.427414,41.592281 C220.974915,40.6148389 222.817221,38.782331 224.386243,35.9127617 C225.681982,33.5907482 226.988715,28.8855332 228.339426,21.8080991 C228.766627,19.4280354 228.983369,17.2080022 228.983369,15.0444505 C228.983369,6.66480604 225.468381,3.79680578 216.809702,3.79680578 L216.809702,3.79680578 Z M190.942037,22.0732479 L190.942037,42.7297538 L183.310525,42.7297538 L183.310525,24.181887 C183.310525,21.1585629 182.880182,19.5880659 180.767735,19.5880659 C178.821771,19.5880659 177.519749,21.0487379 177.519749,23.4256638 L177.519749,42.7297538 L169.889808,42.7297538 L169.889808,20.4525452 C169.889808,18.9918733 169.889808,17.3680328 169.614954,15.5872996 L177.298295,15.5872996 L177.519749,18.3956807 C178.754234,16.1332865 180.876106,14.9346255 183.579097,14.9346255 C188.337993,14.9346255 190.942037,17.4229453 190.942037,22.0732479 L190.942037,22.0732479 Z M157.496259,25.6959027 L150.670462,25.6959027 L150.670462,24.7796487 C150.670462,21.1585629 151.871965,19.3762607 154.139902,19.3762607 C156.249207,19.3762607 157.496259,20.829088 157.496259,23.4240949 L157.496259,25.6959027 Z M154.139902,14.9393323 C145.859736,14.9393323 142.87875,19.0985605 142.87875,28.562334 C142.87875,39.1055302 145.15611,43.3212396 154.139902,43.3212396 C161.55467,43.3212396 165.1796,39.7550664 165.1796,32.6682186 L157.601489,32.6682186 L157.601489,33.1561552 C157.601489,36.7835167 156.351297,38.6175935 154.086501,38.6175935 C151.650512,38.6175935 150.670462,36.7835167 150.670462,32.7796125 L150.670462,29.9665246 L165.1796,29.9665246 L165.1796,25.8637779 C165.1796,18.5070746 161.609642,14.9393323 154.139902,14.9393323 L154.139902,14.9393323 Z M131.088308,29.4236756 C131.088308,35.4248251 130.813455,38.5109065 127.94084,38.5109065 C125.776563,38.5109065 124.747825,36.4571797 124.747825,32.2869692 L124.747825,26.4003512 C124.747825,21.6402238 125.236279,19.4735343 127.995811,19.4735343 C131.034909,19.4735343 131.088308,22.396447 131.088308,28.7788462 L131.088308,29.4236756 Z M130.753772,14.9361945 C127.995811,14.9361945 125.833105,16.1317176 124.747825,18.1838755 L124.487106,15.5888685 L117.011083,15.5888685 C117.179137,17.8089017 117.278085,19.7559412 117.278085,21.593156 L117.278085,52.9999564 L124.807507,52.9999564 L124.807507,40.459515 C126.371818,42.4614671 128.379035,43.3745832 130.921826,43.3745832 C136.926202,43.3745832 138.660137,38.889018 138.660137,29.5931197 C138.660137,23.4774385 138.441825,19.4735343 136.115777,17.0448336 C134.928409,15.8006738 132.980873,14.9361945 130.753772,14.9361945 L130.753772,14.9361945 Z M98.3414449,37.2667466 C93.9563499,37.2667466 93.3610945,32.7811814 93.3610945,23.1542393 C93.3610945,13.5288661 94.01132,9.37120692 98.4482452,9.37120692 C102.776799,9.37120692 103.428596,13.4755225 103.428596,22.7729898 C103.428596,32.7247 102.999824,37.2667466 98.3414449,37.2667466 L98.3414449,37.2667466 Z M98.3885632,3.3135759 C93.4647535,3.3135759 89.7927072,4.93584747 87.9017133,7.80070999 C85.6730418,11.1033034 85.1877286,15.9669802 85.1877286,22.8310401 C85.1877286,31.8084461 85.9997252,37.4801208 89.6827658,40.6697514 C91.4151298,42.1869047 94.6034342,43.3212396 98.4482452,43.3212396 C103.214995,43.3212396 106.946723,41.592281 108.840859,38.7807621 C111.328678,35.0514203 111.597249,29.8049251 111.597249,22.3431035 C111.597249,14.3384329 110.844935,9.15155703 107.320525,6.07175128 C105.435813,4.39927414 102.294627,3.3135759 98.3885632,3.3135759 L98.3885632,3.3135759 Z M59.3923096,33.551525 L51.9335635,28.8855332 L54.154382,26.5807779 L62.0795941,31.3864044 L59.3923096,33.551525 Z M43.0691367,32.2038159 C43.0691367,32.2038159 35.4800315,35.515823 29.2275008,34.7046871 C29.2275008,34.7046871 18.2019382,33.2110677 13.6330831,27.4687912 L16.3941856,25.9736029 C16.3941856,25.9736029 23.3110771,30.9188639 29.4976428,31.1196867 C29.4976428,31.1196867 36.9532477,31.7268618 42.1283515,29.0879249 C42.1283515,29.0879249 50.5373063,25.6409902 57.3206974,16.0987701 L59.6671633,17.8606763 C59.6671633,17.8606763 50.3975235,30.1751921 43.0691367,32.2038159 L43.0691367,32.2038159 Z M28.9557882,16.2336979 C32.3466985,15.8932405 36.527617,17.2283982 39.0185775,18.1509279 L37.0113596,20.4399939 C34.4293048,19.5959106 32.2477512,19.4170528 32.2477512,19.4170528 C23.5843603,18.8789106 16.5261155,23.879084 16.5261155,23.879084 L14.3759736,22.0559897 C20.4887215,16.7749781 28.9557882,16.2336979 28.9557882,16.2336979 L28.9557882,16.2336979 Z M43.8874156,13.4300236 L45.167449,15.9952209 C42.9544835,19.7888888 37.3050605,25.2048281 37.3050605,25.2048281 L34.4811343,25.405651 L34.6162054,25.1389332 C38.5097054,21.8928212 43.8874156,13.4300236 43.8874156,13.4300236 L43.8874156,13.4300236 Z M46.9108072,19.5817902 L42.6843415,24.316815 L41.2001311,23.576281 L45.167449,18.5729695 L46.9108072,19.5817902 Z M48.4594119,20.7286766 L50.7414835,20.9247926 L45.4344497,26.0724453 L43.9518099,25.1969835 L48.4594119,20.7286766 Z M68.6038374,17.9218644 L68.1200947,16.5867067 C67.3175218,12.5969229 64.4731779,8.73265325 64.4731779,8.73265325 L60.6110897,8.38748903 C58.2928945,8.16313234 55.7061278,7.47280403 54.2234881,6.35572727 C54.5831538,6.59106648 50.5373063,3.38574666 50.5373063,3.38574666 C50.1902054,3.04058244 47.710239,1.61756477 47.710239,1.61756477 C46.6328121,0.33104383 45.2239903,0 45.2239903,0 C45.6935976,0.158461785 41.3477668,0.9743043 41.3477668,0.9743043 C39.745762,0.638553672 37.4259962,0.470678425 37.4259962,0.470678425 C34.1308922,1.21278138 28.8898233,4.52635728 28.8898233,4.52635728 C26.672146,5.54616048 24.5863985,7.91524167 24.5863985,7.91524167 L22.2006679,8.73265325 L19.8604843,11.3198154 C16.8465164,11.7952006 12.9043279,13.59633 12.9043279,13.59633 C10.8814043,14.5455315 7.01617492,17.4323589 7.01617492,17.4323589 L6.31726109,21.1930792 L4.02105411,23.4727317 L0.196660255,29.7641328 C-0.477124174,31.1196867 0.796626704,34.4991576 0.796626704,34.4991576 C1.4028756,36.9372717 3.15251615,38.9031384 3.15251615,38.9031384 L5.10319268,40.2524165 L9.06736931,43.9707758 C10.8185805,45.8691787 10.2924319,45.6197192 10.2924319,45.6197192 L10.9693574,45.8880059 L17.4197828,46.1751196 C18.2239265,47.0568572 17.9537845,47.7236516 17.9537845,47.7236516 L22.5022217,49.5938137 L29.6295726,51.0121247 L32.2398981,52.9387683 C34.9366063,53.2572606 38.9714597,52.2296128 38.9714597,52.2296128 L44.0805987,50.6026344 L47.8405982,48.7795401 C51.0650256,48.0374372 54.0255934,46.6803146 54.0255934,46.6803146 C54.8313075,46.0762773 59.9373053,44.9858722 59.9373053,44.9858722 C59.9373053,44.9858722 60.945626,44.7834806 62.558625,44.3128022 C62.6685666,44.2814237 62.7769375,44.2422003 62.8868789,44.2045461 C64.2690008,43.7024892 64.9145145,42.8254584 64.9145145,42.8254584 L66.6594433,39.2373201 L69.5461932,34.6356543 L69.9545474,34.3046105 L71.2125924,33.5044572 C71.4136282,28.7019686 70.0189417,20.3552717 70.0189417,20.3552717 C69.7472291,19.283694 68.6038374,17.9218644 68.6038374,17.9218644 L68.6038374,17.9218644 Z"></path>
            </g>
        </g>
    </g>
</svg>