<svg xmlns="http://www.w3.org/2000/svg" viewBox="0 0 180 69"><defs><linearGradient id="a" x1="0%" x2="100%" y1="49.19%" y2="49.19%"><stop offset="0%" stop-color="#5D92CB"/><stop offset="100%" stop-color="#4168A4"/></linearGradient><linearGradient id="b" x1="0%" x2="100%" y1="49.97%" y2="49.97%"><stop offset="0%" stop-color="#5D92CB"/><stop offset="100%" stop-color="#4168A4"/></linearGradient><linearGradient id="c" x1="0%" x2="100%" y1="50%" y2="50%"><stop offset="0%" stop-color="#5D92CB"/><stop offset="100%" stop-color="#4168A4"/></linearGradient><linearGradient id="d" x1="0%" x2="100%" y1="50%" y2="50%"><stop offset="0%" stop-color="#5D92CB"/><stop offset="100%" stop-color="#4168A4"/></linearGradient><linearGradient id="e" x1="0%" x2="100%" y1="50%" y2="50%"><stop offset="0%" stop-color="#5D92CB"/><stop offset="100%" stop-color="#4168A4"/></linearGradient></defs><g fill="none" fill-rule="nonzero"><path fill="#5E8BC2" d="m55.34 67.63 1.24-3.75c.04-.1.08-.21.1-.33a.34.34 0 0 1 .38-.3c.21 0 .3.1.37.3.38 1.21.8 2.4 1.19 3.59l.18.52c.21-.2.23-.45.31-.66a353.65 353.65 0 0 0 1.26-3.62c.14-.2.37-.16.55-.1.18.06.09.23.04.36l-1.74 4.9c-.07.21-.16.34-.42.34-.27 0-.3-.21-.37-.4l-1.23-3.56c-.03-.11-.02-.3-.17-.28-.14.01-.12.18-.15.29-.4 1.13-.77 2.27-1.17 3.4-.07.22-.05.54-.43.55-.38.02-.38-.3-.46-.51L53.2 63.8c-.06-.17-.25-.37.02-.52.26-.14.51.04.62.34.4 1.15.78 2.3 1.19 3.45.07.17.06.42.31.56Z"/><path fill="#5F86BA" d="M75.9 68.72c-.5.13-.85.02-1.1-.41-.27-.44-.62-.8-.89-1.22-.26-.42-.45-.44-.84-.43-1.02.02-1.02 0-1.02 1v.72c.02.24-.1.38-.37.38-.28 0-.32-.14-.32-.37v-4.8c0-.19 0-.37.26-.36.91.04 1.84-.1 2.75.09.91.19 1.3.67 1.4 1.43.08.76-.3 1.37-1.1 1.66-.36.13-.34.21-.13.47.45.58.89 1.19 1.37 1.84Z"/><path fill="#5172A8" d="M113.49 65.99v-2.34c-.02-.3.08-.43.4-.4.86.04 1.72-.1 2.57.08.86.18 1.37.67 1.43 1.45.06.79-.16 1.33-1.09 1.65-.32.12-.31.22-.13.45l1.22 1.62c.14.17.17.26-.1.28-.28 0-.57-.04-.77-.34-.32-.48-.7-.93-1.02-1.4a.8.8 0 0 0-.75-.38c-1.05.01-1.05 0-1.05 1.08 0 .22-.02.45 0 .66 0 .22-.12.38-.4.38s-.29-.2-.29-.4c-.02-.8-.02-1.6-.02-2.4Z"/><path fill="#5E83B7" d="M79.82 68.76H78.8c-.24.02-.36-.06-.36-.33v-4.86c0-.2.04-.36.29-.35.82.04 1.63-.08 2.45.1a2.73 2.73 0 0 1 2.17 3.2 2.72 2.72 0 0 1-2.69 2.23l-.84.01Z"/><path fill="#3E68A5" d="M155.76 65.97V63.7c-.01-.32.06-.48.42-.46.78.05 1.56-.07 2.33.11a2.7 2.7 0 0 1 2.14 2.86 2.7 2.7 0 0 1-2.56 2.56c-.64.04-1.28 0-1.92.02-.3 0-.42-.09-.42-.41.02-.8.01-1.6.01-2.4Z"/><path fill="#5C96D1" d="M32.34 66.02v-2.34c-.02-.33.07-.48.43-.46.75.06 1.51-.06 2.27.1a2.71 2.71 0 0 1 2.2 2.88 2.72 2.72 0 0 1-2.8 2.56c-.54 0-1.08-.02-1.62.02-.54.03-.5-.09-.48-.47v-2.29Z"/><path fill="#5F9EDB" d="M20.32 65.77c1.17 0 1.17 0 1.17 1.17 0 1.16-.2 1.6-1.53 1.87-1.66.34-3.05-.37-3.41-1.92-.45-1.91.48-3.51 2.47-3.74.72-.07 1.44.12 2.03.55.2.13.23.25.07.42-.15.17-.2.35-.47.13a2.7 2.7 0 0 0-1.45-.45c-.94 0-1.55.47-1.9 1.28-.52 1.23.05 2.78 1.32 3.12.7.18 1.34.05 1.96-.29.28-.16.22-.4.22-.64-.01-.98.12-.82-.82-.84h-.36c-.25 0-.5.01-.5-.35s.3-.31.53-.32l.67.01Z"/><path fill="#5C99D6" d="M24.03 66.03a2.73 2.73 0 0 1 2.83-2.9c1.77 0 2.8 1.37 2.81 2.9a2.9 2.9 0 0 1-2.83 2.85c-1.43.08-2.92-1.23-2.81-2.85Z"/><path fill="#5F89BD" d="M65.83 68.87c-1.27.12-2.8-1.03-2.8-2.87.02-1.38 1-2.86 2.85-2.85 1.86.01 2.81 1.35 2.8 2.9-.01 1.55-1.14 2.9-2.85 2.82Z"/><path fill="#426AA5" d="M142.87 66.1c0 .75-.02 1.52 0 2.28 0 .26-.05.4-.36.4-.32-.02-.32-.16-.32-.39.02-.56 0-1.12.02-1.68 0-.28-.08-.4-.38-.39h-2.4c-.29 0-.38.09-.37.38.02.51.01 1.04 0 1.56 0 .24.08.53-.35.52-.43-.02-.32-.27-.32-.5v-4.63c0-.21.02-.42.35-.43.32-.01.34.17.33.41v1.68c0 .26.07.35.34.35h2.46c.28 0 .34-.1.34-.36-.02-.56 0-1.12 0-1.68 0-.22-.02-.4.3-.4.3 0 .37.13.37.4-.03.83-.01 1.66-.01 2.47Z"/><path fill="#5777AC" d="M106.8 65.99V63.7c0-.31.06-.48.42-.48 1.08.02 2.16.01 3.24 0 .29 0 .4.09.37.39-.02.3-.22.22-.4.22-.8 0-1.63.03-2.45 0-.38 0-.57.08-.52.5.05.42-.2.98.12 1.26.31.28.8.06 1.22.07h1.33c.2 0 .34.05.34.3s-.1.36-.36.35c-.72 0-1.44.02-2.16-.01-.4-.01-.53.13-.49.52.04.38 0 .56 0 .84 0 .5.01.5.54.5h2.46c.22 0 .39 0 .39.3s-.17.3-.39.3h-3.29c-.29 0-.38-.1-.37-.38v-2.4Z"/><path fill="#5C7DB1" d="M92.84 65.99v-2.35c-.02-.31.08-.42.4-.4h3.19c.2 0 .4-.03.4.28.02.31-.21.31-.43.31-.84 0-1.68.02-2.52 0-.3 0-.44.09-.42.41.02.34.02.69 0 1.02-.02.33.12.41.42.41h2.16c.23 0 .43 0 .43.33s-.2.32-.43.32h-2.16c-.3 0-.44.09-.42.41.02.33-.18 1.02.08 1.34.27.3.83.08 1.27.1.43.03 1.11.02 1.68 0 .21 0 .4.03.4.3.02.28-.18.3-.38.3h-3.3c-.3 0-.37-.11-.36-.38l-.01-2.4Z"/><path fill="#5C90C9" d="M45.03 63.18a2.6 2.6 0 0 1 1.53.44c.17.1.35.2.16.45-.2.26-.28.26-.5.1-.44-.31-.99-.46-1.53-.38-.53.04-.89.33-.95.75-.06.42.18.75.7.93.51.18 1.03.28 1.55.46.51.18.81.4.97.9.28.9-.22 1.74-1.24 1.97a2.9 2.9 0 0 1-2.59-.6c-.13-.1-.32-.18-.12-.42s.3-.3.53-.1c.49.42 1.13.63 1.77.58.3-.01.56-.12.77-.3.42-.37.38-.96-.1-1.28-.46-.3-.8-.3-1.23-.42-.25-.06-.5-.14-.73-.24-.76-.36-1.03-.85-.89-1.63.1-.58.7-1.1 1.37-1.18l.53-.03Z"/><path fill="#456AA4" d="M133.75 68.87a2.76 2.76 0 0 1-2.8-2.98c.13-1.62 1.56-2.96 3.26-2.7.5.05.97.25 1.37.56.13.1.4.2.2.47-.21.26-.35.3-.6.07-.36-.32-.84-.5-1.32-.5a2.06 2.06 0 0 0-2.06 1.33c-.39.94-.14 2.02.63 2.68.71.58 1.7.64 2.46.16.16-.1.3-.2.44-.33.22-.21.34 0 .49.12.14.14.02.28-.1.39-.56.5-1.16.73-1.97.73Z"/><path fill="#5879AD" d="m101.7 67.95 1.58-3.8.27-.66c.06-.14.13-.26.3-.25.16.02.3-.02.4.05.1.08 0 .26-.06.38l-2.04 4.78c-.1.22-.17.43-.49.43-.32 0-.35-.21-.43-.42l-2.04-4.78c-.05-.12-.24-.31-.01-.4.22-.08.44-.12.6.1.06.1.1.21.14.32l1.78 4.25Z"/><path fill="#4C6FA6" d="M122.12 67.5c.14-.59-.16-1.17-.59-1.74-.43-.58-1.02-1.48-1.54-2.23-.14-.2-.15-.3.15-.3a.7.7 0 0 1 .7.34c.45.7.94 1.4 1.39 2.1.18.3.26.24.43 0 .47-.73.96-1.43 1.45-2.15.1-.14.18-.32.41-.3.23.02.35-.08.45.07.1.16-.1.24-.17.35-.58.84-1.14 1.7-1.74 2.53-.23.28-.34.63-.32 1 .03.35.02.72 0 1.08 0 .36.12.5-.3.5s-.3-.31-.33-.54c-.03-.23.01-.37.01-.7Z"/><path fill="#3D66A4" d="M149.5 66v-2.35c0-.22-.03-.43.33-.43s.3.24.3.46v3.97c0 .5 0 .51.53.51h2.22c.25 0 .36.07.35.34-.01.26-.16.28-.35.28-1 0-2-.02-3 0-.35.02-.39-.15-.39-.43.03-.79.02-1.57.02-2.35Z"/><path fill="#426AA6" d="M146.5 66.02v2.4c0 .24-.06.36-.33.36-.28 0-.36-.08-.36-.34v-4.85c0-.3.14-.36.4-.36.27 0 .28.2.28.41l.01 2.38Z"/><path fill="#5F94CE" d="M40.49 63.87c.07.5-.1.87-.54 1.1-.13.08-.29.11-.37-.03-.09-.14.03-.2.14-.28.1-.07.4-.28.1-.57-.28-.3-.06-.46-.04-.69.02-.23.2-.16.32-.16s.35-.06.38.19v.44Z"/><path fill="#5C7FB3" d="M86.32 68.4c.06.35-.16.36-.42.38-.27 0-.36-.19-.38-.45 0-.26.08-.42.4-.42s.42.2.4.5Z"/><path fill="#416AA7" d="M163.57 68.41c.07.33-.15.35-.41.37-.27 0-.3-.26-.33-.47-.02-.22.14-.39.42-.39.3 0 .33.24.32.5Z"/><path fill="#FDFDFE" d="M72.05 64.96c0-1.13 0-1.13 1.12-1.13.38-.02.76.02 1.13.11.51.16.78.48.78 1 .01.5-.34.94-.83 1.03-.62.15-1.27.11-1.9.11-.21 0-.3-.08-.3-.29v-.83Z"/><path fill="#FCFCFD" d="M114.17 64.94c0-1.1 0-1.1 1.1-1.1.37 0 .75-.03 1.12.09.57.18.84.52.83 1.03-.02.5-.37.92-.86 1.03-.63.15-1.28.1-1.91.1-.2 0-.28-.12-.28-.3v-.85Z"/><path fill="#FEFEFE" d="M79.14 66.01c0-.58 0-1.17-.02-1.74 0-.35.12-.45.46-.44.72.02 1.44-.03 2.09.38a2.2 2.2 0 0 1 .94 2.34 2.08 2.08 0 0 1-1.89 1.6c-.42.02-.84 0-1.26.01-.42.01-.34-.1-.34-.36.03-.59.02-1.19.02-1.79ZM156.43 66.02c0-.6.02-1.2 0-1.8 0-.29.11-.39.39-.37.49 0 1-.02 1.49.1 1.04.22 1.7 1.12 1.64 2.25a2.06 2.06 0 0 1-1.92 1.96c-.42.03-.84 0-1.26.01-.42.02-.35-.1-.35-.34.03-.62.01-1.22.01-1.8ZM33.02 65.97v-1.73c-.01-.31.12-.42.42-.4.3 0 .87 0 1.3.08 1.19.23 1.88 1.1 1.8 2.3-.09 1.2-.99 1.92-2.13 1.94-.32 0-.63-.02-.96 0-.32.03-.44-.13-.43-.45v-1.74ZM28.96 66.07c-.01 1.27-.96 2.24-2.2 2.19-1.23-.05-2.1-.93-2.07-2.26.03-1.53 1.04-2.21 2.16-2.23 1.12 0 2.17 1.22 2.11 2.3ZM63.74 66c0-1.31.86-2.2 2.1-2.2 1.23 0 2.17.96 2.14 2.3a2.17 2.17 0 0 1-2.12 2.2h-.01a2.2 2.2 0 0 1-2.1-2.3Z"/><path fill="#E09C3C" d="M77.08 37.46c0-4.67.02-9.33 0-14 0-.55.14-.67.66-.67 1.77.04 3.52.02 5.29 0 .45-.01.56.13.56.58-.01 3.46 0 6.92-.02 10.4 0 .45.08.6.59.6h10.62c.53 0 .61-.16.61-.64-.02-3.45 0-6.89-.02-10.34 0-.47.12-.61.6-.6 1.78.02 3.57.02 5.34 0 .4 0 .55.07.55.52v28.3c0 .4-.1.51-.5.5-1.78-.01-3.57-.02-5.34 0-.5.01-.65-.12-.65-.63.02-3.5 0-6.98.02-10.46 0-.56-.13-.7-.68-.7-3.5.02-7 .02-10.5 0-.51 0-.64.13-.63.62.02 3.51 0 7.01.02 10.52 0 .5-.15.64-.65.64-1.76-.02-3.51-.02-5.28 0-.5.01-.59-.17-.59-.62.02-4.66 0-9.35 0-14.02ZM138.1 32.76c.47-.5.84-.98 1.28-1.36 2.9-2.54 6.15-2.74 9.57-1.37a8.99 8.99 0 0 1 4.95 4.67c1.97 4.27 2 8.6-.22 12.77a9.7 9.7 0 0 1-12.5 4.21 8.59 8.59 0 0 1-2.62-1.97 1.08 1.08 0 0 0-.46-.35v.56c0 3.15-.01 6.3.01 9.44 0 .54-.15.66-.67.65-1.72-.04-3.45-.02-5.16 0-.39 0-.57-.06-.57-.5V30.18c0-.37.09-.51.5-.51 1.8.02 3.6.02 5.4 0 .42 0 .49.15.48.53l.01 2.56ZM128.86 40.62c-.04 6.1-4.2 10.9-9.95 11.8-4.11.63-7.82-.25-10.85-3.17-6.36-6.13-3.66-17 4.83-19.43 5.04-1.44 9.55-.43 13.18 3.51a10.74 10.74 0 0 1 2.79 7.29ZM172.16 43.13c-2.42 0-4.84.01-7.26-.01-.45 0-.54.08-.41.53.91 3 3.41 4.06 6.22 3.77a7.15 7.15 0 0 0 4.15-1.96c.3-.26.46-.24.74.02a87.2 87.2 0 0 0 2.96 2.62c.34.27.24.44.01.7a10.63 10.63 0 0 1-5.3 3.35c-2.78.76-5.54.66-8.23-.39a10.37 10.37 0 0 1-6.4-6.78c-1.2-3.8-.87-7.51 1.36-10.88 2.42-3.65 5.95-5.17 10.3-4.82 5.21.42 8.51 4.09 9.45 9.13.26 1.38.26 2.79.24 4.18-.01.4-.14.54-.56.54h-7.27Z"/><path fill="#5F9FDE" d="M17.93 52.3c-1.23.3-2.49.4-3.74.32A14.6 14.6 0 0 1 .15 39.55a15.2 15.2 0 0 1 3-11.54 14.08 14.08 0 0 1 9.47-5.54 12.6 12.6 0 0 1 4.46-.02c.51.27.7.72.6 1.25-.08.53-.09 1.39-.54 1.96-.2.09-.4.03-.6 0A10.9 10.9 0 0 0 7.4 28.4a11.14 11.14 0 0 0-3.5 6.42c-.62 3.45-.14 6.72 1.86 9.65a10.77 10.77 0 0 0 7.71 4.77c1.1.16 2.24.13 3.34-.05.25-.05.52-.12.76.04.44.7.22 1.45.24 2.2 0 .3-.08.6.13.86Z"/><path fill="#5B95D1" d="M36.5 35.57c-.98 1.61-1.2 3.38-1.17 5.24.04 3.56 0 7.13.02 10.69 0 .5-.12.67-.64.64a21.6 21.6 0 0 0-2.16 0c-.35 0-.49-.09-.49-.47V30.88c0-.36.1-.5.47-.48a38 38 0 0 0 2.34 0c.38-.01.47.14.47.5l-.01 3.05c.3-.11.33-.45.55-.56.21-.1.38-.13.4.12.02.6.3 1.22 0 1.8-.14.36.2.15.22.26Z"/><path fill="#5C8EC6" d="M45.78 30.48c3.27 1.11 4.8 3.56 5.14 6.83.3 2.82.07 5.64.12 8.47.03 1.87-.02 3.76.03 5.65 0 .6-.18.75-.75.72-.66-.05-1.32-.05-1.98 0-.48.02-.61-.13-.61-.61l.01-12.26c0-1.37-.28-2.65-.97-3.84-.24-.4-.6-.7-.87-1.06-.57-1.07-.44-2.21-.28-3.34 0-.2-.02-.41.16-.56Z"/><path fill="#5D8BC2" d="M63.25 42.58c-1.73.12-3.47.02-5.2.05-.78 0-.78 0-.64.77.19 1.17.66 2.24 1.3 3.24.06.28.03.57-.12.8-.12.2-.22.4-.5.33a.5.5 0 0 1-.4-.53c-.02-.27 0-.55.08-.83.03-.12.13-.3-.08-.34-.2-.05-.22.14-.22.26.06.83-.27 1.7.42 2.45.25.28.3.71.57 1.02.27.32.17.48-.1.68a9.84 9.84 0 0 1-3.88-5.68c-1.1-4.18-.46-8.05 2.36-11.44a8.8 8.8 0 0 1 3.45-2.54c.35.69.33 1.42.24 2.15-.04.3-.1.6.05.88.14.29-.27.43-.46.6A8.4 8.4 0 0 0 57.6 39c-.16.79-.13.83.66.83h3.47c.25 0 .53-.04.74.14.23.43.18.9.11 1.33-.1.67.01 1.07.66 1.28Z"/><path fill="#5B98D4" d="M26.08 27.15a13.88 13.88 0 0 1 3.4 6.7c1 4.77.14 9.15-2.8 13.08-.23.28-.47.53-.72.78-.3-.02-.24-.26-.25-.44-.05-1.22-.12-2.42.05-3.63.03-.32-.02-.64-.16-.93-.1-.25-.04-.5-.05-.77.23-1.12.53-2.21.64-3.35a13.9 13.9 0 0 0-.54-5.03c-.09-.29-.2-.56-.18-.88.4-1.39.12-2.82.2-4.23-.02-.26 0-.51.01-.78.05-.23.08-.5.4-.52Z"/><path fill="#5E86BA" d="M67.98 30.64a8.61 8.61 0 0 1 4.77 4.05c1.36 2.31 1.76 4.85 1.7 7.48 0 .28-.07.47-.4.46-1.04-.04-2.08.06-3.11-.05-.6.01-.98-.28-1.05-.87-.07-.59-.1-1.1.05-1.64.07-.1.18-.17.3-.18.74-.16.74-.17.59-.93a8.2 8.2 0 0 0-2.16-4.34c-.15-.14-.3-.29-.3-.5.21-.38.33-.77.72-1.06.38-.3.19-.8.1-1.18-.08-.39-.4-.39-.71-.41-.6-.06-.76-.32-.5-.83Z"/><path fill="#5E87BC" d="M64.14 49.77a9.3 9.3 0 0 0 5.13-1.13c.78-.46 1.49-1.01 2.12-1.65.17-.17.3-.29.54-.06.5.47 1 .93 1.52 1.37.22.2.19.33 0 .53a10.92 10.92 0 0 1-7.23 3.72c-.82.07-1.62.2-2.44-.02-.3-.98-.32-1.92.36-2.76Z"/><path fill="#5E89BE" d="M67.98 30.64c-.05.43-.07.8.6.64.44-.11.83.31.84.75.02.45.02.56 0 .85 0 .29-.04.32-.07.32-.61.03-.5.71-.89.95-.38.24-.45-.1-.66-.23-2.1-1.3-4.26-1.25-6.47-.31-.25.1-.47.32-.77.29-.3-.04-.37-.07-.29-.33.28-.9.09-1.8.02-2.71a10.1 10.1 0 0 1 7.7-.22Z"/><path fill="#5D8AC0" d="M64.14 49.77c.01.06.07.14.05.17-.66.78-.34 1.72-.4 2.58a9.46 9.46 0 0 1-5.42-2.02c.12-.32.13-.61-.23-.82a.53.53 0 0 1-.25-.45c-.02-.14-.03-.32-.12-.4-.93-.82-.35-1.88-.45-2.83-.03-.32.3-.2.5-.14.21.06.44.13.19.4-.26.26-.08.68-.2 1.02-.14.34.12.34.3.38.18.05.22-.16.32-.26s.13-.54.27-.77a7.67 7.67 0 0 0 5.44 3.14Z"/><path fill="#5E87BC" d="M70.02 40.02v1.5c.02.53.4.97.92 1.06-1.06.1-2.1.05-3.16.05-1.51 0-3.03.07-4.54-.05-.12-.03-.23-.03-.35-.03-.44.05-.66-.12-.54-.56.18-.65.06-1.3.1-1.95.21-.23.51-.2.79-.2h6c.27-.01.57-.05.78.18Z"/><path fill="#5C9AD7" d="M26.08 27.15c-.2.17-.24.4-.24.65.02 1.22-.05 2.42.05 3.63.03.46-.2.87-.31 1.3-.28-.07-.34-.32-.44-.53a11.18 11.18 0 0 0-2.75-3.8.86.86 0 0 1-.27-.45c-.2-1.1-.06-2.21-.25-3.3-.05-.26.06-.53.42-.51 1.44.77 2.75 1.73 3.8 3.01ZM25.7 41.92c.02.35-.05.7.19 1 .24.32.1.48.06.7-.25 1.31-.03 2.64-.09 3.96 0 .05.08.1.11.13a10.3 10.3 0 0 1-3.07 2.65c-.22.13-.45.24-.65.37-.18-.16-.17-.36-.13-.55a6.69 6.69 0 0 0-.17-3.04c.2-.33.46-.62.75-.86a11.04 11.04 0 0 0 2.6-3.83c.08-.22.1-.5.4-.53Z"/><path fill="#5C90CA" d="M45.78 30.48c0 .98-.26 1.95-.08 2.93.02.1-.07.3.07.32.63.12.17.4.12.64-1.67-1.4-3.58-1.66-5.64-1.25l-.47.08c-.2-.25-.01-.44.18-.53.58-.23.54-.68.47-1.14-.05-.4-.15-.8-.3-1.17a8.85 8.85 0 0 1 5.65.12Z"/><path fill="#5D9DDB" d="M22.27 24.12c-.24.2-.3.39-.21.75.15.68.06 1.42.12 2.14.02.32.12.66.05 1-.26.06-.42-.11-.6-.23a11.19 11.19 0 0 0-3.83-1.86c-.23-.06-.48-.09-.62-.33.17-.4.05-.83.24-1.25.3-.66.16-1.32-.36-1.87 1.84.15 3.63.72 5.21 1.65Z"/><path fill="#5D9CDA" d="M22 47.14c.4.32.31.79.36 1.22.05.43-.22 1.17.43 1.6-.89-.13-.44.48-.54.77-1.32.8-2.78 1.33-4.31 1.56-.2-.05-.4.1-.34-.37.14-.87.18-1.77-.04-2.64.08-.22.27-.28.46-.33 1.28-.31 2.42-.93 3.5-1.66.14-.1.27-.28.48-.15Z"/><path fill="#5B93CD" d="M40.12 30.36c.43.3.67 1.94.33 2.32-.1.14-.21 0-.32.03a.45.45 0 0 0-.35.48c-1.3.5-2.45 1.2-3.28 2.37l-.5.19c.45-.76.15-1.5.19-2.2.01-.25-.2-.12-.3-.17a7.44 7.44 0 0 1 4.23-3.02Z"/><path fill="#FEFEFE" d="M143.48 34.68c1.94.01 3.44.89 4.42 2.52a6.9 6.9 0 0 1 .12 7.15 4.95 4.95 0 0 1-4.61 2.72 4.99 4.99 0 0 1-4.54-2.75 7.1 7.1 0 0 1 1.07-8.27 4.98 4.98 0 0 1 3.54-1.37ZM122.53 41c-.03 3-1.66 5.25-4.3 5.9a5.87 5.87 0 0 1-7.29-5.14c-.21-2.1.22-4 1.78-5.5a5.57 5.57 0 0 1 5.69-1.24c2.1.63 3.4 2.22 3.95 4.37.12.53.18 1.06.17 1.6ZM169.02 39.1c-1.4 0-2.8-.02-4.2 0-.41.02-.57-.04-.45-.51.53-1.97 1.49-3.57 3.61-4.08 2.68-.64 4.99.9 5.65 3.68.21.91.21.91-.71.91h-3.9ZM22 47.14c-1.33 1-2.83 1.71-4.44 2.14-.83.06-1.66.25-2.5.25a11.44 11.44 0 0 1-11.32-9.49c-.66-3.62-.12-7.02 2.05-10.04a10.76 10.76 0 0 1 7.95-4.55c1.16-.14 2.3 0 3.46.13 1.85.4 3.56 1.25 5.04 2.43a13.23 13.23 0 0 1 3.34 4.72c.52 1.61.87 3.26.84 4.97a16.26 16.26 0 0 1-.71 4.22 12.82 12.82 0 0 1-3.48 5.05l-.23.17Z"/><path fill="#5C90CA" d="M46.58 33.06c-.75-.45-.34-.92-.22-1.37.63.44.25.91.22 1.37Z"/><path fill="#FEFEFE" d="M70.02 40.02h-7.56c-1.56-.01-3.11-.03-4.67-.01-.44 0-.52-.11-.44-.56a8.63 8.63 0 0 1 3.2-5.56c1.8-1.43 5.13-1.53 7.2-.2l.7.45a8.42 8.42 0 0 1 2.56 4.9c.17.94.18.94-.76.95l-.23.03Z"/><path fill="url(#a)" d="M0 22.74h1.68c-.54-.72-1.14-.72-1.68 0Z" transform="translate(14.07)"/><path fill="url(#b)" d="M124.97 15.4c-.64-.47-1.2-.97-1.36-1.84a4.5 4.5 0 0 0-.77-1.8h-.02a3.13 3.13 0 0 0-.6-1.06v-.02a8.33 8.33 0 0 0-1.54-2.05h-.02a3.3 3.3 0 0 0-.7-.72v-.02c-.05-.1-.22-.26-.24-.19l-.14-.13v-.01c-.14-.3-.4-.47-.66-.63l-.05-.02a5.16 5.16 0 0 0-1.06-.84l-.12-.08c-.44-.4-.93-.7-1.44-.96a.67.67 0 0 0-.38-.23h-.02.02a.82.82 0 0 0-.45-.26v-.01c-.68-.45-1.4-.8-2.18-1.07l-.03-.01c-.17-.12-.36-.2-.57-.23-.2-.15-.43-.24-.68-.26h-.01c-.4-.15-.71-.37-1.23-.22v-.02c-.66-.27-1.34-.48-2.05-.62h-.01c-.7-.25-1.42-.43-2.14-.54l-.01.01v-.04a3.69 3.69 0 0 0-1.19-.25h-.02c-.86-.24-1.73-.4-2.61-.47a5.45 5.45 0 0 0-1.58-.24h-.03c-.26-.13-.54-.1-.8-.1h-.01c-.8-.15-1.6-.23-2.4-.23V.22A5.67 5.67 0 0 0 96.3.1v.02c-.77-.1-1.52-.14-2.28-.11h-2.76l.4.21v.05l-.02-.05c-.55.24-1.14.04-1.7.14h-1.33c-.88-.03-1.76 0-2.63.1l-.71.03c-.45-.04-.9 0-1.33.1-.74-.05-1.44.07-2.16.14a1.08 1.08 0 0 0-.49.03l-.15.05-.45.03c-.42-.03-.8.06-1.2.13a9.1 9.1 0 0 0-1.8.22c-.68.02-1.37.1-2.04.25-.84.07-1.67.2-2.5.37l.03.04a.1.1 0 0 0-.05-.03l-3.36.6-.6.12c-.29.06-.01-.53-.45-.36-.43.17-.9.22-1.35.33-.58.06-1.14.21-1.67.44-.3.01-.53.22-.8.3h-.03c-.37-.36-.76-.07-1.13-.02l-.01.02c-.34.11-.72.1-1 .34h-.03c-.39.07-.66.4-.86.61v.02c-.81.19-1.63.36-2.4.67-.5.08-.98.21-1.44.4-.93.22-1.86.51-2.77.85-.22.02-.42.08-.6.2l.01.03-.01.02.01-.02v-.03l-.35.08-.1-.15-.02-.01c.09-.09.25-.09.3-.28l-.77.16.06.02a.1.1 0 0 1-.06-.02l-.98.22h.04-.16l-.01.02v-.02c-.22.03-.41.12-.58.26l.01.01-.5.31-.57.2c-.02 0-.04 0-.07.03-1 .28-1.99.65-2.93 1.1h-.02l-1.26.33c-.2.05-.53-.02-.47.34.06.36.35.12.52.18l.03-.01-.02.02-.01.09h-.02l-.3.15h-.02l-2.28.98-.38.18-.58.3-.01.03v-.04l-.86.24-.46.12c-.22.02-.5-.09-.6.22h-.03l-.1.04c-.03-.01-.07-.02-.09-.01v-.01c-.23-.1-.43-.04-.8.1h.55l-.16.25c-.25-.14-.33 0-.36.2-.13.13-.31.12-.48.13l-.01.04v-.01c-.06-.2-.17-.08-.28-.06-.68.08-.96.75-1.51 1.02-.2-.1-.34.01-.48.12-.54.07-1.12.03-1.45.59l-.5.2a3.1 3.1 0 0 0-1.4.65c-.02 0-.02.01-.04.04-.16.1-.5.02-.46.38.18-.07.4-.08.49-.29l1.3-.5h.03l.1.19.06-.02c-.02 0-.03.02-.04.03l-.7.41-.03.02v-.02a20.9 20.9 0 0 0-3.36 1.78l-.02.02-.42.28c-.04.05-.14.12-.08.17.06.05.18.02.28.04l-1.59 1.11-.15-.03c-.4-.18-.87-.15-1.24.07-.25.16-.52.26-.8.32.38-.34.82-.6 1.24-.89.16-.1.38-.06.5-.22.52-.09 1.04-.2 1.34-.71.14-.03.28-.11.34-.24.25-.15.63-.1.7-.5-.3 0-.5.17-.72.35v.01l-.46.23c-.41.24-.86.41-1.2.74l-.6.22c-.79.18-1.6.3-1.91 1.22-.14.02-.33.03-.35.18-.03.14.1.17.21.2l.11-.13c.01.02.05.06.1.07l.1.01-.16.28c.07.5.33.88.7 1.22.53.16.9-.22 1.33-.44.03-.03.08-.08.1-.12l.77-.23.03.04c.06.13-.04.24-.05.37l-1.1.5-.95.25c0 .13.02.25.2.2l.89-.3.06-.02.06-.03c.4-.04.82-.14 1.2-.3.04 0 .08-.02.13-.04h.05l.05-.03.01-.01c.2-.01.4-.08.56-.2.02 0 .03 0 .03-.02h.01l.44-.13.03-.01c.14-.06.42-.06.14-.34l.11-.12c.12-.01.25-.01.35-.12l-.01-.01.02.01c1.15-.31 2.3-.7 3.39-1.2.87-.16 1.58-.75 2.47-.87h.01c.93-.16 1.89-.22 2.78-.57.33-.02.67-.1.97-.24h-.05l.04-.02c.64-.1 1.28-.25 1.9-.48a.59.59 0 0 1-.15-.15c.05.06.1.1.18.14 1.08-.22 2.16-.5 3.2-.83h.03l.06.01.05-.02-.04-.04.04.03c.1.02.2-.01.27-.09 1.01-.18 2-.42 2.98-.7l1.9-.41v-.03.04c.13 0 .25-.01.37-.03 1.12-.24 2.24-.38 3.37-.44.12 0 .44-.16.36.23.09 0 .18-.03.23-.1v-.01c.55-.09 1.05-.3 1.53-.55l.06-.03a6 6 0 0 0 2.48-1.4c.42-.41.35-.79-.1-1.01h-.04l.02-.02-.1-.1 1.9-.37c.25 0 .52.03.76-.12.91-.07 1.82-.2 2.72-.38l1.91-.24v-.01h.02c.6-.05 1.2-.06 1.8-.22.32-.01.66.04.96-.1-.01 0-.03 0-.04-.02h.04l2.13-.14a.27.27 0 0 1 .14-.04l-.12.04c.19.07.42-.06.6.1l-.93.16.03.05-.04-.04a2.1 2.1 0 0 0-1.24.35l1.43-.2c.1.03.2 0 .31-.03h.1-.02s.02 0 .03-.02h1.06a.54.54 0 0 1 .2-.04l-.21.05c.2.04.4-.06.59.1l-.1.05c-.22-.02-.43-.04-.61.1h-.02l-.45.03v-.01c-.22-.02-.42-.04-.6.1l.01-.02-.02.02c-1.1.02-2.15.24-3.23.38v-.02h-.12v.03c-.16 0-.3-.03-.36.2-2.15.87-4.45 1.06-6.7 1.33l.03.06c0-.02-.02-.03-.05-.05-.26-.03-.54-.05-.82.21.48 0 .9.09 1.3-.08l-.02-.01h.04l.72-.05h.02l-.03.01c.36 0 .73.06 1.09-.08h-.04l.05-.01.95-.04h.02l-.03.01c.28.01.57.05.86-.08h-.02l.03-.02c.95 0 1.9-.06 2.85-.16.12.02.25.02.38-.02l.11-.04c1.3-.02 2.63-.16 3.94-.27l.02-.01c.27 0 .52.02.78-.04.06 0 .12-.02.2-.04.4.04.8 0 1.17-.15.11-.02.29-.06.1-.17a.57.57 0 0 0-.6.06c-.39-.1-.83.3-1.21-.1.68-.27.68-.27 1.36-.15a.23.23 0 0 1 .1-.02c.32-.03.58-.24.88-.33.21 0 .43-.01.64-.06.92-.18 1.96-.5 2.74-.45.78.03 1.59.07 2.37-.09h-.06l.06-.01 1.88-.02c.01 0 .03 0 .03.02.75 0 1.52.05 2.28-.1h-.01l1.57-.03h4.16l.04.02c.76.06 1.5.16 2.27.12.26.1.55.13.84.1h.01l1.8.25c.71.24 1.47.31 2.21.2.33-.07.67-.03 1.01-.03l.04-.04-.02.03c.04.1.14.19.25.22.26.12.52.32.84.12h-.02l1.29.11.06.01c1.37.4 2.82.35 4.2.7l.01-.01 1.4.25c.37.13.62.18 1.06.39.45.2.9.27 1.36.12l1.07.32.02-.01v.01c.34.17.7.3 1.07.37l.96.35 1.44.52.01-.02v.02c.05.07.14.1.22.1h.01l3 1.3h.02l.1.03 1.77 1 .01-.01c.48.45 1.35.62 1.01 1.62.35-.04.61-.35.88 0 .04.07.33.1.43-.06v-.01c.14.31.47.42.76.53.48.18 1.1-.33 1.06-.82 0-.22-.12-.48.2-.6v-.01c.28-.14.32-.4.37-.67h.01c.43-.13.44-.32.08-.58Zm-96.95 3.98c-.1.25-.44.27-.5.62-.11-.1-.22-.17-.22-.2.07-.3.33-.41.57-.53.24-.12.19.05.15.1Zm27.2-8.22h.02v.05l-.01-.05Zm-4.2-3.82v-.01.01Zm.85 4.88.01.03-.1.07a.31.31 0 0 1 .09-.1Zm-.02-5.18v.03h-.03l.03-.03Zm-12.2 8.56v.01-.01Zm-3.56 1.15-.12.03c.04-.05.1-.07.17-.07-.01.01-.02.04-.05.04Zm-1.96-1.22.06-.03-.01.06-.05-.03Zm-2.42 2.2a.1.1 0 0 1 .03-.05c0 .03-.02.04-.03.06Zm-.27 1.15.14-.02-.1.17c-.04-.09-.05-.15-.04-.15Zm9.03-1.94s0-.02 0 0c0-.02.02-.03.02-.03-.02 0-.02.01-.02.03Zm4.06-2.8c.02 0 .04 0 .06.02l-.04.01-.02-.02ZM52 12.53c0-.01 0-.01 0 0 0-.01 0-.01 0 0 0-.01 0-.01 0 0 0-.01 0-.01 0 0Zm17.14-1.5v.03-.03Zm12.03-9.74c.04.04.09.04.12.01l.03-.04v.04l-.02.04v-.01h-.12l-.04-.06h-.03a.17.17 0 0 0-.05-.04.4.4 0 0 1 .11.06Zm-1.02 7.97c0 .02 0 .02.02.03-.02-.01-.02-.01-.02-.03-.01.02 0 0 0 0Zm19.77.04.12.08-.05.06a.31.31 0 0 0-.09-.1c.02-.01.02-.03.02-.04Zm.7 1.03.02.02s-.02 0-.02-.02c0 .02 0 .02 0 0Zm7.41 1.09c.02 0 .02 0 .03-.02v.07l-.03-.05Zm12.15-2.19-.07-.04.04-.07.03.11Z" transform="translate(14.07)"/><path fill="url(#c)" d="M36.16 18.78c.36.18.6-.13.82-.49-.26.15-.58-.02-.82.49Z" transform="translate(14.07)"/><path fill="url(#d)" d="M58.83 4.73c.17-.01.35.07.48-.14v-.01c.2 0 .41.1.54-.24l-.54.14-.47.14-.49.18c.18.06.36.16.48-.07Z" transform="translate(14.07)"/><path fill="url(#e)" d="m55.73 13.97-.58.32c.2.29.42.38.58-.32Z" transform="translate(14.07)"/><path fill="#E8EEF5" d="M66.64 6.4h.12c.42.03.81-.1 1.22-.15.1-.03.18-.04.24.06l.12.15c0 .2-.19.2-.3.28-.25.1-.49.2-.74.26-.25.04-.48.12-.71.23a.6.6 0 0 1-.5.09.9.9 0 0 1-.18-.18c-.03-.17.07-.27.19-.35.12-.09.37-.23.54-.39Z"/><path fill="#F0F4F8" d="M78.78 3.5c-.52.07-1 .41-1.56.25.06-.33.43-.27.57-.48.37-.05.76-.34 1.13 0l-.14.24Z"/><path fill="#F7F8FA" d="M87.65 9.67c.55-.38 1.13-.25 1.7-.27.02.05.03.1.02.16l-.04.08-.12.3h-.96c-.18-.43-.4-.2-.6-.27Z"/><path fill="#5C80B2" d="M138.56 16.7c-.2-.1-.44-.19-.33-.49.11-.3.34-.32.6-.2h.1c-.05.28-.09.55-.37.68Z"/><path fill="#E1E7F1" d="m88.02 9.3-1.08.2c-.18-.33-.42-.08-.61-.22.42-.34.86-.18 1.3-.25.14.02.33-.28.4.27Z"/><path fill="#ADC3DC" d="M76.03 11.83c.12.36.32.1.47.28-.4.36-.82.18-1.3.18.29-.56.56-.51.83-.46Z"/><path fill="#96BADB" d="M50.23 18.81c.24-.5.55-.33.81-.48-.21.36-.45.67-.81.48Z"/><path fill="#BFD8EC" d="m40.86 19.22-.17.21c-.16-.03-.34-.07-.3-.28.03-.2.3-.22.49-.25.18-.04 0 .22-.02.32Z"/><path fill="#B0C1D9" d="M114.32 10.37h.36c.15.13.36-.22.48.32-.32.52-.58 0-.84-.32Z"/><path fill="#ADCCE7" d="M43.24 17.45v.19c-.12.26-.34.2-.5.35l-.1-.19.6-.35Z"/><path fill="#D6E1EE" d="M73.75 10.73h.34l.12.24c-.15.3-.33.4-.52.19-.2-.22.04-.3.06-.43Z"/><path fill="#C3D4E6" d="M72.94 4.85c-.13.48-.33.27-.53.15l.54-.39c.04.06.05.12.04.18l-.05.06Z"/><path fill="#97B3D3" d="m73.37 4.67.54-.3c-.13.72-.34.51-.54.51-.19 0-.04-.12-.03-.15l.03-.06Z"/><path fill="#97B3D5" d="m69.2 14.32.59-.32c-.16.7-.38.61-.58.32Z"/><path fill="#A0B9D8" d="M73.4 4.5v.23c-.14.44-.33.26-.5.29-.18.03 0-.18.01-.23l.49-.3Z"/><path fill="#CEDAE9" d="M88.02 9.46c-.1-.36-.26-.24-.4-.33a.8.8 0 0 0 .05-.2h.74c.06.17.19.03.24.3-.2.31-.42.23-.63.23Z"/><path fill="#F6F8FA" d="m120.92 10.61.5.34c-.4.23-.62-.06-.86 0-.43-.18-.9-.22-1.36-.23-.21-.01-.4-.05-.51-.2-.11-.14.13-.1.18-.17.04-.08.13-.18.26-.12l1.32.22c.2-.1.36-.08.47.16Z"/><path fill="#A1B5D2" d="m119.13 10.38-.26.27c-.1-.44-.38-.03-.46-.52.24.05.5-.2.72.25Z"/><path fill="#7B97BF" d="M103.2 8.47c-.2.51-.36.66-.63.31.18-.51.4-.31.63-.31Z"/><path fill="#9DB4D1" d="M91.5 8.94c-.3.46-.63.15-.95.23.2-.86.56-.35.85-.45.04.05.08.12.1.22Z"/><path fill="#D4DDEC" d="M89.95 9.04c-.26.3-.57.1-.85.25V9.2c-.03-.04-.05-.12-.03-.18.03-.1.1-.13.16-.19s.52-.23.72.2Z"/><path fill="#CEDAEA" d="m91.5 9.18-.1-.4.1-.13.48.09c-.12.75-.32.3-.48.44Z"/><path fill="#D2DFEC" d="m71.21 11.19.13.04c.33.19.64-.12.95-.02.11.13.17.3-.02.34-.2.04-.38.04-.58.04-.45-.23-.91.4-1.38 0 .23-.3.55-.08.78-.38l.12-.02Z"/><path fill="#E2E9F2" d="M72.3 11.33c-.3.38-.66.38-.96.03l.47-.28c.16.08.36-.17.48.25Z"/><path fill="#FEFEFE" d="m88.74 8.9.36.07v.34l-.47.12-.24-.41.35-.13Z"/><path fill="#9AB0CE" d="M123.32 11.6c-.1-.16-.2-.23-.23-.52.23-.02.42.18.63.36-.12.29-.27.13-.4.16Z"/><path fill="#E7EEF6" d="m62.33 8.69-.83.21c.01-.3.38-.33.47-.6.31.06.65-.08.93.12-.22.03-.4.16-.57.27Z"/><path fill="#DCE6F1" d="M63.65 8.14c.17-.29.36-.46.6-.29-.06.34-.29.2-.36.47h-.24l-.04-.09.04-.09Z"/><path fill="#CADAEB" d="M63.75 7.98v.13c-.13.3-.4.25-.58.4.04-.47.32-.5.58-.53Z"/><path fill="#AAC3DF" d="M60.78 13.82c.15-.5.38-.27.58-.34-.14.44-.38.3-.57.54l-.01-.2Z"/><path fill="#F6F8FB" d="M65.93 12.28c.97-.14 1.93-.35 2.88-.61.13-.1.29-.15.46-.12.12.03.26.05.25.24v.04c-1.15.26-2.28.7-3.5.72l-.45-.06.36-.2Z"/><path fill="#D9E5EF" d="M64.62 7.87c0-.47.34-.33.47-.54v.07c.06.05.14.05.16.19-.2.2-.41.28-.63.28Z"/><path fill="#FDFEFE" d="m66.05 7.32-.12.08-.34.2c-.13.1-.14-.02-.13-.2l.12-.23.33-.07.14.22Z"/><path fill="#EBF1F6" d="m65.52 7.26.15.24c-.11.19-.25.3-.39.3l-.2-.27.44-.27Z"/><path fill="#D8E2EE" d="M81.54 3.14h-.65c.14-.29.37-.3.53-.46.15-.15.31-.08.36.14.05.21-.24.1-.24.32Z"/><path fill="#A4BBD7" d="M82.77 2.63c-.23.36-.38.64-.58.28.1-.53.3-.36.58-.28Z"/><path fill="#A8BCD7" d="M94.26 9.02c-.24-.1-.49.46-.7-.46h.7v.46Z"/><path fill="#E9EFF5" d="M69.3 11.63c.17-.02.36.07.5-.18.16-.02.32.04.45.18-.21.26-.48.26-.73.36l-.26-.21c-.03-.04-.02-.1 0-.13 0-.02.03-.02.04-.02Z"/><path fill="#CFDAE8" d="m89.33 9.78.01-.25c0-.08.01-.17.03-.25h.79c-.29.62-.55.56-.83.5Z"/><path fill="#819DC4" d="M91.3 9.4a.86.86 0 0 1-.28.26c-.1.08-.22.02-.27-.09-.02-.03-.02-.05-.02-.1-.04-.26.11-.29.23-.29.12-.08.28.03.34.23-.02-.03 0 0 0 0Z"/><path fill="#FEFDFE" d="m50.06 14.4-.45.31-.13-.33c.06-.2.19-.13.29-.2h.14c.15-.05.16.05.15.22Z"/><g fill="#D6E3F1"><path d="M52.84 15.92c-.27.04-.57 0-.7.34.26-.01.51-.06.7-.26.26.01.5-.06.71-.22-.26-.14-.5-.01-.7.14ZM56.93 14.57l-.12.12h-.35c-.1.15-.42.04-.38.36l.73-.26.72-.19.14-.15-.74.12ZM54.64 15.32c-.24.14-.57.04-.73.4l.6-.11.1-.1h.03c.2-.05.42-.03.48-.33h-.24l-.24.14ZM44.32 19.18c.24.02.5.07.61-.35l-.13-.18c-.13.23-.41.16-.48.53ZM46.2 18.29l.16.2c.1-.28.48-.04.46-.55-.23.04-.44.17-.62.35ZM48 17.82c.23.28.41.1.57-.34-.2-.09-.43-.18-.58.34ZM51.52 16.68l.23-.43a1 1 0 0 0-.74.39c.16.33.34 0 .51.04ZM49.84 16.86l-.36.12c-.18.16-.55-.02-.6.35.26 0 .53-.08.75-.23.13.02.26-.03.36-.12.15 0 .3 0 .28-.23l-.43.11Z"/></g><path fill="#EAF1F7" d="m49.96 14.47-.13-.17.25-.29.23-.05c.13-.08.16.02.13.17l-.48.34Z"/></g></svg>